<svg width="20" height="20" viewBox="0 0 20 20" fill="none" xmlns="http://www.w3.org/2000/svg">
<g clip-path="url(#clip0_646_85)">
<path d="M19.361 2.65411C18.5612 0.0172237 16.128 0.417902 13.8602 0.426769C10.7294 0.438936 6.36127 -0.647103 3.5659 1.21596C1.64695 2.49491 0.888181 5.27605 0.436773 7.38193C-0.146922 10.1045 -0.180948 13.0496 0.551533 15.7439C1.0515 17.5831 2.71103 19.9971 4.8232 19.6175C6.18103 19.887 7.54454 19.9147 8.94279 19.8448C10.7168 19.7565 12.797 19.7237 14.4785 19.1315C14.5275 19.1142 14.5684 19.0831 14.6049 19.0473C15.1189 18.9805 15.6337 18.9006 16.1502 18.7934C18.6418 18.2769 19.118 15.9154 19.4131 13.7284C19.911 10.0363 20.4608 6.27826 19.361 2.65411ZM2.03753 5.90377C2.03031 5.94141 2.0301 5.97925 2.03444 6.01657C1.97608 6.31425 1.91803 6.61192 1.86719 6.9097C1.85843 6.92795 1.8474 6.94321 1.84152 6.96517C1.69181 7.53041 1.55715 8.09678 1.43331 8.66398C1.4296 8.66676 1.42537 8.66893 1.42177 8.67182C1.5389 7.9084 1.67851 7.22717 1.81265 6.69616C1.88008 6.42942 1.9603 6.14329 2.05031 5.85108C2.04671 5.86923 2.04093 5.88552 2.03753 5.90377ZM4.10908 15.9375C4.06742 15.858 4.02814 15.7771 3.9839 15.6996C4.05783 15.7269 4.12959 15.7573 4.20012 15.7902C4.35653 15.984 4.50573 16.1832 4.64926 16.3867C4.45892 16.2481 4.28013 16.0969 4.10908 15.9375ZM6.43478 4.0236C6.40777 3.94534 6.38179 3.86677 6.35735 3.78768C6.52511 3.71974 6.69245 3.65086 6.86041 3.58353C6.72586 3.7351 6.58481 3.88244 6.43478 4.0236ZM6.97033 5.62878C7.14685 5.4203 7.31234 5.20614 7.46937 4.98673C7.51041 4.95714 7.55237 4.92858 7.59259 4.89795C7.43524 5.13438 7.2879 5.37875 7.14448 5.6261C7.08643 5.62693 7.02838 5.62817 6.97033 5.62878ZM8.92144 12.2365C8.93165 11.9838 8.94825 11.7323 8.9466 11.4771C8.94598 11.3896 8.91567 11.3258 8.87298 11.2779C8.94423 11.2749 9.01754 11.2761 9.08724 11.27C9.01177 11.5892 8.96124 11.9121 8.92144 12.2365ZM14.1211 10.0376C13.7139 10.0562 13.6372 10.5296 13.88 10.7341C13.6373 11.5016 13.6681 12.3166 13.6301 13.1427C13.5716 14.416 13.6055 15.6902 13.6764 16.9621C12.4534 17.0555 11.2256 17.1764 9.99748 17.3023C10.0834 16.6635 9.93747 15.8835 9.92696 15.3375C9.90252 14.0673 9.8423 12.762 10.0327 11.5016C10.0586 11.3303 10.0309 11.1705 9.92458 11.0493C10.212 10.8409 10.1728 10.4172 9.80292 10.2709C9.15653 10.0154 8.26753 10.1075 7.5102 10.1442C7.35977 9.39883 7.364 8.56108 7.52175 7.81973C8.06977 7.78808 8.61748 7.74003 9.16437 7.69899C9.46575 7.67641 9.58433 7.41823 9.52947 7.20211C9.53917 7.185 9.55144 7.16891 9.55845 7.15076C9.73734 6.68585 9.76209 6.20258 9.90582 5.72509C10.1661 4.86022 10.9037 4.14733 11.5996 3.62065C12.9173 2.62297 14.6004 2.31241 16.2 2.57338C16.2701 3.33473 16.3877 4.08783 16.4868 4.84475C16.2865 4.83073 16.0828 4.83856 15.9022 4.84186C15.3067 4.85289 14.716 4.95136 14.1211 4.97085C13.8489 4.97982 13.6106 5.19418 13.6151 5.4768C13.6219 5.90821 13.7246 6.34838 13.7734 6.78122L13.7735 6.78143C13.5981 7.0392 13.7102 7.47586 14.1211 7.48875C14.5886 7.50339 15.0556 7.5137 15.5233 7.50051C15.7639 7.4937 16.065 7.48731 16.3458 7.43792C16.2623 7.82891 16.2688 8.25268 16.2541 8.64583C16.2382 9.07054 16.2384 9.50338 16.2569 9.93489C16.0881 9.94355 15.9192 9.95562 15.7518 9.96325C15.2083 9.9881 14.6647 10.0128 14.1211 10.0376ZM16.3364 11.699C16.3201 11.5378 16.3116 11.3784 16.2919 11.2162C16.2766 11.0878 16.1895 10.9861 16.083 10.9279C16.1688 10.9335 16.2546 10.9399 16.3404 10.9428C16.3452 10.9814 16.3477 11.0207 16.3529 11.0592C16.3653 11.1509 16.4145 11.2195 16.4811 11.2662C16.4311 11.4105 16.3814 11.5548 16.3364 11.699ZM18.1357 14.029C18.0119 14.9439 17.8052 15.6458 17.486 16.1864C17.7243 15.4406 17.9465 14.6937 18.1477 13.9443C18.1438 13.972 18.1393 14.001 18.1357 14.029Z" fill="#FFD4E4"/>
</g>
<defs>
<clipPath id="clip0_646_85">
<rect width="20" height="20" fill="white"/>
</clipPath>
</defs>
</svg>
