<svg width="20" height="20" viewBox="0 0 20 20" fill="none" xmlns="http://www.w3.org/2000/svg">
<g clip-path="url(#clip0_646_88)">
<path d="M11.4641 9.18927C11.1859 8.6109 10.2911 7.93731 9.71617 8.41317C8.88579 8.41718 8.39877 9.37757 8.44525 10.1801C8.51676 11.4141 9.86807 11.905 10.9129 11.4783C11.8514 11.095 11.8418 9.97359 11.4641 9.18927ZM10.1942 11.2039C10.3276 11.1838 10.4608 11.1442 10.5899 11.0849C10.6044 11.0971 10.6198 11.1072 10.6353 11.1179C10.4936 11.1725 10.3442 11.2004 10.1942 11.2039Z" fill="#FFD4E4"/>
<path d="M14.1874 6.56021C14.194 6.35728 14.1823 6.15391 14.1682 5.96343C14.1592 5.84154 14.0733 5.74002 13.9446 5.7397C13.6961 5.73894 12.8959 5.64207 12.6228 5.87145C12.5466 5.78769 12.3827 5.81727 12.3731 5.96354C12.3353 6.5341 12.3096 7.10423 12.3055 7.67609C12.3048 7.76547 12.3701 7.8619 12.4611 7.88054C12.5765 7.90405 12.6965 7.92258 12.817 7.93233C12.8251 7.94576 12.835 7.95844 12.8471 7.96982C13.1269 8.2357 13.6763 8.03277 14.0026 7.98195C14.0738 7.97079 14.1387 7.89625 14.1551 7.82929C14.2557 7.42201 14.2791 6.97215 14.1874 6.56021Z" fill="#FFD4E4"/>
<path d="M14.454 9.58063C14.4387 9.4543 14.3413 9.38387 14.2407 9.3699C14.3691 9.23533 14.2509 8.95059 14.0209 9.00531C13.6985 9.08191 13.3681 9.08343 13.0432 9.01896C12.9236 8.99523 12.8393 9.07324 12.8159 9.16382C12.7764 9.2116 12.7568 9.2765 12.7773 9.35484C13.2927 11.3265 12.2383 12.93 10.1532 12.9687C8.19538 13.0051 6.94234 11.5107 7.34052 9.61C7.35438 9.5439 7.34593 9.4556 7.28764 9.40999C7.28764 9.40999 7.28017 9.40305 7.27063 9.39438C7.31224 9.3219 7.31494 9.22666 7.24311 9.1467C7.23661 9.13955 7.22892 9.13413 7.22187 9.12774C7.23704 9.09188 7.24885 9.05352 7.25286 9.00986C7.26077 8.92394 7.17485 8.85145 7.09457 8.85156C7.00908 8.85167 6.9392 8.87735 6.87061 8.91061C6.85176 8.90259 6.83171 8.89598 6.80907 8.89306C6.38478 8.83769 5.99484 8.9598 5.57228 8.99166C5.45949 9.00011 5.36306 9.08007 5.36371 9.20022C5.36761 9.83449 5.37043 10.4688 5.37585 11.103C5.37476 11.1448 5.38733 11.1774 5.40467 11.2052C5.42352 12.1143 5.69905 13.0697 6.07837 13.6708C6.86584 14.9185 8.73863 14.8187 10.0279 14.8916C11.1293 14.9538 13.4878 15.2541 14.1555 14.0726C14.8344 12.8714 14.6109 10.8919 14.454 9.58063ZM13.2425 13.1327C13.2392 13.1296 13.2361 13.1255 13.2325 13.1224C13.2903 12.9128 13.3402 12.7018 13.3805 12.4882C13.3912 12.4599 13.4021 12.4315 13.4132 12.4031C13.4084 12.4419 13.4025 12.4803 13.3972 12.5189C13.3429 12.7228 13.2913 12.9275 13.2425 13.1327ZM12.8068 14.3531C12.9087 14.3 13.0063 14.2352 13.0976 14.156L13.126 14.1655C13.1488 14.1731 13.1702 14.1757 13.1911 14.1759C13.2047 14.1952 13.2221 14.2114 13.2415 14.2252C13.0998 14.2982 12.9435 14.354 12.777 14.3959C12.7889 14.3827 12.7993 14.3692 12.8068 14.3531ZM6.94385 9.50078C6.91362 9.6075 6.89022 9.7126 6.87039 9.81661C6.864 9.74933 6.85598 9.68194 6.84602 9.61444C6.886 9.56893 6.90431 9.50468 6.89531 9.4452C6.91753 9.45094 6.93952 9.45744 6.96011 9.46611C6.95447 9.47738 6.94754 9.48767 6.94385 9.50078ZM10.0497 14.4473C10.1991 14.4375 10.3486 14.4282 10.498 14.4174C10.4982 14.434 10.499 14.4499 10.5021 14.4663C10.4108 14.461 10.3233 14.4566 10.2415 14.4535C10.1794 14.4509 10.1148 14.4491 10.0497 14.4473Z" fill="#FFD4E4"/>
<path d="M17.0797 3.19387C16.003 1.83909 14.5415 0.801224 12.8859 0.293073C11.1885 -0.227971 9.24833 0.0122362 7.57175 0.495142C4.23682 1.45597 1.68176 4.11493 0.784102 7.44933C0.444323 8.71114 0.375848 9.96722 0.537286 11.1833C0.537286 11.1883 0.535335 11.1922 0.53566 11.1975C0.558197 11.469 0.607928 11.7253 0.674671 11.9722C1.01228 13.5138 1.72358 14.9761 2.74454 16.2828C4.50823 18.5401 7.54445 20.4468 10.4848 19.7561C10.4831 19.9 10.5965 20.045 10.7719 19.9868C14.2852 18.8228 17.5186 16.8161 18.9298 13.243C20.2775 9.83222 19.3044 5.99303 17.0797 3.19387ZM0.935572 11.0259C0.905668 10.7694 0.886923 10.5123 0.880531 10.2551C0.884106 10.2808 0.887899 10.3065 0.891799 10.3321C0.906426 10.5724 0.932104 10.8101 0.962767 11.0458C0.953991 11.0388 0.944456 11.0326 0.935572 11.0259ZM1.93389 9.82073C1.92294 9.85919 1.91178 9.89744 1.90041 9.93569C1.89727 9.86028 1.89391 9.78487 1.89326 9.70924C1.90756 9.65929 1.92154 9.60935 1.93551 9.55929C1.93389 9.6464 1.93302 9.73351 1.93389 9.82073ZM9.65268 18.2495C9.50749 18.2206 9.36231 18.1919 9.21712 18.1636C9.36328 18.1762 9.50934 18.1921 9.6555 18.2066C9.65257 18.221 9.6529 18.2353 9.65268 18.2495ZM15.4201 17.0476C15.5025 17.0148 15.5844 16.9793 15.6656 16.9412C15.5981 16.9958 15.5318 17.0519 15.4629 17.1051C15.4517 17.0838 15.4369 17.0645 15.4201 17.0476ZM10.4526 3.71545C10.5378 3.71913 10.6225 3.72488 10.7072 3.73138C10.707 3.73203 10.7067 3.73257 10.7065 3.73311C10.5205 3.74232 10.3349 3.75543 10.1499 3.77342C10.251 3.75511 10.3517 3.73528 10.4526 3.71545ZM3.24424 14.3178C3.20101 14.1709 3.15832 14.0236 3.1139 13.8772C3.18801 14.052 3.26591 14.2255 3.34598 14.3981C3.3125 14.3712 3.27826 14.3446 3.24424 14.3178ZM3.70678 5.65444C3.67427 5.67784 3.64079 5.69995 3.60742 5.72227C3.59334 5.71111 3.57904 5.70038 3.56257 5.6929C3.63733 5.62573 3.7096 5.55649 3.7823 5.48737C3.75543 5.54198 3.73072 5.59799 3.70678 5.65444ZM4.14916 12.9511C4.15079 12.8768 4.1509 12.8026 4.15285 12.7281C4.15902 12.7389 4.16346 12.7502 4.16975 12.7607C4.17257 12.7654 4.17625 12.7678 4.1795 12.7717C4.19727 12.894 4.21959 13.0153 4.24537 13.1354C4.21287 13.0743 4.18134 13.0125 4.14916 12.9511ZM5.32668 14.4577C4.34018 13.4289 4.52079 11.6096 4.60325 10.3141C4.68613 9.01354 4.89297 7.66028 4.68765 6.36054C4.71138 6.29694 4.74226 6.23952 4.77205 6.18112C4.91897 6.0148 5.05571 5.84101 5.17771 5.65715C6.06887 4.87228 7.72713 4.84617 8.78677 4.81052C10.2966 4.75981 11.9176 4.61224 13.403 4.91898C15.2053 5.29115 15.5459 6.9142 15.5252 8.53335C15.5039 10.2089 15.5855 11.9615 15.1272 13.5882C14.5427 15.6619 12.3597 15.5977 10.5667 15.5732C9.62938 15.5604 8.69315 15.4834 7.76071 15.3925C6.85027 15.3039 5.98403 15.1434 5.32668 14.4577ZM8.12584 19.285C8.53247 19.3429 8.9404 19.3916 9.34941 19.4344C8.93401 19.4204 8.52532 19.3705 8.12584 19.285Z" fill="#FFD4E4"/>
</g>
<defs>
<clipPath id="clip0_646_88">
<rect width="20" height="20" fill="white"/>
</clipPath>
</defs>
</svg>
