<svg width="28" height="28" viewBox="0 0 28 28" fill="none" xmlns="http://www.w3.org/2000/svg">
<path d="M4.72571 10.4073C4.74918 10.115 4.8819 9.84215 5.09746 9.64325C5.31301 9.44434 5.59558 9.33392 5.88888 9.33398H22.1102C22.4035 9.33392 22.6861 9.44434 22.9016 9.64325C23.1172 9.84215 23.2499 10.115 23.2734 10.4073L24.2965 23.1473C24.3223 23.4684 24.2813 23.7913 24.1762 24.0957C24.071 24.4002 23.904 24.6796 23.6856 24.9163C23.4672 25.153 23.2021 25.3419 22.9071 25.4712C22.6121 25.6004 22.2935 25.6672 21.9714 25.6673H6.02771C5.70562 25.6672 5.38704 25.6004 5.09202 25.4712C4.79701 25.3419 4.53194 25.153 4.31353 24.9163C4.09511 24.6796 3.92806 24.4002 3.82291 24.0957C3.71776 23.7913 3.67678 23.4684 3.70255 23.1473L4.72455 10.4073H4.72571Z" stroke="#1F1F1F" stroke-width="2" stroke-linecap="round" stroke-linejoin="round"/>
<path d="M18.6663 12.834V7.00065C18.6663 5.76297 18.1747 4.57599 17.2995 3.70082C16.4243 2.82565 15.2374 2.33398 13.9997 2.33398C12.762 2.33398 11.575 2.82565 10.6998 3.70082C9.82467 4.57599 9.33301 5.76297 9.33301 7.00065V12.834" stroke="#1F1F1F" stroke-width="2" stroke-linecap="round" stroke-linejoin="round"/>
</svg>
