<svg width="256" height="173" viewBox="0 0 256 173" fill="none" xmlns="http://www.w3.org/2000/svg">
<path d="M18.7205 64.068C19.4405 64.068 20.1425 63.942 20.8265 63.69C21.5105 63.438 22.1945 63.15 22.8785 62.826C23.7785 62.394 24.5885 61.89 25.3085 61.314C26.0285 60.774 26.6585 60.054 27.1985 59.154C27.7385 58.29 28.1525 57.21 28.4405 55.914C28.7645 54.618 28.9625 53.016 29.0345 51.108L28.9805 50.19C28.9445 49.938 28.9265 49.704 28.9265 49.488C28.9265 49.236 28.9265 48.966 28.9265 48.678C28.9265 48.426 28.9265 48.192 28.9265 47.976C28.9265 47.724 28.9085 47.472 28.8725 47.22C28.7645 44.844 27.8465 43.656 26.1185 43.656C25.6865 43.656 25.1465 43.746 24.4985 43.926C23.2385 44.322 21.9605 44.664 20.6645 44.952C19.3685 45.204 18.0725 45.42 16.7765 45.6C16.2365 45.672 15.8765 45.834 15.6965 46.086C15.5525 46.302 15.4805 46.644 15.4805 47.112L15.2105 56.022H15.2645C15.2645 56.958 15.2645 57.894 15.2645 58.83C15.2645 59.766 15.2825 60.702 15.3185 61.638C15.3545 62.43 15.4985 62.952 15.7505 63.204C16.0025 63.492 16.5245 63.726 17.3165 63.906C17.7845 64.014 18.2525 64.068 18.7205 64.068ZM15.8045 40.038C16.3085 39.786 16.7945 39.57 17.2625 39.39C17.7665 39.174 18.2705 38.94 18.7745 38.688C20.2865 37.968 21.5285 37.032 22.5005 35.88C23.5085 34.692 24.2105 33.288 24.6065 31.668C25.0745 29.688 25.4345 27.726 25.6865 25.782C25.9745 23.802 26.1185 21.804 26.1185 19.788C26.1185 18.672 26.0645 17.556 25.9565 16.44C25.8485 15.324 25.7045 14.19 25.5245 13.038C25.3805 12.318 25.1825 11.634 24.9305 10.986C24.6785 10.302 24.3545 9.65404 23.9585 9.04205C23.3465 8.21405 22.6265 7.60205 21.7985 7.20604C21.0065 6.77405 20.1425 6.55805 19.2065 6.55805C18.2705 6.55805 17.4245 6.73805 16.6685 7.09805C16.3805 7.24205 16.1825 7.40405 16.0745 7.58405C15.9665 7.72805 15.9125 7.94405 15.9125 8.23204L15.5345 13.416C15.4625 14.64 15.4085 15.846 15.3725 17.034C15.3725 18.222 15.3725 19.428 15.3725 20.652C15.3725 23.424 15.4085 26.178 15.4805 28.914C15.5525 31.65 15.5885 34.422 15.5885 37.23V39.282C15.5885 39.354 15.6065 39.462 15.6425 39.606C15.6785 39.714 15.7325 39.858 15.8045 40.038ZM13.3205 69.36C12.2045 69.36 11.0885 69.324 9.97252 69.252C8.89252 69.18 7.81252 69.018 6.73252 68.766C5.90452 68.586 5.13052 68.334 4.41052 68.01C3.72652 67.686 3.02452 67.362 2.30452 67.038C1.58452 66.678 1.11652 66.174 0.900516 65.526C0.720516 64.914 0.630516 64.248 0.630516 63.528C0.594516 61.908 0.558516 60.288 0.522516 58.668C0.486516 57.084 0.468516 55.482 0.468516 53.862L0.900516 36.366C0.900516 34.314 0.882516 32.262 0.846516 30.21C0.810516 28.122 0.756516 26.052 0.684516 24L0.630516 20.814C0.630516 18.294 0.702516 15.774 0.846516 13.254C0.990516 10.734 1.11652 8.21404 1.22452 5.69404C1.26052 4.75804 1.47652 4.05604 1.87252 3.58805C2.30452 3.08405 3.04252 2.68805 4.08652 2.40004C5.31052 2.07604 6.53452 1.78804 7.75852 1.53604C8.98252 1.28404 10.2245 1.12204 11.4845 1.05004L13.6985 0.996044C15.8225 0.996044 17.9465 1.15804 20.0705 1.48204C22.8065 1.87805 25.0385 2.92205 26.7665 4.61405C28.4945 6.30605 29.6645 8.52004 30.2765 11.256C30.5645 12.588 30.7625 13.92 30.8705 15.252C31.0145 16.548 31.0865 17.862 31.0865 19.194C31.0865 20.562 31.0145 21.948 30.8705 23.352C30.7625 24.756 30.6185 26.16 30.4385 27.564C30.2585 28.788 30.0605 30.012 29.8445 31.236C29.6285 32.424 29.3225 33.594 28.9265 34.746C28.6385 35.394 28.3145 36.024 27.9545 36.636C27.5945 37.248 27.2165 37.878 26.8205 38.526C27.2525 38.67 27.6485 38.778 28.0085 38.85C28.3685 38.922 28.7105 39.03 29.0345 39.174C30.3305 39.786 31.3745 40.596 32.1665 41.604C32.9945 42.576 33.4985 43.782 33.6785 45.222C33.8945 46.734 34.0025 48.264 34.0025 49.812C34.0025 50.136 33.9845 50.64 33.9485 51.324C33.9125 52.008 33.8585 52.728 33.7865 53.484C33.7505 54.24 33.6965 54.942 33.6245 55.59C33.5525 56.274 33.4985 56.778 33.4625 57.102C33.2825 58.47 32.9045 59.712 32.3285 60.828C31.7885 61.944 31.0325 62.97 30.0605 63.906C28.3325 65.454 26.4965 66.714 24.5525 67.686C22.6085 68.658 20.4665 69.18 18.1265 69.252C17.2985 69.288 16.4885 69.306 15.6965 69.306C14.9405 69.342 14.1485 69.36 13.3205 69.36ZM61.1219 64.068C61.9139 64.068 62.6159 63.528 63.2279 62.448C63.4799 61.98 63.6779 61.512 63.8219 61.044C64.0019 60.612 64.1819 60.144 64.3619 59.64C65.6579 55.608 66.6119 51.54 67.2239 47.436C67.8719 43.332 68.2679 39.138 68.4119 34.854V34.476C68.4119 29.976 67.9979 25.656 67.1699 21.516C66.3779 17.34 65.2979 13.182 63.9299 9.04205C63.8579 8.86204 63.7859 8.70004 63.7139 8.55605C63.6419 8.41205 63.5699 8.25005 63.4979 8.07005C62.8859 7.09805 62.0759 6.61205 61.0679 6.61205C60.6719 6.61205 60.2579 6.72005 59.8259 6.93604C59.4299 7.11604 59.0879 7.40404 58.7999 7.80005C58.1879 8.62805 57.7199 9.49205 57.3959 10.392C57.0719 11.292 56.7839 12.21 56.5319 13.146C55.7759 16.206 55.2539 19.284 54.9659 22.38C54.6779 25.44 54.4439 28.554 54.2639 31.722C54.1919 32.442 54.1559 33.162 54.1559 33.882C54.1559 34.602 54.1559 35.322 54.1559 36.042C54.1559 40.182 54.4439 44.16 55.0199 47.976C55.5959 51.792 56.4239 55.59 57.5039 59.37C57.6839 59.982 57.8819 60.558 58.0979 61.098C58.3139 61.674 58.6199 62.214 59.0159 62.718C59.6999 63.618 60.4019 64.068 61.1219 64.068ZM51.5639 69.306C50.7359 69.306 49.9979 69.108 49.3499 68.712C48.7379 68.352 48.1439 67.902 47.5679 67.362C46.6319 66.462 45.8939 65.472 45.3539 64.392C44.8499 63.312 44.4179 62.178 44.0579 60.99C42.8699 56.886 41.9699 52.782 41.3579 48.678C40.7819 44.538 40.4939 40.254 40.4939 35.826C40.4939 34.098 40.5479 32.334 40.6559 30.534C40.8359 27.33 41.1059 24.18 41.4659 21.084C41.8259 17.952 42.3839 14.838 43.1399 11.742C43.9679 8.53804 45.4079 5.74804 47.4599 3.37205C47.8919 2.83205 48.3599 2.40005 48.8639 2.07605C49.3679 1.75205 49.9799 1.55405 50.6999 1.48204C51.6719 1.41004 52.6439 1.33804 53.6159 1.26604C54.5879 1.19404 55.5779 1.15804 56.5859 1.15804C57.7379 1.15804 58.8719 1.23004 59.9879 1.37405C61.1039 1.48204 62.2199 1.69804 63.3359 2.02204C64.7399 2.41804 65.8739 3.08404 66.7379 4.02004C67.6019 4.95604 68.2499 6.10804 68.6819 7.47604C69.6899 10.644 70.5719 13.83 71.3279 17.034C72.1199 20.202 72.6779 23.46 73.0019 26.808C73.1099 27.888 73.1999 28.968 73.2719 30.048C73.3799 31.092 73.4339 32.136 73.4339 33.18V34.368C73.2539 39.084 72.8219 43.674 72.1379 48.138C71.4899 52.566 70.4639 56.94 69.0599 61.26C68.8799 61.872 68.6819 62.448 68.4659 62.988C68.2499 63.564 67.9979 64.122 67.7099 64.662C66.5219 67.182 64.5059 68.64 61.6619 69.036C60.7619 69.18 59.8619 69.27 58.9619 69.306C58.0979 69.342 57.2159 69.36 56.3159 69.36L51.5639 69.306ZM100.567 64.068C101.359 64.068 102.061 63.528 102.673 62.448C102.925 61.98 103.123 61.512 103.267 61.044C103.447 60.612 103.627 60.144 103.807 59.64C105.103 55.608 106.057 51.54 106.669 47.436C107.317 43.332 107.713 39.138 107.857 34.854V34.476C107.857 29.976 107.443 25.656 106.615 21.516C105.823 17.34 104.743 13.182 103.375 9.04205C103.303 8.86204 103.231 8.70004 103.159 8.55605C103.087 8.41205 103.015 8.25005 102.943 8.07005C102.331 7.09805 101.521 6.61205 100.513 6.61205C100.117 6.61205 99.7032 6.72005 99.2712 6.93604C98.8752 7.11604 98.5332 7.40404 98.2452 7.80005C97.6332 8.62805 97.1652 9.49205 96.8412 10.392C96.5172 11.292 96.2292 12.21 95.9772 13.146C95.2212 16.206 94.6992 19.284 94.4112 22.38C94.1232 25.44 93.8892 28.554 93.7092 31.722C93.6372 32.442 93.6012 33.162 93.6012 33.882C93.6012 34.602 93.6012 35.322 93.6012 36.042C93.6012 40.182 93.8892 44.16 94.4652 47.976C95.0412 51.792 95.8692 55.59 96.9492 59.37C97.1292 59.982 97.3272 60.558 97.5432 61.098C97.7592 61.674 98.0652 62.214 98.4612 62.718C99.1452 63.618 99.8472 64.068 100.567 64.068ZM91.0092 69.306C90.1812 69.306 89.4432 69.108 88.7952 68.712C88.1832 68.352 87.5892 67.902 87.0132 67.362C86.0772 66.462 85.3392 65.472 84.7992 64.392C84.2952 63.312 83.8632 62.178 83.5032 60.99C82.3152 56.886 81.4152 52.782 80.8032 48.678C80.2272 44.538 79.9392 40.254 79.9392 35.826C79.9392 34.098 79.9932 32.334 80.1012 30.534C80.2812 27.33 80.5512 24.18 80.9112 21.084C81.2712 17.952 81.8292 14.838 82.5852 11.742C83.4132 8.53804 84.8532 5.74804 86.9052 3.37205C87.3372 2.83205 87.8052 2.40005 88.3092 2.07605C88.8132 1.75205 89.4252 1.55405 90.1452 1.48204C91.1172 1.41004 92.0892 1.33804 93.0612 1.26604C94.0332 1.19404 95.0232 1.15804 96.0312 1.15804C97.1832 1.15804 98.3172 1.23004 99.4332 1.37405C100.549 1.48204 101.665 1.69804 102.781 2.02204C104.185 2.41804 105.319 3.08404 106.183 4.02004C107.047 4.95604 107.695 6.10804 108.127 7.47604C109.135 10.644 110.017 13.83 110.773 17.034C111.565 20.202 112.123 23.46 112.447 26.808C112.555 27.888 112.645 28.968 112.717 30.048C112.825 31.092 112.879 32.136 112.879 33.18V34.368C112.699 39.084 112.267 43.674 111.583 48.138C110.935 52.566 109.909 56.94 108.505 61.26C108.325 61.872 108.127 62.448 107.911 62.988C107.695 63.564 107.443 64.122 107.155 64.662C105.967 67.182 103.951 68.64 101.107 69.036C100.207 69.18 99.3072 69.27 98.4072 69.306C97.5432 69.342 96.6612 69.36 95.7612 69.36L91.0092 69.306ZM136.935 40.146C138.339 40.146 139.671 39.786 140.931 39.066C142.191 38.346 143.145 37.356 143.793 36.096C144.117 35.484 144.369 34.854 144.549 34.206C144.765 33.558 144.927 32.892 145.035 32.208C145.107 31.884 145.179 31.452 145.251 30.912C145.323 30.336 145.377 29.76 145.413 29.184C145.485 28.608 145.521 28.104 145.521 27.672C145.557 27.204 145.575 26.898 145.575 26.754C145.539 25.71 145.485 24.648 145.413 23.568C145.377 22.488 145.323 21.426 145.251 20.382C145.143 18.87 144.909 17.412 144.549 16.008C144.189 14.604 143.757 13.2 143.253 11.796C142.965 11.076 142.551 10.392 142.011 9.74404C141.471 9.09604 140.841 8.52004 140.121 8.01604C139.437 7.47604 138.699 7.06204 137.907 6.77404C137.151 6.45004 136.395 6.27004 135.639 6.23404H135.477C134.793 6.23404 134.451 6.61204 134.451 7.36805L134.505 10.176C134.577 12.552 134.649 14.928 134.721 17.304C134.793 19.644 134.865 22.002 134.937 24.378C134.973 25.026 134.991 25.674 134.991 26.322C134.991 26.934 134.991 27.564 134.991 28.212L134.937 33.396V38.85C134.937 39.246 135.009 39.552 135.153 39.768C135.297 39.948 135.585 40.056 136.017 40.092L136.935 40.146ZM124.299 69.522C121.707 69.522 120.411 68.28 120.411 65.796V64.824C120.411 64.14 120.375 63.456 120.303 62.772C120.267 62.124 120.213 61.458 120.141 60.774C120.105 55.914 120.033 51.378 119.925 47.166C119.817 42.954 119.763 38.796 119.763 34.692L119.817 28.806C119.817 26.142 119.781 23.514 119.709 20.922C119.637 18.294 119.565 15.666 119.493 13.038C119.457 12.066 119.421 11.094 119.385 10.122C119.385 9.15004 119.385 8.17804 119.385 7.20604V5.04604C119.385 2.59804 120.609 1.32004 123.057 1.21204C124.209 1.14005 125.379 1.08604 126.567 1.05004C127.755 1.01404 128.925 0.996044 130.077 0.996044C131.121 0.996044 132.147 1.01404 133.155 1.05004C134.163 1.08604 135.171 1.17605 136.179 1.32005C139.095 1.68005 141.579 2.63405 143.631 4.18204C145.683 5.73004 147.195 7.92604 148.167 10.77C148.995 13.254 149.607 15.738 150.003 18.222C150.399 20.706 150.615 23.208 150.651 25.728L150.543 28.158C150.471 28.878 150.363 29.742 150.219 30.75C150.111 31.722 149.967 32.73 149.787 33.774C149.355 36.474 148.383 38.76 146.871 40.632C145.395 42.468 143.289 43.8 140.553 44.628C140.409 44.664 140.265 44.718 140.121 44.79C139.977 44.862 139.761 44.952 139.473 45.06C139.869 45.456 140.355 46.068 140.931 46.896C141.507 47.724 142.101 48.678 142.713 49.758C143.361 50.802 144.027 51.936 144.711 53.16C145.395 54.384 146.043 55.554 146.655 56.67C147.267 57.822 147.825 58.866 148.329 59.802C148.833 60.774 149.247 61.548 149.571 62.124C149.751 62.484 149.949 62.808 150.165 63.096C150.417 63.42 150.669 63.744 150.921 64.068C151.101 64.32 151.263 64.554 151.407 64.77C151.587 64.986 151.749 65.238 151.893 65.526C152.145 65.994 152.271 66.462 152.271 66.93C152.271 67.578 152.019 68.154 151.515 68.658C151.047 69.054 150.525 69.252 149.949 69.252C149.265 69.252 148.671 69 148.167 68.496C147.483 67.884 146.889 67.182 146.385 66.39C145.881 65.634 145.377 64.842 144.873 64.014C144.225 62.934 143.577 61.728 142.929 60.396C142.317 59.1 141.651 57.768 140.931 56.4C140.247 55.068 139.527 53.772 138.771 52.512C138.051 51.252 137.259 50.154 136.395 49.218C136.251 49.11 136.125 49.002 136.017 48.894C135.909 48.75 135.783 48.606 135.639 48.462C135.423 48.57 135.279 48.696 135.207 48.84C135.171 48.984 135.153 49.128 135.153 49.272L135.207 50.028L135.585 66.336C135.585 67.308 135.369 67.992 134.937 68.388C134.505 68.82 133.767 69.09 132.723 69.198C131.319 69.27 129.915 69.342 128.511 69.414C127.107 69.486 125.703 69.522 124.299 69.522ZM163.286 69.36C162.89 69.36 162.494 69.306 162.098 69.198C161.738 69.126 161.36 69.036 160.964 68.928C159.596 68.532 158.876 67.578 158.804 66.066C158.516 60.738 158.246 55.464 157.994 50.244C157.778 44.988 157.67 39.696 157.67 34.368C157.67 32.388 157.688 30.39 157.724 28.374C157.76 26.358 157.832 24.252 157.94 22.056C158.084 19.248 158.138 16.476 158.102 13.74C158.102 11.004 158.138 8.23204 158.21 5.42404C158.246 3.80404 158.552 2.68804 159.128 2.07605C159.704 1.46405 160.748 1.15804 162.26 1.15804L169.172 1.42804C170.324 1.53605 171.116 1.82404 171.548 2.29204C172.016 2.76004 172.25 3.57004 172.25 4.72204V6.18004C172.25 7.69204 172.268 9.18604 172.304 10.662C172.34 12.138 172.358 13.614 172.358 15.09C172.358 15.486 172.34 16.134 172.304 17.034C172.268 17.934 172.232 18.978 172.196 20.166C172.16 21.354 172.106 22.614 172.034 23.946C171.962 25.278 171.908 26.574 171.872 27.834C171.836 29.094 171.8 30.246 171.764 31.29C171.728 32.334 171.71 33.162 171.71 33.774C171.71 35.25 171.728 36.708 171.764 38.148C171.8 39.588 171.872 41.028 171.98 42.468C172.016 42.756 172.034 43.314 172.034 44.142C172.034 44.97 172.034 45.834 172.034 46.734V50.082C172.034 51.99 172.106 53.88 172.25 55.752C172.43 57.624 172.61 59.532 172.79 61.476C172.898 62.448 172.952 63.42 172.952 64.392L172.898 66.012C172.754 67.956 171.71 69 169.766 69.144C168.686 69.216 167.606 69.27 166.526 69.306C165.446 69.342 164.366 69.36 163.286 69.36ZM193.111 69.468C192.571 69.468 192.013 69.468 191.437 69.468C190.897 69.468 190.357 69.432 189.817 69.36C189.277 69.324 188.827 69.252 188.467 69.144C188.143 69.072 187.855 68.928 187.603 68.712C187.351 68.532 187.135 68.28 186.955 67.956C186.811 67.632 186.649 67.2 186.469 66.66C186.253 66.048 186.091 65.418 185.983 64.77C185.911 64.122 185.875 63.474 185.875 62.826C185.839 61.314 185.677 59.82 185.389 58.344C185.137 56.868 184.903 55.374 184.687 53.862C183.859 48.786 183.085 43.8 182.365 38.904C181.645 33.972 181.105 29.22 180.745 24.648C180.205 18.24 179.773 11.85 179.449 5.47804C179.449 5.19004 179.449 4.92004 179.449 4.66804C179.449 4.38004 179.467 4.09204 179.503 3.80404C179.719 2.29204 180.493 1.46404 181.825 1.32005C182.581 1.24804 183.319 1.19404 184.039 1.15804C184.795 1.12205 185.551 1.10405 186.307 1.10405C187.171 1.10405 188.035 1.14005 188.899 1.21204C189.799 1.24804 190.681 1.30204 191.545 1.37405C192.985 1.51805 193.705 2.50805 193.705 4.34405C193.741 6.61204 193.831 8.88004 193.975 11.148C194.155 13.38 194.335 15.63 194.515 17.898C194.803 22.038 195.163 26.376 195.595 30.912C196.063 35.412 196.747 39.984 197.647 44.628C197.791 45.24 197.863 45.888 197.863 46.572C197.899 47.22 198.115 47.958 198.511 48.786C198.799 46.842 199.051 45.006 199.267 43.278C199.483 41.55 199.735 39.84 200.023 38.148C200.959 32.172 202.003 26.34 203.155 20.652C204.343 14.928 205.603 9.60005 206.935 4.66804C207.043 4.27205 207.169 3.87605 207.313 3.48004C207.457 3.04805 207.655 2.65204 207.907 2.29204C208.447 1.57204 209.131 1.21204 209.959 1.21204C210.355 1.21204 210.697 1.28404 210.985 1.42804C211.453 1.60804 211.813 1.89604 212.065 2.29204C212.353 2.68804 212.497 3.12005 212.497 3.58805C212.497 3.91205 212.443 4.20005 212.335 4.45204C210.859 8.91604 209.617 13.794 208.609 19.086C207.601 24.378 206.575 29.778 205.531 35.286C204.811 39.102 204.235 42.936 203.803 46.788C203.407 50.64 203.011 54.51 202.615 58.398C202.471 59.766 202.291 61.116 202.075 62.448C201.895 63.78 201.607 65.112 201.211 66.444C200.923 67.596 200.527 68.352 200.023 68.712C199.555 69.072 198.745 69.288 197.593 69.36C196.837 69.396 196.081 69.414 195.325 69.414C194.605 69.45 193.867 69.468 193.111 69.468ZM233.85 27.672C233.85 29.4 233.904 31.11 234.012 32.802C234.12 34.494 234.21 36.204 234.282 37.932C234.282 38.4 234.372 38.742 234.552 38.958C234.732 39.174 235.092 39.318 235.632 39.39C236.064 39.426 236.496 39.462 236.928 39.498C237.36 39.498 237.792 39.498 238.224 39.498C239.52 39.498 240.798 39.444 242.058 39.336C243.354 39.192 244.65 39.066 245.946 38.958C246.45 38.922 246.846 38.868 247.134 38.796C247.422 38.688 247.638 38.544 247.782 38.364C247.926 38.184 248.016 37.932 248.052 37.608C248.088 37.284 248.124 36.852 248.16 36.312C248.16 35.916 248.16 35.52 248.16 35.124C248.196 34.692 248.214 34.278 248.214 33.882C248.214 31.506 248.124 29.148 247.944 26.808C247.8 24.468 247.638 22.11 247.458 19.734C247.35 18.69 247.206 17.664 247.026 16.656C246.882 15.648 246.684 14.622 246.432 13.578C246.144 12.39 245.694 11.292 245.082 10.284C244.506 9.27604 243.822 8.32204 243.03 7.42204C242.526 6.81004 241.968 6.41404 241.356 6.23404C240.744 6.01804 240.096 5.91004 239.412 5.91004C239.124 5.91004 238.836 5.92804 238.548 5.96404C238.26 5.96404 237.972 5.98204 237.684 6.01804C236.856 6.09004 236.298 6.41404 236.01 6.99004C235.722 7.53005 235.452 8.08805 235.2 8.66404C234.048 11.508 233.472 14.514 233.472 17.682C233.472 17.898 233.472 18.114 233.472 18.33C233.508 18.546 233.526 18.762 233.526 18.978C233.562 20.31 233.598 21.642 233.634 22.974C233.706 24.27 233.778 25.602 233.85 26.97V27.672ZM219.756 39.066C219.612 35.574 219.468 32.118 219.324 28.698C219.216 25.278 219.126 21.84 219.054 18.384C219.054 18.24 219.036 18.096 219 17.952C219 17.808 219 17.664 219 17.52C219.036 15.468 219.252 13.47 219.648 11.526C220.08 9.58205 220.728 7.67405 221.592 5.80205C222.816 2.99405 224.904 1.46405 227.856 1.21204C229.188 1.06804 230.502 0.978044 231.798 0.942044C233.13 0.870045 234.462 0.834046 235.794 0.834046C237.522 0.834046 239.25 0.888045 240.978 0.996044C242.202 1.06804 243.3 1.39205 244.272 1.96804C245.244 2.50804 246.126 3.24604 246.918 4.18204C248.106 5.62205 249.114 7.15204 249.942 8.77204C250.77 10.356 251.328 12.084 251.616 13.956C252.12 17.124 252.498 20.256 252.75 23.352C253.038 26.412 253.182 29.526 253.182 32.694C253.182 33.774 253.164 34.854 253.128 35.934C253.092 36.978 253.038 38.04 252.966 39.12C252.894 40.092 252.822 41.064 252.75 42.036C252.714 42.972 252.696 43.926 252.696 44.898C252.696 46.05 252.732 47.184 252.804 48.3C252.912 49.38 253.056 50.496 253.236 51.648C253.344 53.124 253.416 54.546 253.452 55.914C253.524 57.318 253.596 58.65 253.668 59.91C253.74 61.206 253.848 62.43 253.992 63.582C254.136 64.734 254.352 65.778 254.64 66.714C254.712 67.002 254.748 67.2 254.748 67.308C254.748 68.028 254.37 68.622 253.614 69.09C253.146 69.378 252.696 69.522 252.264 69.522C251.76 69.522 251.256 69.378 250.752 69.09C250.356 68.802 250.05 68.46 249.834 68.064C249.618 67.668 249.474 67.218 249.402 66.714C249.294 65.994 249.168 65.256 249.024 64.5C248.88 63.744 248.808 62.988 248.808 62.232C248.772 60.252 248.682 58.47 248.538 56.886C248.43 55.302 248.304 53.862 248.16 52.566C248.052 51.234 247.944 50.01 247.836 48.894C247.728 47.742 247.674 46.608 247.674 45.492V45.006C247.674 44.286 247.332 43.926 246.648 43.926H246.27C245.01 44.034 243.732 44.16 242.436 44.304C241.176 44.448 239.916 44.52 238.656 44.52C237.756 44.52 236.856 44.466 235.956 44.358H235.686C235.002 44.358 234.66 44.772 234.66 45.6C234.696 47.076 234.714 48.552 234.714 50.028C234.714 51.468 234.714 52.944 234.714 54.456L234.552 65.634C234.552 66.894 234.3 67.794 233.796 68.334C233.328 68.874 232.464 69.18 231.204 69.252C229.62 69.36 228.054 69.414 226.506 69.414C226.074 69.414 225.624 69.396 225.156 69.36C224.724 69.36 224.292 69.36 223.86 69.36C222.492 69.324 221.52 69.018 220.944 68.442C220.368 67.902 220.062 66.93 220.026 65.526C219.99 64.374 219.972 63.24 219.972 62.124C219.972 61.008 219.972 59.874 219.972 58.722L220.134 48.462C220.134 46.878 220.098 45.312 220.026 43.764C219.954 42.216 219.864 40.65 219.756 39.066ZM91.3332 172.36C90.2532 172.36 89.2092 172.306 88.2012 172.198C86.4012 172.09 84.7812 171.64 83.3412 170.848C81.9012 170.092 80.5872 169.066 79.3992 167.77C77.5632 165.79 76.1592 163.648 75.1872 161.344C74.2152 159.076 73.7292 156.592 73.7292 153.892V153.676C73.7292 152.848 73.7292 152.02 73.7292 151.192C73.7292 150.364 73.7472 149.536 73.7832 148.708C73.8912 147.052 74.6652 146.17 76.1052 146.062H76.2132C77.5452 146.062 78.4092 146.836 78.8052 148.384L78.9132 149.194C78.9132 149.41 78.8952 149.644 78.8592 149.896C78.8232 150.112 78.7872 150.328 78.7512 150.544L78.6432 152.704C78.6432 153.964 78.7512 155.242 78.9672 156.538C79.3272 158.41 79.9752 160.084 80.9112 161.56C81.8472 163.036 83.0172 164.386 84.4212 165.61C84.8892 166.006 85.3752 166.312 85.8792 166.528C86.6352 166.888 87.4092 167.068 88.2012 167.068C89.3892 167.068 90.3792 166.654 91.1712 165.826C91.9632 164.998 92.3772 163.846 92.4132 162.37V161.506C92.4132 159.166 92.0172 156.916 91.2252 154.756C90.8652 153.784 90.5052 152.83 90.1452 151.894C89.7852 150.958 89.3892 150.022 88.9572 149.086C88.8852 148.978 88.7592 148.78 88.5792 148.492C88.3992 148.168 88.1832 147.844 87.9312 147.52C87.6792 147.16 87.4272 146.8 87.1752 146.44C86.9232 146.08 86.6892 145.792 86.4732 145.576C86.0772 145.144 85.6632 144.712 85.2312 144.28C84.8352 143.812 84.4392 143.38 84.0432 142.984C83.6472 142.552 83.2872 142.192 82.9632 141.904C82.6392 141.58 82.4052 141.346 82.2612 141.202C81.6492 140.626 81.0192 140.014 80.3712 139.366C79.7592 138.682 79.1292 137.98 78.4812 137.26C77.1132 135.82 76.0332 134.308 75.2412 132.724C74.4492 131.14 73.9092 129.682 73.6212 128.35C73.4772 127.45 73.3692 126.568 73.2972 125.704C73.2252 124.804 73.1892 123.904 73.1892 123.004C73.1892 121.996 73.2432 120.97 73.3512 119.926C73.6392 117.55 74.2872 115.354 75.2952 113.338C76.3032 111.322 77.6352 109.468 79.2912 107.776C80.3352 106.66 81.4872 105.796 82.7472 105.184C84.0432 104.572 85.4652 104.266 87.0132 104.266H89.8752C90.6672 104.266 91.4412 104.266 92.1972 104.266C92.9892 104.23 93.6012 104.212 94.0332 104.212H94.8972C97.1292 104.212 98.9832 104.77 100.459 105.886C101.971 106.966 103.141 108.46 103.969 110.368C105.337 113.68 106.021 117.154 106.021 120.79C106.021 123.202 105.715 125.722 105.103 128.35C104.923 129.07 104.617 129.61 104.185 129.97C103.789 130.33 103.303 130.51 102.727 130.51C102.439 130.51 102.223 130.492 102.079 130.456C101.503 130.312 101.035 130.024 100.675 129.592C100.351 129.16 100.189 128.638 100.189 128.026L100.297 127.216C100.729 125.236 100.945 123.256 100.945 121.276C100.945 119.584 100.819 118 100.567 116.524C100.387 115.408 100.135 114.328 99.8112 113.284C99.5232 112.24 98.9292 111.304 98.0292 110.476C97.3092 109.792 96.6252 109.45 95.9772 109.45C95.5452 109.45 95.0052 109.612 94.3572 109.936C94.0332 110.116 93.7092 110.314 93.3852 110.53C93.0972 110.71 92.8452 110.944 92.6292 111.232C91.6212 112.276 90.7392 113.41 89.9832 114.634C89.2272 115.822 88.6872 117.154 88.3632 118.63C88.0392 120.142 87.8772 121.654 87.8772 123.166C87.8772 124.03 87.9132 124.894 87.9852 125.758C88.0932 126.586 88.2372 127.432 88.4172 128.296C88.4892 128.548 88.6512 128.98 88.9032 129.592C89.1552 130.204 89.3712 130.654 89.5512 130.942C89.8032 131.302 90.0732 131.698 90.3612 132.13C90.6852 132.562 91.0452 132.994 91.4412 133.426C92.1612 134.182 92.8452 134.938 93.4932 135.694C94.1772 136.45 94.8792 137.134 95.5992 137.746C96.3192 138.358 97.1112 139.132 97.9752 140.068C98.8392 140.968 99.6312 141.868 100.351 142.768C100.603 143.056 100.873 143.416 101.161 143.848C101.485 144.28 101.773 144.712 102.025 145.144C102.313 145.576 102.547 145.972 102.727 146.332C102.943 146.656 103.087 146.872 103.159 146.98C103.699 148.096 104.185 149.23 104.617 150.382C105.085 151.498 105.517 152.632 105.913 153.784C106.777 156.268 107.209 158.788 107.209 161.344C107.209 161.74 107.191 162.118 107.155 162.478C107.155 162.838 107.137 163.216 107.101 163.612C106.993 164.692 106.705 165.736 106.237 166.744C105.769 167.752 105.139 168.652 104.347 169.444C103.591 170.272 102.655 170.938 101.539 171.442C100.459 171.946 99.2532 172.216 97.9212 172.252L91.3332 172.36ZM125.472 172.576C124.716 172.576 123.96 172.54 123.204 172.468C122.484 172.432 121.746 172.342 120.99 172.198C120.162 172.018 119.568 171.712 119.208 171.28C118.884 170.884 118.686 170.236 118.614 169.336C118.29 165.124 118.02 160.93 117.804 156.754C117.624 152.614 117.534 148.42 117.534 144.172L117.588 140.014C117.66 136.306 117.696 132.616 117.696 128.944C117.732 125.236 117.84 121.492 118.02 117.712C118.092 116.488 118.164 115.3 118.236 114.148C118.344 112.96 118.47 111.88 118.614 110.908V110.692C118.614 110.224 118.506 109.882 118.29 109.666C118.11 109.45 117.768 109.306 117.264 109.234C116.328 109.126 115.41 109.072 114.51 109.072C114.186 109.072 113.844 109.072 113.484 109.072C113.16 109.072 112.836 109.09 112.512 109.126C112.188 109.09 111.864 109.072 111.54 109.072C111.216 109.072 110.91 109.036 110.622 108.964C110.082 108.82 109.65 108.55 109.326 108.154C109.002 107.758 108.84 107.29 108.84 106.75V106.588C108.84 105.616 109.344 104.878 110.352 104.374C110.82 104.194 111.306 104.104 111.81 104.104L112.458 104.158C116.166 104.194 119.82 104.23 123.42 104.266C127.056 104.266 130.728 104.266 134.436 104.266H138.108C138.756 104.266 139.476 104.356 140.268 104.536C140.88 104.716 141.348 105.022 141.672 105.454C142.032 105.85 142.212 106.318 142.212 106.858L142.158 107.236C142.086 107.812 141.834 108.298 141.402 108.694C140.97 109.054 140.412 109.252 139.728 109.288H134.976C134.544 109.288 134.202 109.306 133.95 109.342C133.734 109.342 133.572 109.396 133.464 109.504C133.356 109.612 133.266 109.792 133.194 110.044C133.158 110.26 133.122 110.584 133.086 111.016C132.69 114.292 132.438 117.586 132.33 120.898C132.258 124.174 132.222 127.45 132.222 130.726V139.582C132.186 140.842 132.15 142.12 132.114 143.416C132.114 144.676 132.114 145.936 132.114 147.196C132.114 148.888 132.132 150.58 132.168 152.272C132.204 153.928 132.294 155.602 132.438 157.294C132.582 159.058 132.654 160.804 132.654 162.532C132.654 164.296 132.798 166.06 133.086 167.824C133.122 167.932 133.14 168.04 133.14 168.148C133.14 168.292 133.14 168.418 133.14 168.526L133.086 169.552C132.978 170.308 132.726 170.902 132.33 171.334C131.97 171.766 131.412 172.036 130.656 172.144C129.792 172.288 128.928 172.396 128.064 172.468C127.2 172.54 126.336 172.576 125.472 172.576ZM166.643 167.068C167.435 167.068 168.137 166.528 168.749 165.448C169.001 164.98 169.199 164.512 169.343 164.044C169.523 163.612 169.703 163.144 169.883 162.64C171.179 158.608 172.133 154.54 172.745 150.436C173.393 146.332 173.789 142.138 173.933 137.854V137.476C173.933 132.976 173.519 128.656 172.691 124.516C171.899 120.34 170.819 116.182 169.451 112.042C169.379 111.862 169.307 111.7 169.235 111.556C169.163 111.412 169.091 111.25 169.019 111.07C168.407 110.098 167.597 109.612 166.589 109.612C166.193 109.612 165.779 109.72 165.347 109.936C164.951 110.116 164.609 110.404 164.321 110.8C163.709 111.628 163.241 112.492 162.917 113.392C162.593 114.292 162.305 115.21 162.053 116.146C161.297 119.206 160.775 122.284 160.487 125.38C160.199 128.44 159.965 131.554 159.785 134.722C159.713 135.442 159.677 136.162 159.677 136.882C159.677 137.602 159.677 138.322 159.677 139.042C159.677 143.182 159.965 147.16 160.541 150.976C161.117 154.792 161.945 158.59 163.025 162.37C163.205 162.982 163.403 163.558 163.619 164.098C163.835 164.674 164.141 165.214 164.537 165.718C165.221 166.618 165.923 167.068 166.643 167.068ZM157.085 172.306C156.257 172.306 155.519 172.108 154.871 171.712C154.259 171.352 153.665 170.902 153.089 170.362C152.153 169.462 151.415 168.472 150.875 167.392C150.371 166.312 149.939 165.178 149.579 163.99C148.391 159.886 147.491 155.782 146.879 151.678C146.303 147.538 146.015 143.254 146.015 138.826C146.015 137.098 146.069 135.334 146.177 133.534C146.357 130.33 146.627 127.18 146.987 124.084C147.347 120.952 147.905 117.838 148.661 114.742C149.489 111.538 150.929 108.748 152.981 106.372C153.413 105.832 153.881 105.4 154.385 105.076C154.889 104.752 155.501 104.554 156.221 104.482C157.193 104.41 158.165 104.338 159.137 104.266C160.109 104.194 161.099 104.158 162.107 104.158C163.259 104.158 164.393 104.23 165.509 104.374C166.625 104.482 167.741 104.698 168.857 105.022C170.261 105.418 171.395 106.084 172.259 107.02C173.123 107.956 173.771 109.108 174.203 110.476C175.211 113.644 176.093 116.83 176.849 120.034C177.641 123.202 178.199 126.46 178.523 129.808C178.631 130.888 178.721 131.968 178.793 133.048C178.901 134.092 178.955 135.136 178.955 136.18V137.368C178.775 142.084 178.343 146.674 177.659 151.138C177.011 155.566 175.985 159.94 174.581 164.26C174.401 164.872 174.203 165.448 173.987 165.988C173.771 166.564 173.519 167.122 173.231 167.662C172.043 170.182 170.027 171.64 167.183 172.036C166.283 172.18 165.383 172.27 164.483 172.306C163.619 172.342 162.737 172.36 161.837 172.36L157.085 172.306ZM203.011 143.146C204.415 143.146 205.747 142.786 207.007 142.066C208.267 141.346 209.221 140.356 209.869 139.096C210.193 138.484 210.445 137.854 210.625 137.206C210.841 136.558 211.003 135.892 211.111 135.208C211.183 134.884 211.255 134.452 211.327 133.912C211.399 133.336 211.453 132.76 211.489 132.184C211.561 131.608 211.597 131.104 211.597 130.672C211.633 130.204 211.651 129.898 211.651 129.754C211.615 128.71 211.561 127.648 211.489 126.568C211.453 125.488 211.399 124.426 211.327 123.382C211.219 121.87 210.985 120.412 210.625 119.008C210.265 117.604 209.833 116.2 209.329 114.796C209.041 114.076 208.627 113.392 208.087 112.744C207.547 112.096 206.917 111.52 206.197 111.016C205.513 110.476 204.775 110.062 203.983 109.774C203.227 109.45 202.471 109.27 201.715 109.234H201.553C200.869 109.234 200.527 109.612 200.527 110.368L200.581 113.176C200.653 115.552 200.725 117.928 200.797 120.304C200.869 122.644 200.941 125.002 201.013 127.378C201.049 128.026 201.067 128.674 201.067 129.322C201.067 129.934 201.067 130.564 201.067 131.212L201.013 136.396V141.85C201.013 142.246 201.085 142.552 201.229 142.768C201.373 142.948 201.661 143.056 202.093 143.092L203.011 143.146ZM190.375 172.522C187.783 172.522 186.487 171.28 186.487 168.796V167.824C186.487 167.14 186.451 166.456 186.379 165.772C186.343 165.124 186.289 164.458 186.217 163.774C186.181 158.914 186.109 154.378 186.001 150.166C185.893 145.954 185.839 141.796 185.839 137.692L185.893 131.806C185.893 129.142 185.857 126.514 185.785 123.922C185.713 121.294 185.641 118.666 185.569 116.038C185.533 115.066 185.497 114.094 185.461 113.122C185.461 112.15 185.461 111.178 185.461 110.206V108.046C185.461 105.598 186.685 104.32 189.133 104.212C190.285 104.14 191.455 104.086 192.643 104.05C193.831 104.014 195.001 103.996 196.153 103.996C197.197 103.996 198.223 104.014 199.231 104.05C200.239 104.086 201.247 104.176 202.255 104.32C205.171 104.68 207.655 105.634 209.707 107.182C211.759 108.73 213.271 110.926 214.243 113.77C215.071 116.254 215.683 118.738 216.079 121.222C216.475 123.706 216.691 126.208 216.727 128.728L216.619 131.158C216.547 131.878 216.439 132.742 216.295 133.75C216.187 134.722 216.043 135.73 215.863 136.774C215.431 139.474 214.459 141.76 212.947 143.632C211.471 145.468 209.365 146.8 206.629 147.628C206.485 147.664 206.341 147.718 206.197 147.79C206.053 147.862 205.837 147.952 205.549 148.06C205.945 148.456 206.431 149.068 207.007 149.896C207.583 150.724 208.177 151.678 208.789 152.758C209.437 153.802 210.103 154.936 210.787 156.16C211.471 157.384 212.119 158.554 212.731 159.67C213.343 160.822 213.901 161.866 214.405 162.802C214.909 163.774 215.323 164.548 215.647 165.124C215.827 165.484 216.025 165.808 216.241 166.096C216.493 166.42 216.745 166.744 216.997 167.068C217.177 167.32 217.339 167.554 217.483 167.77C217.663 167.986 217.825 168.238 217.969 168.526C218.221 168.994 218.347 169.462 218.347 169.93C218.347 170.578 218.095 171.154 217.591 171.658C217.123 172.054 216.601 172.252 216.025 172.252C215.341 172.252 214.747 172 214.243 171.496C213.559 170.884 212.965 170.182 212.461 169.39C211.957 168.634 211.453 167.842 210.949 167.014C210.301 165.934 209.653 164.728 209.005 163.396C208.393 162.1 207.727 160.768 207.007 159.4C206.323 158.068 205.603 156.772 204.847 155.512C204.127 154.252 203.335 153.154 202.471 152.218C202.327 152.11 202.201 152.002 202.093 151.894C201.985 151.75 201.859 151.606 201.715 151.462C201.499 151.57 201.355 151.696 201.283 151.84C201.247 151.984 201.229 152.128 201.229 152.272L201.283 153.028L201.661 169.336C201.661 170.308 201.445 170.992 201.013 171.388C200.581 171.82 199.843 172.09 198.799 172.198C197.395 172.27 195.991 172.342 194.587 172.414C193.183 172.486 191.779 172.522 190.375 172.522ZM227.526 172.9C226.23 172.9 225.312 172.666 224.772 172.198C224.268 171.766 223.998 170.866 223.962 169.498C223.926 168.886 223.89 168.256 223.854 167.608C223.854 166.996 223.854 166.384 223.854 165.772L223.908 163.666L224.016 157.456C224.016 155.476 223.962 153.514 223.854 151.57C223.782 149.59 223.746 147.61 223.746 145.63C223.746 144.046 223.8 142.444 223.908 140.824V137.368C224.016 134.848 224.106 132.346 224.178 129.862C224.286 127.342 224.34 124.858 224.34 122.41C224.34 120.07 224.286 117.712 224.178 115.336L224.124 112.366C224.124 111.538 224.124 110.746 224.124 109.99C224.16 109.198 224.196 108.388 224.232 107.56C224.304 106.516 224.538 105.778 224.934 105.346C225.33 104.878 226.05 104.572 227.094 104.428C228.534 104.212 230.046 104.104 231.63 104.104H232.872C234.708 104.104 236.508 104.104 238.272 104.104C240.036 104.068 241.836 104.05 243.672 104.05C246.696 104.05 249.702 104.104 252.69 104.212C252.942 104.248 253.194 104.284 253.446 104.32C253.698 104.356 253.95 104.41 254.202 104.482C254.706 104.662 255.102 104.95 255.39 105.346C255.678 105.742 255.822 106.174 255.822 106.642V106.966C255.678 108.082 255.048 108.784 253.932 109.072C253.752 109.108 253.554 109.144 253.338 109.18C253.158 109.18 252.978 109.18 252.798 109.18H252.42C251.988 109.144 251.556 109.126 251.124 109.126C250.728 109.126 250.314 109.126 249.882 109.126C248.874 109.126 247.866 109.144 246.858 109.18C245.85 109.216 244.842 109.252 243.834 109.288L242.538 109.18C242.106 109.18 241.674 109.198 241.242 109.234C240.81 109.27 240.378 109.288 239.946 109.288C239.226 109.288 238.866 109.63 238.866 110.314L238.812 112.906C238.884 114.85 238.938 116.794 238.974 118.738C239.046 120.682 239.082 122.644 239.082 124.624C239.082 127 239.046 129.394 238.974 131.806C238.902 134.182 238.794 136.342 238.65 138.286C238.614 138.682 238.596 139.078 238.596 139.474C238.596 139.87 238.596 140.266 238.596 140.662V141.418C238.596 141.742 238.614 141.994 238.65 142.174C238.686 142.354 238.776 142.498 238.92 142.606C239.064 142.714 239.262 142.786 239.514 142.822C239.802 142.858 240.18 142.876 240.648 142.876L241.89 142.93L244.32 142.876C244.752 142.876 245.184 142.894 245.616 142.93C246.048 142.93 246.48 143.002 246.912 143.146C247.488 143.326 247.92 143.65 248.208 144.118C248.532 144.55 248.694 145.018 248.694 145.522C248.694 145.81 248.676 146.026 248.64 146.17C248.532 146.71 248.262 147.178 247.83 147.574C247.434 147.934 246.966 148.114 246.426 148.114L245.94 148.06C245.58 147.988 245.238 147.952 244.914 147.952C244.59 147.916 244.248 147.898 243.888 147.898L241.404 147.952H239.784C239.316 147.952 238.992 148.06 238.812 148.276C238.668 148.456 238.596 148.78 238.596 149.248V149.68C238.668 150.436 238.704 151.192 238.704 151.948C238.704 152.668 238.704 153.406 238.704 154.162C238.704 155.71 238.686 157.06 238.65 158.212C238.65 159.364 238.632 160.372 238.596 161.236C238.596 162.136 238.578 162.928 238.542 163.612C238.542 164.332 238.542 165.034 238.542 165.718C238.542 166.474 238.596 166.96 238.704 167.176C238.812 167.428 239.136 167.554 239.676 167.554L252.096 166.96C252.6 166.96 253.05 167.032 253.446 167.176C254.526 167.572 255.066 168.31 255.066 169.39V169.498C255.066 170.47 254.58 171.19 253.608 171.658C253.212 171.838 252.816 171.946 252.42 171.982C252.06 172.018 251.682 172.036 251.286 172.036C249.018 172.108 246.768 172.216 244.536 172.36C242.34 172.504 240.126 172.576 237.894 172.576C237.678 172.576 237.39 172.576 237.03 172.576C236.67 172.612 236.292 172.63 235.896 172.63H234.546C233.394 172.63 232.224 172.666 231.036 172.738C229.884 172.846 228.714 172.9 227.526 172.9Z" fill="#1F1F1F"/>
</svg>
