<svg width="185" height="54" viewBox="0 0 185 54" fill="none" xmlns="http://www.w3.org/2000/svg">
<path d="M5.67449 37.811L2.4032 32.7602L0.757285 12.6293C2.38626 9.77524 8.03486 3.91443 17.5974 3.30404C29.5506 2.54106 63.8388 0.735898 77.5645 1.03203C91.2903 1.32817 105.781 1.20995 110.611 1.2404C115.441 1.27086 165.131 -0.286105 171.465 2.89749C176.533 5.44437 181.161 10.2942 182.842 12.4007C182.331 12.8166 181.61 14.1114 182.818 15.9634C184.026 17.8154 184.651 20.6558 184.813 21.8445C184.131 22.5388 182.764 24.0951 182.76 24.7658C182.754 25.6041 178.177 25.7848 180.458 26.8472C182.283 27.697 182.724 30.145 182.717 31.2628C180.93 32.2994 176.544 34.4096 173.289 34.5567C170.034 34.7039 167.182 35.4264 166.163 35.7693L166.152 37.4461C167.675 37.7351 170.416 38.395 169.194 38.7227C167.666 39.1322 166.148 38.0747 164.872 38.6954C163.597 39.3161 161.809 40.5624 163.332 40.9912C163.798 41.3804 164.255 41.5759 164.666 41.6534C165.171 41.5562 165.717 41.4772 166.125 41.428C165.863 41.5985 165.324 41.7778 164.666 41.6534C163.808 41.8185 163.069 42.036 163.323 42.2487C163.728 42.5866 165.352 43.0998 166.113 43.3142L167.375 44.5797L163.308 44.554C161.071 44.5399 161.52 45.8003 162.025 46.4322C161.431 46.5682 159.887 46.7541 158.466 46.4098C156.689 45.9794 157.448 46.613 154.396 46.8033C151.954 46.9556 112.929 47.8534 108.777 47.7574C109.118 47.4801 109.342 46.9226 107.512 46.911L107.512 46.911C105.224 46.8966 104.97 46.895 102.171 47.2965C99.3716 47.6981 69.8024 47.1567 61.1595 47.1022C54.2451 47.0586 39.9324 47.0392 38.6614 47.0311C34.6742 47.7046 25.2257 49.0004 19.3293 48.7955C11.9587 48.5395 5.61746 46.4036 5.61885 46.194C5.61997 46.0264 4.2719 44.8581 3.59773 44.295C4.27329 44.6486 5.62581 45.1461 5.63137 44.3078C5.63693 43.4695 4.2974 41.0159 3.62694 39.8938L5.67449 37.811Z" fill="#FDA3C4"/>
<path d="M10.4251 49.7873C9.61165 49.7822 9.57219 50.6203 9.65415 51.04L8.00042 51.2392C7.1908 51.9327 5.72436 53.2788 6.33557 53.115C6.94678 52.9512 8.11918 52.4975 8.62898 52.2911C8.96978 52.0138 11.2783 51.4694 17.7859 51.5105C25.9205 51.5618 25.1607 51.1378 25.9233 51.1426C26.6859 51.1474 11.4419 49.7938 10.4251 49.7873Z" fill="#FDA3C4"/>
</svg>
