<svg width="24" height="24" viewBox="0 0 24 24" fill="none" xmlns="http://www.w3.org/2000/svg">
<path d="M4.05089 8.92C4.071 8.6694 4.18477 8.43557 4.36953 8.26508C4.55429 8.09459 4.79649 7.99995 5.04789 8H18.9519C19.2033 7.99995 19.4455 8.09459 19.6303 8.26508C19.815 8.43557 19.9288 8.6694 19.9489 8.92L20.8259 19.84C20.848 20.1152 20.8129 20.392 20.7227 20.6529C20.6326 20.9139 20.4894 21.1533 20.3022 21.3562C20.115 21.5592 19.8878 21.7211 19.6349 21.8319C19.382 21.9427 19.109 21.9999 18.8329 22H5.16689C4.89081 21.9999 4.61774 21.9427 4.36487 21.8319C4.112 21.7211 3.8848 21.5592 3.69759 21.3562C3.51037 21.1533 3.36719 20.9139 3.27706 20.6529C3.18693 20.392 3.1518 20.1152 3.17389 19.84L4.04989 8.92H4.05089Z" stroke="#1F1F1F" stroke-width="2" stroke-linecap="round" stroke-linejoin="round"/>
<path d="M16 11V6C16 4.93913 15.5786 3.92172 14.8284 3.17157C14.0783 2.42143 13.0609 2 12 2C10.9391 2 9.92172 2.42143 9.17157 3.17157C8.42143 3.92172 8 4.93913 8 6V11" stroke="#1F1F1F" stroke-width="2" stroke-linecap="round" stroke-linejoin="round"/>
</svg>
