<svg width="164" height="55" viewBox="0 0 164 55" fill="none" xmlns="http://www.w3.org/2000/svg">
<path d="M5.70431 38.596L2.48509 33.4041L0.955887 12.6607C2.58656 9.71155 8.22026 3.6455 17.7097 2.97433C29.5715 2.13537 43.7152 0.221039 57.3299 0.466018C70.9446 0.710997 85.3208 0.525507 90.112 0.53569C94.9032 0.545873 144.205 -1.27722 150.472 1.97657C155.486 4.57961 160.053 9.55839 161.709 11.7224C161.2 12.1534 160.479 13.4912 161.667 15.3949C162.856 17.2986 163.462 20.2237 163.616 21.4483C162.935 22.167 161.572 23.7772 161.564 24.4685C161.554 25.3327 157.013 25.5391 159.27 26.6241C161.076 27.4921 161.501 30.0135 161.488 31.1657C159.711 32.2421 155.348 34.4365 152.118 34.6025C148.889 34.7685 146.056 35.5258 145.043 35.8837L145.023 37.6121C146.533 37.9034 149.249 38.5716 148.035 38.9147C146.517 39.3435 145.016 38.2601 143.748 38.9056C142.479 39.551 140.699 40.8435 142.208 41.2788C142.668 41.6779 143.12 41.8774 143.527 41.9556C144.029 41.8531 144.571 41.7693 144.977 41.7167C144.716 41.8936 144.18 42.0809 143.527 41.9556C142.676 42.1295 141.941 42.3569 142.193 42.575C142.592 42.9215 144.2 43.4434 144.954 43.6611L146.201 44.96L142.166 44.9514C139.947 44.9467 140.386 46.2439 140.883 46.8931C140.293 47.0358 138.761 47.2342 137.352 46.8856C135.592 46.4497 136.341 47.0995 133.313 47.3091C130.89 47.4768 92.1712 48.5736 88.0532 48.4928C88.3928 48.2055 88.6179 47.6298 86.8022 47.626C84.5327 47.6212 84.2805 47.6206 81.5018 48.0468C78.723 48.473 59.3108 47.9996 50.737 47.9814L38.3807 47.9552C34.4218 48.6669 25.042 50.044 19.1937 49.8588C11.8832 49.6272 5.60352 47.4534 5.60598 47.2374C5.60795 47.0645 4.27664 45.8663 3.61074 45.2887C4.2791 45.6502 5.61827 46.1572 5.6281 45.293C5.63794 44.4289 4.32171 41.9056 3.66237 40.7519L5.70431 38.596Z" fill="#FDA3C4"/>
<path d="M10.3554 50.9202C9.54848 50.9185 9.50502 51.7826 9.58416 52.2148L7.9426 52.4274C7.13587 53.1458 5.6742 54.5398 6.28137 54.3682C6.88855 54.1967 8.05393 53.7239 8.56073 53.5089C8.90024 53.2216 11.1931 52.6503 17.6487 52.664C25.7181 52.6812 24.9665 52.2475 25.723 52.2491C26.4795 52.2507 11.3641 50.9223 10.3554 50.9202Z" fill="#FDA3C4"/>
</svg>
