<svg width="126" height="99" viewBox="0 0 126 99" fill="none" xmlns="http://www.w3.org/2000/svg">
<path d="M9.79065 25.9587L10.2525 19.795L21.1864 2.00248C24.223 0.587252 32.2972 -0.949163 40.3011 4.22701C50.306 10.6972 62.7712 17.6688 73.5465 26.0775C84.3217 34.4863 95.9599 43.004 99.7965 45.9014C103.633 48.7987 119.567 60.018 122.686 66.4435C125.181 71.5838 125.925 78.3866 125.984 81.1455C125.323 81.1889 123.961 81.842 123.798 84.1071C123.635 86.3722 122.406 89.1163 121.812 90.2052C120.845 90.3793 118.808 90.8668 118.396 91.4244C117.882 92.1212 114.118 89.5506 115.293 91.7941C116.232 93.5889 115.095 95.896 114.409 96.8252C112.352 96.6288 107.567 95.783 104.88 93.9705C102.192 92.158 99.4764 91.0657 98.4543 90.7461L97.4253 92.14C98.4654 93.2871 100.252 95.4683 99.0767 95.0151C97.608 94.4485 97.0395 92.6625 95.6441 92.4227C94.2486 92.1829 92.0634 92.1608 93.0177 93.4242C93.1528 94.0263 93.3988 94.4615 93.6793 94.7704C94.1416 94.9895 94.6256 95.2482 94.9816 95.45C94.6687 95.4366 94.1295 95.266 93.6793 94.7704C92.8944 94.3983 92.1722 94.1405 92.246 94.4695C92.3633 94.9922 93.3469 96.3863 93.8241 97.018L94.062 98.8258L90.8312 96.3859C89.0543 95.044 88.646 96.3638 88.664 97.1914C88.1071 96.9518 86.7621 96.1893 85.8371 95.0566C84.6809 93.6407 84.9008 94.6208 82.3491 92.9651C80.3077 91.6406 73.287 86.2119 70.0318 83.6632C70.4725 83.6342 70.9905 83.3018 69.5366 82.2038C67.7193 80.8314 67.5174 80.6789 65.039 79.35C62.5606 78.021 47.2698 65.9307 40.4044 60.746L30.5102 53.2739C26.918 51.4656 18.5882 46.9298 14.0064 43.2526C8.27928 38.6561 4.51739 33.1016 4.646 32.9274C4.7489 32.788 4.38366 31.0107 4.18818 30.1395C4.51228 30.8365 5.28909 32.0563 5.80357 31.3594C6.31804 30.6625 6.74166 27.8167 6.88916 26.4809L9.79065 25.9587Z" fill="#FDA3C4"/>
<path d="M6.29604 38.7865C5.64988 38.2985 5.10848 38.9751 4.91856 39.3743L3.47744 38.5574C2.40929 38.6552 0.419866 38.9075 1.00737 39.1341C1.59489 39.3607 2.80669 39.6789 3.33916 39.8097C3.77988 39.7807 5.95363 40.6987 11.1229 44.6025C17.5844 49.4822 17.2359 48.6763 17.8416 49.1338C18.4474 49.5912 7.10373 39.3964 6.29604 38.7865Z" fill="#FDA3C4"/>
</svg>
