<svg width="28" height="28" viewBox="0 0 28 28" fill="none" xmlns="http://www.w3.org/2000/svg">
<path d="M2.85714 2H12.1429C12.6354 2 13.1078 2.15804 13.4561 2.43934C13.8043 2.72064 14 3.10218 14 3.5C14 3.89782 13.8043 4.27936 13.4561 4.56066C13.1078 4.84196 12.6354 5 12.1429 5H2.85714C2.3646 5 1.89223 4.84196 1.54394 4.56066C1.19566 4.27936 1 3.89782 1 3.5C1 3.10218 1.19566 2.72064 1.54394 2.43934C1.89223 2.15804 2.3646 2 2.85714 2ZM15.8571 24H25.1429C25.6354 24 26.1078 24.158 26.4561 24.4393C26.8043 24.7206 27 25.1022 27 25.5C27 25.8978 26.8043 26.2794 26.4561 26.5607C26.1078 26.842 25.6354 27 25.1429 27H15.8571C15.3646 27 14.8922 26.842 14.5439 26.5607C14.1957 26.2794 14 25.8978 14 25.5C14 25.1022 14.1957 24.7206 14.5439 24.4393C14.8922 24.158 15.3646 24 15.8571 24ZM2.85714 8H25.1429C25.6354 8 26.1078 8.15804 26.4561 8.43934C26.8043 8.72064 27 9.10218 27 9.5C27 9.89782 26.8043 10.2794 26.4561 10.5607C26.1078 10.842 25.6354 11 25.1429 11H2.85714C2.3646 11 1.89223 10.842 1.54394 10.5607C1.19566 10.2794 1 9.89782 1 9.5C1 9.10218 1.19566 8.72064 1.54394 8.43934C1.89223 8.15804 2.3646 8 2.85714 8Z" fill="#1F1F1F"/>
<path d="M1.17955 17.6847C1.1853 17.578 1.19104 17.4874 1.19104 17.4128C1.19679 17.2795 1.20254 17.1409 1.20828 17.0023C1.21403 16.8636 1.21403 16.6877 1.21403 16.4745C1.21403 16.2665 1.20828 16.032 1.19679 15.7867C1.1853 15.5308 1.17381 15.3496 1.16806 15.2483C1.16231 15.147 1.15082 15.0403 1.13933 14.9177C1.12784 14.7951 1.11634 14.7045 1.1106 14.6458C1.10485 14.5818 1.09336 14.5072 1.08187 14.4272L1.07037 14.31C1.06463 14.2566 1.08186 14.2087 1.12209 14.166C1.16231 14.1234 1.21978 14.102 1.28299 14.0967C1.34619 14.0914 1.4094 14.1074 1.46112 14.1447C1.51283 14.182 1.54157 14.2247 1.54731 14.2833L1.5588 14.4006C1.5703 14.4806 1.58179 14.5499 1.58754 14.6085C1.59328 14.6671 1.60478 14.7631 1.61627 14.8857C1.62776 15.0084 1.63925 15.1256 1.645 15.2376C1.65075 15.3442 1.66224 15.5202 1.67373 15.7707C1.68522 16.032 1.69097 16.2665 1.69097 16.4851C1.69097 16.6824 1.68522 16.8583 1.67948 17.0023C1.71395 16.9703 1.73694 16.9436 1.75992 16.917C1.82313 16.8636 1.89209 16.8103 1.96679 16.757C2.04149 16.7037 2.13343 16.6451 2.2541 16.5811C2.37477 16.5224 2.47246 16.4745 2.54716 16.4478C2.64485 16.4211 2.77701 16.3998 2.94365 16.3838C3.11604 16.3732 3.24246 16.3785 3.34015 16.3998C3.42634 16.4158 3.50679 16.4371 3.58723 16.4638C3.67343 16.5011 3.76537 16.5598 3.87455 16.6397C3.97798 16.725 4.06418 16.805 4.12164 16.8796C4.1791 16.9596 4.23082 17.0449 4.27104 17.1355C4.31701 17.2368 4.35149 17.4074 4.38022 17.658C4.4147 17.9139 4.42044 18.0952 4.40895 18.1965C4.40321 18.3031 4.38597 18.3991 4.35724 18.495C4.32276 18.591 4.28253 18.6816 4.23656 18.7669C4.19059 18.8575 4.12164 18.9535 4.03544 19.0548C3.94925 19.1561 3.8688 19.2361 3.7941 19.2894C3.7194 19.3427 3.61022 19.4067 3.46082 19.4866C3.31142 19.5613 3.19074 19.6093 3.10455 19.6359C3.0241 19.6572 2.93216 19.6786 2.81724 19.6946C2.7138 19.7106 2.62761 19.7212 2.55865 19.7265C2.50119 19.7319 2.44373 19.7372 2.39201 19.7425C2.3288 19.7479 2.24261 19.7479 2.13343 19.7425C2.01276 19.7372 1.91507 19.7212 1.84037 19.6946L1.77142 19.6679C1.70821 19.6519 1.66224 19.6146 1.63351 19.5666C1.60477 19.5133 1.60478 19.46 1.62776 19.4067C1.65075 19.3534 1.69097 19.316 1.75418 19.2947C1.81739 19.2734 1.87485 19.2734 1.93806 19.2947L2.01851 19.3214C2.04724 19.3267 2.09321 19.332 2.15642 19.3374C2.23686 19.3374 2.30007 19.3374 2.34604 19.3374C2.39201 19.332 2.44948 19.3267 2.51268 19.3214C2.57015 19.316 2.64485 19.3054 2.73104 19.2947C2.82298 19.2787 2.89768 19.2627 2.95515 19.2467C3.00686 19.2361 3.09306 19.1987 3.21373 19.1401C3.34015 19.0761 3.42634 19.0228 3.47806 18.9908C3.52403 18.9535 3.58149 18.8949 3.65044 18.8202C3.7194 18.7456 3.77112 18.6763 3.80559 18.607C3.84007 18.543 3.86306 18.4737 3.88604 18.3991C3.90328 18.3297 3.92052 18.2498 3.93776 18.1645C3.9435 18.0792 3.93201 17.9299 3.90903 17.706C3.87455 17.4821 3.84582 17.3381 3.82283 17.2742C3.7941 17.2102 3.76537 17.1462 3.72515 17.0929C3.68492 17.0449 3.62746 16.9916 3.5585 16.9329C3.4838 16.885 3.43209 16.8476 3.39186 16.8317C3.34589 16.8103 3.29418 16.7943 3.24246 16.7837C3.19649 16.7783 3.11604 16.7783 2.99537 16.7837C2.8747 16.7943 2.79425 16.8103 2.74828 16.8263C2.68507 16.8423 2.60463 16.8743 2.51268 16.9276C2.42074 16.9756 2.34604 17.0236 2.29433 17.0609C2.23686 17.1036 2.17366 17.1515 2.11619 17.1942C2.07022 17.2368 1.99552 17.3328 1.89209 17.4767C1.85761 17.5141 1.82888 17.5514 1.80589 17.5834C1.74268 17.674 1.69671 17.7433 1.66798 17.7913C1.66224 17.8553 1.65649 17.9246 1.65649 17.9992C1.63925 18.2391 1.62201 18.431 1.60477 18.575C1.59328 18.7189 1.58179 18.8309 1.5703 18.9055C1.55881 18.9855 1.54731 19.0761 1.53582 19.1881C1.52433 19.3054 1.51284 19.3853 1.50709 19.428C1.50134 19.476 1.4841 19.54 1.45537 19.6199C1.44963 19.6253 1.43813 19.6306 1.43239 19.6412C1.42089 19.6519 1.40366 19.6626 1.36918 19.6892C1.3347 19.7106 1.30597 19.7319 1.27724 19.7479C1.24851 19.7639 1.21403 19.7799 1.1738 19.7905C1.13358 19.8012 1.0991 19.8065 1.07037 19.8012C1.04164 19.7959 1.01291 19.7852 0.989925 19.7585C0.96694 19.7319 0.949702 19.6999 0.938209 19.6519C0.926717 19.6039 0.92097 19.5506 0.909478 19.492C0.897985 19.4333 0.892238 19.3747 0.886491 19.3267C0.880745 19.2681 0.875 19.2041 0.875 19.1401C0.875 19.0761 0.880746 18.9535 0.892238 18.7722C0.903731 18.5857 0.920969 18.447 0.943954 18.3617C0.961193 18.2764 0.984179 18.1911 1.01291 18.1112C1.04164 18.0312 1.07037 17.9512 1.1106 17.8659C1.11634 17.7966 1.14507 17.7433 1.17955 17.6847Z" fill="#1F1F1F"/>
<path d="M7.5741 19.8877C7.52813 19.9411 7.47067 19.973 7.39596 19.9784L7.24656 19.9944C7.1144 20.005 6.9535 19.9997 6.75238 19.9677C6.55701 19.9357 6.37887 19.8824 6.21798 19.8184C6.06858 19.7545 5.94216 19.6852 5.84447 19.6212C5.74104 19.5465 5.60887 19.4293 5.45947 19.2533C5.31007 19.0827 5.20664 18.9441 5.15492 18.8375C5.09746 18.7255 5.05149 18.5336 5.01701 18.2617C4.97678 17.9898 4.96529 17.7979 4.98828 17.6806C5.01701 17.5686 5.06872 17.4194 5.14917 17.2328C5.22962 17.0462 5.32156 16.8862 5.4135 16.7529C5.51119 16.625 5.59738 16.5184 5.68357 16.4437C5.76977 16.3638 5.90193 16.2785 6.08581 16.1772C6.28119 16.0652 6.51678 15.9906 6.78686 15.9532C7.05119 15.9159 7.24082 15.9053 7.36723 15.9213C7.48791 15.9319 7.65455 15.9746 7.86716 16.0545C8.08552 16.1345 8.24641 16.2038 8.34985 16.2625C8.45328 16.3211 8.56246 16.4117 8.67738 16.5237C8.78656 16.6357 8.87276 16.7423 8.92447 16.8329C8.98194 16.9289 9.0394 17.0782 9.09111 17.2807C9.13708 17.4833 9.16007 17.6753 9.16007 17.8459C9.16007 18.0058 9.14858 18.1391 9.13134 18.2457C9.11985 18.3577 9.07388 18.5069 9.00492 18.7042C8.93022 18.9015 8.84977 19.0667 8.75783 19.1947C8.66589 19.328 8.53947 19.4506 8.37283 19.5625C8.20619 19.6798 8.07977 19.7545 7.98783 19.7864C7.90738 19.8291 7.76373 19.8611 7.5741 19.8877ZM6.41335 19.4506C6.4938 19.4026 6.5685 19.3866 6.64895 19.4079L6.8041 19.4559C6.88455 19.4826 6.97074 19.4986 7.06843 19.5039C7.16037 19.5146 7.28679 19.5092 7.45343 19.4879C7.62007 19.4666 7.72925 19.4452 7.78671 19.4239C7.84417 19.4026 7.93611 19.344 8.06253 19.2587C8.18895 19.168 8.28089 19.0774 8.34985 18.9868C8.42455 18.8908 8.48776 18.7628 8.54522 18.5976C8.60843 18.427 8.64865 18.2937 8.66589 18.2084C8.67738 18.1178 8.68313 18.0005 8.68313 17.8512C8.68313 17.7126 8.66589 17.5526 8.62567 17.3767C8.58544 17.2061 8.54522 17.0888 8.50499 17.0302C8.46477 16.9662 8.40156 16.8862 8.31537 16.7956C8.22917 16.705 8.14873 16.641 8.07977 16.5983C8.01082 16.5557 7.8844 16.5024 7.70052 16.4384C7.51664 16.3798 7.38447 16.3424 7.30402 16.3371C7.22932 16.3264 7.08567 16.3318 6.87305 16.3638C6.67193 16.3957 6.49955 16.4544 6.36164 16.529C6.21223 16.6143 6.10305 16.6783 6.04559 16.7263C5.98238 16.7849 5.90768 16.8702 5.82723 16.9822C5.74678 17.0888 5.67208 17.2221 5.60313 17.3874C5.52843 17.5473 5.4882 17.6753 5.47671 17.7606C5.46522 17.8405 5.47096 17.9951 5.49395 18.2244C5.52843 18.459 5.5629 18.6082 5.60313 18.6829C5.64335 18.7628 5.72955 18.8748 5.86171 19.0241C5.98813 19.168 6.08581 19.264 6.15477 19.3173C6.22372 19.3493 6.30992 19.3973 6.41335 19.4506Z" fill="#1F1F1F"/>
<path d="M12.3514 19.8877C12.3055 19.9411 12.248 19.973 12.1733 19.9784L12.0239 19.9944C11.8917 20.005 11.7308 19.9997 11.5297 19.9677C11.3344 19.9357 11.1562 19.8824 10.9953 19.8184C10.8459 19.7545 10.7195 19.6852 10.6218 19.6212C10.5184 19.5465 10.3862 19.4293 10.2368 19.2533C10.0874 19.0827 9.98398 18.9441 9.93226 18.8375C9.8748 18.7255 9.82883 18.5336 9.79435 18.2617C9.75413 17.9898 9.74264 17.7979 9.76562 17.6806C9.79435 17.5686 9.84607 17.4194 9.92652 17.2328C10.007 17.0462 10.0989 16.8862 10.1908 16.7529C10.2885 16.625 10.3747 16.5184 10.4609 16.4437C10.5471 16.3638 10.6793 16.2785 10.8632 16.1772C11.0585 16.0652 11.2941 15.9906 11.5642 15.9532C11.8285 15.9159 12.0182 15.9053 12.1446 15.9213C12.2652 15.9319 12.4319 15.9746 12.6445 16.0545C12.8629 16.1345 13.0238 16.2038 13.1272 16.2625C13.2306 16.3211 13.3398 16.4117 13.4547 16.5237C13.5639 16.6357 13.6501 16.7423 13.7018 16.8329C13.7593 16.9289 13.8167 17.0782 13.8685 17.2807C13.9144 17.4833 13.9374 17.6753 13.9374 17.8459C13.9374 18.0058 13.9259 18.1391 13.9087 18.2457C13.8972 18.3577 13.8512 18.5069 13.7823 18.7042C13.7076 18.9015 13.6271 19.0667 13.5352 19.1947C13.4432 19.328 13.3168 19.4506 13.1502 19.5625C12.9835 19.6798 12.8571 19.7545 12.7652 19.7864C12.6847 19.8291 12.5411 19.8611 12.3514 19.8877ZM11.1907 19.4506C11.2711 19.4026 11.3458 19.3866 11.4263 19.4079L11.5814 19.4559C11.6619 19.4826 11.7481 19.4986 11.8458 19.5039C11.9377 19.5146 12.0641 19.5092 12.2308 19.4879C12.3974 19.4666 12.5066 19.4452 12.5641 19.4239C12.6215 19.4026 12.7135 19.344 12.8399 19.2587C12.9663 19.168 13.0582 19.0774 13.1272 18.9868C13.2019 18.8908 13.2651 18.7628 13.3226 18.5976C13.3858 18.427 13.426 18.2937 13.4432 18.2084C13.4547 18.1178 13.4605 18.0005 13.4605 17.8512C13.4605 17.7126 13.4432 17.5526 13.403 17.3767C13.3628 17.2061 13.3226 17.0888 13.2823 17.0302C13.2421 16.9662 13.1789 16.8862 13.0927 16.7956C13.0065 16.705 12.9261 16.641 12.8571 16.5983C12.7882 16.5557 12.6617 16.5024 12.4779 16.4384C12.294 16.3798 12.1618 16.3424 12.0814 16.3371C12.0067 16.3264 11.863 16.3318 11.6504 16.3638C11.4493 16.3957 11.2769 16.4544 11.139 16.529C10.9896 16.6143 10.8804 16.6783 10.8229 16.7263C10.7597 16.7849 10.685 16.8702 10.6046 16.9822C10.5241 17.0888 10.4494 17.2221 10.3805 17.3874C10.3058 17.5473 10.2655 17.6753 10.2541 17.7606C10.2426 17.8405 10.2483 17.9951 10.2713 18.2244C10.3058 18.459 10.3402 18.6082 10.3805 18.6829C10.4207 18.7628 10.5069 18.8748 10.6391 19.0241C10.7655 19.168 10.8632 19.264 10.9321 19.3173C11.0011 19.3493 11.0873 19.3973 11.1907 19.4506Z" fill="#1F1F1F"/>
<path d="M15.0985 18.5607C15.0985 18.598 15.0985 18.6407 15.0985 18.678C15.1043 18.774 15.11 18.8646 15.1158 18.9606C15.1215 19.0565 15.1272 19.1418 15.1272 19.2165C15.1272 19.2964 15.1215 19.3817 15.1158 19.4724V19.6217C15.11 19.675 15.0813 19.723 15.0353 19.7603C14.9893 19.7976 14.9319 19.8189 14.8687 19.8136C14.8055 19.8083 14.748 19.7869 14.6963 19.7496C14.6446 19.707 14.6273 19.659 14.6331 19.6057V19.467C14.6388 19.3711 14.6446 19.2911 14.6446 19.2165C14.6446 19.1472 14.6388 19.0619 14.6331 18.9766C14.6273 18.8859 14.6216 18.7953 14.6158 18.694C14.6158 18.5874 14.6101 18.4061 14.5986 18.1449C14.5871 17.953 14.5814 17.7984 14.5814 17.6811C14.5756 17.6171 14.5699 17.5425 14.5641 17.4572C14.5526 17.2226 14.5469 17.052 14.5469 16.9347C14.5469 16.8174 14.5526 16.7001 14.5641 16.5882C14.5641 16.5828 14.5641 16.5722 14.5641 16.5615C14.5641 16.5508 14.5699 16.5295 14.5814 16.5028C14.5928 16.4762 14.5986 16.4495 14.6101 16.4229C14.6216 16.3962 14.6388 16.3749 14.6618 16.3536C14.6848 16.3322 14.7078 16.3163 14.7365 16.3056C14.7652 16.2949 14.794 16.2896 14.8342 16.2949C14.8744 16.3003 14.9146 16.3163 14.9606 16.3429C15.0353 16.3856 15.0755 16.4282 15.0928 16.4655C15.11 16.5029 15.11 16.5295 15.087 16.5508L15.0583 16.5775C15.0583 16.6681 15.0583 16.7747 15.0583 16.9027C15.0583 17.0306 15.0583 17.1426 15.0583 17.2492C15.0583 17.3505 15.0583 17.4572 15.0583 17.5691C15.064 17.5958 15.0698 17.6278 15.0698 17.6704C15.0755 17.7504 15.0813 17.809 15.087 17.8623C15.1732 17.6757 15.2364 17.5371 15.2824 17.4465C15.3341 17.3505 15.3916 17.2599 15.449 17.1639C15.5065 17.0626 15.6157 16.9134 15.7651 16.7161C15.9317 16.5082 16.0467 16.3749 16.1099 16.3163C16.1903 16.2576 16.2823 16.2043 16.3857 16.1563L16.5064 16.1137C16.5638 16.087 16.627 16.0817 16.696 16.103C16.7592 16.1243 16.8052 16.1563 16.8339 16.2043C16.8626 16.2523 16.8626 16.3056 16.8396 16.3642C16.8167 16.4175 16.7764 16.4602 16.719 16.4815L16.5983 16.5295C16.5408 16.5508 16.4891 16.5775 16.4489 16.6041C16.4087 16.6415 16.3167 16.7534 16.1731 16.9294C16.0294 17.1213 15.9317 17.2599 15.88 17.3452C15.8283 17.4358 15.7766 17.5211 15.7306 17.6118C15.6846 17.7024 15.6157 17.8463 15.5237 18.0436C15.4146 18.2622 15.3226 18.4061 15.2479 18.4861C15.1962 18.5127 15.1502 18.5394 15.0985 18.5607Z" fill="#1F1F1F"/>
<path d="M18.0861 19.8348C18.0344 19.8721 17.9769 19.8881 17.9137 19.8881C17.8505 19.8881 17.793 19.8615 17.7471 19.8242C17.7011 19.7815 17.6781 19.7388 17.6781 19.6855L17.6896 19.6056C17.6896 19.5523 17.6896 19.4616 17.6896 19.3337C17.6896 19.2057 17.6896 19.0991 17.6896 19.0191C17.6896 18.9445 17.6839 18.8379 17.6781 18.7046C17.6724 18.566 17.6609 18.4007 17.6494 18.2141C17.6321 18.0222 17.6149 17.8409 17.6034 17.6703C17.5919 17.4997 17.5862 17.3664 17.5747 17.2598C17.5632 17.1532 17.5517 17.0519 17.5402 16.9399C17.5287 16.828 17.5172 16.748 17.5115 16.7053C17.5115 16.6734 17.5057 16.636 17.4942 16.5934L17.4827 16.5187C17.4712 16.4708 17.4827 16.4228 17.523 16.3801C17.5632 16.3322 17.6149 16.3055 17.6781 16.3002C17.7413 16.2895 17.8045 16.3055 17.862 16.3375C17.9195 16.3695 17.9482 16.4121 17.9539 16.4654L17.9712 16.5294C17.9769 16.5827 17.9827 16.6307 17.9884 16.6734C17.9884 16.7107 17.9999 16.7853 18.0171 16.8973C18.0286 17.0092 18.0401 17.1212 18.0516 17.2278C18.0631 17.3344 18.0746 17.473 18.0861 17.6437C18.0918 17.8143 18.1033 17.9955 18.1148 18.1821C18.1321 18.374 18.1493 18.5393 18.1551 18.6779C18.1608 18.8165 18.1665 18.9232 18.1665 19.0031C18.1665 19.0831 18.1665 19.1897 18.1665 19.323C18.1665 19.4563 18.1665 19.5523 18.1665 19.6056L18.1551 19.6962C18.1608 19.7495 18.1378 19.7975 18.0861 19.8348Z" fill="#1F1F1F"/>
<path d="M18.7763 16.2322C18.7993 16.1789 18.8396 16.1416 18.897 16.1202C18.9545 16.0989 19.0177 16.0989 19.0866 16.1149C19.1499 16.1362 19.1958 16.1682 19.2246 16.2162L19.3222 16.4081C19.3969 16.5468 19.4716 16.7174 19.5463 16.9146C19.621 17.0959 19.6785 17.2398 19.7245 17.3358C19.7819 17.4371 19.8624 17.5757 19.9601 17.7516C20.0635 17.9276 20.1842 18.1355 20.3163 18.3647C20.4485 18.5993 20.5405 18.7486 20.5922 18.8232C20.6439 18.9032 20.6956 18.9778 20.7416 19.0471C20.7818 19.1058 20.845 19.1804 20.9369 19.2657C20.9542 19.2817 20.9772 19.2977 20.9944 19.3137C21.0231 19.2817 21.0461 19.2444 21.0749 19.2071C21.184 19.0471 21.2587 18.9298 21.2932 18.8499C21.3334 18.7539 21.3737 18.6579 21.4139 18.5513C21.4599 18.4394 21.5346 18.2421 21.638 17.9542C21.7472 17.6717 21.8276 17.4797 21.8736 17.3731C21.9196 17.2665 21.9713 17.1385 22.0287 16.9892C22.0919 16.8453 22.1379 16.744 22.1666 16.68L22.2069 16.5947C22.2241 16.5468 22.2701 16.5094 22.3275 16.4881C22.3908 16.4668 22.454 16.4668 22.5172 16.4828C22.5804 16.5041 22.6263 16.5361 22.6493 16.5894C22.6781 16.6427 22.6781 16.6907 22.6493 16.744L22.6206 16.8293C22.5919 16.8826 22.5459 16.9839 22.4827 17.1279C22.4252 17.2771 22.3735 17.3998 22.3275 17.5011C22.2873 17.6023 22.2069 17.7943 22.0977 18.0822C21.9885 18.3701 21.9081 18.5673 21.8736 18.6739C21.8276 18.7859 21.7874 18.8872 21.7472 18.9832C21.7069 19.0898 21.6265 19.2337 21.5001 19.415C21.4943 19.4256 21.4828 19.447 21.4599 19.4736C21.4426 19.5003 21.4254 19.5216 21.4139 19.5323C21.4024 19.5429 21.3852 19.5643 21.3622 19.5962C21.3392 19.6282 21.3219 19.6496 21.3105 19.6602C21.299 19.6709 21.276 19.6869 21.2472 19.7082C21.2185 19.7295 21.1898 19.7402 21.1668 19.7455C21.1438 19.7509 21.1151 19.7562 21.0806 19.7669C21.0461 19.7775 21.0116 19.7775 20.9772 19.7562C20.8565 19.7455 20.7301 19.6709 20.5922 19.5376C20.4657 19.431 20.3796 19.3403 20.3278 19.255C20.2761 19.1857 20.2244 19.1111 20.1727 19.0311C20.1152 18.9458 20.0175 18.7859 19.8854 18.5407C19.7532 18.3061 19.6383 18.1035 19.5291 17.9276C19.4257 17.7516 19.3452 17.6077 19.2935 17.5064C19.236 17.3944 19.1671 17.2398 19.0866 17.0426C19.0234 16.856 18.9545 16.7014 18.8913 16.5787L18.7821 16.3868C18.7534 16.3388 18.7534 16.2855 18.7763 16.2322Z" fill="#1F1F1F"/>
<path d="M26.9677 18.7808H26.9562C26.916 18.8395 26.8815 18.8928 26.8585 18.9408C26.8241 18.9834 26.7896 19.0314 26.7494 19.0794C26.6977 19.1434 26.5827 19.2553 26.4046 19.4099C26.2265 19.5699 26.0885 19.6765 25.9909 19.7245C25.8989 19.7725 25.807 19.8151 25.715 19.8471C25.6231 19.8791 25.5312 19.9057 25.4392 19.9324C25.3415 19.9537 25.2266 19.9697 25.0944 19.9751C24.9623 19.9751 24.8129 19.9537 24.652 19.9111C24.5083 19.8684 24.3991 19.8258 24.3244 19.7938C24.2497 19.7618 24.175 19.7245 24.1003 19.6765C24.0256 19.6339 23.9509 19.5699 23.8762 19.4952C23.79 19.4046 23.7211 19.2927 23.6694 19.1487C23.6177 19.0154 23.5889 18.9088 23.5832 18.8235C23.5774 18.7435 23.5832 18.6529 23.6004 18.5409C23.6177 18.4343 23.6521 18.349 23.6866 18.2744C23.7211 18.1944 23.79 18.0931 23.8935 17.9652C23.9969 17.8319 24.0888 17.7359 24.1693 17.6826C24.244 17.6346 24.3187 17.5866 24.4049 17.544C24.4911 17.5013 24.6003 17.448 24.7382 17.3947C24.8876 17.3414 25.0657 17.3041 25.2611 17.2934C25.4565 17.2774 25.6174 17.2828 25.7323 17.3201C25.853 17.3574 26.0196 17.4587 26.2322 17.6186C26.2609 17.6399 26.2839 17.6613 26.3126 17.6826C26.2667 17.544 26.2322 17.432 26.2035 17.3521C26.1632 17.2561 26.1058 17.1388 26.0253 16.9949C25.9506 16.8562 25.8817 16.7496 25.8185 16.6697C25.761 16.5897 25.6921 16.5204 25.6231 16.4617C25.5656 16.4138 25.4507 16.3498 25.2898 16.2751C25.1232 16.2005 24.9795 16.1525 24.8588 16.1365C24.7267 16.1152 24.6232 16.1045 24.5428 16.1045C24.4566 16.0992 24.3762 16.0992 24.2957 16.1152C24.2325 16.1152 24.1061 16.1472 23.9337 16.2058C23.8073 16.2538 23.7211 16.2965 23.6751 16.3231L23.6234 16.3871C23.5832 16.4297 23.5315 16.4617 23.4682 16.4724C23.405 16.4831 23.3418 16.4724 23.2844 16.4404C23.2269 16.4084 23.1982 16.3604 23.1867 16.3071C23.1752 16.2538 23.1867 16.2005 23.2212 16.1578L23.2901 16.0832C23.3533 15.9979 23.5085 15.9179 23.7556 15.8326C23.9797 15.7527 24.1463 15.7154 24.2555 15.71C24.3532 15.6994 24.4509 15.694 24.5485 15.6994C24.6577 15.6994 24.7956 15.7154 24.9508 15.742C25.1174 15.7687 25.3013 15.8273 25.5082 15.9233C25.715 16.0139 25.8702 16.0992 25.9679 16.1792C26.0598 16.2591 26.146 16.3444 26.2265 16.4457C26.3069 16.547 26.3874 16.675 26.4735 16.8349C26.5597 16.9949 26.623 17.1281 26.6632 17.2348C26.7034 17.3414 26.7551 17.4907 26.8183 17.6933C26.8815 17.8799 26.9332 18.0131 26.9677 18.0931C26.9965 18.1784 27.0194 18.2637 27.0482 18.349C27.0769 18.4343 27.0941 18.493 27.1056 18.5303C27.1401 18.5729 27.1286 18.6316 27.0769 18.7062L26.9677 18.7808ZM26.554 18.5729C26.5138 18.5196 26.4793 18.4663 26.4448 18.4236C26.3988 18.365 26.3471 18.301 26.2897 18.2317C26.2322 18.1677 26.1115 18.0611 25.9277 17.9225C25.7495 17.7892 25.6346 17.7146 25.5714 17.6986C25.5254 17.6879 25.4392 17.6826 25.3071 17.6879C25.1634 17.6986 25.0427 17.7252 24.945 17.7626C24.8244 17.8052 24.7324 17.8479 24.6692 17.8852C24.606 17.9225 24.5428 17.9598 24.4796 17.9971C24.4336 18.0291 24.3704 18.0984 24.29 18.1944C24.2095 18.2957 24.1578 18.365 24.1348 18.413C24.1176 18.461 24.0946 18.5303 24.0774 18.6102C24.0659 18.6849 24.0601 18.7435 24.0659 18.7915C24.0659 18.8395 24.0831 18.9141 24.1233 19.0154C24.1635 19.1114 24.2038 19.1807 24.2497 19.2233C24.3015 19.2767 24.3532 19.3193 24.3991 19.346C24.4451 19.3726 24.4968 19.3993 24.5485 19.4259C24.6003 19.4526 24.6922 19.4792 24.8129 19.5112C24.9163 19.5432 25.0082 19.5592 25.0887 19.5592C25.1806 19.5539 25.2553 19.5432 25.3128 19.5326C25.376 19.5166 25.445 19.4952 25.5197 19.4686C25.5944 19.4419 25.6633 19.4099 25.738 19.378C25.8012 19.3406 25.9104 19.2553 26.0656 19.122C26.2207 18.9834 26.3184 18.8928 26.3529 18.8555C26.3874 18.8075 26.4161 18.7595 26.4391 18.7222C26.4621 18.6955 26.4965 18.6422 26.554 18.5729Z" fill="#1F1F1F"/>
<path d="M17.8914 15.0271C17.6788 14.9418 17.5179 14.8086 17.3685 14.6433C17.3168 14.5846 17.0295 14.3021 17.0869 14.2008C17.1157 14.1528 17.2708 14.1795 17.311 14.2008C17.357 14.2221 17.403 14.2648 17.4374 14.3021C17.4949 14.3661 17.5351 14.4407 17.5754 14.5153C17.6558 14.6699 17.719 14.8352 17.8282 14.9738C17.8914 15.0591 18.0408 14.9792 17.9776 14.8939C17.8167 14.6806 17.7535 14.414 17.5754 14.2061C17.4432 14.0515 17.1731 13.9129 16.9835 14.0675C16.8054 14.2061 16.972 14.4194 17.0754 14.5527C17.2708 14.8032 17.4892 15.0325 17.7995 15.1604C17.9086 15.2084 17.9948 15.0698 17.8914 15.0271Z" fill="#1F1F1F"/>
<path d="M17.0937 14.3288C17.2374 14.5687 17.4213 14.7926 17.5994 15.0112C17.6684 15.0912 17.8178 15.0112 17.7488 14.9313C17.5649 14.7127 17.3868 14.4888 17.2431 14.2489C17.1857 14.1582 17.0363 14.2382 17.0937 14.3288Z" fill="#1F1F1F"/>
<path d="M17.8485 15.1743C18.3197 15.153 18.7794 15.009 19.2161 14.8438C19.3597 14.7905 19.6643 14.6998 19.6298 14.5079C19.5379 14.0228 18.1415 14.8011 17.9461 14.8704C17.8427 14.9078 17.8887 15.0624 17.9921 15.025C18.2047 14.9504 18.4001 14.8544 18.6012 14.7638C18.7276 14.7052 19.2505 14.4226 19.4 14.5399C19.4574 14.5825 19.4172 14.5825 19.3482 14.6145C19.308 14.6359 19.262 14.6519 19.2161 14.6732C19.1069 14.7158 18.992 14.7531 18.8828 14.7958C18.5495 14.9078 18.2105 15.0037 17.8485 15.0197C17.7393 15.0197 17.7335 15.1796 17.8485 15.1743Z" fill="#1F1F1F"/>
<path d="M19.2341 14.5647C18.8664 14.7193 18.4871 14.8473 18.1079 14.9699C18.0044 15.0019 18.0504 15.1565 18.1538 15.1245C18.5503 14.9912 18.9411 14.8579 19.3261 14.7033C19.4238 14.6607 19.3318 14.522 19.2341 14.5647Z" fill="#1F1F1F"/>
</svg>
