<svg width="89" height="102" viewBox="0 0 89 102" fill="none" xmlns="http://www.w3.org/2000/svg">
<path d="M24.8801 91.4223L19.1799 89.9082L2.36732 77.2259C0.949273 74.3411 -0.768289 67.0733 3.70587 61.0797C9.29857 53.5879 15.2618 44.0565 22.6131 36.2482C29.9645 28.4398 37.3842 19.904 39.9126 17.1063C42.4409 14.3086 52.1914 2.54236 57.9995 1.00378C62.6459 -0.227082 68.8905 0.358892 71.432 0.805735C71.4967 1.38588 72.1496 2.68374 74.2441 3.234C76.3387 3.78425 78.9146 5.34438 79.9407 6.05567C80.1373 6.92446 80.6627 8.77634 81.1921 9.23344C81.8538 9.80482 79.6239 12.5981 81.6487 11.9871C83.2686 11.4983 85.4381 12.8998 86.3204 13.6616C86.216 15.4065 85.6145 19.3962 84.0435 21.3952C82.4725 23.3942 81.5666 25.548 81.3101 26.3751L82.6336 27.5179C83.6526 26.8249 85.597 25.6726 85.2229 26.608C84.7553 27.7771 83.1298 27.9464 82.9607 29.1111C82.7916 30.2759 82.8527 32.1637 83.9819 31.5659C84.5321 31.5578 84.9241 31.4235 85.1985 31.2365C85.3833 30.8759 85.6038 30.5036 85.7766 30.2319C85.7759 30.5004 85.6387 30.9363 85.1985 31.2365C84.8847 31.8488 84.6739 32.4274 84.9745 32.423C85.4521 32.4159 86.7008 31.8164 87.2654 31.5175L88.9234 31.6383L86.7942 33.9942C85.6232 35.29 86.8553 35.882 87.6177 36.0161C87.4175 36.4549 86.7646 37.4815 85.7547 38.0775C84.4923 38.8225 85.3878 38.8093 83.9564 40.7191C82.8112 42.2469 78.0676 47.3437 75.839 49.701C75.7958 49.3143 75.47 48.8057 74.5119 49.8659C73.3142 51.1911 73.1812 51.3383 72.0482 53.2437C70.9153 55.1491 60.3378 66.2013 55.8134 71.2076L49.2928 78.4226C47.7594 81.2056 43.8878 87.597 40.6681 90.8988C36.6436 95.0261 31.6625 97.2788 31.4971 97.1359C31.3648 97.0217 29.7397 97.0166 28.9437 97.0283C29.5742 96.8737 30.67 96.4217 30.0082 95.8503C29.3465 95.279 26.7068 94.3978 25.4697 94.0286L24.8801 91.4223Z" fill="#FDA3C4"/>
<path d="M36.8377 96.7666C36.4119 97.2378 37.0559 97.8288 37.4311 98.0654L36.7315 99.1654C36.8616 100.108 37.1684 101.876 37.3554 101.408C37.5425 100.94 37.7906 99.9488 37.8914 99.5115C37.8482 99.1247 38.6136 97.4088 42.0203 93.6393C46.2786 88.9274 45.5485 89.0835 45.9477 88.6418C46.347 88.2 37.37 96.1777 36.8377 96.7666Z" fill="#FDA3C4"/>
</svg>
