<svg width="82" height="98" viewBox="0 0 82 98" fill="none" xmlns="http://www.w3.org/2000/svg">
<path d="M27.1124 74.4196L18.2227 83.2061C18.2227 84.9841 22.3712 92.6885 25.9271 92.6885C28.7718 92.6885 27.9026 87.9473 27.1124 85.5767L33.6315 79.0576L27.1124 74.4196Z" fill="#FDA3C4"/>
<path d="M41.3359 77.2797L47.0764 68.1274L55.9321 71.8561L49.0403 79.0576C49.8305 81.2306 50.5812 85.8138 47.2624 86.762C43.9435 87.7102 41.9285 80.8355 41.3359 77.2797Z" fill="#FDA3C4"/>
<path d="M37.78 50.0179C37.3059 49.5438 32.4462 55.7468 30.0756 58.9076C29.483 59.8953 28.2977 62.3447 28.2977 64.2412C28.2977 66.1377 35.0143 67.7972 38.3727 68.3899L45.4844 64.2412C44.2991 63.0559 42.0471 60.2112 42.5212 58.3147C42.9953 56.4182 47.0648 55.9441 49.0403 55.9441C45.4844 54.1663 38.2541 50.492 37.78 50.0179Z" fill="#FDA3C4"/>
<path d="M27.1124 74.4196L18.2227 83.2061C18.2227 84.9841 22.3712 92.6885 25.9271 92.6885C28.7718 92.6885 27.9026 87.9473 27.1124 85.5767L33.6315 79.0576L27.1124 74.4196Z" stroke="#1F1F1F"/>
<path d="M41.3359 77.2797L47.0764 68.1274L55.9321 71.8561L49.0403 79.0576C49.8305 81.2306 50.5812 85.8138 47.2624 86.762C43.9435 87.7102 41.9285 80.8355 41.3359 77.2797Z" stroke="#1F1F1F"/>
<path d="M37.78 50.0179C37.3059 49.5438 32.4462 55.7468 30.0756 58.9076C29.483 59.8953 28.2977 62.3447 28.2977 64.2412C28.2977 66.1377 35.0143 67.7972 38.3727 68.3899L45.4844 64.2412C44.2991 63.0559 42.0471 60.2112 42.5212 58.3147C42.9953 56.4182 47.0648 55.9441 49.0403 55.9441C45.4844 54.1663 38.2541 50.492 37.78 50.0179Z" stroke="#1F1F1F"/>
<path d="M39.5613 31.6435C38.376 28.4827 36.3594 19.885 39.5613 15.6903C42.3443 12.0445 42.2724 7.99985 44.0499 8C45.8274 8.00015 46.8464 11.8505 46.8464 13.8261C52.4022 13.8261 55.4691 15.6903 57.3335 16.6227C59.1979 17.555 60.3631 11.0003 62.6935 11.7287C64.1478 12.1833 64.0997 17.0253 63.4816 22.1616C67.5587 17.2229 74.8119 10.2687 77.4908 14.4572C79.0067 16.8273 67.079 28.2853 60.9842 31.6435C59.8312 34 58.2603 35.7837 56.1555 36.3851L53.1922 39.3483C55.4236 41.5214 60.106 45.986 60.9842 46.4601C62.082 47.0528 66.3821 44.395 68.7527 42.0244C71.1233 39.6538 75.1202 42.9042 72.157 46.4601C69.1937 50.016 66.2305 54.7572 59.7114 52.3866C56.8429 51.3435 54.3211 50.0136 52.4022 48.8307L49.0437 55.541C52.2045 56.5288 58.5261 60.2095 58.5261 63.0542C58.5261 65.8989 56.1555 69.7709 54.9702 71.3513L47.8584 68.3881C48.2932 67.27 49.4192 65.0973 50.6069 64.8544C48.9684 64.8835 42.7159 64.7848 41.9319 63.0542C40.3212 59.4983 42.272 56.8907 44.0499 56.5351L49.0437 55.541L30.6717 51.2013L39.5613 31.6435Z" fill="white"/>
<path d="M24.7071 60.668C29.9224 57.8233 30.079 58.9057 30.6717 59.4983C31.2643 60.091 31.6985 61.1581 29.4863 63.0542C25.3378 66.6101 22.1436 69.9899 11.6566 67.6594C6.4295 66.4978 3.50006 57.5766 3.5 55.541C3.49982 49.6146 8.55807 48.3166 8.15108 52.3866C7.55843 58.3131 10.4075 62.299 12.1227 63.0542C16.1606 64.8322 18.188 64.2239 24.7071 60.668Z" fill="white"/>
<path d="M30.6717 71.3513V66.6101L38.2238 68.3881C38.4213 69.9685 38.2575 71.5884 37.7834 72.5366C37.3092 73.4848 34.425 76.8827 33.0422 78.4631L27.7084 74.9072L30.6717 71.3513Z" fill="white"/>
<path d="M39.5613 31.6435C38.376 28.4827 36.3594 19.885 39.5613 15.6903C42.3443 12.0445 42.2724 7.99985 44.0499 8C45.8274 8.00015 46.8464 11.8505 46.8464 13.8261C52.4022 13.8261 55.4691 15.6903 57.3335 16.6227C59.1979 17.555 60.3631 11.0003 62.6935 11.7287C64.1478 12.1833 64.0997 17.0253 63.4816 22.1616M39.5613 31.6435C45.7248 29.2726 53.1922 33.8167 56.1555 36.3851M39.5613 31.6435L30.6717 51.2013L49.0437 55.5411M56.1555 36.3851C58.2603 35.7837 59.8312 34 60.9842 31.6435M56.1555 36.3851L53.1922 39.3483C55.4236 41.5214 60.106 45.986 60.9842 46.4601C62.082 47.0528 66.3821 44.395 68.7527 42.0244C71.1233 39.6538 75.1202 42.9042 72.157 46.4601C69.1937 50.016 66.2305 54.7572 59.7114 52.3866C56.8429 51.3435 54.3211 50.0136 52.4022 48.8307M60.9842 31.6435C67.079 28.2853 79.0067 16.8273 77.4908 14.4572C74.8119 10.2687 67.5587 17.2229 63.4816 22.1616M60.9842 31.6435C62.311 28.9317 63.0845 25.4615 63.4816 22.1616M52.4022 48.8307C50.8323 47.8629 49.666 46.9935 49.0437 46.4601L52.4022 48.8307ZM52.4022 48.8307L49.0437 55.5411M49.0437 55.5411L44.0499 56.5351C42.272 56.8907 40.3212 59.4983 41.932 63.0542C42.9101 65.2136 52.4022 64.8322 50.8217 64.8322C49.5572 64.8322 48.3193 67.2028 47.8584 68.3881L54.9702 71.3513C56.1555 69.7709 58.5261 65.8989 58.5261 63.0542C58.5261 60.2095 52.2045 56.5288 49.0437 55.5411ZM30.6717 59.4983C30.079 58.9057 29.9224 57.8233 24.7071 60.6681C18.188 64.2239 16.1606 64.8322 12.1227 63.0542C10.4075 62.299 7.55843 58.3131 8.15108 52.3866C8.55807 48.3166 3.49982 49.6146 3.5 55.5411C3.50006 57.5766 6.4295 66.4978 11.6566 67.6594C22.1436 69.9899 25.3378 66.6101 29.4863 63.0542C31.6985 61.1581 31.2643 60.091 30.6717 59.4983ZM30.6717 66.6101V71.3513L27.7084 74.9072L33.0422 78.4631C34.425 76.8827 37.3092 73.4848 37.7834 72.5366C38.2575 71.5884 38.4213 69.9685 38.2238 68.3881L30.6717 66.6101Z" stroke="#1F1F1F"/>
<path d="M11.1112 46.4603C6.29359 44.3538 6.75955 39.9259 8.14796 36.978C14.0744 38.1644 20.5935 32.8285 24.7421 29.8653C28.8906 26.902 38.2207 23.8058 38.2207 26.1764L38.9656 31.1031C46.2389 29.8629 52.4047 32.695 56.1524 36.978C59.4712 40.7709 57.5352 42.1142 56.1524 42.3118L53.7818 38.7559C45.4847 37.5706 44.8921 44.0897 38.9656 49.4236C34.2244 53.6906 29.8784 59.1035 28.298 61.2765C22.9641 56.3378 15.6991 48.4664 11.1112 46.4603Z" fill="#F40000"/>
<path d="M38.9656 31.1031C46.2389 29.8629 52.4047 32.695 56.1524 36.978C59.4712 40.7709 57.5352 42.1142 56.1524 42.3118L53.7818 38.7559C45.4847 37.5706 44.8921 44.0897 38.9656 49.4236C34.2244 53.6906 29.8784 59.1035 28.298 61.2765C22.9641 56.3378 15.6991 48.4664 11.1112 46.4603C6.29359 44.3538 6.75955 39.9259 8.14796 36.978C14.0744 38.1644 20.5935 32.8285 24.7421 29.8653C28.8906 26.902 38.2207 23.8058 38.2207 26.1764L38.9656 31.1031ZM38.9656 31.1031C39.619 31.6441 37.3968 31.4151 36.595 31.6441L38.9656 31.1031Z" stroke="#1F1F1F"/>
<path d="M35.9811 42.6744C35.7719 44.0309 34.5709 45.2093 32.575 45.947C30.5974 46.6779 27.9485 46.9259 25.105 46.4873C22.2615 46.0486 19.8105 45.0139 18.1451 43.7209C16.4643 42.416 15.6743 40.9305 15.8836 39.574C16.0928 38.2176 17.2938 37.0392 19.2896 36.3015C21.2673 35.5706 23.9161 35.3225 26.7597 35.7612C29.6032 36.1999 32.0542 37.2346 33.7196 38.5276C35.4003 39.8324 36.1904 41.318 35.9811 42.6744Z" fill="white" stroke="#1F1F1F"/>
<path d="M48.4513 21.5683C44.1843 20.6201 43.5126 22.7536 43.7102 23.9389C43.7102 26.3093 45.4881 26.3093 47.8584 26.3093H47.8589C50.2295 26.3093 52.207 22.4029 48.4513 21.5683Z" fill="white"/>
<path d="M59.1192 22.6807C55.8004 21.7325 54.573 23.5928 54.7705 24.7781C54.7705 26.556 54.9707 26.902 59.1192 27.4946C61.9949 27.9055 63.2677 23.866 59.1192 22.6807Z" fill="white"/>
<path d="M48.4513 21.5683C44.1843 20.6201 43.5126 22.7536 43.7102 23.9389C43.7102 26.3093 45.4881 26.3093 47.8584 26.3093H47.8589C50.2295 26.3093 52.207 22.4029 48.4513 21.5683Z" stroke="#1F1F1F"/>
<path d="M59.1192 22.6807C55.8004 21.7325 54.573 23.5928 54.7705 24.7781C54.7705 26.556 54.9707 26.902 59.1192 27.4946C61.9949 27.9055 63.2677 23.866 59.1192 22.6807Z" stroke="#1F1F1F"/>
<path d="M49.6367 28.0859C50.2294 30.0614 52.0073 33.0642 54.3779 29.2712" stroke="#1F1F1F"/>
<circle cx="45.9526" cy="23.8862" r="2.37059" fill="#1F1F1F"/>
<circle cx="57.144" cy="24.8198" r="2.37059" fill="#1F1F1F"/>
<path d="M48.7253 26.2647C48.2714 25.2769 49.1434 25.5154 49.6362 25.7582C50.3648 25.353 50.7767 25.8788 50.4056 26.2842C50.0347 26.6893 49.1792 27.2525 48.7253 26.2647Z" fill="#FDA3C4"/>
<path d="M17.4409 39.4796C17.4632 39.4166 17.4827 39.3632 17.4959 39.3185C17.523 39.2396 17.551 39.1575 17.579 39.0754C17.6071 38.9933 17.6383 38.8881 17.6762 38.7605C17.7132 38.6362 17.7516 38.4952 17.7884 38.347C17.8272 38.1925 17.8527 38.0825 17.8673 38.0212C17.8819 37.9599 17.8942 37.8946 17.9092 37.8197C17.9243 37.7449 17.9337 37.6892 17.9407 37.6533C17.9487 37.6143 17.9553 37.5681 17.9627 37.5188L17.9769 37.4471C17.983 37.4145 18.0016 37.3881 18.0328 37.3679C18.0639 37.3478 18.1014 37.3427 18.1394 37.3479C18.1774 37.3532 18.2117 37.3712 18.2354 37.4004C18.259 37.4296 18.2683 37.4589 18.2612 37.4948L18.2471 37.5664C18.2397 37.6158 18.2341 37.6587 18.227 37.6946C18.22 37.7304 18.2096 37.7893 18.1946 37.8642C18.1795 37.939 18.1654 38.0107 18.1489 38.0784C18.1333 38.1429 18.1087 38.2497 18.0709 38.401C18.0312 38.5588 17.9929 38.6998 17.954 38.8305C17.9189 38.9484 17.8843 39.0529 17.8553 39.1382C17.8812 39.1236 17.8994 39.1108 17.9177 39.0979C17.9642 39.0744 18.0141 39.0518 18.0674 39.0298C18.1207 39.0079 18.185 38.9851 18.2671 38.9629C18.3483 38.9439 18.4141 38.9283 18.4627 38.9223C18.5247 38.9194 18.606 38.9242 18.7065 38.9369C18.8095 38.9535 18.8827 38.9735 18.9362 38.9993C18.9839 39.0204 19.0272 39.0438 19.0697 39.0705C19.1136 39.1043 19.1571 39.1516 19.2069 39.214C19.2523 39.2788 19.2887 39.3381 19.3091 39.3904C19.3286 39.4458 19.3437 39.5037 19.3512 39.5633C19.3601 39.63 19.35 39.7366 19.3223 39.8903C19.297 40.0479 19.2682 40.157 19.2434 40.2161C19.2211 40.2791 19.1939 40.3341 19.16 40.3877C19.1227 40.4405 19.083 40.4893 19.0409 40.5342C18.9979 40.5823 18.9404 40.6304 18.8718 40.6795C18.8033 40.7286 18.7419 40.7657 18.6886 40.7876C18.6353 40.8095 18.5599 40.8332 18.4581 40.8611C18.3572 40.8859 18.2779 40.8985 18.2227 40.9029C18.1717 40.905 18.114 40.9054 18.0438 40.8997C17.9803 40.8955 17.9278 40.8904 17.8865 40.8844C17.8518 40.8799 17.8172 40.8754 17.7859 40.8717C17.7479 40.8665 17.6974 40.855 17.6343 40.8372C17.5645 40.818 17.51 40.7954 17.471 40.7695L17.4353 40.7444C17.4011 40.7264 17.3808 40.6979 17.3724 40.6654C17.3651 40.6297 17.3746 40.5978 17.3975 40.569C17.4205 40.5402 17.4507 40.5232 17.4915 40.5189C17.5324 40.5146 17.5661 40.5222 17.5994 40.5434L17.6418 40.5701C17.6577 40.5771 17.6837 40.5864 17.7198 40.598C17.767 40.6087 17.804 40.6172 17.831 40.6233C17.8589 40.6262 17.8935 40.6307 17.9315 40.6359C17.9662 40.6404 18.0119 40.644 18.0643 40.6491C18.1211 40.6518 18.1677 40.6522 18.2043 40.6503C18.2365 40.6508 18.2936 40.64 18.3748 40.621C18.4603 40.5996 18.5203 40.5792 18.5564 40.567C18.59 40.5508 18.6341 40.5234 18.6878 40.4879C18.7415 40.4525 18.7841 40.418 18.8167 40.3811C18.8482 40.3475 18.874 40.3091 18.9008 40.2675C18.9232 40.2284 18.9476 40.1828 18.9728 40.1341C18.9914 40.0839 19.0112 39.9931 19.0375 39.8561C19.0571 39.7177 19.0658 39.6278 19.0637 39.5864C19.0583 39.5444 19.0528 39.5023 19.0387 39.465C19.0236 39.431 18.9994 39.3914 18.9694 39.3472C18.9341 39.3085 18.9105 39.2793 18.8897 39.2644C18.8665 39.2455 18.8391 39.2291 18.8106 39.2158C18.7846 39.2065 18.7375 39.1958 18.6658 39.1829C18.5931 39.1732 18.5431 39.172 18.5133 39.1754C18.4734 39.1766 18.4205 39.185 18.3571 39.2046C18.2947 39.221 18.2424 39.2398 18.2054 39.2552C18.1641 39.273 18.1185 39.2933 18.0773 39.3111C18.0427 39.3305 17.9819 39.3779 17.8956 39.4502C17.8688 39.468 17.8453 39.4864 17.8261 39.5025C17.773 39.5483 17.7337 39.5836 17.7083 39.6084C17.6936 39.6459 17.6779 39.6866 17.6646 39.7312C17.6118 39.8724 17.5676 39.9849 17.5319 40.0686C17.4996 40.1532 17.4729 40.2186 17.4529 40.2617C17.432 40.308 17.4091 40.3606 17.3825 40.426C17.3549 40.4946 17.3339 40.5409 17.323 40.5657C17.3111 40.5936 17.2896 40.6296 17.2585 40.6735C17.2542 40.676 17.2465 40.6776 17.2412 40.6832C17.2326 40.6881 17.2206 40.6921 17.1957 40.7035C17.1716 40.7116 17.151 40.7206 17.1313 40.7263C17.1116 40.732 17.0886 40.737 17.0631 40.738C17.0376 40.739 17.0164 40.7376 17.0005 40.7306C16.9846 40.7236 16.9697 40.7134 16.961 40.6944C16.9522 40.6754 16.9478 40.654 16.9496 40.6237C16.9514 40.5935 16.9575 40.5609 16.9612 40.5243C16.9649 40.4877 16.9719 40.4518 16.9771 40.4224C16.9841 40.3865 16.9921 40.3475 17.0035 40.3093C17.0149 40.271 17.0401 40.1985 17.079 40.0916C17.1189 39.9816 17.1537 39.901 17.1823 39.853C17.2076 39.8043 17.2363 39.7564 17.2673 39.7124C17.2984 39.6684 17.3295 39.6244 17.3682 39.5788C17.3839 39.5381 17.4102 39.5101 17.4409 39.4796Z" fill="#1F1F1F"/>
<path d="M20.8737 41.6898C20.837 41.7157 20.7973 41.7272 20.7522 41.7204L20.661 41.71C20.581 41.6987 20.4869 41.6739 20.3738 41.6278C20.2641 41.5824 20.1684 41.5264 20.0848 41.4664C20.008 41.408 19.9457 41.3494 19.8994 41.2978C19.8517 41.2391 19.7946 41.1509 19.7379 41.0251C19.6801 40.9025 19.6439 40.8054 19.6324 40.7343C19.6185 40.6593 19.6257 40.5378 19.6541 40.3697C19.679 40.2009 19.7066 40.084 19.7412 40.0166C19.7782 39.9531 19.8355 39.8703 19.9165 39.7689C19.9975 39.6676 20.0805 39.5837 20.1587 39.5159C20.2393 39.4521 20.3093 39.3996 20.3736 39.3662C20.4389 39.3297 20.5323 39.2962 20.6591 39.2599C20.7946 39.2188 20.9471 39.2055 21.1134 39.2192C21.2763 39.2322 21.3902 39.2512 21.4621 39.2778C21.5315 39.3004 21.6223 39.3483 21.7336 39.4249C21.8483 39.5022 21.9309 39.5654 21.9815 39.6145C22.0322 39.6636 22.0804 39.7328 22.1283 39.8155C22.1727 39.8974 22.2046 39.973 22.2189 40.0344C22.2356 40.0998 22.2428 40.1973 22.2371 40.326C22.228 40.4539 22.2072 40.5723 22.1766 40.6749C22.1479 40.771 22.1173 40.8496 22.088 40.9114C22.0611 40.9772 22.0072 41.0607 21.9311 41.1701C21.8517 41.2786 21.7745 41.3672 21.6973 41.4318C21.6191 41.4996 21.5224 41.5564 21.4039 41.6013C21.2844 41.6495 21.1963 41.6774 21.1363 41.6843C21.0811 41.6992 20.9905 41.6992 20.8737 41.6898ZM20.2661 41.2715C20.3223 41.2534 20.3693 41.2538 20.413 41.2774L20.4961 41.327C20.5388 41.3538 20.5869 41.375 20.6437 41.3913C20.6961 41.41 20.7717 41.4238 20.874 41.4333C20.9763 41.4428 21.0446 41.4446 21.0824 41.4395C21.1202 41.4344 21.185 41.4114 21.275 41.3771C21.3659 41.3395 21.4365 41.2974 21.4935 41.2521C21.5548 41.2045 21.6151 41.136 21.6786 41.0444C21.7465 40.9503 21.7942 40.8756 21.8197 40.8266C21.8427 40.7737 21.8671 40.7039 21.8938 40.6142C21.9187 40.5309 21.9371 40.4324 21.9449 40.3213C21.9517 40.2133 21.9489 40.1374 21.9357 40.0968C21.9234 40.053 21.9003 39.9964 21.8657 39.9304C21.831 39.8644 21.7949 39.8151 21.7618 39.7802C21.7287 39.7454 21.6635 39.6964 21.5664 39.6333C21.4682 39.5734 21.3968 39.5333 21.3502 39.5193C21.308 39.5029 21.2222 39.4868 21.0908 39.4776C20.9662 39.4698 20.8539 39.482 20.759 39.5084C20.6554 39.5396 20.5795 39.5635 20.5369 39.5846C20.4891 39.6114 20.4296 39.6527 20.3621 39.7092C20.2954 39.7625 20.2274 39.8326 20.157 39.9227C20.0842 40.0088 20.0376 40.0804 20.0155 40.1301C19.9944 40.1766 19.9701 40.2703 19.9426 40.4112C19.9209 40.5568 19.9145 40.6512 19.9249 40.7014C19.9344 40.7549 19.9653 40.8338 20.0166 40.9412C20.0655 41.0447 20.106 41.1154 20.1372 41.1567C20.1722 41.1852 20.2146 41.2256 20.2661 41.2715Z" fill="#1F1F1F"/>
<path d="M23.7448 42.3734C23.708 42.3993 23.6684 42.4108 23.6233 42.404L23.5321 42.3936C23.4521 42.3823 23.358 42.3575 23.2449 42.3114C23.1352 42.266 23.0395 42.21 22.9559 42.15C22.8791 42.0916 22.8168 42.033 22.7705 41.9814C22.7228 41.9227 22.6657 41.8345 22.609 41.7087C22.5512 41.5861 22.515 41.4889 22.5035 41.4179C22.4896 41.3429 22.4968 41.2214 22.5252 41.0533C22.5501 40.8845 22.5777 40.7676 22.6123 40.7002C22.6493 40.6367 22.7066 40.5539 22.7876 40.4525C22.8686 40.3511 22.9516 40.2673 23.0298 40.1995C23.1104 40.1357 23.1804 40.0832 23.2447 40.0498C23.31 40.0133 23.4034 39.9798 23.5302 39.9435C23.6657 39.9024 23.8182 39.8891 23.9845 39.9028C24.1474 39.9158 24.2613 39.9348 24.3332 39.9614C24.4026 39.9839 24.4934 40.0319 24.6047 40.1085C24.7194 40.1858 24.802 40.249 24.8526 40.2981C24.9032 40.3472 24.9515 40.4164 24.9994 40.4991C25.0438 40.581 25.0756 40.6566 25.09 40.718C25.1067 40.7834 25.1139 40.8808 25.1082 41.0096C25.0991 41.1375 25.0783 41.2559 25.0477 41.3585C25.019 41.4546 24.9884 41.5332 24.9591 41.595C24.9322 41.6608 24.8783 41.7443 24.8022 41.8537C24.7228 41.9622 24.6456 42.0508 24.5684 42.1154C24.4902 42.1832 24.3935 42.24 24.275 42.2849C24.1555 42.3331 24.0674 42.361 24.0074 42.3679C23.9522 42.3828 23.8616 42.3828 23.7448 42.3734ZM23.1372 41.9551C23.1934 41.937 23.2404 41.9374 23.2841 41.961L23.3672 42.0106C23.4099 42.0374 23.458 42.0586 23.5147 42.0749C23.5672 42.0936 23.6428 42.1074 23.7451 42.1169C23.8474 42.1264 23.9157 42.1282 23.9535 42.1231C23.9913 42.118 24.0561 42.095 24.1461 42.0607C24.237 42.0231 24.3076 41.981 24.3646 41.9357C24.4259 41.8881 24.4862 41.8196 24.5497 41.728C24.6176 41.6339 24.6653 41.5592 24.6907 41.5102C24.7138 41.4573 24.7382 41.3875 24.7649 41.2978C24.7898 41.2145 24.8082 41.116 24.816 41.0049C24.8228 40.8969 24.82 40.821 24.8068 40.7804C24.7945 40.7366 24.7714 40.68 24.7367 40.614C24.7021 40.548 24.666 40.4987 24.6329 40.4638C24.5998 40.429 24.5346 40.38 24.4374 40.3169C24.3393 40.257 24.2679 40.2169 24.2213 40.2029C24.1791 40.1865 24.0932 40.1704 23.9619 40.1611C23.8373 40.1534 23.725 40.1656 23.6301 40.192C23.5265 40.2232 23.4506 40.2471 23.408 40.2682C23.3602 40.295 23.3007 40.3362 23.2331 40.3928C23.1665 40.4461 23.0985 40.5162 23.0281 40.6063C22.9553 40.6924 22.9087 40.7639 22.8866 40.8137C22.8655 40.8602 22.8412 40.9539 22.8137 41.0948C22.792 41.2404 22.7856 41.3348 22.796 41.385C22.8055 41.4385 22.8363 41.5173 22.8877 41.6248C22.9366 41.7283 22.9771 41.799 23.0083 41.8403C23.0433 41.8688 23.0857 41.9092 23.1372 41.9551Z" fill="#1F1F1F"/>
<path d="M25.6459 41.9768C25.6392 41.9991 25.6316 42.0246 25.625 42.0469C25.6113 42.1051 25.5986 42.16 25.5849 42.2182C25.5712 42.2763 25.5594 42.3281 25.5461 42.3727C25.5319 42.4205 25.5134 42.4708 25.4939 42.5242L25.4673 42.6135C25.4545 42.6446 25.4291 42.6694 25.3955 42.6856C25.3619 42.7018 25.3245 42.7069 25.2883 42.6953C25.2522 42.6837 25.2223 42.6633 25.1986 42.634C25.1759 42.6017 25.1743 42.5707 25.1872 42.5396L25.2118 42.4567C25.2322 42.4001 25.2498 42.353 25.2631 42.3084C25.2754 42.2669 25.2872 42.2152 25.299 42.1634C25.3118 42.1084 25.3245 42.0535 25.3391 41.9921C25.3581 41.9284 25.387 41.8192 25.4267 41.6615C25.4541 41.5452 25.4782 41.452 25.499 41.3818C25.507 41.3428 25.5169 41.2974 25.5287 41.2457C25.5637 41.1039 25.5907 41.0011 25.6115 40.931C25.6324 40.8608 25.6566 40.7915 25.6832 40.726C25.6842 40.7229 25.6861 40.7165 25.688 40.7101C25.6899 40.7037 25.697 40.6917 25.7085 40.6773C25.72 40.6629 25.7281 40.6478 25.7396 40.6333C25.751 40.6189 25.7649 40.6085 25.7822 40.5988C25.7995 40.5891 25.8158 40.5826 25.8345 40.5801C25.8533 40.5775 25.8711 40.5782 25.8937 40.5867C25.9164 40.5953 25.9371 40.6102 25.9593 40.6322C25.9955 40.6677 26.0115 40.6986 26.015 40.7232C26.0185 40.7478 26.0137 40.7637 25.9965 40.7734L25.9749 40.7855C25.9588 40.8397 25.9398 40.9035 25.9171 40.98C25.8943 41.0565 25.8744 41.1234 25.8555 41.1872C25.8374 41.2478 25.8185 41.3115 25.7986 41.3785C25.7972 41.3952 25.7949 41.4151 25.7873 41.4406C25.7765 41.4892 25.7694 41.525 25.7633 41.5576C25.847 41.4575 25.9087 41.3831 25.9518 41.335C25.9992 41.2845 26.049 41.238 26.0997 41.1883C26.1514 41.1354 26.242 41.0607 26.3647 40.9626C26.4993 40.8605 26.5904 40.7961 26.6379 40.7695C26.6955 40.7452 26.7589 40.7255 26.8281 40.7106L26.9064 40.7012C26.9448 40.6929 26.9829 40.6982 27.0195 40.7201C27.0528 40.7413 27.074 40.7665 27.0824 40.7991C27.0907 40.8316 27.0812 40.8635 27.0573 40.8955C27.0343 40.9243 27.0032 40.9444 26.9657 40.9495L26.8864 40.9621C26.8489 40.9672 26.8138 40.9762 26.7855 40.9868C26.7553 41.0038 26.6815 41.0585 26.566 41.1445C26.4476 41.2401 26.3657 41.31 26.3202 41.3541C26.2738 41.4014 26.2283 41.4455 26.1852 41.4936C26.1421 41.5417 26.0761 41.6185 25.9871 41.7242C25.8843 41.8404 25.8048 41.9142 25.7467 41.9521C25.7117 41.9611 25.68 41.9709 25.6459 41.9768Z" fill="#1F1F1F"/>
<path d="M27.2116 43.1507C27.1755 43.1661 27.1397 43.168 27.1035 43.1596C27.0673 43.1512 27.0389 43.1278 27.0191 43.0995C27.0001 43.0681 26.9944 43.0397 27.0036 43.008L27.0241 42.9621C27.0334 42.9304 27.0492 42.8766 27.0714 42.8006C27.0937 42.7246 27.1122 42.6612 27.1261 42.6137C27.1391 42.5694 27.1544 42.5053 27.1742 42.4254C27.1951 42.3423 27.2172 42.2426 27.2431 42.1302C27.2666 42.0139 27.2882 41.904 27.3113 41.8011C27.3344 41.6982 27.3542 41.6183 27.3662 41.5535C27.3781 41.4886 27.3892 41.4269 27.4021 41.3589C27.4149 41.2909 27.4223 41.2418 27.4264 41.2157C27.4319 41.1967 27.4351 41.1738 27.436 41.147L27.4424 41.1011C27.4441 41.0711 27.459 41.0441 27.4895 41.0241C27.5209 41.0009 27.5552 40.9919 27.5924 40.9971C27.6305 40.9992 27.664 41.017 27.6913 41.0437C27.7187 41.0703 27.7278 41.0994 27.7218 41.1318L27.7206 41.1721C27.7146 41.2046 27.7095 41.2338 27.7054 41.2599C27.6989 41.2821 27.6925 41.3279 27.683 41.3967C27.6701 41.4647 27.6572 41.5328 27.6452 41.5976C27.6333 41.6625 27.6158 41.7463 27.5927 41.8492C27.5663 41.9513 27.5414 42.0605 27.5155 42.1729C27.492 42.2891 27.4732 42.3896 27.4524 42.4727C27.4315 42.5558 27.4163 42.6199 27.4024 42.6674C27.3885 42.7149 27.3699 42.7782 27.3468 42.8574C27.3236 42.9366 27.3069 42.9936 27.2976 43.0252L27.2753 43.0775C27.2693 43.11 27.2478 43.1354 27.2116 43.1507Z" fill="#1F1F1F"/>
<path d="M28.2856 41.1187C28.3087 41.0897 28.3392 41.0726 28.377 41.0675C28.4148 41.0624 28.4521 41.0709 28.49 41.0897C28.5236 41.111 28.545 41.1364 28.5534 41.1691L28.5768 41.2977C28.5961 41.391 28.6096 41.5037 28.6185 41.6323C28.6301 41.7513 28.6383 41.8456 28.6483 41.9095C28.6641 41.9781 28.6868 42.0723 28.713 42.1912C28.7426 42.3108 28.7767 42.4521 28.8137 42.6077C28.8498 42.7664 28.8774 42.8685 28.8946 42.9204C28.9108 42.9754 28.928 43.0272 28.9428 43.0751C28.9561 43.1157 28.98 43.1691 29.0191 43.2327C29.0264 43.2446 29.0372 43.2573 29.0445 43.2693C29.0672 43.2539 29.0875 43.2345 29.1111 43.2159C29.2044 43.1344 29.2696 43.0739 29.3043 43.0304C29.3452 42.9781 29.3862 42.9257 29.4291 42.867C29.4764 42.8058 29.5559 42.6972 29.6686 42.5379C29.7838 42.3826 29.8658 42.278 29.9121 42.22C29.9584 42.1621 30.0119 42.0921 30.0726 42.01C30.1358 41.9319 30.1811 41.8771 30.2096 41.8425L30.2487 41.7966C30.2674 41.77 30.3013 41.7538 30.3391 41.7486C30.3803 41.7443 30.4177 41.7528 30.4522 41.7709C30.4857 41.7922 30.5072 41.8176 30.5112 41.8527C30.5186 41.8886 30.51 41.9175 30.4835 41.9457L30.4512 41.9931C30.4247 42.0213 30.3793 42.0761 30.3161 42.1542C30.2554 42.2363 30.2029 42.3031 30.1575 42.3578C30.1156 42.4134 30.0336 42.518 29.9175 42.6765C29.8013 42.835 29.7184 42.9429 29.6789 43.0024C29.6317 43.0635 29.5897 43.1191 29.5487 43.1714C29.5059 43.2301 29.4325 43.3059 29.3253 43.398C29.32 43.4036 29.3093 43.4149 29.291 43.4279C29.276 43.4416 29.262 43.4521 29.2533 43.457C29.2446 43.4618 29.2306 43.4724 29.2112 43.4885C29.1919 43.5047 29.1779 43.5152 29.1692 43.5201C29.1605 43.5249 29.144 43.5315 29.1232 43.5404C29.1024 43.5494 29.0835 43.552 29.069 43.5521C29.0544 43.5522 29.0365 43.5516 29.0142 43.5534C28.9919 43.5552 28.9715 43.5505 28.955 43.5331C28.8855 43.5105 28.8242 43.4487 28.7665 43.35C28.7109 43.2689 28.6762 43.2029 28.6609 43.1446C28.6428 43.096 28.6256 43.0442 28.6093 42.9892C28.5907 42.9302 28.5616 42.8209 28.5274 42.6557C28.4913 42.4969 28.4597 42.3596 28.4267 42.2392C28.3971 42.1195 28.3753 42.0222 28.3629 41.9543C28.349 41.8793 28.3359 41.7771 28.3237 41.6476C28.3198 41.5269 28.3068 41.4247 28.2914 41.3425L28.2612 41.2124C28.2529 41.1797 28.2624 41.1477 28.2856 41.1187Z" fill="#1F1F1F"/>
<path d="M32.7286 43.8969L32.7218 43.8953C32.6876 43.9252 32.6577 43.9526 32.6356 43.9783C32.6076 43.9993 32.5787 44.0235 32.5464 44.0469C32.5044 44.0784 32.4166 44.1302 32.2838 44.1992C32.1501 44.2714 32.0497 44.3169 31.9834 44.3327C31.9206 44.3492 31.8587 44.3625 31.7988 44.3694C31.7388 44.3763 31.6798 44.38 31.6208 44.3837C31.5593 44.3834 31.4887 44.3776 31.4097 44.3631C31.3317 44.3455 31.2474 44.3127 31.1601 44.2655C31.083 44.2207 31.0262 44.1805 30.9878 44.1513C30.9495 44.1221 30.9121 44.0897 30.8766 44.0509C30.8402 44.0153 30.8075 43.9669 30.7768 43.9121C30.7422 43.8461 30.7215 43.7697 30.7167 43.6763C30.7101 43.5894 30.7122 43.5215 30.7241 43.4696C30.735 43.4208 30.7546 43.3671 30.7848 43.3022C30.814 43.2405 30.8496 43.1939 30.8833 43.1537C30.918 43.1103 30.9768 43.0587 31.0607 42.9958C31.1456 42.9296 31.217 42.8843 31.274 42.863C31.3267 42.8442 31.3793 42.8254 31.4378 42.8114C31.4963 42.7973 31.5702 42.7799 31.6611 42.7663C31.7588 42.7543 31.8706 42.7558 31.9878 42.7755C32.1059 42.792 32.1999 42.8168 32.261 42.8546C32.3255 42.8931 32.4057 42.9762 32.5026 43.1007C32.5157 43.1173 32.5255 43.1332 32.5386 43.1499C32.5363 43.0605 32.536 42.9887 32.5333 42.9368C32.5267 42.8738 32.5138 42.7957 32.4921 42.6985C32.4728 42.6053 32.4512 42.5321 32.4282 42.4756C32.4086 42.4199 32.3804 42.3691 32.3502 42.3246C32.3248 42.2881 32.2685 42.2344 32.1869 42.168C32.1019 42.1009 32.0258 42.0529 31.9574 42.0271C31.8833 41.9966 31.8241 41.9764 31.7767 41.9656C31.7268 41.9509 31.6793 41.9401 31.629 41.939C31.5917 41.9305 31.5114 41.9328 31.3992 41.9449C31.316 41.9568 31.2575 41.9709 31.2256 41.9807L31.1837 42.0122C31.1523 42.0324 31.1161 42.0447 31.0769 42.0427C31.0377 42.0406 31.0023 42.0258 30.9741 41.9989C30.9459 41.972 30.9376 41.9393 30.9403 41.9058C30.9431 41.8722 30.9594 41.8418 30.9874 41.8208L31.0414 41.7852C31.094 41.7424 31.1998 41.7152 31.3608 41.697C31.5074 41.679 31.6124 41.6789 31.6777 41.6903C31.7373 41.697 31.7959 41.7069 31.8526 41.7231C31.917 41.7378 31.9955 41.7658 32.0823 41.8026C32.1758 41.8409 32.2738 41.9007 32.3787 41.986C32.4845 42.0681 32.5608 42.1401 32.6041 42.2011C32.6441 42.2615 32.6797 42.3242 32.709 42.3958C32.7384 42.4674 32.7629 42.5549 32.7852 42.6625C32.8074 42.7701 32.8209 42.8585 32.8255 42.9279C32.8302 42.9973 32.834 43.0939 32.835 43.2239C32.839 43.3444 32.8456 43.4314 32.8517 43.484C32.8533 43.539 32.8516 43.5933 32.8533 43.6484C32.855 43.7034 32.8547 43.741 32.8548 43.7649C32.8675 43.7951 32.8503 43.8288 32.8064 43.8667L32.7286 43.8969ZM32.5217 43.7167C32.5075 43.6793 32.4967 43.6427 32.484 43.6125C32.4674 43.5711 32.4483 43.5258 32.4268 43.4765C32.4043 43.4304 32.3522 43.3502 32.2685 43.2424C32.1873 43.1385 32.1328 43.0783 32.0984 43.0603C32.0732 43.0477 32.0233 43.033 31.9443 43.0185C31.8577 43.0057 31.7817 43.0055 31.7174 43.0149C31.6386 43.0243 31.5767 43.0376 31.5327 43.0516C31.4887 43.0655 31.4448 43.0795 31.4008 43.0934C31.368 43.1065 31.3183 43.1396 31.2536 43.1865C31.188 43.2365 31.1451 43.2712 31.123 43.2969C31.1042 43.3234 31.0783 43.362 31.0538 43.4077C31.0337 43.4509 31.0198 43.4854 31.0146 43.5149C31.006 43.5437 31.0028 43.5909 31.0084 43.6571C31.015 43.7201 31.0263 43.767 31.0458 43.7988C31.0668 43.8377 31.0897 43.8703 31.112 43.8924C31.1344 43.9146 31.1601 43.9375 31.1859 43.9604C31.2116 43.9833 31.2611 44.0117 31.3266 44.047C31.3819 44.08 31.4333 44.102 31.4807 44.1127C31.5359 44.1218 31.5819 44.1254 31.6177 44.1267C31.6579 44.1256 31.7024 44.122 31.7512 44.116C31.8001 44.11 31.8465 44.1 31.8963 44.0908C31.9402 44.0768 32.0199 44.0402 32.1353 43.981C32.2516 43.9185 32.3255 43.8772 32.3525 43.8594C32.3814 43.8352 32.407 43.8103 32.4272 43.7909C32.4455 43.778 32.4754 43.7506 32.5217 43.7167Z" fill="#1F1F1F"/>
</svg>
