<svg width="82" height="98" viewBox="0 0 82 98" fill="none" xmlns="http://www.w3.org/2000/svg">
<path d="M66.9749 63.9174C69.7661 55.0788 61.9353 48.6048 57.671 46.4727C56.7019 49.9616 55.345 57.7536 57.671 61.01C59.997 64.2663 60.5785 68.5694 60.5785 70.3139V74.9658L66.9749 63.9174Z" fill="#1F1F1F" stroke="#1F1F1F"/>
<path d="M41.6879 9.12586C46.0345 6.53148 51.5011 6.17186 48.4901 11.7368C45.6491 16.9877 42.7661 18.7975 41.4813 19.1147C44.7065 18.4899 49.0998 17.6995 48.0705 21.767C47.3026 24.8012 43.2302 26.5204 42.2695 26.6488C44.8442 26.8914 46.7663 29.5679 44.6148 31.0287C40.3119 33.9503 37.5451 33.7329 36.6996 33.2589C37.0201 34.1939 37.3926 38.4453 30.0141 35.9113L22.4687 31.029C27.0228 24.6284 33.9436 13.7448 41.6879 9.12586Z" fill="white" stroke="#1F1F1F"/>
<path d="M55.9309 70.3071L30.3452 68.5627L19.2969 58.0958L21.6228 30.7656L52.442 32.5101L58.8384 42.977L55.9309 70.3071Z" fill="#F40000"/>
<path d="M32.0897 42.977L30.3452 68.5627M32.0897 42.977H58.8384M32.0897 42.977L21.6228 30.7656M32.0897 42.977L35.3774 55.1883M30.3452 68.5627L55.9309 70.3071M30.3452 68.5627L19.2969 58.0958L21.6228 30.7656M30.3452 68.5627L35.3774 55.1883M55.9309 70.3071L58.8384 42.977M55.9309 70.3071L53.6721 55.1883M58.8384 42.977L52.442 32.5101L21.6228 30.7656M58.8384 42.977L53.6721 55.1883M53.6721 55.1883L52.442 58.0958H36.1602L35.3774 55.1883" stroke="#1F1F1F"/>
<path d="M26.8522 62.1719L6.5 69.7313L15.2224 90.665L19.2928 83.1056C39.6451 92.991 58.2529 84.2686 60.5788 81.9426C62.4396 80.0819 65.6184 68.7621 66.9753 63.3349C60.4625 77.2907 35.5746 74.5771 23.9448 71.4758L26.8522 62.1719Z" fill="#FDA3C4" stroke="#1F1F1F"/>
<path d="M45.0661 46.4014C46.6606 47.4589 46.9473 48.8318 44.8784 49.96C38.4823 53.4481 37.9005 45.3081 40.2265 42.4006C42.0872 40.0747 55.3452 24.3752 67.5566 19.1409C72.2085 17.1451 77.6745 17.5127 73.953 22.6299C70.4415 27.4582 67.3442 28.8701 66.0288 29.0144C69.3082 28.8223 73.7675 28.6208 72.2085 32.5161C71.0456 35.4218 66.7812 36.5865 65.8121 36.5865C68.3319 37.168 69.8826 40.0755 67.5566 41.2385C62.9046 43.5644 60.191 42.9824 59.4157 42.4006C59.6095 43.3698 59.4157 47.6332 52.4378 44.1441C54.0226 46.7855 52.7279 49.4276 45.0661 46.4014Z" fill="white" stroke="#1F1F1F"/>
</svg>
