<svg width="80" height="81" viewBox="0 0 80 81" fill="none" xmlns="http://www.w3.org/2000/svg">
<path d="M4.73828 72.0694V22.9253C4.73828 21.511 5.48516 20.2018 6.70265 19.4821L37.6293 1.19858C38.8805 0.458878 40.4345 0.456127 41.6883 1.1914L72.8824 19.4843C74.1068 20.2023 74.859 21.5154 74.859 22.9347V72.0694C74.859 74.2785 73.0681 76.0694 70.859 76.0694H8.73828C6.52914 76.0694 4.73828 74.2785 4.73828 72.0694Z" fill="#FDA3C4" stroke="#1F1F1F"/>
<path d="M14.7628 52.2993C15.4652 49.9382 13.914 43.4964 13.0506 40.5706L4.738 41.2528L4.738 55.2311L14.7628 52.2993Z" fill="white"/>
<path d="M4.29738 55.36L4.738 55.2311M4.738 55.2311L14.7628 52.2993C15.4652 49.9382 13.914 43.4964 13.0506 40.5706L4.738 41.2528L4.738 55.2311Z" stroke="#1F1F1F"/>
<path d="M33.4978 18.8463L32.4647 22.4011L31.2951 26.1991L47.0058 30.7526L48.9876 22.6512L43.7247 21.7508L33.4978 18.8463Z" fill="white" stroke="#1F1F1F"/>
<path d="M31.4908 30.0351L31.1744 22.3177L47.7923 21.7737L48.7104 29.3151L31.4908 30.0351Z" fill="white" stroke="#1F1F1F"/>
<path d="M18.3786 37.2679C18.0162 37.2067 14.6808 39.8118 13.0585 41.1219C13.8749 42.7216 14.5365 49.5341 14.7652 52.7404C15.0108 53.0865 16.3513 53.739 19.7488 53.5811C23.1462 53.4232 26.1038 44.9674 27.158 40.7593L20.1929 40.4982C20.0797 40.6009 20.023 40.506 20.7017 39.3047C21.5501 37.8031 18.8317 37.3443 18.3786 37.2679Z" fill="white" stroke="#1F1F1F"/>
<path d="M57.5016 52.8299L57.1182 53.0845L57.3416 53.4875C57.4302 53.6473 57.5664 53.7776 57.6902 53.8777C57.821 53.9834 57.975 54.0844 58.1366 54.1784C58.4602 54.3667 58.8488 54.5469 59.2242 54.6965C59.5993 54.846 59.9778 54.9717 60.2841 55.0461C60.4346 55.0826 60.5861 55.1113 60.7188 55.1196C60.7838 55.1237 60.8661 55.1244 60.9508 55.1092C61.0204 55.0968 61.1847 55.0581 61.3095 54.908C61.359 54.8484 61.3948 54.7808 61.4144 54.7426C61.4391 54.6944 61.4646 54.6389 61.49 54.58C61.541 54.4616 61.5995 54.3113 61.6611 54.1412C61.7844 53.8002 61.9258 53.3626 62.0506 52.908C62.1749 52.4553 62.286 51.9736 62.3443 51.5479C62.3734 51.3352 62.3908 51.126 62.3874 50.9353C62.3841 50.7534 62.3617 50.5463 62.282 50.363L62.0435 49.8144L61.5456 50.145L57.5016 52.8299Z" fill="#F40000" stroke="#1F1F1F"/>
<path d="M52.9088 29.5889C53.5624 27.7254 52.5668 19.9338 51.9873 16.271C52.3634 15.9289 58.1751 15.063 64.0719 14.3217L73.5106 20.1391L74.4095 21.034L74.859 24.1663L74.733 29.6297L52.9088 29.5889Z" fill="#1F1F1F" stroke="#1F1F1F"/>
<path d="M52.3843 29.5352C52.0934 29.3113 51.0098 26.3312 50.625 25.0273L53.2126 24.2706C53.3211 25.5909 52.748 29.8151 52.3843 29.5352Z" fill="#F40000" stroke="#1F1F1F"/>
<path d="M44.3337 24.911C43.0002 24.4333 43.5808 22.6004 44.0379 21.7437L38.7233 19.6103C40.775 18.8657 45.3097 17.2503 47.0348 16.7457C48.7598 16.2412 50.9165 16.189 51.7792 16.2259L52.9012 24.3576C51.9211 24.6443 48.6667 25.1622 47.9608 24.9348C47.2548 24.7074 46.0005 25.5081 44.3337 24.911Z" fill="white" stroke="#1F1F1F"/>
<path d="M26.4337 65.2563L15.6732 43.1082L43.0765 30.035L56.699 58.3022L30.4623 71.0342L26.4337 65.2563Z" fill="#F40000" stroke="#1F1F1F"/>
<path d="M40.5479 66.215L26.2534 37.6774L31.8262 35.1866L47.4424 63.0913L40.5479 66.215Z" fill="#FDA3C4" stroke="#1F1F1F"/>
<path d="M31.2198 39.807C31.2941 39.7803 31.3574 39.7582 31.4081 39.7369C31.5005 39.7027 31.5964 39.6669 31.6924 39.6311C31.7884 39.5953 31.9079 39.5453 32.0527 39.4846C32.1939 39.4255 32.3514 39.3551 32.5143 39.2781C32.6844 39.1981 32.8039 39.1393 32.8709 39.1068C32.9378 39.0744 33.0066 39.0368 33.0862 38.9947C33.1659 38.9525 33.2238 38.9195 33.2618 38.8992C33.3034 38.8774 33.3504 38.8489 33.4011 38.8188L33.4771 38.7782C33.5115 38.7594 33.5495 38.7567 33.5913 38.77C33.633 38.7833 33.6658 38.8136 33.6895 38.852C33.7131 38.8905 33.7224 38.935 33.7134 38.9783C33.7045 39.0216 33.6847 39.0519 33.6467 39.0722L33.5707 39.1129C33.52 39.1429 33.4766 39.1698 33.4386 39.1902C33.4006 39.2105 33.3391 39.245 33.2594 39.2872C33.1798 39.3293 33.1038 39.3699 33.0296 39.4054C32.959 39.4394 32.8432 39.4967 32.6766 39.5752C32.5029 39.6567 32.3454 39.7271 32.1969 39.7892C32.063 39.8453 31.9416 39.8917 31.8421 39.929C31.8747 39.9418 31.9001 39.9487 31.9255 39.9557C31.9818 39.9805 32.0399 40.0089 32.0999 40.041C32.1598 40.0731 32.2288 40.1145 32.3106 40.1726C32.3888 40.2323 32.4524 40.2804 32.4942 40.3201C32.5433 40.3742 32.5998 40.4518 32.6636 40.5526C32.7256 40.6586 32.7621 40.74 32.7787 40.8079C32.7952 40.8669 32.8062 40.9238 32.8137 40.9823C32.8157 41.0474 32.8051 41.1222 32.7855 41.214C32.7604 41.3037 32.7334 41.3809 32.701 41.4385C32.6649 41.4976 32.6234 41.5545 32.5747 41.6057C32.5205 41.6636 32.4156 41.7339 32.2545 41.8234C32.0917 41.9179 31.9704 41.9731 31.8979 41.9947C31.8237 42.0213 31.753 42.0377 31.6787 42.0469C31.6026 42.0523 31.5283 42.0527 31.4558 42.0479C31.3796 42.0446 31.2925 42.0283 31.1963 42.0026C31.1002 41.9769 31.0203 41.9487 30.9604 41.9167C30.9004 41.8846 30.8223 41.8337 30.7206 41.762C30.6224 41.6888 30.5515 41.6261 30.506 41.5792C30.466 41.5344 30.4223 41.4823 30.3749 41.4142C30.3312 41.3533 30.2966 41.3018 30.2711 41.2597C30.2492 41.2249 30.2273 41.1901 30.2073 41.1589C30.1836 41.1205 30.1562 41.066 30.1252 40.9954C30.0905 40.9176 30.0703 40.8513 30.0647 40.7964L30.0609 40.7453C30.0517 40.7007 30.0624 40.6611 30.0859 40.6292C30.1129 40.5959 30.1492 40.5808 30.1927 40.5801C30.2362 40.5795 30.2743 40.5943 30.3088 40.6282C30.3434 40.6621 30.3617 40.6985 30.3673 40.7445L30.3747 40.803C30.3802 40.8226 30.3912 40.8532 30.4076 40.8947C30.4332 40.9456 30.4533 40.9856 30.4679 41.0146C30.4861 41.0422 30.508 41.077 30.5317 41.1155C30.5535 41.1503 30.5845 41.1945 30.6191 41.246C30.6592 41.2995 30.6938 41.3422 30.7229 41.374C30.7465 41.4037 30.7993 41.4476 30.8774 41.5072C30.961 41.569 31.0246 41.6083 31.0628 41.6319C31.1027 41.6504 31.1608 41.67 31.2334 41.6924C31.306 41.7148 31.3695 41.7278 31.4275 41.7299C31.4819 41.7335 31.5363 41.7283 31.5943 41.7216C31.6468 41.7128 31.7066 41.701 31.77 41.6876C31.8298 41.667 31.9275 41.6173 32.0723 41.539C32.2134 41.4536 32.302 41.3945 32.3382 41.3617C32.3725 41.3254 32.4068 41.289 32.4302 41.2484C32.4501 41.2093 32.468 41.1578 32.4859 41.0975C32.4948 41.0367 32.5037 40.9933 32.5018 40.9634C32.5017 40.9282 32.4961 40.891 32.4869 40.8552C32.476 40.8247 32.4504 40.7738 32.4085 40.699C32.3629 40.6257 32.3265 40.5794 32.301 40.5549C32.2701 40.5195 32.2228 40.4777 32.1574 40.4347C32.0956 40.3902 32.0393 40.3566 31.9975 40.3345C31.9503 40.3103 31.8976 40.284 31.8504 40.2598C31.8069 40.2428 31.7179 40.2229 31.5873 40.1984C31.551 40.1872 31.5166 40.1797 31.4875 40.1742C31.4059 40.1601 31.3442 40.1507 31.3025 40.1462C31.2573 40.1607 31.2084 40.1768 31.1577 40.198C30.9893 40.2554 30.8534 40.299 30.7502 40.3291C30.6488 40.3627 30.5691 40.3873 30.5148 40.4013C30.4568 40.4167 30.3916 40.4353 30.3119 40.4598C30.2286 40.4859 30.1706 40.5014 30.1398 40.5099C30.1054 40.5199 30.0565 40.5272 29.9931 40.5318C29.9876 40.5296 29.9804 40.5239 29.9713 40.5233C29.9604 40.5191 29.9477 40.5112 29.9186 40.497C29.8932 40.4812 29.8696 40.4691 29.8496 40.4555C29.8296 40.4419 29.8078 40.4246 29.7878 40.4022C29.7678 40.3798 29.7532 40.3595 29.7477 40.3399C29.7422 40.3202 29.7403 40.299 29.7511 40.2769C29.7619 40.2547 29.7782 40.2347 29.8071 40.2138C29.836 40.1929 29.8704 40.1741 29.9066 40.1502C29.9428 40.1262 29.9808 40.1059 30.0115 40.0886C30.0495 40.0683 30.0912 40.0465 30.1346 40.0283C30.1781 40.0101 30.2632 39.9789 30.3899 39.9346C30.5203 39.8888 30.6199 39.8603 30.6851 39.8506C30.7486 39.8372 30.8138 39.8275 30.8772 39.8229C30.9407 39.8183 31.0041 39.8138 31.0748 39.8149C31.1237 39.7989 31.169 39.8019 31.2198 39.807Z" fill="#1F1F1F"/>
<path d="M31.7703 44.5802C31.7192 44.5661 31.6789 44.5387 31.6513 44.4926L31.5925 44.402C31.5429 44.3209 31.495 44.2168 31.4524 44.0796C31.4117 43.946 31.391 43.8173 31.3832 43.6966C31.379 43.5831 31.3858 43.4828 31.3982 43.4023C31.4161 43.3151 31.4539 43.1975 31.5262 43.0521C31.5948 42.9082 31.6564 42.8027 31.7126 42.7393C31.7707 42.6708 31.8871 42.5867 32.0617 42.4871C32.2346 42.3838 32.362 42.3217 32.4495 42.3029C32.5351 42.2892 32.6537 42.2795 32.8069 42.2775C32.9601 42.2755 33.0988 42.2884 33.2193 42.3089C33.338 42.3345 33.4385 42.359 33.5171 42.3926C33.5993 42.4247 33.6999 42.4845 33.828 42.5727C33.9671 42.6652 34.0936 42.7939 34.2056 42.9553C34.3157 43.113 34.3838 43.2308 34.4134 43.3159C34.4447 43.3958 34.469 43.5141 34.4825 43.6724C34.4978 43.8343 34.502 43.9566 34.4951 44.0392C34.4882 44.1218 34.4613 44.2173 34.4216 44.3224C34.3801 44.4239 34.3349 44.5093 34.2896 44.5681C34.2424 44.6321 34.1589 44.7113 34.0371 44.8021C33.9134 44.8892 33.7897 44.9587 33.6732 45.0074C33.5639 45.0531 33.4692 45.0838 33.3908 45.1033C33.3107 45.1279 33.194 45.1413 33.0372 45.1537C32.8785 45.1624 32.7398 45.1583 32.623 45.1363C32.5025 45.1158 32.3782 45.0703 32.2483 44.9961C32.1148 44.9234 32.0234 44.8642 31.9721 44.8148C31.9171 44.7757 31.8493 44.6934 31.7703 44.5802ZM31.697 43.716C31.7556 43.7535 31.7904 43.7965 31.8016 43.8539L31.8186 43.9664C31.8261 44.0253 31.8428 44.0847 31.8705 44.1485C31.8927 44.2101 31.9368 44.2891 32.0048 44.3892C32.0727 44.4892 32.1223 44.5527 32.1552 44.5832C32.1882 44.6137 32.2577 44.6555 32.3565 44.7117C32.4589 44.7663 32.5503 44.799 32.6343 44.8171C32.7238 44.8372 32.8314 44.841 32.9627 44.8304C33.0995 44.8219 33.2034 44.8095 33.2672 44.7961C33.3328 44.7776 33.4147 44.7477 33.5167 44.7051C33.6114 44.6655 33.7151 44.6089 33.8224 44.533C33.926 44.4587 33.9933 44.3996 34.0204 44.3572C34.0513 44.3133 34.0856 44.2502 34.1199 44.1695C34.1542 44.0887 34.1721 44.0192 34.1792 43.9631C34.1862 43.907 34.1821 43.8112 34.1669 43.6758C34.1481 43.542 34.1312 43.4471 34.1091 43.3943C34.0924 43.3437 34.0428 43.2537 33.9528 43.1274C33.8665 43.0085 33.7712 42.9154 33.676 42.8489C33.5699 42.7781 33.4912 42.7268 33.4401 42.7039C33.3797 42.6804 33.2975 42.6571 33.1953 42.6379C33.0967 42.6171 32.9817 42.6075 32.8467 42.6108C32.7136 42.6089 32.6133 42.6198 32.5513 42.6368C32.493 42.6523 32.3893 42.7001 32.24 42.7802C32.0908 42.8692 31.9999 42.9338 31.9618 42.9807C31.9201 43.0291 31.8712 43.116 31.8116 43.2428C31.7538 43.3645 31.7196 43.4541 31.7052 43.5132C31.7055 43.5663 31.7003 43.6349 31.697 43.716Z" fill="#1F1F1F"/>
<path d="M33.2996 47.6954C33.2485 47.6814 33.2082 47.6539 33.1806 47.6078L33.1218 47.5172C33.0722 47.4361 33.0243 47.3321 32.9817 47.1948C32.941 47.0613 32.9203 46.9326 32.9125 46.8118C32.9083 46.6984 32.9151 46.5981 32.9275 46.5176C32.9454 46.4304 32.9832 46.3127 33.0555 46.1673C33.1241 46.0234 33.1857 45.918 33.2419 45.8546C33.3 45.786 33.4164 45.7019 33.591 45.6023C33.7639 45.4991 33.8913 45.4369 33.9788 45.4181C34.0644 45.4044 34.183 45.3948 34.3362 45.3927C34.4894 45.3907 34.6281 45.4036 34.7486 45.4241C34.8673 45.4498 34.9678 45.4742 35.0464 45.5078C35.1286 45.5399 35.2292 45.5997 35.3573 45.6879C35.4964 45.7804 35.6228 45.9092 35.7349 46.0706C35.845 46.2283 35.9131 46.346 35.9427 46.4311C35.974 46.511 35.9983 46.6293 36.0118 46.7876C36.0271 46.9495 36.0313 47.0718 36.0244 47.1544C36.0175 47.2371 35.9906 47.3325 35.9509 47.4377C35.9094 47.5392 35.8642 47.6245 35.8189 47.6833C35.7717 47.7473 35.6882 47.8266 35.5664 47.9174C35.4427 48.0045 35.319 48.0739 35.2025 48.1226C35.0932 48.1683 34.9985 48.199 34.9201 48.2185C34.84 48.2431 34.7233 48.2565 34.5665 48.2689C34.4078 48.2776 34.2691 48.2736 34.1523 48.2515C34.0318 48.231 33.9075 48.1855 33.7776 48.1113C33.6441 48.0387 33.5527 47.9795 33.5014 47.93C33.4464 47.891 33.3786 47.8086 33.2996 47.6954ZM33.2263 46.8312C33.2849 46.8688 33.3197 46.9118 33.3309 46.9691L33.3479 47.0816C33.3554 47.1405 33.3721 47.2 33.3998 47.2637C33.422 47.3253 33.4661 47.4043 33.5341 47.5044C33.602 47.6044 33.6516 47.6679 33.6845 47.6984C33.7175 47.7289 33.787 47.7707 33.8858 47.8269C33.9882 47.8816 34.0796 47.9143 34.1636 47.9323C34.2531 47.9525 34.3607 47.9562 34.492 47.9456C34.6288 47.9372 34.7327 47.9247 34.7965 47.9114C34.8621 47.8928 34.944 47.863 35.046 47.8204C35.1407 47.7808 35.2444 47.7241 35.3517 47.6483C35.4553 47.5739 35.5226 47.5148 35.5497 47.4725C35.5805 47.4286 35.6149 47.3655 35.6492 47.2847C35.6835 47.2039 35.7014 47.1344 35.7085 47.0783C35.7155 47.0222 35.7114 46.9265 35.6962 46.7911C35.6774 46.6572 35.6605 46.5623 35.6384 46.5096C35.6217 46.459 35.572 46.369 35.4821 46.2427C35.3958 46.1237 35.3005 46.0306 35.2053 45.9641C35.0992 45.8933 35.0205 45.842 34.9693 45.8191C34.909 45.7956 34.8268 45.7724 34.7246 45.7531C34.626 45.7323 34.511 45.7228 34.376 45.726C34.2429 45.7241 34.1426 45.735 34.0806 45.7521C34.0223 45.7676 33.9186 45.8154 33.7693 45.8955C33.6201 45.9844 33.5292 46.049 33.4911 46.0959C33.4494 46.1444 33.4005 46.2313 33.3409 46.3581C33.2831 46.4797 33.2488 46.5693 33.2345 46.6285C33.2348 46.6815 33.2296 46.7501 33.2263 46.8312Z" fill="#1F1F1F"/>
<path d="M37.7842 54.5008C37.7589 54.5114 37.7299 54.5235 37.7046 54.5341C37.6412 54.5651 37.5815 54.5945 37.5182 54.6254C37.4548 54.6563 37.3987 54.6842 37.348 54.7055C37.2937 54.7282 37.234 54.7488 37.1706 54.771L37.0692 54.8134C37.0312 54.825 36.9895 54.8204 36.9495 54.802C36.9096 54.7835 36.8768 54.7532 36.8604 54.7118C36.8439 54.6703 36.8401 54.6279 36.8491 54.5846C36.8616 54.5397 36.8887 54.5152 36.9267 54.5036L37.0209 54.4642C37.0879 54.4406 37.144 54.4215 37.1947 54.4002C37.2418 54.3805 37.2979 54.3526 37.354 54.3247C37.4137 54.2953 37.4734 54.2659 37.5404 54.2335C37.6128 54.2031 37.7341 54.148 37.9079 54.0664C38.0346 54.0045 38.1377 53.9569 38.2174 53.9236C38.259 53.9017 38.3079 53.8769 38.364 53.849C38.5196 53.775 38.6337 53.7229 38.7133 53.6895C38.793 53.6561 38.8745 53.6264 38.9542 53.6018C38.9578 53.6003 38.965 53.5973 38.9723 53.5943C38.9795 53.5912 38.9958 53.5888 39.0176 53.5885C39.0393 53.5882 39.0593 53.5842 39.081 53.5839C39.1028 53.5836 39.1227 53.5884 39.1445 53.5969C39.1663 53.6054 39.1844 53.6154 39.2008 53.6305C39.2172 53.6456 39.2299 53.6623 39.2391 53.6892C39.2482 53.7162 39.2502 53.7462 39.2467 53.7828C39.2414 53.8422 39.2252 53.8797 39.2054 53.9013C39.1855 53.9228 39.1674 53.9304 39.1456 53.9219L39.1184 53.9113C39.0568 53.9371 38.9844 53.9674 38.8975 54.0038C38.8106 54.0402 38.7346 54.072 38.6622 54.1024C38.5934 54.1312 38.521 54.1615 38.4449 54.1933C38.4286 54.2045 38.4087 54.2173 38.3798 54.2294C38.3273 54.2558 38.2893 54.2761 38.2549 54.2949C38.409 54.2963 38.5232 54.2969 38.5994 54.3002C38.681 54.3056 38.7608 54.3161 38.8442 54.3252C38.9313 54.3327 39.0673 54.3593 39.2487 54.3977C39.4429 54.4439 39.5699 54.4787 39.6298 54.502C39.6952 54.5361 39.7606 54.5791 39.826 54.6309L39.8933 54.6951C39.9297 54.7238 39.9534 54.7623 39.9608 54.8119C39.9664 54.858 39.9593 54.8961 39.9358 54.928C39.9124 54.9598 39.8761 54.9749 39.829 54.9771C39.7855 54.9777 39.7438 54.9644 39.711 54.9341L39.6401 54.8715C39.6074 54.8412 39.5728 54.8161 39.542 54.7982C39.5038 54.7834 39.3986 54.7571 39.2335 54.7163C39.0575 54.68 38.9324 54.6577 38.858 54.6493C38.78 54.6423 38.7057 54.6339 38.6295 54.6306C38.5533 54.6273 38.4337 54.6246 38.2705 54.6226C38.0874 54.6157 37.9604 54.5985 37.8824 54.574C37.8479 54.5489 37.8152 54.5274 37.7842 54.5008Z" fill="#1F1F1F"/>
<path d="M37.886 56.7931C37.8449 56.7717 37.8164 56.7407 37.7969 56.7015C37.7774 56.6623 37.7776 56.6191 37.7885 56.5799C37.803 56.5393 37.8246 56.5129 37.8604 56.4977L37.9178 56.482C37.9536 56.4668 38.0146 56.441 38.1007 56.4045C38.1867 56.3681 38.2584 56.3377 38.3122 56.3149C38.3624 56.2936 38.4324 56.2597 38.5203 56.2181C38.6117 56.175 38.7193 56.1208 38.8413 56.0605C38.9651 55.9951 39.0817 55.9328 39.1929 55.877C39.3041 55.8213 39.392 55.7798 39.4601 55.7422C39.5283 55.7047 39.5929 55.6687 39.6646 55.6297C39.7364 55.5907 39.7866 55.5608 39.8136 55.545C39.8351 55.5359 39.8584 55.5217 39.8835 55.5024L39.9302 55.4741C39.9589 55.4533 39.9947 55.4467 40.0358 55.4595C40.0805 55.4707 40.1144 55.4952 40.1375 55.5329C40.1642 55.569 40.173 55.6128 40.1692 55.6575C40.1654 55.7023 40.1456 55.7322 40.1115 55.751L40.0738 55.7799C40.0397 55.7987 40.0092 55.8159 39.9823 55.8316C39.9572 55.8422 39.9105 55.8706 39.8406 55.9132C39.7688 55.9523 39.697 55.9913 39.6289 56.0288C39.5607 56.0663 39.471 56.1129 39.3598 56.1687C39.2468 56.2209 39.1285 56.2797 39.0065 56.34C38.8827 56.4053 38.7769 56.4631 38.6854 56.5062C38.594 56.5493 38.524 56.5832 38.4702 56.606C38.4164 56.6288 38.3447 56.6592 38.2551 56.6972C38.1654 56.7351 38.1009 56.7625 38.065 56.7777L38.0005 56.7964C37.9664 56.8151 37.927 56.8146 37.886 56.7931Z" fill="#1F1F1F"/>
<path d="M40.5463 56.2583C40.5901 56.2577 40.6285 56.2727 40.6615 56.3032C40.6945 56.3337 40.7147 56.374 40.7259 56.4225C40.7316 56.4689 40.7245 56.5073 40.7009 56.5393L40.601 56.6564C40.5303 56.7436 40.4376 56.84 40.3267 56.9439C40.2268 57.0433 40.1469 57.1211 40.096 57.1778C40.0452 57.2433 39.9763 57.3342 39.8874 57.4467C39.8003 57.5629 39.6969 57.6992 39.5826 57.8489C39.4646 58.0002 39.3921 58.1014 39.3577 58.1557C39.3196 58.2115 39.2852 58.2658 39.2525 58.3149C39.2253 58.3572 39.1946 58.4188 39.1658 58.5018C39.1604 58.5174 39.1568 58.5366 39.1514 58.5521C39.1825 58.5613 39.2153 58.5653 39.2501 58.5729C39.3944 58.5968 39.4985 58.6109 39.5642 58.6101C39.6426 58.6083 39.7211 58.6065 39.8069 58.6017C39.8981 58.599 40.0569 58.5903 40.2868 58.5739C40.5149 58.5628 40.6718 58.5593 40.7594 58.5581C40.847 58.5569 40.9511 58.5533 41.0715 58.5473C41.1901 58.5465 41.2741 58.5468 41.327 58.5469L41.3982 58.5481C41.4365 58.5454 41.4768 58.5641 41.5098 58.5946C41.5446 58.6288 41.5649 58.6691 41.5742 58.7139C41.5799 58.7603 41.5728 58.7987 41.5437 58.8286C41.5165 58.8622 41.4837 58.8759 41.438 58.8728L41.3705 58.8788C41.3249 58.8758 41.2409 58.8754 41.1223 58.8762C41.0018 58.8822 40.9015 58.8843 40.8175 58.884C40.7354 58.8873 40.5784 58.8908 40.3467 58.9035C40.115 58.9161 39.9544 58.9212 39.8704 58.9297C39.7792 58.9324 39.6971 58.9357 39.6186 58.9375C39.5328 58.9423 39.4087 58.9321 39.2443 58.9033C39.2351 58.9027 39.2169 58.9015 39.1913 58.8945C39.1676 58.8911 39.1475 58.8862 39.1365 58.8819C39.1255 58.8776 39.1054 58.8727 39.0762 58.8672C39.047 58.8617 39.0269 58.8568 39.0159 58.8525C39.0049 58.8483 38.9866 58.8382 38.9628 58.826C38.9391 58.8138 38.9226 58.7985 38.9115 58.7854C38.9005 58.7722 38.8877 58.7554 38.8693 58.7365C38.851 58.7176 38.84 58.6956 38.8435 58.6676C38.8121 58.5876 38.8226 58.4857 38.8694 58.3597C38.9018 58.2487 38.9361 58.1679 38.9778 58.1106C39.0086 58.0578 39.043 58.0035 39.0811 57.9477C39.121 57.8867 39.199 57.7788 39.3242 57.6245C39.4421 57.4733 39.5437 57.3422 39.629 57.2223C39.7161 57.1061 39.7886 57.0137 39.8413 56.9518C39.8994 56.8832 39.9829 56.7951 40.0919 56.6875C40.1992 56.5939 40.2828 56.5058 40.3463 56.4305L40.4425 56.3061C40.466 56.2741 40.5025 56.2588 40.5463 56.2583Z" fill="#1F1F1F"/>
<path d="M41.3359 62.3634L41.3322 62.356C41.2793 62.3472 41.2319 62.3405 41.1919 62.3395C41.1517 62.3298 41.108 62.3215 41.0624 62.3096C41.0022 62.295 40.8891 62.2538 40.7266 62.1846C40.5605 62.1169 40.4437 62.0596 40.3797 62.0111C40.3175 61.9663 40.259 61.92 40.2078 61.8707C40.1566 61.8213 40.109 61.7704 40.0614 61.7195C40.0156 61.6635 39.9679 61.595 39.922 61.5124C39.8797 61.4283 39.8465 61.3272 39.8241 61.2127C39.8072 61.1092 39.8014 61.0276 39.7993 60.9709C39.7973 60.9143 39.7988 60.8561 39.8076 60.7949C39.8128 60.7353 39.8326 60.6695 39.8596 60.6007C39.8939 60.52 39.9482 60.4442 40.0298 60.3703C40.1042 60.2994 40.1678 60.2507 40.2241 60.2227C40.2768 60.1962 40.3405 60.1741 40.4224 60.1531C40.5006 60.1336 40.5698 60.1312 40.6318 60.1319C40.6974 60.131 40.7885 60.146 40.9089 60.1753C41.0329 60.2031 41.1278 60.2342 41.1899 60.2701C41.2465 60.304 41.3031 60.3378 41.3598 60.3805C41.4165 60.4231 41.4878 60.4774 41.5683 60.5499C41.6524 60.6297 41.7349 60.7324 41.8046 60.8536C41.878 60.9733 41.9259 61.0772 41.9372 61.1609C41.9503 61.2483 41.9345 61.3832 41.8934 61.564C41.8881 61.5884 41.8809 61.6091 41.8755 61.6335C41.9554 61.5647 42.0207 61.5108 42.0661 61.4697C42.1187 61.4168 42.1803 61.3468 42.2528 61.2546C42.3234 61.1675 42.3741 61.0933 42.4084 61.0302C42.4446 60.9709 42.4698 60.9073 42.4878 60.8467C42.5021 60.7964 42.509 60.7051 42.5085 60.5815C42.5061 60.4542 42.4928 60.3491 42.4652 60.2678C42.4374 60.1777 42.4116 60.1088 42.3859 60.0577C42.3619 60.0013 42.3362 59.9501 42.2996 59.9035C42.2793 59.8633 42.2171 59.792 42.1219 59.6991C42.0488 59.6324 41.9921 59.5897 41.9592 59.5681L41.899 59.5534C41.8571 59.54 41.8187 59.5162 41.7912 59.4791C41.7637 59.4419 41.7508 59.3987 41.7542 59.353C41.7576 59.3073 41.7812 59.2754 41.8139 59.2528C41.8466 59.2303 41.8866 59.2224 41.9267 59.2322L41.9997 59.2548C42.0781 59.2707 42.1823 59.3465 42.3195 59.4794C42.4458 59.5991 42.5245 59.6945 42.5631 59.7624C42.6016 59.8215 42.6365 59.8821 42.6641 59.9458C42.699 60.0152 42.7322 60.1075 42.7637 60.2138C42.7988 60.3274 42.8176 60.4611 42.8183 60.62C42.8227 60.7774 42.8141 60.9004 42.7908 60.9854C42.7657 61.0667 42.7351 61.1458 42.6917 61.2259C42.6483 61.3059 42.5868 61.3936 42.5053 61.494C42.4237 61.5945 42.353 61.6727 42.2932 61.7287C42.2333 61.7847 42.148 61.8602 42.03 61.9581C41.923 62.0516 41.8486 62.1225 41.805 62.1672C41.7561 62.2098 41.7052 62.2488 41.6562 62.2914C41.6072 62.334 41.5727 62.3617 41.5509 62.3796C41.5329 62.4137 41.4892 62.4231 41.4217 62.4115L41.3359 62.3634ZM41.3454 62.0409C41.3689 62.0001 41.3942 61.963 41.4123 61.9289C41.4376 61.8829 41.4647 61.8318 41.4936 61.7755C41.5188 61.7207 41.553 61.6135 41.5887 61.457C41.6227 61.3057 41.6368 61.2113 41.6275 61.1665C41.6201 61.1342 41.5961 61.0779 41.5502 60.9954C41.497 60.907 41.4402 60.8379 41.3835 60.7864C41.3158 60.7218 41.2573 60.6755 41.2116 60.6459C41.1659 60.6163 41.1203 60.5868 41.0746 60.5572C41.0381 60.5371 40.9706 60.5167 40.8794 60.4929C40.7845 60.4706 40.7207 60.4575 40.6806 60.4565C40.6424 60.4592 40.5877 60.4644 40.5277 60.4762C40.4731 60.4902 40.4312 60.5033 40.4003 60.5206C40.3676 60.5343 40.3222 60.5665 40.266 60.621C40.2134 60.674 40.179 60.7193 40.1646 60.7607C40.1448 60.8088 40.1322 60.8539 40.1287 60.8907C40.1252 60.9276 40.1236 60.9681 40.122 61.0086C40.1203 61.0491 40.1315 61.1152 40.1483 61.201C40.1596 61.2759 40.1781 61.339 40.2038 61.3902C40.2369 61.4471 40.268 61.4916 40.2937 61.5251C40.3248 61.5607 40.3614 61.5985 40.4035 61.6384C40.4456 61.6783 40.4895 61.7131 40.5352 61.7515C40.5809 61.781 40.674 61.8262 40.8145 61.8868C40.9587 61.946 41.0518 61.9823 41.0883 61.9936C41.1321 62.0018 41.174 62.0064 41.2068 62.0104C41.2323 62.0174 41.2797 62.0241 41.3454 62.0409Z" fill="#1F1F1F"/>
<path d="M48.1206 41.6125L20.4719 53.2473L24.0677 60.4068L50.3052 46.1556L48.1206 41.6125Z" fill="#FDA3C4" stroke="#1F1F1F"/>
<path d="M48.4804 42.0685C48.8006 40.2334 54.6394 41.2831 57.5188 42.0373L60.6531 52.6581C59.2232 54.3824 55.8284 57.7697 53.6882 57.5249C51.9611 57.3274 51.9347 56.3018 52.2533 55.5308C51.7942 56.1747 50.8911 56.7549 49.5481 55.9058C47.853 54.8343 48.7005 53.0336 49.3361 52.2672C48.6345 53.0529 46.9424 54.2299 45.7874 52.652C44.7359 51.2156 46.1344 49.7723 47.1818 49.0756C46.7748 49.2269 46.1651 49.1007 45.6761 47.8956C45.0443 46.3389 47.9272 45.0604 49.4476 44.6158C48.9918 44.5313 48.1603 43.9036 48.4804 42.0685Z" fill="white" stroke="#1F1F1F"/>
<path d="M57.4018 41.6421L61.2419 54.6547L74.8576 51.2218L74.8576 34.1379L57.4018 41.6421Z" fill="#1F1F1F" stroke="#1F1F1F"/>
<path d="M32.7878 75.7199C32.4871 74.1208 27.2601 69.3229 24.6841 67.1239L13.2797 76.0613L32.7878 75.7199Z" fill="white" stroke="#1F1F1F"/>
<path d="M28.065 60.5801C26.6622 60.4799 25.2286 65.0257 24.6872 67.3112L32.2592 75.5195C31.6361 75.3472 30.8149 75.1335 32.5145 75.6575C34.6388 76.3125 40.5214 72.2523 40.5119 70.7661C40.5043 69.5771 39.2949 69.0658 38.6911 68.9587C39.2644 68.7202 40.3976 67.9066 40.3438 66.561C40.29 65.2154 37.4329 65.7596 36.6509 65.7756C37.0267 65.5948 38.9817 63.9814 38.6775 62.3687C38.3732 60.756 36.2127 61.5296 35.1704 62.1181C35.2717 61.7339 35.2072 60.7885 34.1398 60.0797C33.0723 59.3708 30.8975 61.4533 29.9435 62.5832C29.8521 61.5463 29.8185 60.7054 28.065 60.5801Z" fill="white" stroke="#1F1F1F"/>
<ellipse cx="8.78402" cy="44.2955" rx="1.34847" ry="1.3424" fill="#FDA3C4" stroke="#1F1F1F"/>
<ellipse cx="12.3797" cy="48.776" rx="1.34847" ry="1.3424" fill="#FDA3C4" stroke="#1F1F1F"/>
<ellipse cx="6.98519" cy="52.3502" rx="1.34847" ry="1.3424" fill="#FDA3C4" stroke="#1F1F1F"/>
<ellipse cx="24.0672" cy="69.358" rx="1.34847" ry="1.3424" fill="#FDA3C4" stroke="#1F1F1F"/>
<ellipse cx="27.6629" cy="74.7291" rx="1.34847" ry="1.3424" fill="#FDA3C4" stroke="#1F1F1F"/>
<ellipse cx="18.6727" cy="74.7291" rx="1.34847" ry="1.3424" fill="#FDA3C4" stroke="#1F1F1F"/>
<path d="M41.9955 25.9543C41.9955 27.1588 41.014 28.1391 39.7985 28.1391C38.583 28.1391 37.6016 27.1588 37.6016 25.9543C37.6016 24.7498 38.583 23.7695 39.7985 23.7695C41.014 23.7695 41.9955 24.7498 41.9955 25.9543Z" stroke="black"/>
<path d="M32.6055 23.7168L33.055 28.6389L37.1004 28.1915" stroke="#1F1F1F"/>
<path d="M24.735 55.6237C24.7051 55.5424 24.6802 55.4729 24.6565 55.4174C24.618 55.3162 24.5779 55.211 24.5377 55.1059C24.4976 55.0007 24.4415 54.8698 24.3736 54.7111C24.3074 54.5564 24.2286 54.3839 24.1425 54.2055C24.0529 54.0191 23.9871 53.8883 23.9509 53.815C23.9146 53.7416 23.8726 53.6663 23.8255 53.5791C23.7784 53.4919 23.7415 53.4286 23.7188 53.3869C23.6944 53.3414 23.6626 53.2899 23.6291 53.2344L23.5837 53.1512C23.5627 53.1136 23.5594 53.0718 23.574 53.0259C23.5885 52.98 23.6219 52.9439 23.6643 52.9177C23.7068 52.8915 23.7561 52.8811 23.8041 52.8907C23.8521 52.9003 23.8858 52.9219 23.9085 52.9635L23.9539 53.0467C23.9874 53.1022 24.0175 53.1497 24.0402 53.1913C24.0629 53.2329 24.1015 53.3003 24.1486 53.3875C24.1957 53.4747 24.2411 53.5579 24.2808 53.6392C24.3187 53.7165 24.3828 53.8433 24.4707 54.0257C24.5619 54.2161 24.6407 54.3886 24.7103 54.5512C24.7731 54.698 24.8252 54.8309 24.867 54.94C24.8809 54.9041 24.8885 54.8762 24.8961 54.8482C24.9232 54.7863 24.9544 54.7224 24.9897 54.6564C25.0249 54.5905 25.0704 54.5145 25.1344 54.4244C25.2 54.3383 25.253 54.2682 25.2967 54.2221C25.3565 54.1679 25.4421 54.1055 25.5534 54.0349C25.6705 53.9663 25.7605 53.9258 25.8356 53.9073C25.9009 53.8888 25.9639 53.8764 26.0286 53.8679C26.1007 53.8654 26.1837 53.8766 26.2854 53.8977C26.3849 53.9248 26.4706 53.9539 26.5345 53.9892C26.6002 54.0285 26.6635 54.0738 26.7205 54.1271C26.7849 54.1862 26.8633 54.301 26.9632 54.4774C27.0688 54.6556 27.1306 54.7885 27.1548 54.8679C27.1848 54.9493 27.2033 55.0267 27.2138 55.1082C27.2203 55.1918 27.221 55.2734 27.2161 55.353C27.2128 55.4366 27.1952 55.5323 27.1672 55.638C27.1393 55.7437 27.1085 55.8315 27.0733 55.8975C27.0381 55.9635 26.9822 56.0495 26.9033 56.1616C26.8226 56.2697 26.7536 56.3479 26.7018 56.398C26.6524 56.4422 26.595 56.4904 26.5198 56.5428C26.4526 56.5911 26.3957 56.6294 26.3492 56.6576C26.3108 56.6818 26.2723 56.706 26.2379 56.7282C26.1954 56.7544 26.1352 56.7847 26.0572 56.8192C25.9712 56.8577 25.8978 56.8801 25.8371 56.8866L25.7804 56.891C25.7312 56.9014 25.6872 56.8898 25.6518 56.8642C25.6147 56.8347 25.5978 56.795 25.5968 56.7472C25.5959 56.6995 25.6121 56.6576 25.6495 56.6194C25.6869 56.5813 25.727 56.5611 25.778 56.5547L25.8427 56.5462C25.8645 56.5401 25.8983 56.5279 25.9442 56.5096C26.0004 56.4813 26.0446 56.459 26.0767 56.4429C26.1071 56.4227 26.1456 56.3985 26.188 56.3723C26.2265 56.3481 26.2753 56.3139 26.3321 56.2756C26.3913 56.2314 26.4384 56.1932 26.4735 56.161C26.5062 56.1349 26.5546 56.0768 26.6202 55.9907C26.6882 55.8986 26.7314 55.8286 26.7574 55.7866C26.7776 55.7426 26.7991 55.6788 26.8235 55.599C26.8479 55.5192 26.8619 55.4494 26.864 55.3857C26.8677 55.326 26.8617 55.2663 26.8539 55.2027C26.8439 55.145 26.8305 55.0795 26.8153 55.0099C26.7922 54.9445 26.7366 54.8374 26.6492 54.6789C26.5538 54.5244 26.4879 54.4275 26.4514 54.3879C26.411 54.3505 26.3705 54.313 26.3254 54.2875C26.282 54.2659 26.2249 54.2465 26.158 54.2271C26.0905 54.2177 26.0425 54.2081 26.0093 54.2104C25.9704 54.2107 25.9291 54.217 25.8896 54.2273C25.8558 54.2395 25.7996 54.2678 25.7169 54.3142C25.636 54.3646 25.5849 54.4049 25.5578 54.4329C25.5188 54.4671 25.4727 54.5192 25.4255 54.5912C25.3765 54.6593 25.3396 54.7213 25.3153 54.7673C25.2888 54.8192 25.2599 54.8772 25.2333 54.9291C25.2148 54.977 25.1932 55.0747 25.1667 55.2182C25.1545 55.2581 25.1463 55.296 25.1405 55.3279C25.1252 55.4176 25.1151 55.4853 25.1103 55.5311C25.1267 55.5808 25.1448 55.6344 25.1685 55.6899C25.2329 55.8745 25.282 56.0233 25.3158 56.1365C25.3537 56.2477 25.3813 56.335 25.397 56.3946C25.4145 56.4581 25.4353 56.5296 25.463 56.617C25.4923 56.7083 25.5097 56.7718 25.5193 56.8056C25.5306 56.8433 25.5389 56.897 25.5443 56.9666C25.542 56.9726 25.5357 56.9806 25.535 56.9905C25.5304 57.0025 25.5218 57.0165 25.5061 57.0485C25.4889 57.0765 25.4756 57.1025 25.4606 57.1245C25.4456 57.1465 25.4266 57.1705 25.4019 57.1926C25.3772 57.2147 25.3548 57.2308 25.333 57.237C25.3112 57.2431 25.2878 57.2453 25.2632 57.2335C25.2387 57.2218 25.2164 57.2041 25.1931 57.1724C25.1698 57.1407 25.1488 57.1031 25.1221 57.0635C25.0954 57.0239 25.0727 56.9823 25.0534 56.9486C25.0307 56.907 25.0063 56.8614 24.9859 56.8138C24.9655 56.7662 24.9305 56.673 24.8807 56.5341C24.8293 56.3912 24.7972 56.282 24.7861 56.2104C24.771 56.1409 24.7599 56.0693 24.7545 55.9997C24.7491 55.9301 24.7437 55.8605 24.7446 55.7829C24.7265 55.7293 24.7296 55.6795 24.735 55.6237Z" fill="#1F1F1F"/>
<path d="M30.0251 54.9911C30.0097 55.0473 29.9795 55.0916 29.9286 55.1221L29.8286 55.1871C29.739 55.242 29.624 55.2952 29.4722 55.3426C29.3244 55.388 29.182 55.4114 29.0483 55.4206C28.9226 55.4258 28.8115 55.4188 28.7223 55.4056C28.6256 55.3864 28.495 55.3456 28.3336 55.267C28.1739 55.1923 28.0567 55.1253 27.9862 55.0639C27.91 55.0005 27.8162 54.8732 27.705 54.6819C27.5898 54.4928 27.5203 54.3532 27.499 54.2573C27.4834 54.1633 27.472 54.0332 27.469 53.865C27.466 53.6968 27.4795 53.5445 27.5016 53.4121C27.5295 53.2817 27.5561 53.1713 27.5929 53.0848C27.628 52.9944 27.6937 52.8837 27.7908 52.7426C27.8925 52.5894 28.0345 52.4499 28.2126 52.3261C28.3868 52.2044 28.5168 52.1291 28.6109 52.0962C28.6993 52.0613 28.8302 52.0341 29.0055 52.0185C29.1848 52.0008 29.3202 51.9955 29.4118 52.0027C29.5033 52.0099 29.6092 52.0389 29.7259 52.0819C29.8385 52.127 29.9333 52.1762 29.9987 52.2256C30.0698 52.277 30.158 52.3683 30.2592 52.5016C30.3564 52.6369 30.4339 52.7724 30.4885 52.9C30.5396 53.0197 30.5742 53.1235 30.5961 53.2094C30.6238 53.2973 30.6392 53.4253 30.6538 53.5974C30.6643 53.7716 30.6605 53.9238 30.6367 54.0522C30.6146 54.1846 30.5648 54.3212 30.4833 54.4642C30.4035 54.6111 30.3384 54.7118 30.2839 54.7684C30.2409 54.8289 30.15 54.9038 30.0251 54.9911ZM29.0682 55.076C29.1094 55.0115 29.1569 54.973 29.2204 54.9604L29.3449 54.9412C29.4101 54.9326 29.4759 54.914 29.5463 54.8833C29.6145 54.8587 29.7018 54.8098 29.8122 54.7347C29.9227 54.6596 29.9928 54.6048 30.0264 54.5685C30.06 54.5321 30.106 54.4556 30.1677 54.3469C30.2277 54.2342 30.2634 54.1337 30.283 54.0414C30.3049 53.9431 30.3085 53.8249 30.2961 53.6808C30.286 53.5307 30.2717 53.4167 30.2565 53.3467C30.2356 53.2748 30.2022 53.185 30.1544 53.0733C30.1101 52.9696 30.0468 52.856 29.9623 52.7386C29.8794 52.6252 29.8136 52.5518 29.7665 52.5221C29.7177 52.4885 29.6476 52.4511 29.558 52.4139C29.4683 52.3767 29.3912 52.3574 29.3291 52.3499C29.2669 52.3425 29.1608 52.3475 29.0109 52.3649C28.8627 52.3863 28.7578 52.4052 28.6994 52.4298C28.6434 52.4484 28.544 52.5033 28.4046 52.6028C28.2732 52.6981 28.1707 52.8032 28.0974 52.908C28.0196 53.0248 27.9632 53.1115 27.9381 53.1678C27.9123 53.2341 27.887 53.3245 27.8662 53.4368C27.8436 53.5452 27.8337 53.6714 27.838 53.8196C27.8366 53.9658 27.8492 54.0758 27.8684 54.1437C27.8858 54.2077 27.9393 54.3213 28.0288 54.4847C28.1281 54.648 28.2001 54.7475 28.2523 54.7891C28.3062 54.8346 28.4027 54.8878 28.5434 54.9526C28.6785 55.0155 28.7779 55.0526 28.8435 55.068C28.9023 55.0675 28.9783 55.0728 29.0682 55.076Z" fill="#1F1F1F"/>
<path d="M33.4684 53.2957C33.4531 53.352 33.4229 53.3963 33.372 53.4268L33.2719 53.4918C33.1823 53.5467 33.0674 53.5998 32.9156 53.6473C32.7678 53.6927 32.6254 53.716 32.4916 53.7253C32.366 53.7304 32.2549 53.7235 32.1656 53.7103C32.0689 53.6911 31.9384 53.6503 31.777 53.5716C31.6172 53.497 31.5001 53.43 31.4296 53.3686C31.3533 53.3052 31.2596 53.1779 31.1484 52.9866C31.0331 52.7974 30.9637 52.6579 30.9423 52.562C30.9267 52.468 30.9154 52.3379 30.9124 52.1697C30.9093 52.0015 30.9229 51.8492 30.945 51.7168C30.9728 51.5864 30.9994 51.476 31.0362 51.3895C31.0713 51.2991 31.1371 51.1883 31.2341 51.0473C31.3358 50.8941 31.4778 50.7546 31.656 50.6308C31.8301 50.5091 31.9602 50.4338 32.0543 50.4009C32.1427 50.366 32.2736 50.3388 32.4488 50.3231C32.6281 50.3055 32.7636 50.3002 32.8551 50.3074C32.9467 50.3146 33.0525 50.3436 33.1692 50.3866C33.2819 50.4316 33.3767 50.4808 33.442 50.5303C33.5132 50.5817 33.6014 50.673 33.7026 50.8063C33.7997 50.9416 33.8773 51.077 33.9318 51.2047C33.983 51.3244 34.0175 51.4282 34.0395 51.5141C34.0672 51.602 34.0826 51.73 34.0971 51.9021C34.1076 52.0763 34.1038 52.2285 34.08 52.3569C34.0579 52.4893 34.0082 52.6259 33.9267 52.7688C33.8469 52.9158 33.7817 53.0165 33.7273 53.0731C33.6843 53.1336 33.5934 53.2085 33.4684 53.2957ZM32.5115 53.3806C32.5528 53.3162 32.6003 53.2777 32.6637 53.2651L32.7883 53.2459C32.8534 53.2373 32.9192 53.2187 32.9897 53.188C33.0578 53.1633 33.1451 53.1145 33.2556 53.0394C33.3661 52.9642 33.4361 52.9095 33.4697 52.8732C33.5034 52.8368 33.5493 52.7603 33.6111 52.6516C33.6711 52.5389 33.7068 52.4384 33.7263 52.3461C33.7482 52.2478 33.7518 52.1296 33.7394 51.9855C33.7294 51.8354 33.715 51.7214 33.6999 51.6514C33.679 51.5795 33.6455 51.4897 33.5978 51.378C33.5535 51.2743 33.4902 51.1607 33.4056 51.0433C33.3227 50.9299 33.2569 50.8564 33.2098 50.8268C33.1611 50.7932 33.091 50.7558 33.0013 50.7186C32.9117 50.6814 32.8346 50.6621 32.7724 50.6546C32.7102 50.6472 32.6042 50.6522 32.4543 50.6696C32.3061 50.6909 32.2011 50.7099 32.1428 50.7345C32.0868 50.753 31.9874 50.808 31.848 50.9074C31.7166 51.0028 31.614 51.1079 31.5408 51.2127C31.4629 51.3295 31.4065 51.4162 31.3814 51.4725C31.3557 51.5388 31.3304 51.6292 31.3095 51.7415C31.287 51.8498 31.277 51.9761 31.2814 52.1243C31.2799 52.2705 31.2925 52.3805 31.3117 52.4484C31.3292 52.5123 31.3827 52.626 31.4722 52.7894C31.5715 52.9527 31.6435 53.0522 31.6957 53.0938C31.7496 53.1393 31.846 53.1925 31.9868 53.2573C32.1218 53.3201 32.2213 53.3573 32.2869 53.3727C32.3456 53.3722 32.4217 53.3775 32.5115 53.3806Z" fill="#1F1F1F"/>
<path d="M35.0515 51.3279C35.0634 51.3557 35.077 51.3874 35.0888 51.4152C35.1234 51.4846 35.1563 51.55 35.1909 51.6194C35.2255 51.6888 35.2567 51.7502 35.2804 51.8057C35.3059 51.8652 35.3291 51.9307 35.3539 52.0002L35.4015 52.1113C35.4144 52.153 35.4096 52.1988 35.3894 52.2427C35.3692 52.2867 35.3358 52.3228 35.2899 52.341C35.2441 52.3593 35.1971 52.3637 35.1491 52.3541C35.0994 52.3406 35.072 52.3109 35.0591 52.2692L35.0149 52.1661C34.9884 52.0927 34.9669 52.0312 34.9431 51.9756C34.9211 51.9241 34.8899 51.8626 34.8587 51.8012C34.8258 51.7357 34.7929 51.6703 34.7566 51.597C34.7227 51.5176 34.6609 51.3848 34.5697 51.1945C34.5005 51.0557 34.4472 50.9427 34.4099 50.8554C34.3855 50.8098 34.3577 50.7563 34.3265 50.6949C34.2437 50.5244 34.1854 50.3995 34.148 50.3122C34.1107 50.2249 34.0773 50.1356 34.0497 50.0483C34.048 50.0443 34.0446 50.0364 34.0412 50.0285C34.0378 50.0205 34.035 50.0026 34.0346 49.9788C34.0341 49.9549 34.0296 49.933 34.0292 49.9091C34.0287 49.8853 34.034 49.8633 34.0432 49.8394C34.0525 49.8154 34.0635 49.7954 34.0801 49.7774C34.0968 49.7593 34.1152 49.7453 34.145 49.7351C34.1748 49.7249 34.208 49.7226 34.2486 49.7263C34.3144 49.7317 34.3561 49.7493 34.3801 49.771C34.404 49.7927 34.4125 49.8125 34.4032 49.8365L34.3916 49.8664C34.4205 49.9339 34.4545 50.0132 34.4952 50.1084C34.536 50.2036 34.5716 50.2869 34.6056 50.3663C34.6379 50.4416 34.6718 50.521 34.7075 50.6043C34.72 50.6221 34.7342 50.6439 34.7478 50.6756C34.7773 50.7331 34.8 50.7747 34.821 50.8123C34.8218 50.6432 34.8218 50.5178 34.825 50.4342C34.8306 50.3446 34.8419 50.2569 34.8515 50.1653C34.8594 50.0697 34.8881 49.9202 34.9297 49.7208C34.9799 49.5075 35.0178 49.3679 35.0433 49.302C35.0808 49.23 35.1281 49.158 35.1851 49.0859L35.2558 49.0117C35.2875 48.9716 35.3299 48.9454 35.3849 48.937C35.4359 48.9306 35.4782 48.9383 35.5136 48.9639C35.5489 48.9894 35.5659 49.0291 35.5685 49.0808C35.5694 49.1286 35.5549 49.1745 35.5216 49.2106L35.4525 49.2887C35.4191 49.3248 35.3915 49.3629 35.3719 49.3969C35.3557 49.4388 35.3271 49.5545 35.2827 49.7359C35.2435 49.9293 35.2194 50.0668 35.2104 50.1485C35.2031 50.2341 35.1942 50.3158 35.1909 50.3994C35.1876 50.483 35.1853 50.6144 35.1839 50.7935C35.1772 50.9946 35.1588 51.134 35.1321 51.2198C35.1045 51.2579 35.0808 51.2939 35.0515 51.3279Z" fill="#1F1F1F"/>
<path d="M37.5923 51.204C37.5688 51.2492 37.5345 51.2806 37.4912 51.3022C37.4479 51.3238 37.4 51.3239 37.3566 51.3121C37.3115 51.2964 37.2821 51.2728 37.2651 51.2335L37.2475 51.1707C37.2305 51.1314 37.2015 51.0646 37.1607 50.9703C37.1199 50.876 37.0858 50.7974 37.0603 50.7385C37.0365 50.6835 36.9985 50.6069 36.952 50.5107C36.9039 50.4105 36.8433 50.2926 36.7758 50.159C36.7028 50.0235 36.6331 49.8958 36.5708 49.774C36.5085 49.6523 36.462 49.556 36.4201 49.4814C36.3782 49.4067 36.338 49.336 36.2944 49.2574C36.2508 49.1789 36.2174 49.1239 36.1998 49.0944C36.1896 49.0708 36.1738 49.0453 36.1523 49.0178L36.1206 48.9667C36.0974 48.9353 36.09 48.896 36.1039 48.8508C36.1161 48.8017 36.1431 48.7644 36.1847 48.7388C36.2246 48.7094 36.273 48.6995 36.3226 48.7034C36.3721 48.7073 36.4054 48.7289 36.4264 48.7663L36.4586 48.8075C36.4796 48.8448 36.4988 48.8782 36.5164 48.9077C36.5283 48.9352 36.56 48.9863 36.6075 49.0629C36.6511 49.1414 36.6947 49.22 36.7366 49.2946C36.7785 49.3693 36.8306 49.4675 36.893 49.5893C36.9514 49.713 37.0171 49.8427 37.0845 49.9763C37.1576 50.1118 37.2221 50.2277 37.2703 50.3279C37.3185 50.428 37.3564 50.5046 37.382 50.5636C37.4075 50.6225 37.4415 50.7011 37.4841 50.7993C37.5266 50.8975 37.5572 50.9682 37.5742 51.0075L37.5953 51.0782C37.6162 51.1156 37.6158 51.1588 37.5923 51.204Z" fill="#1F1F1F"/>
<path d="M36.9825 48.2858C36.9817 48.2377 36.9981 48.1955 37.0317 48.1591C37.0654 48.1227 37.1099 48.1003 37.1636 48.0877C37.2149 48.0813 37.2575 48.0889 37.2931 48.1146L37.4233 48.2236C37.5203 48.3009 37.6275 48.4021 37.7432 48.5232C37.8538 48.6324 37.9403 48.7198 38.0034 48.7753C38.0763 48.8307 38.1773 48.9059 38.3024 49.003C38.4315 49.098 38.583 49.2108 38.7495 49.3355C38.9176 49.4642 39.0301 49.5433 39.0904 49.5808C39.1524 49.6223 39.2127 49.6598 39.2673 49.6954C39.3144 49.725 39.3828 49.7584 39.4748 49.7896C39.4921 49.7955 39.5134 49.7993 39.5307 49.8052C39.5407 49.771 39.5449 49.7349 39.5532 49.6968C39.5789 49.5382 39.594 49.4239 39.5927 49.3518C39.5903 49.2656 39.588 49.1795 39.5822 49.0854C39.5787 48.9852 39.5682 48.811 39.549 48.5587C39.5354 48.3084 39.5307 48.1361 39.529 48.0399C39.5272 47.9438 39.5227 47.8296 39.5154 47.6974C39.5139 47.5672 39.5138 47.475 39.5136 47.4169L39.5147 47.3388C39.5114 47.2967 39.5319 47.2524 39.5655 47.2161C39.6032 47.1776 39.6477 47.1552 39.6974 47.1447C39.7487 47.1382 39.7913 47.1459 39.8246 47.1776C39.8619 47.2073 39.8772 47.2433 39.874 47.2934L39.8811 47.3674C39.8779 47.4176 39.878 47.5097 39.8795 47.64C39.8868 47.7721 39.8896 47.8823 39.8896 47.9745C39.8937 48.0646 39.8985 48.2369 39.9137 48.4912C39.9289 48.7455 39.9353 48.9218 39.9452 49.0139C39.9486 49.114 39.9527 49.2042 39.9551 49.2903C39.9609 49.3844 39.9503 49.5208 39.9192 49.7014C39.9186 49.7114 39.9173 49.7315 39.9096 49.7596C39.906 49.7857 39.9007 49.8078 39.896 49.8198C39.8913 49.8319 39.886 49.854 39.8801 49.8861C39.8741 49.9182 39.8688 49.9403 39.8641 49.9524C39.8594 49.9644 39.8484 49.9846 39.835 50.0107C39.8215 50.0369 39.8047 50.0551 39.7902 50.0673C39.7758 50.0794 39.7572 50.0936 39.7364 50.1138C39.7155 50.1341 39.6912 50.1463 39.6601 50.1426C39.5717 50.1775 39.4588 50.1665 39.319 50.1157C39.1958 50.0807 39.1061 50.0435 39.0424 49.998C38.9838 49.9645 38.9235 49.927 38.8615 49.8855C38.7938 49.842 38.6738 49.7569 38.5022 49.6203C38.3341 49.4916 38.1883 49.3807 38.0551 49.2878C37.926 49.1928 37.8233 49.1136 37.7545 49.0561C37.6782 48.9927 37.5801 48.9014 37.4604 48.7823C37.3561 48.665 37.2581 48.5738 37.1744 48.5044L37.0361 48.3995C37.0005 48.3738 36.9834 48.3339 36.9825 48.2858Z" fill="#1F1F1F"/>
<path d="M43.7435 47.3809L43.7354 47.385C43.7259 47.443 43.7187 47.4951 43.7178 47.5391C43.7072 47.5832 43.6983 47.6313 43.6854 47.6814C43.6694 47.7476 43.6244 47.872 43.5486 48.0507C43.4745 48.2333 43.4116 48.3619 43.3582 48.4324C43.3089 48.5008 43.2579 48.5653 43.2035 48.6218C43.1491 48.6783 43.093 48.7308 43.0369 48.7833C42.975 48.8339 42.8994 48.8866 42.8082 48.9374C42.7153 48.9842 42.6034 49.0212 42.4767 49.0464C42.3621 49.0654 42.2717 49.0723 42.209 49.0748C42.1463 49.0774 42.0819 49.076 42.014 49.0666C41.9479 49.0612 41.8749 49.0399 41.7986 49.0106C41.7091 48.9734 41.6248 48.9141 41.5425 48.8249C41.4636 48.7436 41.4093 48.6741 41.378 48.6124C41.3484 48.5547 41.3235 48.4849 41.2999 48.3951C41.2779 48.3093 41.2749 48.2333 41.2753 48.1653C41.274 48.0933 41.2901 47.9932 41.3219 47.8609C41.3521 47.7246 41.3861 47.6203 41.4256 47.552C41.4628 47.4896 41.4999 47.4273 41.5469 47.3649C41.5939 47.3024 41.6536 47.2239 41.7335 47.1352C41.8215 47.0424 41.9348 46.9513 42.0687 46.8741C42.2009 46.7929 42.3157 46.7399 42.4084 46.727C42.5052 46.7121 42.6547 46.7288 42.8552 46.773C42.8822 46.7787 42.9052 46.7865 42.9322 46.7923C42.8556 46.705 42.7956 46.6335 42.7499 46.5839C42.6909 46.5265 42.6131 46.4592 42.5105 46.3801C42.4138 46.303 42.3312 46.2477 42.2613 46.2104C42.1953 46.171 42.1247 46.1436 42.0575 46.1242C42.0018 46.1087 41.9006 46.1017 41.7636 46.1029C41.6226 46.1062 41.5063 46.1212 41.4164 46.1521C41.3167 46.183 41.2406 46.2116 41.184 46.2402C41.1217 46.2667 41.0652 46.2952 41.0138 46.3357C40.9693 46.3581 40.8907 46.4268 40.7882 46.5318C40.7147 46.6124 40.6677 46.6749 40.6439 46.7111L40.628 46.7772C40.6134 46.8233 40.5872 46.8656 40.5462 46.896C40.5052 46.9263 40.4573 46.9408 40.4067 46.9372C40.3561 46.9337 40.3206 46.908 40.2955 46.8722C40.2704 46.8365 40.2614 46.7925 40.272 46.7485L40.2967 46.6682C40.3139 46.5821 40.3974 46.4673 40.5438 46.316C40.6758 46.1768 40.781 46.0898 40.8561 46.0471C40.9213 46.0046 40.9883 45.9659 41.0586 45.9353C41.1354 45.8966 41.2374 45.8597 41.355 45.8246C41.4807 45.7855 41.6287 45.7641 41.8047 45.7625C41.9791 45.7569 42.1154 45.7657 42.2096 45.7908C42.2998 45.818 42.3876 45.8512 42.4765 45.8984C42.5654 45.9456 42.6628 46.0127 42.7745 46.1017C42.8862 46.1907 42.9732 46.2679 43.0355 46.3333C43.0979 46.3988 43.1819 46.492 43.2911 46.621C43.3951 46.7381 43.474 46.8193 43.5238 46.8669C43.5712 46.9205 43.6146 46.9761 43.6621 47.0296C43.7095 47.0832 43.7404 47.1209 43.7604 47.1447C43.7982 47.1644 43.8089 47.2123 43.7964 47.2864L43.7435 47.3809ZM43.3862 47.3721C43.3409 47.3465 43.2997 47.3189 43.2618 47.2993C43.2108 47.2717 43.154 47.2422 43.0914 47.2108C43.0306 47.1834 42.9117 47.1465 42.7382 47.108C42.5704 47.0716 42.4658 47.0565 42.4162 47.067C42.3805 47.0753 42.3182 47.1018 42.227 47.1527C42.1295 47.2116 42.0532 47.2743 41.9964 47.3368C41.9252 47.4114 41.8742 47.4759 41.8417 47.5262C41.8092 47.5765 41.7767 47.6268 41.7442 47.6771C41.7221 47.7173 41.6998 47.7915 41.6739 47.8917C41.6497 47.9959 41.6355 48.066 41.6346 48.1101C41.6379 48.152 41.6438 48.212 41.6573 48.2778C41.673 48.3377 41.6877 48.3836 41.7071 48.4174C41.7224 48.4533 41.7584 48.5029 41.819 48.5644C41.8779 48.6218 41.9284 48.6594 41.9743 48.675C42.0277 48.6965 42.0776 48.71 42.1185 48.7137C42.1593 48.7173 42.2042 48.7189 42.249 48.7205C42.2939 48.7221 42.367 48.7094 42.4621 48.6905C42.545 48.6778 42.6147 48.6571 42.6713 48.6286C42.7342 48.5921 42.7833 48.5576 42.8203 48.5293C42.8596 48.4949 42.9013 48.4545 42.9453 48.4081C42.9893 48.3617 43.0275 48.3134 43.0698 48.263C43.1023 48.2127 43.1518 48.1103 43.2183 47.9557C43.2831 47.7971 43.3228 47.6947 43.3351 47.6546C43.344 47.6065 43.3489 47.5605 43.3531 47.5244C43.3608 47.4964 43.368 47.4443 43.3862 47.3721Z" fill="#1F1F1F"/>
</svg>
