<svg width="1440" height="80" viewBox="0 0 1440 80" fill="none" xmlns="http://www.w3.org/2000/svg">
<rect x="-4" width="1586" height="80" fill="#FDA3C4"/>
<rect x="-10" y="8.77734" width="1593" height="62" stroke="#F40000" stroke-width="2"/>
<path d="M24.15 34.25H18.35V49H15.125V34.25H9.35V31.5H24.15V34.25ZM34.8088 49.25C33.0255 49.25 31.4171 48.8667 29.9838 48.1C28.5505 47.3167 27.4255 46.2417 26.6088 44.875C25.7921 43.4917 25.3838 41.95 25.3838 40.25C25.3838 38.55 25.7921 37.0167 26.6088 35.65C27.4255 34.2667 28.5505 33.1917 29.9838 32.425C31.4171 31.6417 33.0255 31.25 34.8088 31.25C36.5921 31.25 38.2005 31.6417 39.6338 32.425C41.0671 33.1917 42.1921 34.2583 43.0088 35.625C43.8255 36.9917 44.2338 38.5333 44.2338 40.25C44.2338 41.9667 43.8255 43.5083 43.0088 44.875C42.1921 46.2417 41.0671 47.3167 39.6338 48.1C38.2005 48.8667 36.5921 49.25 34.8088 49.25ZM34.8088 46.4C35.9755 46.4 37.0255 46.1417 37.9588 45.625C38.8921 45.0917 39.6255 44.3583 40.1588 43.425C40.6921 42.475 40.9588 41.4167 40.9588 40.25C40.9588 39.0833 40.6921 38.0333 40.1588 37.1C39.6255 36.15 38.8921 35.4167 37.9588 34.9C37.0255 34.3667 35.9755 34.1 34.8088 34.1C33.6421 34.1 32.5921 34.3667 31.6588 34.9C30.7255 35.4167 29.9921 36.15 29.4588 37.1C28.9255 38.0333 28.6588 39.0833 28.6588 40.25C28.6588 41.4167 28.9255 42.475 29.4588 43.425C29.9921 44.3583 30.7255 45.0917 31.6588 45.625C32.5921 46.1417 33.6421 46.4 34.8088 46.4ZM63.327 31.5V49H60.127V34.25H51.052V49H47.852V31.5H63.327ZM76.3615 49.25C74.5782 49.25 72.9699 48.8667 71.5365 48.1C70.1032 47.3167 68.9782 46.2417 68.1615 44.875C67.3449 43.4917 66.9365 41.95 66.9365 40.25C66.9365 38.55 67.3449 37.0167 68.1615 35.65C68.9782 34.2667 70.1032 33.1917 71.5365 32.425C72.9699 31.6417 74.5782 31.25 76.3615 31.25C78.1449 31.25 79.7532 31.6417 81.1865 32.425C82.6199 33.1917 83.7449 34.2583 84.5615 35.625C85.3782 36.9917 85.7865 38.5333 85.7865 40.25C85.7865 41.9667 85.3782 43.5083 84.5615 44.875C83.7449 46.2417 82.6199 47.3167 81.1865 48.1C79.7532 48.8667 78.1449 49.25 76.3615 49.25ZM76.3615 46.4C77.5282 46.4 78.5782 46.1417 79.5115 45.625C80.4449 45.0917 81.1782 44.3583 81.7115 43.425C82.2449 42.475 82.5115 41.4167 82.5115 40.25C82.5115 39.0833 82.2449 38.0333 81.7115 37.1C81.1782 36.15 80.4449 35.4167 79.5115 34.9C78.5782 34.3667 77.5282 34.1 76.3615 34.1C75.1949 34.1 74.1449 34.3667 73.2115 34.9C72.2782 35.4167 71.5449 36.15 71.0115 37.1C70.4782 38.0333 70.2115 39.0833 70.2115 40.25C70.2115 41.4167 70.4782 42.475 71.0115 43.425C71.5449 44.3583 72.2782 45.0917 73.2115 45.625C74.1449 46.1417 75.1949 46.4 76.3615 46.4ZM100.905 39.9C102.021 40.2 102.871 40.7167 103.455 41.45C104.038 42.1667 104.33 43.0667 104.33 44.15C104.33 45.6833 103.763 46.875 102.63 47.725C101.496 48.575 99.8547 49 97.7047 49H89.4047V31.5H97.2297C99.1964 31.5 100.73 31.8917 101.83 32.675C102.93 33.4583 103.48 34.5667 103.48 36C103.48 36.9167 103.255 37.7083 102.805 38.375C102.371 39.0417 101.738 39.55 100.905 39.9ZM92.6047 38.975H96.9547C98.0047 38.975 98.8047 38.7667 99.3547 38.35C99.9047 37.9333 100.18 37.3167 100.18 36.5C100.18 35.6833 99.9047 35.0667 99.3547 34.65C98.8047 34.2167 98.0047 34 96.9547 34H92.6047V38.975ZM97.6047 46.5C99.9047 46.5 101.055 45.6333 101.055 43.9C101.055 42.2 99.9047 41.35 97.6047 41.35H92.6047V46.5H97.6047ZM116.107 37.425C118.207 37.425 119.815 37.9 120.932 38.85C122.065 39.7833 122.632 41.175 122.632 43.025C122.632 44.9583 122.015 46.4417 120.782 47.475C119.549 48.4917 117.815 49 115.582 49H108.057V31.5H111.257V37.425H116.107ZM115.432 46.5C116.699 46.5 117.674 46.2083 118.357 45.625C119.04 45.0417 119.382 44.1917 119.382 43.075C119.382 40.9583 118.065 39.9 115.432 39.9H111.257V46.5H115.432ZM125.157 31.5H128.357V49H125.157V31.5ZM146.401 46.275V49H133.276V31.5H146.051V34.225H136.526V38.775H144.976V41.45H136.526V46.275H146.401ZM169.633 34.25H163.833V49H160.608V34.25H154.833V31.5H169.633V34.25ZM180.292 49.25C178.509 49.25 176.901 48.8667 175.467 48.1C174.034 47.3167 172.909 46.2417 172.092 44.875C171.276 43.4917 170.867 41.95 170.867 40.25C170.867 38.55 171.276 37.0167 172.092 35.65C172.909 34.2667 174.034 33.1917 175.467 32.425C176.901 31.6417 178.509 31.25 180.292 31.25C182.076 31.25 183.684 31.6417 185.117 32.425C186.551 33.1917 187.676 34.2583 188.492 35.625C189.309 36.9917 189.717 38.5333 189.717 40.25C189.717 41.9667 189.309 43.5083 188.492 44.875C187.676 46.2417 186.551 47.3167 185.117 48.1C183.684 48.8667 182.076 49.25 180.292 49.25ZM180.292 46.4C181.459 46.4 182.509 46.1417 183.442 45.625C184.376 45.0917 185.109 44.3583 185.642 43.425C186.176 42.475 186.442 41.4167 186.442 40.25C186.442 39.0833 186.176 38.0333 185.642 37.1C185.109 36.15 184.376 35.4167 183.442 34.9C182.509 34.3667 181.459 34.1 180.292 34.1C179.126 34.1 178.076 34.3667 177.142 34.9C176.209 35.4167 175.476 36.15 174.942 37.1C174.409 38.0333 174.142 39.0833 174.142 40.25C174.142 41.4167 174.409 42.475 174.942 43.425C175.476 44.3583 176.209 45.0917 177.142 45.625C178.076 46.1417 179.126 46.4 180.292 46.4ZM204.835 39.9C205.952 40.2 206.802 40.7167 207.385 41.45C207.969 42.1667 208.26 43.0667 208.26 44.15C208.26 45.6833 207.694 46.875 206.56 47.725C205.427 48.575 203.785 49 201.635 49H193.335V31.5H201.16C203.127 31.5 204.66 31.8917 205.76 32.675C206.86 33.4583 207.41 34.5667 207.41 36C207.41 36.9167 207.185 37.7083 206.735 38.375C206.302 39.0417 205.669 39.55 204.835 39.9ZM196.535 38.975H200.885C201.935 38.975 202.735 38.7667 203.285 38.35C203.835 37.9333 204.11 37.3167 204.11 36.5C204.11 35.6833 203.835 35.0667 203.285 34.65C202.735 34.2167 201.935 34 200.885 34H196.535V38.975ZM201.535 46.5C203.835 46.5 204.985 45.6333 204.985 43.9C204.985 42.2 203.835 41.35 201.535 41.35H196.535V46.5H201.535ZM223.563 44.95H214.813L213.088 49H209.738L217.613 31.5H220.813L228.713 49H225.313L223.563 44.95ZM222.488 42.4L219.188 34.75L215.913 42.4H222.488ZM238.596 31.5C240.113 31.5 241.43 31.75 242.546 32.25C243.68 32.75 244.546 33.4667 245.146 34.4C245.746 35.3333 246.046 36.4417 246.046 37.725C246.046 38.9917 245.746 40.1 245.146 41.05C244.546 41.9833 243.68 42.7 242.546 43.2C241.43 43.7 240.113 43.95 238.596 43.95H234.646V49H231.396V31.5H238.596ZM238.446 41.2C239.863 41.2 240.938 40.9 241.671 40.3C242.405 39.7 242.771 38.8417 242.771 37.725C242.771 36.6083 242.405 35.75 241.671 35.15C240.938 34.55 239.863 34.25 238.446 34.25H234.646V41.2H238.446ZM257.196 37.425C259.296 37.425 260.904 37.9 262.021 38.85C263.154 39.7833 263.721 41.175 263.721 43.025C263.721 44.9583 263.104 46.4417 261.871 47.475C260.638 48.4917 258.904 49 256.671 49H249.146V31.5H252.346V37.425H257.196ZM256.521 46.5C257.788 46.5 258.763 46.2083 259.446 45.625C260.129 45.0417 260.471 44.1917 260.471 43.075C260.471 40.9583 259.154 39.9 256.521 39.9H252.346V46.5H256.521ZM266.246 31.5H269.446V49H266.246V31.5Z" fill="#F40000"/>
<path d="M419.15 34.25H413.35V49H410.125V34.25H404.35V31.5H419.15V34.25ZM429.809 49.25C428.025 49.25 426.417 48.8667 424.984 48.1C423.55 47.3167 422.425 46.2417 421.609 44.875C420.792 43.4917 420.384 41.95 420.384 40.25C420.384 38.55 420.792 37.0167 421.609 35.65C422.425 34.2667 423.55 33.1917 424.984 32.425C426.417 31.6417 428.025 31.25 429.809 31.25C431.592 31.25 433.2 31.6417 434.634 32.425C436.067 33.1917 437.192 34.2583 438.009 35.625C438.825 36.9917 439.234 38.5333 439.234 40.25C439.234 41.9667 438.825 43.5083 438.009 44.875C437.192 46.2417 436.067 47.3167 434.634 48.1C433.2 48.8667 431.592 49.25 429.809 49.25ZM429.809 46.4C430.975 46.4 432.025 46.1417 432.959 45.625C433.892 45.0917 434.625 44.3583 435.159 43.425C435.692 42.475 435.959 41.4167 435.959 40.25C435.959 39.0833 435.692 38.0333 435.159 37.1C434.625 36.15 433.892 35.4167 432.959 34.9C432.025 34.3667 430.975 34.1 429.809 34.1C428.642 34.1 427.592 34.3667 426.659 34.9C425.725 35.4167 424.992 36.15 424.459 37.1C423.925 38.0333 423.659 39.0833 423.659 40.25C423.659 41.4167 423.925 42.475 424.459 43.425C424.992 44.3583 425.725 45.0917 426.659 45.625C427.592 46.1417 428.642 46.4 429.809 46.4ZM458.327 31.5V49H455.127V34.25H446.052V49H442.852V31.5H458.327ZM471.362 49.25C469.578 49.25 467.97 48.8667 466.537 48.1C465.103 47.3167 463.978 46.2417 463.162 44.875C462.345 43.4917 461.937 41.95 461.937 40.25C461.937 38.55 462.345 37.0167 463.162 35.65C463.978 34.2667 465.103 33.1917 466.537 32.425C467.97 31.6417 469.578 31.25 471.362 31.25C473.145 31.25 474.753 31.6417 476.187 32.425C477.62 33.1917 478.745 34.2583 479.562 35.625C480.378 36.9917 480.787 38.5333 480.787 40.25C480.787 41.9667 480.378 43.5083 479.562 44.875C478.745 46.2417 477.62 47.3167 476.187 48.1C474.753 48.8667 473.145 49.25 471.362 49.25ZM471.362 46.4C472.528 46.4 473.578 46.1417 474.512 45.625C475.445 45.0917 476.178 44.3583 476.712 43.425C477.245 42.475 477.512 41.4167 477.512 40.25C477.512 39.0833 477.245 38.0333 476.712 37.1C476.178 36.15 475.445 35.4167 474.512 34.9C473.578 34.3667 472.528 34.1 471.362 34.1C470.195 34.1 469.145 34.3667 468.212 34.9C467.278 35.4167 466.545 36.15 466.012 37.1C465.478 38.0333 465.212 39.0833 465.212 40.25C465.212 41.4167 465.478 42.475 466.012 43.425C466.545 44.3583 467.278 45.0917 468.212 45.625C469.145 46.1417 470.195 46.4 471.362 46.4ZM495.905 39.9C497.021 40.2 497.871 40.7167 498.455 41.45C499.038 42.1667 499.33 43.0667 499.33 44.15C499.33 45.6833 498.763 46.875 497.63 47.725C496.496 48.575 494.855 49 492.705 49H484.405V31.5H492.23C494.196 31.5 495.73 31.8917 496.83 32.675C497.93 33.4583 498.48 34.5667 498.48 36C498.48 36.9167 498.255 37.7083 497.805 38.375C497.371 39.0417 496.738 39.55 495.905 39.9ZM487.605 38.975H491.955C493.005 38.975 493.805 38.7667 494.355 38.35C494.905 37.9333 495.18 37.3167 495.18 36.5C495.18 35.6833 494.905 35.0667 494.355 34.65C493.805 34.2167 493.005 34 491.955 34H487.605V38.975ZM492.605 46.5C494.905 46.5 496.055 45.6333 496.055 43.9C496.055 42.2 494.905 41.35 492.605 41.35H487.605V46.5H492.605ZM511.107 37.425C513.207 37.425 514.815 37.9 515.932 38.85C517.065 39.7833 517.632 41.175 517.632 43.025C517.632 44.9583 517.015 46.4417 515.782 47.475C514.549 48.4917 512.815 49 510.582 49H503.057V31.5H506.257V37.425H511.107ZM510.432 46.5C511.699 46.5 512.674 46.2083 513.357 45.625C514.04 45.0417 514.382 44.1917 514.382 43.075C514.382 40.9583 513.065 39.9 510.432 39.9H506.257V46.5H510.432ZM520.157 31.5H523.357V49H520.157V31.5ZM541.401 46.275V49H528.276V31.5H541.051V34.225H531.526V38.775H539.976V41.45H531.526V46.275H541.401ZM564.633 34.25H558.833V49H555.608V34.25H549.833V31.5H564.633V34.25ZM575.292 49.25C573.509 49.25 571.901 48.8667 570.467 48.1C569.034 47.3167 567.909 46.2417 567.092 44.875C566.276 43.4917 565.867 41.95 565.867 40.25C565.867 38.55 566.276 37.0167 567.092 35.65C567.909 34.2667 569.034 33.1917 570.467 32.425C571.901 31.6417 573.509 31.25 575.292 31.25C577.076 31.25 578.684 31.6417 580.117 32.425C581.551 33.1917 582.676 34.2583 583.492 35.625C584.309 36.9917 584.717 38.5333 584.717 40.25C584.717 41.9667 584.309 43.5083 583.492 44.875C582.676 46.2417 581.551 47.3167 580.117 48.1C578.684 48.8667 577.076 49.25 575.292 49.25ZM575.292 46.4C576.459 46.4 577.509 46.1417 578.442 45.625C579.376 45.0917 580.109 44.3583 580.642 43.425C581.176 42.475 581.442 41.4167 581.442 40.25C581.442 39.0833 581.176 38.0333 580.642 37.1C580.109 36.15 579.376 35.4167 578.442 34.9C577.509 34.3667 576.459 34.1 575.292 34.1C574.126 34.1 573.076 34.3667 572.142 34.9C571.209 35.4167 570.476 36.15 569.942 37.1C569.409 38.0333 569.142 39.0833 569.142 40.25C569.142 41.4167 569.409 42.475 569.942 43.425C570.476 44.3583 571.209 45.0917 572.142 45.625C573.076 46.1417 574.126 46.4 575.292 46.4ZM599.835 39.9C600.952 40.2 601.802 40.7167 602.385 41.45C602.969 42.1667 603.26 43.0667 603.26 44.15C603.26 45.6833 602.694 46.875 601.56 47.725C600.427 48.575 598.785 49 596.635 49H588.335V31.5H596.16C598.127 31.5 599.66 31.8917 600.76 32.675C601.86 33.4583 602.41 34.5667 602.41 36C602.41 36.9167 602.185 37.7083 601.735 38.375C601.302 39.0417 600.669 39.55 599.835 39.9ZM591.535 38.975H595.885C596.935 38.975 597.735 38.7667 598.285 38.35C598.835 37.9333 599.11 37.3167 599.11 36.5C599.11 35.6833 598.835 35.0667 598.285 34.65C597.735 34.2167 596.935 34 595.885 34H591.535V38.975ZM596.535 46.5C598.835 46.5 599.985 45.6333 599.985 43.9C599.985 42.2 598.835 41.35 596.535 41.35H591.535V46.5H596.535ZM618.563 44.95H609.813L608.088 49H604.738L612.613 31.5H615.813L623.713 49H620.313L618.563 44.95ZM617.488 42.4L614.188 34.75L610.913 42.4H617.488ZM633.596 31.5C635.113 31.5 636.43 31.75 637.546 32.25C638.68 32.75 639.546 33.4667 640.146 34.4C640.746 35.3333 641.046 36.4417 641.046 37.725C641.046 38.9917 640.746 40.1 640.146 41.05C639.546 41.9833 638.68 42.7 637.546 43.2C636.43 43.7 635.113 43.95 633.596 43.95H629.646V49H626.396V31.5H633.596ZM633.446 41.2C634.863 41.2 635.938 40.9 636.671 40.3C637.405 39.7 637.771 38.8417 637.771 37.725C637.771 36.6083 637.405 35.75 636.671 35.15C635.938 34.55 634.863 34.25 633.446 34.25H629.646V41.2H633.446ZM652.196 37.425C654.296 37.425 655.904 37.9 657.021 38.85C658.154 39.7833 658.721 41.175 658.721 43.025C658.721 44.9583 658.104 46.4417 656.871 47.475C655.638 48.4917 653.904 49 651.671 49H644.146V31.5H647.346V37.425H652.196ZM651.521 46.5C652.788 46.5 653.763 46.2083 654.446 45.625C655.129 45.0417 655.471 44.1917 655.471 43.075C655.471 40.9583 654.154 39.9 651.521 39.9H647.346V46.5H651.521ZM661.246 31.5H664.446V49H661.246V31.5Z" fill="#F40000"/>
<path d="M812.15 34.25H806.35V49H803.125V34.25H797.35V31.5H812.15V34.25ZM822.809 49.25C821.025 49.25 819.417 48.8667 817.984 48.1C816.55 47.3167 815.425 46.2417 814.609 44.875C813.792 43.4917 813.384 41.95 813.384 40.25C813.384 38.55 813.792 37.0167 814.609 35.65C815.425 34.2667 816.55 33.1917 817.984 32.425C819.417 31.6417 821.025 31.25 822.809 31.25C824.592 31.25 826.2 31.6417 827.634 32.425C829.067 33.1917 830.192 34.2583 831.009 35.625C831.825 36.9917 832.234 38.5333 832.234 40.25C832.234 41.9667 831.825 43.5083 831.009 44.875C830.192 46.2417 829.067 47.3167 827.634 48.1C826.2 48.8667 824.592 49.25 822.809 49.25ZM822.809 46.4C823.975 46.4 825.025 46.1417 825.959 45.625C826.892 45.0917 827.625 44.3583 828.159 43.425C828.692 42.475 828.959 41.4167 828.959 40.25C828.959 39.0833 828.692 38.0333 828.159 37.1C827.625 36.15 826.892 35.4167 825.959 34.9C825.025 34.3667 823.975 34.1 822.809 34.1C821.642 34.1 820.592 34.3667 819.659 34.9C818.725 35.4167 817.992 36.15 817.459 37.1C816.925 38.0333 816.659 39.0833 816.659 40.25C816.659 41.4167 816.925 42.475 817.459 43.425C817.992 44.3583 818.725 45.0917 819.659 45.625C820.592 46.1417 821.642 46.4 822.809 46.4ZM851.327 31.5V49H848.127V34.25H839.052V49H835.852V31.5H851.327ZM864.362 49.25C862.578 49.25 860.97 48.8667 859.537 48.1C858.103 47.3167 856.978 46.2417 856.162 44.875C855.345 43.4917 854.937 41.95 854.937 40.25C854.937 38.55 855.345 37.0167 856.162 35.65C856.978 34.2667 858.103 33.1917 859.537 32.425C860.97 31.6417 862.578 31.25 864.362 31.25C866.145 31.25 867.753 31.6417 869.187 32.425C870.62 33.1917 871.745 34.2583 872.562 35.625C873.378 36.9917 873.787 38.5333 873.787 40.25C873.787 41.9667 873.378 43.5083 872.562 44.875C871.745 46.2417 870.62 47.3167 869.187 48.1C867.753 48.8667 866.145 49.25 864.362 49.25ZM864.362 46.4C865.528 46.4 866.578 46.1417 867.512 45.625C868.445 45.0917 869.178 44.3583 869.712 43.425C870.245 42.475 870.512 41.4167 870.512 40.25C870.512 39.0833 870.245 38.0333 869.712 37.1C869.178 36.15 868.445 35.4167 867.512 34.9C866.578 34.3667 865.528 34.1 864.362 34.1C863.195 34.1 862.145 34.3667 861.212 34.9C860.278 35.4167 859.545 36.15 859.012 37.1C858.478 38.0333 858.212 39.0833 858.212 40.25C858.212 41.4167 858.478 42.475 859.012 43.425C859.545 44.3583 860.278 45.0917 861.212 45.625C862.145 46.1417 863.195 46.4 864.362 46.4ZM888.905 39.9C890.021 40.2 890.871 40.7167 891.455 41.45C892.038 42.1667 892.33 43.0667 892.33 44.15C892.33 45.6833 891.763 46.875 890.63 47.725C889.496 48.575 887.855 49 885.705 49H877.405V31.5H885.23C887.196 31.5 888.73 31.8917 889.83 32.675C890.93 33.4583 891.48 34.5667 891.48 36C891.48 36.9167 891.255 37.7083 890.805 38.375C890.371 39.0417 889.738 39.55 888.905 39.9ZM880.605 38.975H884.955C886.005 38.975 886.805 38.7667 887.355 38.35C887.905 37.9333 888.18 37.3167 888.18 36.5C888.18 35.6833 887.905 35.0667 887.355 34.65C886.805 34.2167 886.005 34 884.955 34H880.605V38.975ZM885.605 46.5C887.905 46.5 889.055 45.6333 889.055 43.9C889.055 42.2 887.905 41.35 885.605 41.35H880.605V46.5H885.605ZM904.107 37.425C906.207 37.425 907.815 37.9 908.932 38.85C910.065 39.7833 910.632 41.175 910.632 43.025C910.632 44.9583 910.015 46.4417 908.782 47.475C907.549 48.4917 905.815 49 903.582 49H896.057V31.5H899.257V37.425H904.107ZM903.432 46.5C904.699 46.5 905.674 46.2083 906.357 45.625C907.04 45.0417 907.382 44.1917 907.382 43.075C907.382 40.9583 906.065 39.9 903.432 39.9H899.257V46.5H903.432ZM913.157 31.5H916.357V49H913.157V31.5ZM934.401 46.275V49H921.276V31.5H934.051V34.225H924.526V38.775H932.976V41.45H924.526V46.275H934.401ZM957.633 34.25H951.833V49H948.608V34.25H942.833V31.5H957.633V34.25ZM968.292 49.25C966.509 49.25 964.901 48.8667 963.467 48.1C962.034 47.3167 960.909 46.2417 960.092 44.875C959.276 43.4917 958.867 41.95 958.867 40.25C958.867 38.55 959.276 37.0167 960.092 35.65C960.909 34.2667 962.034 33.1917 963.467 32.425C964.901 31.6417 966.509 31.25 968.292 31.25C970.076 31.25 971.684 31.6417 973.117 32.425C974.551 33.1917 975.676 34.2583 976.492 35.625C977.309 36.9917 977.717 38.5333 977.717 40.25C977.717 41.9667 977.309 43.5083 976.492 44.875C975.676 46.2417 974.551 47.3167 973.117 48.1C971.684 48.8667 970.076 49.25 968.292 49.25ZM968.292 46.4C969.459 46.4 970.509 46.1417 971.442 45.625C972.376 45.0917 973.109 44.3583 973.642 43.425C974.176 42.475 974.442 41.4167 974.442 40.25C974.442 39.0833 974.176 38.0333 973.642 37.1C973.109 36.15 972.376 35.4167 971.442 34.9C970.509 34.3667 969.459 34.1 968.292 34.1C967.126 34.1 966.076 34.3667 965.142 34.9C964.209 35.4167 963.476 36.15 962.942 37.1C962.409 38.0333 962.142 39.0833 962.142 40.25C962.142 41.4167 962.409 42.475 962.942 43.425C963.476 44.3583 964.209 45.0917 965.142 45.625C966.076 46.1417 967.126 46.4 968.292 46.4ZM992.835 39.9C993.952 40.2 994.802 40.7167 995.385 41.45C995.969 42.1667 996.26 43.0667 996.26 44.15C996.26 45.6833 995.694 46.875 994.56 47.725C993.427 48.575 991.785 49 989.635 49H981.335V31.5H989.16C991.127 31.5 992.66 31.8917 993.76 32.675C994.86 33.4583 995.41 34.5667 995.41 36C995.41 36.9167 995.185 37.7083 994.735 38.375C994.302 39.0417 993.669 39.55 992.835 39.9ZM984.535 38.975H988.885C989.935 38.975 990.735 38.7667 991.285 38.35C991.835 37.9333 992.11 37.3167 992.11 36.5C992.11 35.6833 991.835 35.0667 991.285 34.65C990.735 34.2167 989.935 34 988.885 34H984.535V38.975ZM989.535 46.5C991.835 46.5 992.985 45.6333 992.985 43.9C992.985 42.2 991.835 41.35 989.535 41.35H984.535V46.5H989.535ZM1011.56 44.95H1002.81L1001.09 49H997.738L1005.61 31.5H1008.81L1016.71 49H1013.31L1011.56 44.95ZM1010.49 42.4L1007.19 34.75L1003.91 42.4H1010.49ZM1026.6 31.5C1028.11 31.5 1029.43 31.75 1030.55 32.25C1031.68 32.75 1032.55 33.4667 1033.15 34.4C1033.75 35.3333 1034.05 36.4417 1034.05 37.725C1034.05 38.9917 1033.75 40.1 1033.15 41.05C1032.55 41.9833 1031.68 42.7 1030.55 43.2C1029.43 43.7 1028.11 43.95 1026.6 43.95H1022.65V49H1019.4V31.5H1026.6ZM1026.45 41.2C1027.86 41.2 1028.94 40.9 1029.67 40.3C1030.4 39.7 1030.77 38.8417 1030.77 37.725C1030.77 36.6083 1030.4 35.75 1029.67 35.15C1028.94 34.55 1027.86 34.25 1026.45 34.25H1022.65V41.2H1026.45ZM1045.2 37.425C1047.3 37.425 1048.9 37.9 1050.02 38.85C1051.15 39.7833 1051.72 41.175 1051.72 43.025C1051.72 44.9583 1051.1 46.4417 1049.87 47.475C1048.64 48.4917 1046.9 49 1044.67 49H1037.15V31.5H1040.35V37.425H1045.2ZM1044.52 46.5C1045.79 46.5 1046.76 46.2083 1047.45 45.625C1048.13 45.0417 1048.47 44.1917 1048.47 43.075C1048.47 40.9583 1047.15 39.9 1044.52 39.9H1040.35V46.5H1044.52ZM1054.25 31.5H1057.45V49H1054.25V31.5Z" fill="#F40000"/>
<path d="M1206.15 34.25H1200.35V49H1197.13V34.25H1191.35V31.5H1206.15V34.25ZM1216.81 49.25C1215.03 49.25 1213.42 48.8667 1211.98 48.1C1210.55 47.3167 1209.43 46.2417 1208.61 44.875C1207.79 43.4917 1207.38 41.95 1207.38 40.25C1207.38 38.55 1207.79 37.0167 1208.61 35.65C1209.43 34.2667 1210.55 33.1917 1211.98 32.425C1213.42 31.6417 1215.03 31.25 1216.81 31.25C1218.59 31.25 1220.2 31.6417 1221.63 32.425C1223.07 33.1917 1224.19 34.2583 1225.01 35.625C1225.83 36.9917 1226.23 38.5333 1226.23 40.25C1226.23 41.9667 1225.83 43.5083 1225.01 44.875C1224.19 46.2417 1223.07 47.3167 1221.63 48.1C1220.2 48.8667 1218.59 49.25 1216.81 49.25ZM1216.81 46.4C1217.98 46.4 1219.03 46.1417 1219.96 45.625C1220.89 45.0917 1221.63 44.3583 1222.16 43.425C1222.69 42.475 1222.96 41.4167 1222.96 40.25C1222.96 39.0833 1222.69 38.0333 1222.16 37.1C1221.63 36.15 1220.89 35.4167 1219.96 34.9C1219.03 34.3667 1217.98 34.1 1216.81 34.1C1215.64 34.1 1214.59 34.3667 1213.66 34.9C1212.73 35.4167 1211.99 36.15 1211.46 37.1C1210.93 38.0333 1210.66 39.0833 1210.66 40.25C1210.66 41.4167 1210.93 42.475 1211.46 43.425C1211.99 44.3583 1212.73 45.0917 1213.66 45.625C1214.59 46.1417 1215.64 46.4 1216.81 46.4ZM1245.33 31.5V49H1242.13V34.25H1233.05V49H1229.85V31.5H1245.33ZM1258.36 49.25C1256.58 49.25 1254.97 48.8667 1253.54 48.1C1252.1 47.3167 1250.98 46.2417 1250.16 44.875C1249.34 43.4917 1248.94 41.95 1248.94 40.25C1248.94 38.55 1249.34 37.0167 1250.16 35.65C1250.98 34.2667 1252.1 33.1917 1253.54 32.425C1254.97 31.6417 1256.58 31.25 1258.36 31.25C1260.14 31.25 1261.75 31.6417 1263.19 32.425C1264.62 33.1917 1265.74 34.2583 1266.56 35.625C1267.38 36.9917 1267.79 38.5333 1267.79 40.25C1267.79 41.9667 1267.38 43.5083 1266.56 44.875C1265.74 46.2417 1264.62 47.3167 1263.19 48.1C1261.75 48.8667 1260.14 49.25 1258.36 49.25ZM1258.36 46.4C1259.53 46.4 1260.58 46.1417 1261.51 45.625C1262.44 45.0917 1263.18 44.3583 1263.71 43.425C1264.24 42.475 1264.51 41.4167 1264.51 40.25C1264.51 39.0833 1264.24 38.0333 1263.71 37.1C1263.18 36.15 1262.44 35.4167 1261.51 34.9C1260.58 34.3667 1259.53 34.1 1258.36 34.1C1257.19 34.1 1256.14 34.3667 1255.21 34.9C1254.28 35.4167 1253.54 36.15 1253.01 37.1C1252.48 38.0333 1252.21 39.0833 1252.21 40.25C1252.21 41.4167 1252.48 42.475 1253.01 43.425C1253.54 44.3583 1254.28 45.0917 1255.21 45.625C1256.14 46.1417 1257.19 46.4 1258.36 46.4ZM1282.9 39.9C1284.02 40.2 1284.87 40.7167 1285.45 41.45C1286.04 42.1667 1286.33 43.0667 1286.33 44.15C1286.33 45.6833 1285.76 46.875 1284.63 47.725C1283.5 48.575 1281.85 49 1279.7 49H1271.4V31.5H1279.23C1281.2 31.5 1282.73 31.8917 1283.83 32.675C1284.93 33.4583 1285.48 34.5667 1285.48 36C1285.48 36.9167 1285.25 37.7083 1284.8 38.375C1284.37 39.0417 1283.74 39.55 1282.9 39.9ZM1274.6 38.975H1278.95C1280 38.975 1280.8 38.7667 1281.35 38.35C1281.9 37.9333 1282.18 37.3167 1282.18 36.5C1282.18 35.6833 1281.9 35.0667 1281.35 34.65C1280.8 34.2167 1280 34 1278.95 34H1274.6V38.975ZM1279.6 46.5C1281.9 46.5 1283.05 45.6333 1283.05 43.9C1283.05 42.2 1281.9 41.35 1279.6 41.35H1274.6V46.5H1279.6ZM1298.11 37.425C1300.21 37.425 1301.82 37.9 1302.93 38.85C1304.07 39.7833 1304.63 41.175 1304.63 43.025C1304.63 44.9583 1304.02 46.4417 1302.78 47.475C1301.55 48.4917 1299.82 49 1297.58 49H1290.06V31.5H1293.26V37.425H1298.11ZM1297.43 46.5C1298.7 46.5 1299.67 46.2083 1300.36 45.625C1301.04 45.0417 1301.38 44.1917 1301.38 43.075C1301.38 40.9583 1300.07 39.9 1297.43 39.9H1293.26V46.5H1297.43ZM1307.16 31.5H1310.36V49H1307.16V31.5ZM1328.4 46.275V49H1315.28V31.5H1328.05V34.225H1318.53V38.775H1326.98V41.45H1318.53V46.275H1328.4ZM1351.63 34.25H1345.83V49H1342.61V34.25H1336.83V31.5H1351.63V34.25ZM1362.29 49.25C1360.51 49.25 1358.9 48.8667 1357.47 48.1C1356.03 47.3167 1354.91 46.2417 1354.09 44.875C1353.28 43.4917 1352.87 41.95 1352.87 40.25C1352.87 38.55 1353.28 37.0167 1354.09 35.65C1354.91 34.2667 1356.03 33.1917 1357.47 32.425C1358.9 31.6417 1360.51 31.25 1362.29 31.25C1364.08 31.25 1365.68 31.6417 1367.12 32.425C1368.55 33.1917 1369.68 34.2583 1370.49 35.625C1371.31 36.9917 1371.72 38.5333 1371.72 40.25C1371.72 41.9667 1371.31 43.5083 1370.49 44.875C1369.68 46.2417 1368.55 47.3167 1367.12 48.1C1365.68 48.8667 1364.08 49.25 1362.29 49.25ZM1362.29 46.4C1363.46 46.4 1364.51 46.1417 1365.44 45.625C1366.38 45.0917 1367.11 44.3583 1367.64 43.425C1368.18 42.475 1368.44 41.4167 1368.44 40.25C1368.44 39.0833 1368.18 38.0333 1367.64 37.1C1367.11 36.15 1366.38 35.4167 1365.44 34.9C1364.51 34.3667 1363.46 34.1 1362.29 34.1C1361.13 34.1 1360.08 34.3667 1359.14 34.9C1358.21 35.4167 1357.48 36.15 1356.94 37.1C1356.41 38.0333 1356.14 39.0833 1356.14 40.25C1356.14 41.4167 1356.41 42.475 1356.94 43.425C1357.48 44.3583 1358.21 45.0917 1359.14 45.625C1360.08 46.1417 1361.13 46.4 1362.29 46.4ZM1386.84 39.9C1387.95 40.2 1388.8 40.7167 1389.39 41.45C1389.97 42.1667 1390.26 43.0667 1390.26 44.15C1390.26 45.6833 1389.69 46.875 1388.56 47.725C1387.43 48.575 1385.79 49 1383.64 49H1375.34V31.5H1383.16C1385.13 31.5 1386.66 31.8917 1387.76 32.675C1388.86 33.4583 1389.41 34.5667 1389.41 36C1389.41 36.9167 1389.19 37.7083 1388.74 38.375C1388.3 39.0417 1387.67 39.55 1386.84 39.9ZM1378.54 38.975H1382.89C1383.94 38.975 1384.74 38.7667 1385.29 38.35C1385.84 37.9333 1386.11 37.3167 1386.11 36.5C1386.11 35.6833 1385.84 35.0667 1385.29 34.65C1384.74 34.2167 1383.94 34 1382.89 34H1378.54V38.975ZM1383.54 46.5C1385.84 46.5 1386.99 45.6333 1386.99 43.9C1386.99 42.2 1385.84 41.35 1383.54 41.35H1378.54V46.5H1383.54ZM1405.56 44.95H1396.81L1395.09 49H1391.74L1399.61 31.5H1402.81L1410.71 49H1407.31L1405.56 44.95ZM1404.49 42.4L1401.19 34.75L1397.91 42.4H1404.49ZM1420.6 31.5C1422.11 31.5 1423.43 31.75 1424.55 32.25C1425.68 32.75 1426.55 33.4667 1427.15 34.4C1427.75 35.3333 1428.05 36.4417 1428.05 37.725C1428.05 38.9917 1427.75 40.1 1427.15 41.05C1426.55 41.9833 1425.68 42.7 1424.55 43.2C1423.43 43.7 1422.11 43.95 1420.6 43.95H1416.65V49H1413.4V31.5H1420.6ZM1420.45 41.2C1421.86 41.2 1422.94 40.9 1423.67 40.3C1424.4 39.7 1424.77 38.8417 1424.77 37.725C1424.77 36.6083 1424.4 35.75 1423.67 35.15C1422.94 34.55 1421.86 34.25 1420.45 34.25H1416.65V41.2H1420.45ZM1439.2 37.425C1441.3 37.425 1442.9 37.9 1444.02 38.85C1445.15 39.7833 1445.72 41.175 1445.72 43.025C1445.72 44.9583 1445.1 46.4417 1443.87 47.475C1442.64 48.4917 1440.9 49 1438.67 49H1431.15V31.5H1434.35V37.425H1439.2ZM1438.52 46.5C1439.79 46.5 1440.76 46.2083 1441.45 45.625C1442.13 45.0417 1442.47 44.1917 1442.47 43.075C1442.47 40.9583 1441.15 39.9 1438.52 39.9H1434.35V46.5H1438.52ZM1448.25 31.5H1451.45V49H1448.25V31.5Z" fill="#F40000"/>
</svg>
