<svg width="133" height="53" viewBox="0 0 133 53" fill="none" xmlns="http://www.w3.org/2000/svg">
<path d="M4.60136 36.9346L1.53157 31.5592L0.527561 10.5098C2.22119 7.58686 7.96996 1.66072 17.416 1.33949C29.2235 0.937947 43.3251 -0.465758 56.8475 0.295741C70.3699 1.05724 84.6596 1.41184 89.4202 1.60289C94.1808 1.79393 113.497 1.91275 119.644 5.44191C124.562 8.26524 128.975 13.4759 130.568 15.7283C130.051 16.1452 129.301 17.4719 130.435 19.4432C131.569 21.4145 132.098 24.3975 132.221 25.6425C131.527 26.3441 130.132 27.9222 130.107 28.6215C130.076 29.4956 125.558 29.5332 127.774 30.7163C129.547 31.6629 129.906 34.2305 129.865 35.396C128.072 36.4183 123.682 38.4743 120.469 38.5205C117.256 38.5666 114.422 39.2261 113.407 39.5501L113.344 41.2985C114.837 41.6502 117.519 42.4288 116.304 42.7302C114.785 43.1069 113.321 41.954 112.044 42.5593C110.768 43.1646 108.967 44.4054 110.455 44.9028C110.902 45.3241 111.347 45.5431 111.75 45.6375C112.25 45.5527 112.791 45.4883 113.196 45.4505C112.932 45.6196 112.395 45.7889 111.75 45.6375C110.899 45.7813 110.164 45.9838 110.408 46.214C110.797 46.5797 112.381 47.1685 113.125 47.4172L114.331 48.7787L110.322 48.6178C108.117 48.5293 108.522 49.8586 108.999 50.5343C108.409 50.6566 106.882 50.7995 105.491 50.3936C103.753 49.8861 104.481 50.5719 101.467 50.6697C99.0552 50.748 90.2725 50.2935 86.1827 50.0564C86.5272 49.7784 86.7652 49.2044 84.9611 49.132C82.7061 49.0415 82.4555 49.0314 79.6838 49.3579C76.912 49.6844 57.6346 48.4731 49.1156 48.1312L36.8382 47.6385C32.8867 48.2094 23.5321 49.2492 17.7254 48.8411C10.467 48.331 4.28109 45.8943 4.2889 45.6758C4.29515 45.5009 3.00206 44.2381 2.35473 43.6285C3.00987 44.0196 4.32796 44.5831 4.3592 43.709C4.39045 42.8349 3.14527 40.2317 2.51877 39.0394L4.60136 36.9346Z" fill="#FDA3C4"/>
<path d="M8.91673 49.5818C8.11494 49.5497 8.05028 50.4224 8.11818 50.8629L6.48173 51.016C5.66226 51.7126 4.1752 53.0682 4.7828 52.9175C5.39039 52.7668 6.56014 52.3323 7.06907 52.1338C7.41357 51.8559 9.70613 51.3643 16.1205 51.6217C24.1383 51.9434 23.4023 51.4762 24.154 51.5064C24.9056 51.5365 9.91896 49.6221 8.91673 49.5818Z" fill="#FDA3C4"/>
</svg>
