<svg width="135" height="60" viewBox="0 0 135 60" fill="none" xmlns="http://www.w3.org/2000/svg">
<path d="M5.60136 38.9346L2.53157 33.5592L1.52756 12.5098C3.22119 9.58686 8.96996 3.66072 18.416 3.33949C30.2235 2.93795 44.3251 1.53424 57.8475 2.29574C71.3699 3.05724 85.6596 3.41184 90.4202 3.60289C95.1808 3.79393 114.497 3.91275 120.644 7.44191C125.562 10.2652 129.975 15.4759 131.568 17.7283C131.051 18.1452 130.301 19.4719 131.435 21.4432C132.569 23.4145 133.098 26.3975 133.221 27.6425C132.527 28.3441 131.132 29.9222 131.107 30.6215C131.076 31.4956 126.558 31.5332 128.774 32.7163C130.547 33.6629 130.906 36.2305 130.865 37.396C129.072 38.4183 124.682 40.4743 121.469 40.5205C118.256 40.5666 115.422 41.2261 114.407 41.5501L114.344 43.2985C115.837 43.6502 118.519 44.4288 117.304 44.7302C115.785 45.1069 114.321 43.954 113.044 44.5593C111.768 45.1646 109.967 46.4054 111.455 46.9028C111.902 47.3241 112.347 47.5431 112.75 47.6375C113.25 47.5527 113.791 47.4883 114.196 47.4505C113.932 47.6196 113.395 47.7889 112.75 47.6375C111.899 47.7813 111.164 47.9838 111.408 48.214C111.797 48.5797 113.381 49.1685 114.125 49.4172L115.331 50.7787L111.322 50.6178C109.117 50.5293 109.522 51.8586 109.999 52.5343C109.409 52.6566 107.882 52.7995 106.491 52.3936C104.753 51.8861 105.481 52.5719 102.467 52.6697C100.055 52.748 91.2725 52.2935 87.1827 52.0564C87.5272 51.7784 87.7652 51.2044 85.9611 51.132C83.7061 51.0415 83.4555 51.0314 80.6838 51.3579C77.912 51.6844 58.6346 50.4731 50.1156 50.1312L37.8382 49.6385C33.8867 50.2094 24.5321 51.2492 18.7254 50.8411C11.467 50.331 5.28109 47.8943 5.2889 47.6758C5.29515 47.5009 4.00206 46.2381 3.35473 45.6285C4.00987 46.0196 5.32796 46.5831 5.3592 45.709C5.39045 44.8349 4.14527 42.2317 3.51877 41.0394L5.60136 38.9346Z" fill="#FDA3C4"/>
<path d="M9.91673 51.5818C9.11494 51.5497 9.05028 52.4224 9.11818 52.8629L7.48173 53.016C6.66226 53.7126 5.1752 55.0682 5.7828 54.9175C6.39039 54.7668 7.56014 54.3323 8.06907 54.1338C8.41357 53.8559 10.7061 53.3643 17.1205 53.6217C25.1383 53.9434 24.4023 53.4762 25.154 53.5064C25.9056 53.5365 10.919 51.6221 9.91673 51.5818Z" fill="#FDA3C4"/>
<path d="M46.0968 37.6128C46.3635 37.6137 46.6236 37.5679 46.8772 37.4754C47.1308 37.3829 47.3845 37.277 47.6381 37.1578C47.9719 36.9989 48.2725 36.8132 48.5397 36.6007C48.807 36.4016 49.0411 36.1357 49.242 35.803C49.443 35.4836 49.5974 35.0841 49.7055 34.6045C49.8269 34.1249 49.9019 33.5318 49.9306 32.8252L49.9116 32.4851C49.8985 32.3918 49.8921 32.3051 49.8923 32.2251C49.8926 32.1317 49.8929 32.0317 49.8932 31.9251C49.8935 31.8317 49.8937 31.7451 49.8939 31.6651C49.8942 31.5717 49.8878 31.4784 49.8747 31.385C49.8373 30.5049 49.4985 30.0638 48.8585 30.0617C48.6985 30.0612 48.4984 30.0939 48.2583 30.1598C47.7912 30.3049 47.3175 30.4301 46.8372 30.5352C46.3569 30.627 45.8767 30.7054 45.3965 30.7706C45.1964 30.7966 45.0629 30.8561 44.996 30.9493C44.9424 31.0291 44.9154 31.1557 44.9149 31.329L44.8054 34.6287L44.8254 34.6287C44.8244 34.9754 44.8234 35.3221 44.8224 35.6687C44.8214 36.0154 44.8271 36.3621 44.8394 36.7088C44.8519 37.0022 44.9047 37.1957 44.9977 37.2893C45.0908 37.3963 45.2838 37.4836 45.577 37.5512C45.7502 37.5917 45.9235 37.6123 46.0968 37.6128ZM45.0424 28.7094C45.2293 28.6167 45.4096 28.5372 45.5831 28.4711C45.77 28.3917 45.9569 28.3057 46.1438 28.213C46.7046 27.9481 47.1656 27.6029 47.5268 27.1774C47.9014 26.7386 48.1629 26.2195 48.3113 25.6199C48.4868 24.8872 48.6222 24.1609 48.7176 23.4412C48.8264 22.7082 48.8818 21.9684 48.884 21.2218C48.8851 20.8084 48.8663 20.395 48.8275 19.9816C48.7887 19.5681 48.7366 19.1479 48.6712 18.7211C48.6186 18.4542 48.546 18.2007 48.4533 17.9604C48.3607 17.7067 48.2414 17.4663 48.0954 17.2392C47.8696 16.9318 47.6036 16.7043 47.2974 16.5566C47.0045 16.3957 46.6847 16.3146 46.3381 16.3135C45.9914 16.3124 45.6779 16.3781 45.3975 16.5105C45.2907 16.5635 45.2172 16.6232 45.177 16.6898C45.1368 16.743 45.1166 16.8229 45.1163 16.9296L44.9708 18.8491C44.9428 19.3024 44.9215 19.749 44.9069 20.1889C44.9056 20.6289 44.9044 21.0756 44.9031 21.5289C44.9001 22.5556 44.9105 23.5756 44.9343 24.589C44.958 25.6024 44.9684 26.6291 44.9654 27.6691L44.9632 28.4291C44.9631 28.4558 44.9697 28.4958 44.9829 28.5492C44.9961 28.5892 45.0159 28.6426 45.0424 28.7094ZM44.0912 39.5664C43.6779 39.565 43.2646 39.5504 42.8513 39.5224C42.4514 39.4944 42.0516 39.4331 41.6518 39.3385C41.3454 39.2709 41.059 39.1766 40.7926 39.0557C40.5397 38.9349 40.28 38.8141 40.0137 38.6932C39.7474 38.559 39.5746 38.3718 39.4953 38.1315C39.4293 37.9047 39.3967 37.6579 39.3974 37.3912C39.3858 36.7912 39.3742 36.1911 39.3626 35.5911C39.351 35.0044 39.346 34.411 39.3477 33.811L39.5264 27.3316C39.5285 26.5716 39.5241 25.8116 39.5129 25.0515C39.5018 24.2782 39.484 23.5114 39.4595 22.7513L39.4429 21.5713C39.4456 20.638 39.475 19.7047 39.531 18.7716C39.587 17.8384 39.6363 16.9052 39.679 15.972C39.6933 15.6254 39.7741 15.3657 39.9213 15.1928C40.0818 15.0066 40.3555 14.8609 40.7425 14.7554C41.1962 14.6369 41.6498 14.5317 42.1034 14.4398C42.557 14.348 43.0172 14.2895 43.4839 14.2643L44.304 14.2469C45.0907 14.2495 45.8772 14.312 46.6635 14.4346C47.6764 14.5845 48.5019 14.9738 49.1401 15.6026C49.7783 16.2313 50.2093 17.0527 50.433 18.0667C50.5383 18.5604 50.6102 19.054 50.6488 19.5474C50.7007 20.0276 50.726 20.5144 50.7246 21.0077C50.7231 21.5144 50.695 22.0276 50.6402 22.5474C50.5987 23.0673 50.5438 23.5871 50.4757 24.1069C50.4077 24.56 50.3331 25.0131 50.2518 25.4662C50.1705 25.9059 50.0559 26.3389 49.908 26.7651C49.8007 27.0047 49.68 27.2377 49.546 27.4639C49.412 27.6902 49.2714 27.923 49.124 28.1626C49.2838 28.2164 49.4304 28.2569 49.5637 28.284C49.6969 28.3111 49.8235 28.3515 49.9433 28.4052C50.4227 28.6334 50.8085 28.9347 51.1007 29.309C51.4063 29.6699 51.5917 30.1172 51.6569 30.6508C51.7352 31.211 51.7736 31.7778 51.772 32.3511C51.7716 32.4711 51.7644 32.6578 51.7504 32.9111C51.7363 33.1644 51.7155 33.431 51.6881 33.7109C51.6739 33.9908 51.6532 34.2508 51.6258 34.4907C51.5984 34.7439 51.5779 34.9305 51.5642 35.0505C51.4961 35.5569 51.3548 36.0165 51.1402 36.4291C50.9391 36.8418 50.658 37.2209 50.297 37.5664C49.6553 38.1377 48.974 38.6021 48.253 38.9598C47.5319 39.3175 46.738 39.5083 45.8713 39.5321C45.5646 39.5445 45.2646 39.5502 44.9712 39.5492C44.6912 39.5617 44.3979 39.5674 44.0912 39.5664ZM55.5548 39.8034C55.0748 39.8018 54.735 39.7141 54.5355 39.5401C54.3493 39.3795 54.2503 39.0458 54.2384 38.5391C54.2257 38.3124 54.2131 38.0791 54.2004 37.839C54.2011 37.6123 54.2017 37.3857 54.2024 37.159L54.2246 36.3791L54.2712 34.0792C54.2733 33.3459 54.2554 32.6192 54.2175 31.899C54.1929 31.1656 54.1817 30.4322 54.1838 29.6989C54.1855 29.1122 54.2072 28.519 54.2489 27.9191L54.2526 26.6391C54.2953 25.7059 54.3313 24.7794 54.3606 23.8595C54.4033 22.9263 54.4259 22.0063 54.4286 21.0997C54.431 20.233 54.4136 19.3596 54.3761 18.4795L54.3593 17.3794C54.3601 17.0728 54.361 16.7794 54.3618 16.4994C54.376 16.2061 54.3902 15.9062 54.4044 15.5996C54.4321 15.213 54.5196 14.9399 54.6667 14.7804C54.8139 14.6075 55.0809 14.4951 55.4677 14.443C56.0013 14.3647 56.5614 14.3265 57.148 14.3284L57.608 14.3299C58.288 14.3321 58.9547 14.3342 59.608 14.3363C60.2614 14.3251 60.9281 14.3206 61.6081 14.3228C62.7281 14.3264 63.8413 14.35 64.9479 14.3936C65.0412 14.4072 65.1345 14.4209 65.2278 14.4345C65.3211 14.4481 65.4143 14.4684 65.5076 14.4954C65.6941 14.5627 65.8404 14.6698 65.9467 14.8168C66.0529 14.9638 66.1058 15.124 66.1053 15.2973L66.1049 15.4173C66.0504 15.8305 65.8163 16.0897 65.4027 16.1951C65.336 16.2082 65.2626 16.2213 65.1826 16.2344C65.1159 16.2341 65.0493 16.2339 64.9826 16.2337L64.8426 16.2333C64.6826 16.2194 64.5226 16.2122 64.3626 16.2117C64.216 16.2112 64.0627 16.2107 63.9027 16.2102C63.5293 16.209 63.156 16.2145 62.7826 16.2266C62.4092 16.2387 62.0359 16.2509 61.6625 16.263L61.1826 16.2214C61.0226 16.2209 60.8626 16.2271 60.7026 16.2399C60.5425 16.2527 60.3825 16.2589 60.2225 16.2583C59.9558 16.2575 59.8221 16.3837 59.8214 16.637L59.7986 17.597C59.8232 18.3171 59.8412 19.0371 59.8524 19.7572C59.877 20.4772 59.8883 21.204 59.8862 21.9373C59.8836 22.8173 59.8678 23.7039 59.8385 24.5971C59.8093 25.4771 59.767 26.2769 59.7116 26.9967C59.6979 27.1434 59.6908 27.29 59.6904 27.4367C59.6899 27.5833 59.6895 27.73 59.6891 27.8767L59.6883 28.1567C59.6879 28.2767 59.6943 28.37 59.7075 28.4367C59.7206 28.5034 59.7538 28.5569 59.807 28.5971C59.8602 28.6372 59.9335 28.6641 60.0268 28.6778C60.1334 28.6914 60.2734 28.6986 60.4467 28.6991L60.9067 28.7206L61.8067 28.7035C61.9667 28.704 62.1267 28.7112 62.2867 28.7251C62.4467 28.7256 62.6066 28.7528 62.7664 28.8066C62.9796 28.874 63.1392 28.9945 63.2454 29.1682C63.3649 29.3286 63.4244 29.5021 63.4239 29.6887C63.4236 29.7954 63.4167 29.8754 63.4032 29.9287C63.3626 30.1285 63.2621 30.3016 63.1017 30.4477C62.9547 30.5806 62.7811 30.6467 62.5811 30.646L62.4012 30.6254C62.2679 30.5984 62.1413 30.5846 62.0213 30.5842C61.9013 30.5705 61.7747 30.5634 61.6414 30.563L60.7213 30.58L60.1213 30.5781C59.948 30.5775 59.8279 30.6171 59.761 30.6969C59.7075 30.7634 59.6804 30.8833 59.6799 31.0567L59.6795 31.2167C59.7053 31.4967 59.7179 31.7768 59.7171 32.0568C59.7163 32.3235 59.7155 32.5968 59.7147 32.8768C59.7131 33.4501 59.705 33.9501 59.6904 34.3767C59.6892 34.8034 59.6814 35.1767 59.6672 35.4966C59.6662 35.83 59.6587 36.1233 59.6446 36.3766C59.6439 36.6432 59.6431 36.9032 59.6424 37.1566C59.6416 37.4366 59.6611 37.6166 59.7008 37.6968C59.7406 37.7902 59.8604 37.8373 60.0604 37.8379L64.6611 37.6328C64.8477 37.6334 65.0143 37.6606 65.1608 37.7144C65.5604 37.8624 65.7596 38.1363 65.7585 38.5363L65.7583 38.5763C65.7573 38.9363 65.5765 39.2024 65.216 39.3746C65.0692 39.4408 64.9224 39.4803 64.7757 39.4932C64.6423 39.5061 64.5023 39.5123 64.3556 39.5118C63.5156 39.5358 62.6821 39.5731 61.8553 39.6237C61.0418 39.6744 60.2218 39.6985 59.3951 39.6958C59.3151 39.6955 59.2084 39.6952 59.0751 39.6948C58.9417 39.7077 58.8017 39.7139 58.655 39.7134L58.155 39.7118C57.7284 39.7104 57.295 39.7223 56.8549 39.7476C56.4282 39.7862 55.9948 39.8048 55.5548 39.8034ZM74.4332 28.8043C74.5132 28.8045 74.5999 28.7982 74.6933 28.7851C74.8 28.7721 74.92 28.7525 75.0534 28.7263C75.0934 28.7264 75.1334 28.7199 75.1735 28.7067C75.2135 28.6935 75.2469 28.6802 75.2736 28.667C75.9941 28.496 76.5283 28.1777 76.8763 27.7122C77.2377 27.2467 77.466 26.6741 77.5613 25.9944C77.6291 25.6079 77.6768 25.2414 77.7045 24.8948C77.7455 24.535 77.7796 24.2617 77.8068 24.0751C77.8203 24.0085 77.8272 23.9419 77.8274 23.8752C77.8276 23.8085 77.8278 23.7419 77.828 23.6752C77.8283 23.5419 77.822 23.4219 77.809 23.3152C77.8093 23.1952 77.8096 23.0885 77.8099 22.9952C77.7476 21.4883 77.4851 20.0274 77.0225 18.6126C76.8375 18.052 76.5587 17.6044 76.1864 17.2699C75.814 16.922 75.3682 16.6472 74.8487 16.4456C74.7421 16.4185 74.6355 16.3982 74.5289 16.3845C74.4223 16.3575 74.3157 16.3305 74.2091 16.3035L74.0492 16.283C73.8225 16.2822 73.7088 16.4085 73.7081 16.6619L73.7256 17.5219C73.7497 18.442 73.7671 19.3421 73.7779 20.2221C73.802 21.0889 73.8265 21.869 73.8511 22.5624C73.8493 23.2024 73.8471 23.9824 73.8444 24.9024C73.8418 25.809 73.8458 26.749 73.8563 27.7224C73.8551 28.1357 73.8876 28.4225 73.9538 28.5827C74.0201 28.7296 74.1799 28.8035 74.4332 28.8043ZM69.8619 39.6696C69.7953 39.6694 69.722 39.6625 69.642 39.6489C69.5753 39.6487 69.5087 39.6418 69.4421 39.6282C68.7091 39.5059 68.337 39.0713 68.3258 38.3246C68.2882 37.4712 68.2641 36.5844 68.2534 35.6644C68.2427 34.7577 68.232 33.8443 68.2213 32.9242C68.224 32.0043 68.2266 31.0909 68.2292 30.1843C68.2318 29.2643 68.2344 28.3843 68.2368 27.5443L68.245 24.6843C68.247 24.0043 68.2422 23.3376 68.2308 22.6842C68.2327 22.0176 68.2213 21.3509 68.1965 20.6841C68.172 19.9507 68.1541 19.2173 68.1428 18.4839C68.145 17.7506 68.1337 17.0172 68.1092 16.2838L68.1101 15.9638C68.125 15.4038 68.2328 15.0175 68.4334 14.8048C68.6474 14.5789 69.0345 14.4468 69.5946 14.4086L70.3546 14.391L71.8346 14.4158L73.4346 14.421L74.2344 14.4636C75.3674 14.6006 76.3197 14.9636 77.0913 15.5528C77.8763 16.142 78.4472 16.9972 78.8039 18.1183C79.3193 19.7333 79.6146 21.3743 79.6898 23.0412L79.6893 23.2212C79.689 23.3279 79.6885 23.4879 79.6879 23.7012C79.6873 23.9012 79.6732 24.1745 79.6455 24.5211C79.6181 24.7877 79.5772 25.1075 79.5228 25.4807C79.4684 25.8539 79.4073 26.2337 79.3395 26.6201C79.2447 27.1131 79.0767 27.5993 78.8353 28.0785C78.6073 28.5444 78.2928 28.9634 77.8917 29.3354C77.5039 29.7075 77.0297 30.0127 76.469 30.2509C75.9084 30.4757 75.2614 30.5936 74.528 30.6046C74.2614 30.6037 74.0946 30.6232 74.0279 30.663C73.9611 30.7028 73.9274 30.8227 73.9268 31.0227L73.9223 32.6027C73.9209 33.0693 73.9129 33.5426 73.8982 34.0226C73.8968 34.5026 73.8954 34.9826 73.894 35.4626C73.8934 35.6759 73.8928 35.8892 73.8922 36.1026C73.8916 36.3159 73.8976 36.5293 73.9104 36.7426L73.9852 38.5429C73.9837 39.0629 73.7161 39.3887 73.1824 39.5203C73.0756 39.5466 72.9689 39.5596 72.8623 39.5593C72.7689 39.5723 72.6689 39.5853 72.5622 39.5983C72.1354 39.6236 71.7087 39.6355 71.282 39.6342C70.8553 39.6461 70.4286 39.6581 70.0019 39.67L69.8619 39.6696ZM82.9059 39.6517C82.7593 39.6512 82.6194 39.6108 82.4863 39.5303C82.1935 39.3561 82.0475 39.0956 82.0485 38.7489C82.0488 38.6423 82.0557 38.5623 82.0692 38.509C82.0961 38.4291 82.123 38.3492 82.1499 38.2692C82.1901 38.2027 82.2236 38.1361 82.2505 38.0696C82.8008 36.7913 83.398 35.4733 84.0419 34.1153C84.6991 32.7708 85.3696 31.4129 86.0536 30.0418C86.2012 29.7223 86.2753 29.4358 86.2761 29.1825C86.25 28.9691 86.2238 28.8023 86.1975 28.6823C86.1712 28.5488 86.1383 28.4221 86.0986 28.3019C85.5963 26.767 85.1341 25.2388 84.7118 23.7174C84.2895 22.1961 83.8738 20.708 83.4646 19.2534C83.3195 18.7062 83.2078 18.1592 83.1293 17.6123C83.0642 17.0654 82.9391 16.5183 82.754 15.9711C82.7276 15.9043 82.7078 15.8376 82.6946 15.7709C82.6815 15.7042 82.675 15.6375 82.6752 15.5708C82.676 15.2908 82.7834 15.0512 82.9973 14.8519C83.2112 14.6525 83.5048 14.5335 83.8783 14.4947C84.1984 14.4691 84.5184 14.4568 84.8384 14.4578C85.1584 14.4588 85.4784 14.4532 85.7985 14.4409C85.9451 14.4414 86.0918 14.4485 86.2384 14.4623C86.385 14.4761 86.5317 14.4833 86.6783 14.4837C86.9583 14.498 87.1782 14.5187 87.3382 14.5459C87.4981 14.5731 87.6313 14.6268 87.7377 14.7072C87.8441 14.7875 87.9305 14.9078 87.9967 15.068C88.0762 15.2283 88.1623 15.4419 88.2548 15.7088C88.3209 15.8957 88.3737 16.0892 88.4131 16.2893C88.4659 16.4762 88.5054 16.6696 88.5315 16.8697C88.6626 17.6302 88.8403 18.4441 89.0645 19.3115C89.302 20.1656 89.5661 21.0731 89.8566 22.034C89.9635 21.9677 90.0504 21.8747 90.1174 21.7549C90.1978 21.6218 90.2715 21.4954 90.3385 21.3756C90.8617 20.2839 91.3914 19.219 91.9277 18.1807C92.4774 17.1425 92.9535 16.164 93.3562 15.2453C93.4234 15.0588 93.5171 14.9058 93.6375 14.7862C93.8247 14.6001 94.0316 14.5075 94.2583 14.5082C94.365 14.5086 94.4716 14.5289 94.5781 14.5692C94.9111 14.6903 95.0971 14.9309 95.136 15.291L95.1357 15.411C95.1351 15.6244 95.1012 15.8176 95.034 15.9907C94.9669 16.1638 94.893 16.3369 94.8125 16.51C94.3164 17.4951 93.7933 18.5534 93.2434 19.685C92.6935 20.8165 92.1168 21.968 91.5135 23.1394C91.272 23.6319 91.091 24.0114 90.9702 24.2776C90.8495 24.5306 90.7887 24.7904 90.7879 25.0571C90.7874 25.2571 90.8201 25.4838 90.886 25.7374C90.952 25.9776 91.0378 26.2512 91.1436 26.5582C91.4871 27.666 91.8106 28.767 92.1141 29.8614C92.431 30.9557 92.7612 32.0501 93.1047 33.1446C93.3689 33.9854 93.6599 34.813 93.9776 35.6274C94.2952 36.4418 94.6663 37.2363 95.0907 38.011C95.1304 38.1045 95.1635 38.1913 95.19 38.2713C95.2164 38.3514 95.2295 38.4381 95.2292 38.5315C95.2286 38.7581 95.148 38.9645 94.9874 39.1507C94.8269 39.3368 94.5999 39.4628 94.3063 39.5285C94.0395 39.5943 93.766 39.6334 93.486 39.6458C93.2059 39.6716 92.9259 39.684 92.6459 39.6831L90.8059 39.6772C90.5126 39.6496 90.2662 39.5688 90.0666 39.4348C89.8803 39.3009 89.7342 39.1004 89.6283 38.8334C89.2976 37.939 88.9468 37.0578 88.5759 36.19C88.2051 35.3221 87.8943 34.4278 87.6436 33.507C87.5777 33.2534 87.5117 33.0065 87.4458 32.7663C87.3798 32.5261 87.2937 32.3325 87.1874 32.1855C87.0539 32.2517 86.967 32.3381 86.9267 32.4446C86.8864 32.5378 86.8395 32.6377 86.7858 32.7442C86.2897 33.7293 85.8135 34.6944 85.3575 35.6396C84.9147 36.5982 84.5054 37.5168 84.1296 38.3956C84.0624 38.5554 83.9953 38.7085 83.9282 38.855C83.8611 39.0148 83.7674 39.1611 83.647 39.2941C83.4463 39.5334 83.1993 39.6526 82.9059 39.6517Z" fill="white"/>
</svg>
