<svg width="296" height="114" viewBox="0 0 296 114" fill="none" xmlns="http://www.w3.org/2000/svg">
<path d="M7.29 88.308C5.814 88.308 4.968 87.498 4.752 85.878C4.68 85.266 4.626 84.636 4.59 83.988C4.59 83.34 4.572 82.692 4.536 82.044L3.456 56.07C3.384 55.242 3.33 54.432 3.294 53.64C3.258 52.812 3.24 52.02 3.24 51.264C3.24 50.076 3.258 48.924 3.294 47.808C3.33 46.692 3.366 45.576 3.402 44.46C3.438 41.76 3.456 39.06 3.456 36.36C3.492 33.66 3.546 30.96 3.618 28.26C3.654 27.504 3.708 26.766 3.78 26.046C3.852 25.29 3.924 24.534 3.996 23.778C4.176 22.374 4.536 21.42 5.076 20.916C5.652 20.412 6.642 20.142 8.046 20.106H15.822C17.874 20.178 18.9 20.988 18.9 22.536C18.9 23.004 18.828 23.454 18.684 23.886C18.396 24.714 18.234 25.542 18.198 26.37C18.162 27.162 18.144 27.972 18.144 28.8C18.072 31.86 18 34.884 17.928 37.872C17.856 40.824 17.82 43.65 17.82 46.35C17.82 49.77 17.874 53.208 17.982 56.664C18.018 57.816 18.108 58.59 18.252 58.986C18.432 59.382 18.882 59.58 19.602 59.58C19.818 59.58 20.052 59.58 20.304 59.58C20.592 59.544 20.916 59.508 21.276 59.472C22.032 59.4 22.788 59.346 23.544 59.31C24.3 59.274 25.056 59.256 25.812 59.256C26.1 59.256 26.352 59.256 26.568 59.256C26.82 59.256 27.072 59.238 27.324 59.202C27.972 59.094 28.476 59.004 28.836 58.932C29.232 58.824 29.538 58.68 29.754 58.5C29.97 58.284 30.096 58.032 30.132 57.744C30.204 57.42 30.24 56.988 30.24 56.448L30.186 52.56C30.186 50.652 30.222 48.798 30.294 46.998C30.366 45.162 30.456 43.452 30.564 41.868C30.672 40.356 30.726 38.844 30.726 37.332C30.762 35.784 30.78 34.236 30.78 32.688V25.452C30.78 25.164 30.744 24.876 30.672 24.588C30.636 24.3 30.6 24.012 30.564 23.724L30.51 23.13C30.51 22.626 30.618 22.122 30.834 21.618C31.338 20.538 32.13 19.998 33.21 19.998H33.372C34.596 20.07 35.352 20.718 35.64 21.942C35.712 22.338 35.748 22.734 35.748 23.13C35.784 23.526 35.802 23.922 35.802 24.318C35.802 28.89 35.748 33.408 35.64 37.872C35.568 42.3 35.424 46.62 35.208 50.832L35.154 53.532C35.154 54.828 35.208 56.088 35.316 57.312C35.352 57.6 35.37 57.87 35.37 58.122C35.37 58.374 35.442 58.608 35.586 58.824C35.982 59.508 36.18 60.174 36.18 60.822C36.18 61.362 36.036 61.902 35.748 62.442C35.604 62.694 35.532 63 35.532 63.36C35.532 63.612 35.55 63.864 35.586 64.116C35.622 64.332 35.658 64.566 35.694 64.818L37.908 84.474C37.944 84.69 37.962 84.906 37.962 85.122C37.998 85.338 38.016 85.554 38.016 85.77C37.944 86.49 37.71 87.084 37.314 87.552C36.954 88.02 36.468 88.29 35.856 88.362H35.532C34.92 88.362 34.38 88.182 33.912 87.822C33.48 87.462 33.21 86.922 33.102 86.202C32.922 85.122 32.76 84.024 32.616 82.908C32.472 81.828 32.346 80.73 32.238 79.614C31.95 76.914 31.698 74.448 31.482 72.216C31.266 69.984 31.032 67.662 30.78 65.25C30.708 64.674 30.618 64.296 30.51 64.116C30.438 63.936 30.258 63.846 29.97 63.846L28.89 63.954C27.378 64.098 25.866 64.206 24.354 64.278C22.878 64.35 21.384 64.422 19.872 64.494C19.224 64.53 18.81 64.602 18.63 64.71C18.45 64.782 18.36 65.07 18.36 65.574L19.17 83.124V85.716C18.99 87.444 18.126 88.308 16.578 88.308C15.894 88.344 15.228 88.362 14.58 88.362C13.932 88.362 13.284 88.362 12.636 88.362L7.29 88.308ZM65.1063 83.07C65.8983 83.07 66.6003 82.53 67.2123 81.45C67.4643 80.982 67.6623 80.514 67.8063 80.046C67.9863 79.614 68.1663 79.146 68.3463 78.642C69.6423 74.61 70.5963 70.542 71.2083 66.438C71.8563 62.334 72.2523 58.14 72.3963 53.856V53.478C72.3963 48.978 71.9823 44.658 71.1543 40.518C70.3623 36.342 69.2823 32.184 67.9143 28.044C67.8423 27.864 67.7703 27.702 67.6983 27.558C67.6263 27.414 67.5543 27.252 67.4823 27.072C66.8703 26.1 66.0603 25.614 65.0523 25.614C64.6563 25.614 64.2423 25.722 63.8103 25.938C63.4143 26.118 63.0723 26.406 62.7843 26.802C62.1723 27.63 61.7043 28.494 61.3803 29.394C61.0563 30.294 60.7683 31.212 60.5163 32.148C59.7603 35.208 59.2383 38.286 58.9503 41.382C58.6623 44.442 58.4283 47.556 58.2483 50.724C58.1763 51.444 58.1403 52.164 58.1403 52.884C58.1403 53.604 58.1403 54.324 58.1403 55.044C58.1403 59.184 58.4283 63.162 59.0043 66.978C59.5803 70.794 60.4083 74.592 61.4883 78.372C61.6683 78.984 61.8663 79.56 62.0823 80.1C62.2983 80.676 62.6043 81.216 63.0003 81.72C63.6843 82.62 64.3863 83.07 65.1063 83.07ZM55.5483 88.308C54.7203 88.308 53.9823 88.11 53.3343 87.714C52.7223 87.354 52.1283 86.904 51.5523 86.364C50.6163 85.464 49.8783 84.474 49.3383 83.394C48.8343 82.314 48.4023 81.18 48.0423 79.992C46.8543 75.888 45.9543 71.784 45.3423 67.68C44.7663 63.54 44.4783 59.256 44.4783 54.828C44.4783 53.1 44.5323 51.336 44.6403 49.536C44.8203 46.332 45.0903 43.182 45.4503 40.086C45.8103 36.954 46.3683 33.84 47.1243 30.744C47.9523 27.54 49.3923 24.75 51.4443 22.374C51.8763 21.834 52.3443 21.402 52.8483 21.078C53.3523 20.754 53.9643 20.556 54.6843 20.484C55.6563 20.412 56.6283 20.34 57.6003 20.268C58.5723 20.196 59.5623 20.16 60.5703 20.16C61.7223 20.16 62.8563 20.232 63.9723 20.376C65.0883 20.484 66.2043 20.7 67.3203 21.024C68.7243 21.42 69.8583 22.086 70.7223 23.022C71.5863 23.958 72.2343 25.11 72.6663 26.478C73.6743 29.646 74.5563 32.832 75.3123 36.036C76.1043 39.204 76.6623 42.462 76.9863 45.81C77.0943 46.89 77.1843 47.97 77.2563 49.05C77.3643 50.094 77.4183 51.138 77.4183 52.182V53.37C77.2383 58.086 76.8063 62.676 76.1223 67.14C75.4743 71.568 74.4483 75.942 73.0443 80.262C72.8643 80.874 72.6663 81.45 72.4503 81.99C72.2343 82.566 71.9823 83.124 71.6943 83.664C70.5063 86.184 68.4903 87.642 65.6463 88.038C64.7463 88.182 63.8463 88.272 62.9463 88.308C62.0823 88.344 61.2003 88.362 60.3003 88.362L55.5483 88.308ZM102.176 83.07C102.896 83.07 103.598 82.944 104.282 82.692C104.966 82.44 105.65 82.152 106.334 81.828C107.234 81.396 108.044 80.892 108.764 80.316C109.484 79.776 110.114 79.056 110.654 78.156C111.194 77.292 111.608 76.212 111.896 74.916C112.22 73.62 112.418 72.018 112.49 70.11L112.436 69.192C112.4 68.94 112.382 68.706 112.382 68.49C112.382 68.238 112.382 67.968 112.382 67.68C112.382 67.428 112.382 67.194 112.382 66.978C112.382 66.726 112.364 66.474 112.328 66.222C112.22 63.846 111.302 62.658 109.574 62.658C109.142 62.658 108.602 62.748 107.954 62.928C106.694 63.324 105.416 63.666 104.12 63.954C102.824 64.206 101.528 64.422 100.232 64.602C99.6916 64.674 99.3316 64.836 99.1516 65.088C99.0076 65.304 98.9356 65.646 98.9356 66.114L98.6656 75.024H98.7196C98.7196 75.96 98.7196 76.896 98.7196 77.832C98.7196 78.768 98.7376 79.704 98.7736 80.64C98.8096 81.432 98.9536 81.954 99.2056 82.206C99.4576 82.494 99.9796 82.728 100.772 82.908C101.24 83.016 101.708 83.07 102.176 83.07ZM99.2596 59.04C99.7636 58.788 100.25 58.572 100.718 58.392C101.222 58.176 101.726 57.942 102.23 57.69C103.742 56.97 104.984 56.034 105.956 54.882C106.964 53.694 107.666 52.29 108.062 50.67C108.53 48.69 108.89 46.728 109.142 44.784C109.43 42.804 109.574 40.806 109.574 38.79C109.574 37.674 109.52 36.558 109.412 35.442C109.304 34.326 109.16 33.192 108.98 32.04C108.836 31.32 108.638 30.636 108.386 29.988C108.134 29.304 107.81 28.656 107.414 28.044C106.802 27.216 106.082 26.604 105.254 26.208C104.462 25.776 103.598 25.56 102.662 25.56C101.726 25.56 100.88 25.74 100.124 26.1C99.8356 26.244 99.6376 26.406 99.5296 26.586C99.4216 26.73 99.3676 26.946 99.3676 27.234L98.9896 32.418C98.9176 33.642 98.8636 34.848 98.8276 36.036C98.8276 37.224 98.8276 38.43 98.8276 39.654C98.8276 42.426 98.8636 45.18 98.9356 47.916C99.0076 50.652 99.0436 53.424 99.0436 56.232V58.284C99.0436 58.356 99.0616 58.464 99.0976 58.608C99.1336 58.716 99.1876 58.86 99.2596 59.04ZM96.7756 88.362C95.6596 88.362 94.5436 88.326 93.4276 88.254C92.3476 88.182 91.2676 88.02 90.1876 87.768C89.3596 87.588 88.5856 87.336 87.8656 87.012C87.1816 86.688 86.4796 86.364 85.7596 86.04C85.0396 85.68 84.5716 85.176 84.3556 84.528C84.1756 83.916 84.0856 83.25 84.0856 82.53C84.0496 80.91 84.0136 79.29 83.9776 77.67C83.9416 76.086 83.9236 74.484 83.9236 72.864L84.3556 55.368C84.3556 53.316 84.3376 51.264 84.3016 49.212C84.2656 47.124 84.2116 45.054 84.1396 43.002L84.0856 39.816C84.0856 37.296 84.1576 34.776 84.3016 32.256C84.4456 29.736 84.5716 27.216 84.6796 24.696C84.7156 23.76 84.9316 23.058 85.3276 22.59C85.7596 22.086 86.4976 21.69 87.5416 21.402C88.7656 21.078 89.9896 20.79 91.2136 20.538C92.4376 20.286 93.6796 20.124 94.9396 20.052L97.1536 19.998C99.2776 19.998 101.402 20.16 103.526 20.484C106.262 20.88 108.494 21.924 110.222 23.616C111.95 25.308 113.12 27.522 113.732 30.258C114.02 31.59 114.218 32.922 114.326 34.254C114.47 35.55 114.542 36.864 114.542 38.196C114.542 39.564 114.47 40.95 114.326 42.354C114.218 43.758 114.074 45.162 113.894 46.566C113.714 47.79 113.516 49.014 113.3 50.238C113.084 51.426 112.778 52.596 112.382 53.748C112.094 54.396 111.77 55.026 111.41 55.638C111.05 56.25 110.672 56.88 110.276 57.528C110.708 57.672 111.104 57.78 111.464 57.852C111.824 57.924 112.166 58.032 112.49 58.176C113.786 58.788 114.83 59.598 115.622 60.606C116.45 61.578 116.954 62.784 117.134 64.224C117.35 65.736 117.458 67.266 117.458 68.814C117.458 69.138 117.44 69.642 117.404 70.326C117.368 71.01 117.314 71.73 117.242 72.486C117.206 73.242 117.152 73.944 117.08 74.592C117.008 75.276 116.954 75.78 116.918 76.104C116.738 77.472 116.36 78.714 115.784 79.83C115.244 80.946 114.488 81.972 113.516 82.908C111.788 84.456 109.952 85.716 108.008 86.688C106.064 87.66 103.922 88.182 101.582 88.254C100.754 88.29 99.9436 88.308 99.1516 88.308C98.3956 88.344 97.6036 88.362 96.7756 88.362ZM144.901 88.362C144.073 88.326 143.443 88.092 143.011 87.66C142.579 87.264 142.363 86.706 142.363 85.986L142.471 85.176C142.615 84.564 142.687 83.952 142.687 83.34C142.723 82.728 142.777 82.116 142.849 81.504C142.921 80.748 142.975 79.668 143.011 78.264C143.083 76.86 143.137 75.312 143.173 73.62C143.245 71.964 143.281 70.254 143.281 68.49C143.317 66.69 143.335 65.034 143.335 63.522C143.371 61.974 143.389 60.642 143.389 59.526C143.425 58.41 143.443 57.69 143.443 57.366C143.443 55.71 143.425 53.964 143.389 52.128C143.353 50.256 143.335 48.348 143.335 46.404V45C143.335 44.784 143.263 44.658 143.119 44.622C142.939 44.766 142.813 44.946 142.741 45.162C142.705 45.342 142.651 45.54 142.579 45.756C141.859 48.384 141.139 51.012 140.419 53.64C139.699 56.268 138.943 58.896 138.151 61.524C137.107 65.016 136.135 68.49 135.235 71.946C134.335 75.402 133.219 78.678 131.887 81.774C131.527 82.602 131.185 83.412 130.861 84.204C130.537 84.996 130.177 85.77 129.781 86.526C129.205 87.714 128.359 88.308 127.243 88.308L126.433 88.2C124.885 87.876 124.057 86.832 123.949 85.068C123.949 84.852 123.949 84.636 123.949 84.42C123.985 84.204 124.021 83.988 124.057 83.772C124.273 79.74 124.525 75.636 124.813 71.46C125.137 67.248 125.461 63 125.785 58.716C126.073 54.9 126.271 51.12 126.379 47.376C126.487 43.596 126.541 39.798 126.541 35.982C126.541 34.506 126.541 33.048 126.541 31.608C126.541 30.168 126.523 28.782 126.487 27.45L126.433 22.698C126.469 21.978 126.685 21.42 127.081 21.024C127.513 20.592 128.053 20.34 128.701 20.268H128.809C129.421 20.268 129.943 20.448 130.375 20.808C130.807 21.168 131.095 21.69 131.239 22.374C131.311 22.734 131.347 23.094 131.347 23.454C131.347 23.814 131.365 24.174 131.401 24.534C131.473 25.47 131.509 26.478 131.509 27.558C131.545 28.602 131.563 29.664 131.563 30.744L131.509 40.464C131.509 44.604 131.383 48.708 131.131 52.776C130.879 56.844 130.609 60.93 130.321 65.034C130.249 65.538 130.195 66.06 130.159 66.6C130.123 67.104 130.105 67.626 130.105 68.166C130.105 68.49 130.123 68.832 130.159 69.192C130.195 69.516 130.249 69.858 130.321 70.218C130.429 69.93 130.537 69.66 130.645 69.408C130.753 69.156 130.843 68.886 130.915 68.598C131.527 66.51 132.121 64.44 132.697 62.388C133.309 60.336 133.903 58.266 134.479 56.178C136.027 50.598 137.557 45.072 139.069 39.6C140.617 34.092 141.805 28.53 142.633 22.914C142.741 22.086 142.993 21.474 143.389 21.078C143.821 20.682 144.487 20.448 145.387 20.376C146.431 20.304 147.457 20.25 148.465 20.214C149.473 20.178 150.499 20.16 151.543 20.16C153.055 20.16 154.531 20.214 155.971 20.322C156.835 20.394 157.501 20.682 157.969 21.186C158.473 21.69 158.725 22.356 158.725 23.184V24.426C158.725 25.326 158.743 26.226 158.779 27.126C158.815 27.99 158.833 28.872 158.833 29.772V30.852C158.761 32.472 158.725 34.146 158.725 35.874C158.725 37.602 158.725 39.348 158.725 41.112C158.725 43.056 158.725 44.982 158.725 46.89C158.761 48.762 158.815 50.67 158.887 52.614L158.941 55.152V56.016C158.941 56.628 158.923 57.474 158.887 58.554C158.887 59.598 158.869 60.768 158.833 62.064C158.797 63.36 158.761 64.746 158.725 66.222C158.689 67.662 158.653 69.084 158.617 70.488C158.617 71.856 158.599 73.152 158.563 74.376C158.527 75.636 158.509 76.698 158.509 77.562C158.509 78.678 158.455 79.776 158.347 80.856C158.239 81.972 158.149 83.088 158.077 84.204C158.077 84.852 157.969 85.5 157.753 86.148C157.357 87.516 156.457 88.2 155.053 88.2C153.361 88.236 151.669 88.272 149.977 88.308C148.321 88.344 146.629 88.362 144.901 88.362ZM168.394 88.308C166.918 88.308 166.072 87.498 165.856 85.878C165.784 85.266 165.73 84.636 165.694 83.988C165.694 83.34 165.676 82.692 165.64 82.044L164.56 56.07C164.488 55.242 164.434 54.432 164.398 53.64C164.362 52.812 164.344 52.02 164.344 51.264C164.344 50.076 164.362 48.924 164.398 47.808C164.434 46.692 164.47 45.576 164.506 44.46C164.542 41.76 164.56 39.06 164.56 36.36C164.596 33.66 164.65 30.96 164.722 28.26C164.758 27.504 164.812 26.766 164.884 26.046C164.956 25.29 165.028 24.534 165.1 23.778C165.28 22.374 165.64 21.42 166.18 20.916C166.756 20.412 167.746 20.142 169.15 20.106H176.926C178.978 20.178 180.004 20.988 180.004 22.536C180.004 23.004 179.932 23.454 179.788 23.886C179.5 24.714 179.338 25.542 179.302 26.37C179.266 27.162 179.248 27.972 179.248 28.8C179.176 31.86 179.104 34.884 179.032 37.872C178.96 40.824 178.924 43.65 178.924 46.35C178.924 49.77 178.978 53.208 179.086 56.664C179.122 57.816 179.212 58.59 179.356 58.986C179.536 59.382 179.986 59.58 180.706 59.58C180.922 59.58 181.156 59.58 181.408 59.58C181.696 59.544 182.02 59.508 182.38 59.472C183.136 59.4 183.892 59.346 184.648 59.31C185.404 59.274 186.16 59.256 186.916 59.256C187.204 59.256 187.456 59.256 187.672 59.256C187.924 59.256 188.176 59.238 188.428 59.202C189.076 59.094 189.58 59.004 189.94 58.932C190.336 58.824 190.642 58.68 190.858 58.5C191.074 58.284 191.2 58.032 191.236 57.744C191.308 57.42 191.344 56.988 191.344 56.448L191.29 52.56C191.29 50.652 191.326 48.798 191.398 46.998C191.47 45.162 191.56 43.452 191.668 41.868C191.776 40.356 191.83 38.844 191.83 37.332C191.866 35.784 191.884 34.236 191.884 32.688V25.452C191.884 25.164 191.848 24.876 191.776 24.588C191.74 24.3 191.704 24.012 191.668 23.724L191.614 23.13C191.614 22.626 191.722 22.122 191.938 21.618C192.442 20.538 193.234 19.998 194.314 19.998H194.476C195.7 20.07 196.456 20.718 196.744 21.942C196.816 22.338 196.852 22.734 196.852 23.13C196.888 23.526 196.906 23.922 196.906 24.318C196.906 28.89 196.852 33.408 196.744 37.872C196.672 42.3 196.528 46.62 196.312 50.832L196.258 53.532C196.258 54.828 196.312 56.088 196.42 57.312C196.456 57.6 196.474 57.87 196.474 58.122C196.474 58.374 196.546 58.608 196.69 58.824C197.086 59.508 197.284 60.174 197.284 60.822C197.284 61.362 197.14 61.902 196.852 62.442C196.708 62.694 196.636 63 196.636 63.36C196.636 63.612 196.654 63.864 196.69 64.116C196.726 64.332 196.762 64.566 196.798 64.818L199.012 84.474C199.048 84.69 199.066 84.906 199.066 85.122C199.102 85.338 199.12 85.554 199.12 85.77C199.048 86.49 198.814 87.084 198.418 87.552C198.058 88.02 197.572 88.29 196.96 88.362H196.636C196.024 88.362 195.484 88.182 195.016 87.822C194.584 87.462 194.314 86.922 194.206 86.202C194.026 85.122 193.864 84.024 193.72 82.908C193.576 81.828 193.45 80.73 193.342 79.614C193.054 76.914 192.802 74.448 192.586 72.216C192.37 69.984 192.136 67.662 191.884 65.25C191.812 64.674 191.722 64.296 191.614 64.116C191.542 63.936 191.362 63.846 191.074 63.846L189.994 63.954C188.482 64.098 186.97 64.206 185.458 64.278C183.982 64.35 182.488 64.422 180.976 64.494C180.328 64.53 179.914 64.602 179.734 64.71C179.554 64.782 179.464 65.07 179.464 65.574L180.274 83.124V85.716C180.094 87.444 179.23 88.308 177.682 88.308C176.998 88.344 176.332 88.362 175.684 88.362C175.036 88.362 174.388 88.362 173.74 88.362L168.394 88.308ZM209.416 88.308C208.048 88.308 207.202 87.588 206.878 86.148C206.77 85.788 206.716 85.428 206.716 85.068L205.582 61.794C205.582 59.67 205.6 57.618 205.636 55.638C205.636 54.81 205.636 53.964 205.636 53.1C205.672 52.236 205.69 51.408 205.69 50.616C205.726 49.788 205.744 49.032 205.744 48.348C205.744 47.664 205.744 47.07 205.744 46.566V45.162C205.672 41.454 205.636 37.764 205.636 34.092C205.636 30.42 205.636 26.838 205.636 23.346C205.636 22.374 205.816 21.654 206.176 21.186C206.572 20.682 207.238 20.376 208.174 20.268C208.966 20.196 209.74 20.142 210.496 20.106C211.252 20.07 212.026 20.052 212.818 20.052C213.646 20.052 214.492 20.07 215.356 20.106C216.22 20.142 217.066 20.196 217.894 20.268C218.83 20.34 219.514 20.628 219.946 21.132C220.378 21.6 220.648 22.302 220.756 23.238C220.792 23.526 220.81 23.85 220.81 24.21C220.81 24.534 220.81 24.84 220.81 25.128C220.81 29.34 220.81 33.624 220.81 37.98C220.81 42.3 220.828 46.656 220.864 51.048V52.398C221.188 52.11 221.386 51.84 221.458 51.588C221.566 51.336 221.656 51.084 221.728 50.832C223.204 46.476 224.788 41.958 226.48 37.278C228.172 32.562 229.972 27.828 231.88 23.076C232.024 22.788 232.15 22.5 232.258 22.212C232.366 21.888 232.51 21.582 232.69 21.294C233.194 20.574 233.896 20.214 234.796 20.214C234.904 20.214 235.012 20.214 235.12 20.214C235.264 20.214 235.408 20.25 235.552 20.322C236.596 20.718 237.118 21.51 237.118 22.698C237.118 23.094 237.064 23.454 236.956 23.778C236.848 24.102 236.722 24.444 236.578 24.804C234.562 29.844 232.654 34.848 230.854 39.816C229.09 44.748 227.434 49.536 225.886 54.18C225.49 55.332 225.076 56.466 224.644 57.582C224.248 58.662 223.816 59.742 223.348 60.822C223.168 61.29 223.078 61.668 223.078 61.956C223.078 62.316 223.222 62.748 223.51 63.252C225.526 66.852 227.434 70.128 229.234 73.08C231.07 76.068 233.014 78.876 235.066 81.504C235.534 82.116 236.11 82.656 236.794 83.124C236.974 83.232 237.136 83.34 237.28 83.448C237.46 83.592 237.64 83.736 237.82 83.88C238.432 84.42 238.738 85.068 238.738 85.824C238.738 86.328 238.594 86.778 238.306 87.174C237.838 87.894 237.172 88.254 236.308 88.254C236.02 88.254 235.66 88.164 235.228 87.984C234.364 87.588 233.59 87.084 232.906 86.472C232.222 85.86 231.574 85.176 230.962 84.42C229.594 82.584 228.244 80.676 226.912 78.696C225.58 76.716 224.23 74.376 222.862 71.676C222.682 71.316 222.466 70.974 222.214 70.65C221.962 70.29 221.656 69.858 221.296 69.354C221.26 69.858 221.242 70.326 221.242 70.758C221.242 71.19 221.242 71.622 221.242 72.054C221.242 72.99 221.26 73.872 221.296 74.7C221.368 75.564 221.44 76.41 221.512 77.238C221.62 78.462 221.71 79.686 221.782 80.91C221.854 82.134 221.89 83.358 221.89 84.582V85.446C221.818 86.418 221.566 87.12 221.134 87.552C220.738 88.02 220.072 88.272 219.136 88.308C218.452 88.344 217.768 88.362 217.084 88.362C216.4 88.362 215.716 88.362 215.032 88.362L209.416 88.308ZM266.19 88.362C265.362 88.326 264.732 88.092 264.3 87.66C263.868 87.264 263.652 86.706 263.652 85.986L263.76 85.176C263.904 84.564 263.976 83.952 263.976 83.34C264.012 82.728 264.066 82.116 264.138 81.504C264.21 80.748 264.264 79.668 264.3 78.264C264.372 76.86 264.426 75.312 264.462 73.62C264.534 71.964 264.57 70.254 264.57 68.49C264.606 66.69 264.624 65.034 264.624 63.522C264.66 61.974 264.678 60.642 264.678 59.526C264.714 58.41 264.732 57.69 264.732 57.366C264.732 55.71 264.714 53.964 264.678 52.128C264.642 50.256 264.624 48.348 264.624 46.404V45C264.624 44.784 264.552 44.658 264.408 44.622C264.228 44.766 264.102 44.946 264.03 45.162C263.994 45.342 263.94 45.54 263.868 45.756C263.148 48.384 262.428 51.012 261.708 53.64C260.988 56.268 260.232 58.896 259.44 61.524C258.396 65.016 257.424 68.49 256.524 71.946C255.624 75.402 254.508 78.678 253.176 81.774C252.816 82.602 252.474 83.412 252.15 84.204C251.826 84.996 251.466 85.77 251.07 86.526C250.494 87.714 249.648 88.308 248.532 88.308L247.722 88.2C246.174 87.876 245.346 86.832 245.238 85.068C245.238 84.852 245.238 84.636 245.238 84.42C245.274 84.204 245.31 83.988 245.346 83.772C245.562 79.74 245.814 75.636 246.102 71.46C246.426 67.248 246.75 63 247.074 58.716C247.362 54.9 247.56 51.12 247.668 47.376C247.776 43.596 247.83 39.798 247.83 35.982C247.83 34.506 247.83 33.048 247.83 31.608C247.83 30.168 247.812 28.782 247.776 27.45L247.722 22.698C247.758 21.978 247.974 21.42 248.37 21.024C248.802 20.592 249.342 20.34 249.99 20.268H250.098C250.71 20.268 251.232 20.448 251.664 20.808C252.096 21.168 252.384 21.69 252.528 22.374C252.6 22.734 252.636 23.094 252.636 23.454C252.636 23.814 252.654 24.174 252.69 24.534C252.762 25.47 252.798 26.478 252.798 27.558C252.834 28.602 252.852 29.664 252.852 30.744L252.798 40.464C252.798 44.604 252.672 48.708 252.42 52.776C252.168 56.844 251.898 60.93 251.61 65.034C251.538 65.538 251.484 66.06 251.448 66.6C251.412 67.104 251.394 67.626 251.394 68.166C251.394 68.49 251.412 68.832 251.448 69.192C251.484 69.516 251.538 69.858 251.61 70.218C251.718 69.93 251.826 69.66 251.934 69.408C252.042 69.156 252.132 68.886 252.204 68.598C252.816 66.51 253.41 64.44 253.986 62.388C254.598 60.336 255.192 58.266 255.768 56.178C257.316 50.598 258.846 45.072 260.358 39.6C261.906 34.092 263.094 28.53 263.922 22.914C264.03 22.086 264.282 21.474 264.678 21.078C265.11 20.682 265.776 20.448 266.676 20.376C267.72 20.304 268.746 20.25 269.754 20.214C270.762 20.178 271.788 20.16 272.832 20.16C274.344 20.16 275.82 20.214 277.26 20.322C278.124 20.394 278.79 20.682 279.258 21.186C279.762 21.69 280.014 22.356 280.014 23.184V24.426C280.014 25.326 280.032 26.226 280.068 27.126C280.104 27.99 280.122 28.872 280.122 29.772V30.852C280.05 32.472 280.014 34.146 280.014 35.874C280.014 37.602 280.014 39.348 280.014 41.112C280.014 43.056 280.014 44.982 280.014 46.89C280.05 48.762 280.104 50.67 280.176 52.614L280.23 55.152V56.016C280.23 56.628 280.212 57.474 280.176 58.554C280.176 59.598 280.158 60.768 280.122 62.064C280.086 63.36 280.05 64.746 280.014 66.222C279.978 67.662 279.942 69.084 279.906 70.488C279.906 71.856 279.888 73.152 279.852 74.376C279.816 75.636 279.798 76.698 279.798 77.562C279.798 78.678 279.744 79.776 279.636 80.856C279.528 81.972 279.438 83.088 279.366 84.204C279.366 84.852 279.258 85.5 279.042 86.148C278.646 87.516 277.746 88.2 276.342 88.2C274.65 88.236 272.958 88.272 271.266 88.308C269.61 88.344 267.918 88.362 266.19 88.362Z" fill="#FDA3C4"/>
<path d="M157.012 90.5237C157.465 87.0557 158.088 83.308 160.693 80.679C162.902 78.4416 166.243 77.2669 169.302 78.4975C172.756 79.8959 174.172 83.3639 175.985 86.2726C177.061 88.0066 179.099 90.4677 181.535 89.9643C183.177 89.5728 183.857 87.8947 184.367 86.4963C185.273 84.2029 185.839 81.6299 187.765 79.8959C189.917 77.9941 192.975 78.2178 195.241 79.84C198.299 81.9655 199.148 85.6013 201.697 88.1744C203.509 89.9643 205.718 89.7965 207.474 87.9506C208.89 86.3844 209.286 84.3148 210.362 82.5249C212.118 79.6162 215.629 78.945 218.574 80.7349C222.029 82.9164 222.425 87.2794 221.689 90.8593C221.406 92.3136 218.971 91.978 219.027 90.5237C219.027 88.8456 219.197 87.0557 218.631 85.4335C217.895 83.3639 215.289 81.6858 213.477 83.5876C212.458 84.6504 212.174 86.3285 211.495 87.615C210.815 88.9575 209.796 90.188 208.606 91.139C203.453 94.9985 199.092 90.244 196.6 86.0488C195.24 83.7555 191.729 79.3365 189.294 83.0283C187.991 84.9301 187.708 87.3913 186.632 89.405C183.97 94.4951 178.25 93.768 174.795 89.7965C172.586 87.2794 171.51 82.4689 167.999 81.2943C162.562 79.5603 160.75 86.9438 160.297 90.5237C159.9 92.4255 156.785 92.4814 157.012 90.5237Z" fill="#1F1F1F"/>
<path d="M18 76.5V94H14.75V86.5H5.7V94H2.45V76.5H5.7V83.725H14.75V76.5H18ZM31.009 94.25C29.2257 94.25 27.6173 93.8667 26.184 93.1C24.7507 92.3167 23.6257 91.2417 22.809 89.875C21.9923 88.4917 21.584 86.95 21.584 85.25C21.584 83.55 21.9923 82.0167 22.809 80.65C23.6257 79.2667 24.7507 78.1917 26.184 77.425C27.6173 76.6417 29.2257 76.25 31.009 76.25C32.7923 76.25 34.4007 76.6417 35.834 77.425C37.2673 78.1917 38.3923 79.2583 39.209 80.625C40.0257 81.9917 40.434 83.5333 40.434 85.25C40.434 86.9667 40.0257 88.5083 39.209 89.875C38.3923 91.2417 37.2673 92.3167 35.834 93.1C34.4007 93.8667 32.7923 94.25 31.009 94.25ZM31.009 91.4C32.1757 91.4 33.2257 91.1417 34.159 90.625C35.0923 90.0917 35.8257 89.3583 36.359 88.425C36.8923 87.475 37.159 86.4167 37.159 85.25C37.159 84.0833 36.8923 83.0333 36.359 82.1C35.8257 81.15 35.0923 80.4167 34.159 79.9C33.2257 79.3667 32.1757 79.1 31.009 79.1C29.8423 79.1 28.7923 79.3667 27.859 79.9C26.9257 80.4167 26.1923 81.15 25.659 82.1C25.1257 83.0333 24.859 84.0833 24.859 85.25C24.859 86.4167 25.1257 87.475 25.659 88.425C26.1923 89.3583 26.9257 90.0917 27.859 90.625C28.7923 91.1417 29.8423 91.4 31.009 91.4ZM55.5521 84.9C56.6688 85.2 57.5188 85.7167 58.1021 86.45C58.6855 87.1667 58.9771 88.0667 58.9771 89.15C58.9771 90.6833 58.4105 91.875 57.2771 92.725C56.1438 93.575 54.5021 94 52.3521 94H44.0521V76.5H51.8771C53.8438 76.5 55.3771 76.8917 56.4771 77.675C57.5771 78.4583 58.1271 79.5667 58.1271 81C58.1271 81.9167 57.9021 82.7083 57.4521 83.375C57.0188 84.0417 56.3855 84.55 55.5521 84.9ZM47.2521 83.975H51.6021C52.6521 83.975 53.4521 83.7667 54.0021 83.35C54.5521 82.9333 54.8271 82.3167 54.8271 81.5C54.8271 80.6833 54.5521 80.0667 54.0021 79.65C53.4521 79.2167 52.6521 79 51.6021 79H47.2521V83.975ZM52.2521 91.5C54.5521 91.5 55.7021 90.6333 55.7021 88.9C55.7021 87.2 54.5521 86.35 52.2521 86.35H47.2521V91.5H52.2521ZM62.7045 76.5H65.9045V88.925L75.3045 76.5H78.3295V94H75.1295V81.6L65.7295 94H62.7045V76.5ZM98.7861 76.5V94H95.5361V86.5H86.4861V94H83.2361V76.5H86.4861V83.725H95.5361V76.5H98.7861ZM110.145 86.625H106.895V94H103.695V76.5H106.895V83.825H110.245L115.27 76.5H118.72L112.745 84.975L118.945 94H115.27L110.145 86.625ZM121.176 76.5H124.376V88.925L133.776 76.5H136.801V94H133.601V81.6L124.201 94H121.176V76.5Z" fill="#1F1F1F"/>
</svg>
