<svg width="189" height="67" viewBox="0 0 189 67" fill="none" xmlns="http://www.w3.org/2000/svg">
<path d="M7.67449 43.811L4.4032 38.7602L2.75728 18.6293C4.38626 15.7752 10.0349 9.91443 19.5974 9.30404C31.5506 8.54106 65.8388 6.7359 79.5645 7.03203C93.2903 7.32817 107.781 7.20995 112.611 7.2404C117.441 7.27086 167.131 5.7139 173.465 8.89749C178.533 11.4444 183.161 16.2942 184.842 18.4007C184.331 18.8166 183.61 20.1114 184.818 21.9634C186.026 23.8154 186.651 26.6558 186.813 27.8445C186.131 28.5388 184.764 30.0951 184.76 30.7658C184.754 31.6041 180.177 31.7848 182.458 32.8472C184.283 33.697 184.724 36.145 184.717 37.2628C182.93 38.2994 178.544 40.4096 175.289 40.5567C172.034 40.7039 169.182 41.4264 168.163 41.7693L168.152 43.4461C169.675 43.7351 172.416 44.395 171.194 44.7227C169.666 45.1322 168.148 44.0747 166.872 44.6954C165.597 45.3161 163.809 46.5624 165.332 46.9912C165.798 47.3804 166.255 47.5759 166.666 47.6534C167.171 47.5562 167.717 47.4772 168.125 47.428C167.863 47.5985 167.324 47.7778 166.666 47.6534C165.808 47.8185 165.069 48.036 165.323 48.2487C165.728 48.5866 167.352 49.0998 168.113 49.3142L169.375 50.5797L165.308 50.554C163.071 50.5399 163.52 51.8003 164.025 52.4322C163.431 52.5682 161.887 52.7541 160.466 52.4098C158.689 51.9794 159.448 52.613 156.396 52.8033C153.954 52.9556 114.929 53.8534 110.777 53.7574C111.118 53.4801 111.342 52.9226 109.512 52.911L109.512 52.911C107.224 52.8966 106.97 52.895 104.171 53.2965C101.372 53.6981 71.8024 53.1567 63.1595 53.1022C56.2451 53.0586 41.9324 53.0392 40.6614 53.0311C36.6742 53.7046 27.2257 55.0004 21.3293 54.7955C13.9587 54.5395 7.61746 52.4036 7.61885 52.194C7.61997 52.0264 6.2719 50.8581 5.59773 50.295C6.27329 50.6486 7.62581 51.1461 7.63137 50.3078C7.63693 49.4695 6.2974 47.0159 5.62694 45.8938L7.67449 43.811Z" fill="#FDA3C4"/>
<path d="M12.4251 55.7873C11.6117 55.7822 11.5722 56.6203 11.6541 57.04L10.0004 57.2392C9.1908 57.9327 7.72436 59.2788 8.33557 59.115C8.94678 58.9512 10.1192 58.4975 10.629 58.2911C10.9698 58.0138 13.2783 57.4694 19.7859 57.5105C27.9205 57.5618 27.1607 57.1378 27.9233 57.1426C28.6859 57.1474 13.4419 55.7938 12.4251 55.7873Z" fill="#FDA3C4"/>
<path d="M40.6363 43.7894C40.1298 43.8037 39.809 43.5461 39.6739 43.0163C39.6302 42.8842 39.6064 42.7515 39.6026 42.6182L38.9381 34.0135C38.9158 33.2272 38.9009 32.4673 38.8934 31.7339C38.8847 31.4274 38.8758 31.1141 38.8667 30.7943C38.871 30.474 38.8689 30.1673 38.8606 29.8741C38.8652 29.5672 38.864 29.2871 38.8568 29.0338C38.8496 28.7806 38.8433 28.5607 38.838 28.3741L38.8233 27.8543C38.7576 26.4823 38.7055 25.1166 38.6669 23.7571C38.6283 22.3977 38.5907 21.0715 38.554 19.7787C38.5437 19.4189 38.6028 19.1504 38.7312 18.9734C38.8725 18.7826 39.1158 18.6624 39.4612 18.6126C39.7537 18.5776 40.0397 18.5495 40.3192 18.5283C40.5987 18.507 40.8851 18.4923 41.1783 18.484C41.4848 18.4753 41.7982 18.4731 42.1185 18.4774C42.4387 18.4816 42.7525 18.4928 43.0598 18.5107C43.4071 18.5276 43.6633 18.6271 43.8286 18.8091C43.9934 18.9779 44.1008 19.2349 44.1506 19.5803C44.1669 19.6866 44.177 19.8063 44.1808 19.9396C44.1842 20.0596 44.1874 20.1728 44.1904 20.2795C44.2347 21.8388 44.2798 23.4249 44.3255 25.0376C44.371 26.6369 44.4234 28.2494 44.4829 29.875L44.4971 30.3748C44.614 30.2648 44.6845 30.1628 44.7085 30.0687C44.7458 29.9743 44.7765 29.8801 44.8005 29.786C45.3012 28.1579 45.8401 26.4686 46.4173 24.7183C46.9942 22.9546 47.6108 21.1831 48.2672 19.4038C48.3175 19.2957 48.3611 19.1877 48.3981 19.08C48.4347 18.9589 48.4848 18.8441 48.5484 18.7356C48.7274 18.4637 48.9835 18.3231 49.3167 18.3137C49.3567 18.3125 49.3967 18.3114 49.4367 18.3103C49.49 18.3088 49.5437 18.3206 49.5977 18.3457C49.9884 18.4814 50.19 18.7692 50.2025 19.209C50.2066 19.3556 50.1904 19.4894 50.1539 19.6105C50.1173 19.7316 50.0742 19.8595 50.0247 19.9943C49.3313 21.8814 48.6775 23.7539 48.0634 25.612C47.4621 27.4565 46.8994 29.2464 46.3751 30.982C46.2406 31.4126 46.0992 31.8368 45.951 32.2545C45.8158 32.6584 45.6672 33.0628 45.5053 33.4676C45.4436 33.6427 45.4142 33.7836 45.4172 33.8902C45.421 34.0235 45.4789 34.1819 45.5908 34.3655C46.375 35.6772 47.1158 36.87 47.8133 37.9441C48.5244 39.031 49.2736 40.0503 50.0609 41.0017C50.2406 41.2234 50.4596 41.4173 50.7177 41.5834C50.7855 41.6215 50.8466 41.6597 50.9011 41.6982C50.9692 41.7496 51.0374 41.8011 51.1055 41.8525C51.3378 42.046 51.4579 42.2827 51.4658 42.5626C51.4711 42.7492 51.4225 42.9173 51.3201 43.0669C51.1544 43.3384 50.9116 43.4786 50.5917 43.4877C50.4851 43.4907 50.3509 43.4612 50.189 43.399C49.865 43.2615 49.5732 43.083 49.3135 42.8636C49.0538 42.6442 48.8067 42.3977 48.5722 42.1243C48.0464 41.4589 47.5266 40.7666 47.0126 40.0475C46.4987 39.3285 45.9743 38.4763 45.4394 37.491C45.369 37.3596 45.2855 37.2353 45.1888 37.118C45.0917 36.9873 44.9738 36.8306 44.8353 36.6478C44.8272 36.8347 44.8255 37.0082 44.83 37.1681C44.8346 37.3281 44.8391 37.488 44.8437 37.6479C44.8535 37.9945 44.8694 38.3208 44.8915 38.627C44.9272 38.9461 44.9628 39.2586 44.9981 39.5643C45.051 40.0164 45.0972 40.4686 45.1367 40.921C45.1762 41.3734 45.2024 41.8261 45.2153 42.2793L45.2243 42.5992C45.2079 42.9598 45.122 43.2223 44.9666 43.3868C44.8249 43.5642 44.581 43.6644 44.2348 43.6876C43.982 43.7081 43.7289 43.7219 43.4757 43.7291C43.2225 43.7362 42.9692 43.7434 42.716 43.7506L40.6363 43.7894ZM61.4803 41.2588C61.7736 41.2505 62.0278 41.0432 62.243 40.637C62.3314 40.4611 62.3998 40.2857 62.4482 40.1109C62.5103 39.9491 62.572 39.774 62.6333 39.5855C63.0707 38.0792 63.3812 36.5631 63.5646 35.0373C63.7614 33.5112 63.8639 31.9543 63.8722 30.3668L63.8682 30.2268C63.8209 28.5608 63.6222 26.9658 63.2721 25.4418C62.935 23.904 62.4915 22.376 61.9415 20.8576C61.913 20.7917 61.8846 20.7325 61.8564 20.6799C61.8283 20.6273 61.7999 20.5681 61.7713 20.5022C61.5346 20.1488 61.2296 19.9774 60.8564 19.9879C60.7098 19.9921 60.5576 20.0364 60.4 20.1209C60.2553 20.1917 60.1317 20.3019 60.0292 20.4515C59.8113 20.7645 59.6472 21.0892 59.5367 21.4258C59.4262 21.7624 59.3292 22.1053 59.2457 22.4545C58.998 23.5953 58.8371 24.7403 58.763 25.8895C58.6886 27.0254 58.6347 28.1807 58.6013 29.3555C58.5823 29.6228 58.5765 29.8897 58.5841 30.1563C58.5916 30.4228 58.5992 30.6894 58.6068 30.9559C58.6503 32.4887 58.7987 33.9584 59.0521 35.3651C59.3055 36.7718 59.6519 38.1693 60.0915 39.5574C60.1646 39.7821 60.2439 39.9932 60.3296 40.1909C60.4156 40.4019 60.5346 40.5986 60.6865 40.781C60.9492 41.1071 61.2138 41.2663 61.4803 41.2588ZM57.9968 43.2981C57.6903 43.3068 57.415 43.2412 57.1709 43.1014C56.9405 42.9745 56.7159 42.8142 56.497 42.6203C56.141 42.2969 55.8574 41.9381 55.6461 41.5439C55.4481 41.1494 55.2763 40.7341 55.1305 40.298C54.6476 38.7911 54.2712 37.2811 54.0015 35.7681C53.7447 34.2415 53.5931 32.6584 53.5465 31.0191C53.5284 30.3794 53.5298 29.7257 53.5509 29.0582C53.5838 27.8701 53.6507 26.7011 53.7514 25.5511C53.8518 24.3878 54.0256 23.2291 54.273 22.075C54.5458 20.8801 55.0496 19.8321 55.7843 18.931C55.9386 18.7265 56.1073 18.5617 56.2905 18.4365C56.4737 18.3112 56.6982 18.2315 56.964 18.1973C57.3231 18.1605 57.6822 18.1236 58.0413 18.0868C58.4004 18.0499 58.7665 18.0262 59.1397 18.0157C59.5662 18.0036 59.9868 18.0184 60.4015 18.06C60.8158 18.0883 61.2312 18.1566 61.6478 18.2648C62.1718 18.3967 62.5986 18.6314 62.9283 18.9689C63.258 19.3064 63.51 19.7261 63.6843 20.228C64.0908 21.3903 64.4508 22.5606 64.7644 23.7389C65.0909 24.9034 65.3318 26.1038 65.4869 27.3399C65.5382 27.7386 65.5829 28.1375 65.6209 28.5366C65.6719 28.9219 65.7029 29.3079 65.7138 29.6944L65.7263 30.1342C65.7093 31.8821 65.5976 33.5859 65.3913 35.2457C65.1979 36.8919 64.864 38.522 64.3897 40.136C64.3294 40.3645 64.2622 40.5798 64.1879 40.782C64.114 40.9975 64.0266 41.2067 63.9256 41.4097C63.5123 42.3551 62.7812 42.916 61.7325 43.0924C61.4008 43.1551 61.0685 43.1979 60.7357 43.2206C60.4162 43.243 60.0899 43.2589 59.7567 43.2683L57.9968 43.2981ZM75.2793 42.8091C74.9857 42.804 74.6921 42.799 74.3985 42.794C74.1186 42.8019 73.8254 42.8102 73.5188 42.8189L72.5198 42.8671C72.1066 42.8788 71.7314 42.8161 71.394 42.6789C71.057 42.5551 70.7585 42.3768 70.4985 42.144C70.2518 41.9109 70.0441 41.6434 69.8754 41.3413C69.7068 41.0393 69.5776 40.7162 69.4878 40.3719C69.3241 39.7763 69.1805 39.1801 69.0568 38.5834C68.9465 37.9863 68.8293 37.3827 68.7053 36.7726C68.5961 36.2155 68.5069 35.6578 68.4377 35.0995C68.3815 34.5275 68.3315 33.942 68.2878 33.343C68.2574 32.7437 68.2265 32.1243 68.195 31.4849C68.1769 30.8452 68.1511 30.1723 68.1177 29.4663L68.0747 27.2466C68.0645 26.8868 68.0542 26.5269 68.044 26.1671C68.0338 25.8072 68.0371 25.4536 68.0539 25.1064C68.0884 23.9716 68.2914 22.8988 68.6628 21.8879C69.0343 20.8769 69.5133 19.8963 70.0999 18.946C70.6488 18.0768 71.423 17.6281 72.4226 17.5998L74.2819 17.5472L75.2821 17.5389C76.5494 17.543 77.6622 17.9784 78.6205 18.845C78.9353 19.1295 79.1978 19.4489 79.408 19.8031C79.6177 20.1439 79.762 20.5267 79.8407 20.9513L79.8687 21.2306C79.8751 21.4572 79.854 21.6512 79.8052 21.8126C79.7454 22.0544 79.6374 22.2442 79.4812 22.382C79.3247 22.5065 79.1465 22.5716 78.9465 22.5772L78.8266 22.5806C78.6126 22.56 78.4304 22.4851 78.28 22.356C78.1292 22.2135 78.0502 22.0157 78.043 21.7625L78.0396 21.6425C78.023 21.0561 77.8369 20.6078 77.4812 20.2978C77.139 19.9873 76.7317 19.7387 76.2596 19.552C76.1248 19.5025 76.0104 19.4657 75.9163 19.4417C75.8223 19.4177 75.7286 19.407 75.6353 19.4096C75.4887 19.4138 75.3634 19.464 75.2594 19.5603C75.1554 19.6566 75.0397 19.8066 74.9121 20.0103C74.3765 20.8792 73.962 21.7846 73.6686 22.7266C73.3749 23.6553 73.2294 24.6398 73.2323 25.6801L73.3054 28.9594C73.3383 30.1189 73.3812 31.1581 73.4339 32.077C73.4867 32.9958 73.5585 33.8808 73.6494 34.7319C73.7399 35.5697 73.8699 36.393 74.0396 37.2019C74.2097 38.0241 74.4 38.8523 74.6104 39.6867C74.6256 39.753 74.6406 39.8126 74.6555 39.8655C74.6707 39.9318 74.6926 39.9979 74.7211 40.0637C74.964 40.6304 75.3053 40.9076 75.7451 40.8951C75.9051 40.8906 76.0972 40.8451 76.3215 40.7588C76.7301 40.5871 77.1047 40.3898 77.4452 40.1667C77.7856 39.9437 78.0848 39.6751 78.3427 39.361C78.6009 39.0603 78.8043 38.7077 78.9529 38.3033C79.1015 37.899 79.1819 37.4432 79.1942 36.936L79.1949 36.2557C79.1839 35.8692 79.1531 35.4899 79.1025 35.1178C79.0653 34.7454 79.0145 34.3667 78.9502 33.9817C78.9331 33.8488 78.916 33.7159 78.8989 33.583C78.8818 33.4501 78.8711 33.3103 78.867 33.1637C78.8651 33.0971 78.8634 33.0371 78.8619 32.9838C78.8603 32.9305 78.8653 32.8703 78.8767 32.8033C78.9095 32.5489 79.0038 32.3462 79.1596 32.195C79.315 32.0306 79.506 31.9451 79.7326 31.9387L79.7725 31.9376C79.9858 31.9316 80.1745 31.9996 80.3386 32.1417C80.5023 32.2704 80.6077 32.4609 80.6549 32.713C80.7386 33.3108 80.8222 33.9087 80.9059 34.5066C80.9892 35.0911 81.0394 35.6833 81.0564 36.283C81.0628 36.5096 81.0626 36.7364 81.0557 36.9633C81.0488 37.1903 81.0352 37.4174 81.015 37.6447C80.9665 38.2864 80.8099 38.8777 80.5452 39.4187C80.2804 39.9598 79.9209 40.4501 79.4665 40.8898C78.8952 41.4396 78.2744 41.8906 77.6042 42.2431C76.9339 42.5955 76.1789 42.7836 75.3393 42.8074L75.2793 42.8091ZM88.9933 42.521C88.7135 42.5289 88.4332 42.5235 88.1526 42.5048C87.8856 42.499 87.6114 42.4734 87.33 42.428C87.0216 42.3701 86.7985 42.263 86.6607 42.1068C86.5365 41.9636 86.4564 41.7258 86.4203 41.3933C86.2561 39.8374 86.112 38.2875 85.9882 36.7437C85.878 35.2129 85.8006 33.6611 85.7559 32.0884L85.7322 30.5485C85.7199 29.1749 85.6944 27.8084 85.6558 26.449C85.6302 25.0758 85.6308 23.6886 85.6577 22.2873C85.6715 21.8334 85.6857 21.3928 85.7002 20.9655C85.7277 20.5246 85.763 20.1234 85.8061 19.7621L85.8038 19.6821C85.7989 19.5088 85.7553 19.3833 85.6731 19.3056C85.6042 19.2276 85.4761 19.1778 85.2887 19.1565C84.9411 19.1263 84.6006 19.1159 84.2674 19.1253C84.1475 19.1287 84.0209 19.1323 83.8876 19.1361C83.7676 19.1395 83.6479 19.1495 83.5283 19.1663C83.408 19.1563 83.2878 19.1531 83.1679 19.1564C83.0479 19.1598 82.9342 19.1497 82.8269 19.1261C82.6254 19.0784 82.4627 18.983 82.3385 18.8398C82.2144 18.6966 82.1495 18.525 82.1439 18.3251L82.1422 18.2651C82.1319 17.9052 82.3108 17.6267 82.6787 17.4296C82.85 17.358 83.029 17.3196 83.2156 17.3144L83.4561 17.3276C84.8292 17.302 86.1824 17.2771 87.5156 17.2527C88.8617 17.2146 90.2212 17.1761 91.594 17.1373L92.9534 17.0988C93.1933 17.092 93.4608 17.1178 93.7559 17.1761C93.9844 17.2364 94.1609 17.3448 94.2854 17.5013C94.4228 17.6441 94.4944 17.8155 94.5 18.0154L94.484 18.1559C94.4634 18.3699 94.3752 18.5525 94.2195 18.7036C94.0633 18.8414 93.8588 18.9206 93.606 18.9411L91.8467 18.9909C91.6867 18.9954 91.5603 19.0056 91.4674 19.0216C91.3874 19.0239 91.328 19.0456 91.2892 19.0867C91.2503 19.1278 91.2189 19.1954 91.1949 19.2894C91.1838 19.3698 91.1739 19.4901 91.1651 19.6504C91.0529 20.8674 90.9943 22.0896 90.9891 23.3169C90.9969 24.5305 91.018 25.7437 91.0524 26.9565L91.1455 30.2352C91.1454 30.7021 91.1455 31.1756 91.1458 31.6558C91.1591 32.1222 91.1723 32.5887 91.1856 33.0552C91.2034 33.6816 91.2278 34.3078 91.2589 34.9339C91.2897 35.5466 91.3406 36.1654 91.4117 36.7903C91.4835 37.4419 91.5285 38.0875 91.5467 38.7273C91.5652 39.3803 91.6371 40.0319 91.7623 40.6819C91.7767 40.7216 91.7845 40.7613 91.7857 40.8013C91.7872 40.8546 91.7885 40.9013 91.7896 40.9413L91.7804 41.3217C91.7484 41.6027 91.6613 41.8253 91.5193 41.9893C91.3905 42.153 91.1868 42.2589 90.908 42.3068C90.5897 42.3691 90.2709 42.4182 89.9518 42.4539C89.6327 42.4896 89.3132 42.512 88.9933 42.521ZM106.673 39.9799C106.806 39.9761 106.921 39.7728 107.016 39.3699C107.051 39.1955 107.079 39.0213 107.101 38.8473C107.123 38.6866 107.145 38.5126 107.166 38.3253C107.337 36.8265 107.448 35.3161 107.498 33.7941C107.561 32.2717 107.584 30.7171 107.566 29.1303L107.562 28.9903C107.514 27.3243 107.402 25.7269 107.225 24.1979C107.048 22.6557 106.825 21.1214 106.555 19.5951C106.539 19.5288 106.524 19.4692 106.509 19.4163C106.508 19.363 106.5 19.3032 106.484 19.2369C106.368 18.8801 106.229 18.7039 106.069 18.7084C106.003 18.7103 105.937 18.7522 105.873 18.8341C105.808 18.9026 105.751 19.0109 105.702 19.159C105.617 19.4682 105.553 19.7901 105.509 20.1249C105.465 20.4596 105.428 20.8007 105.398 21.1484C105.31 22.2847 105.256 23.4267 105.235 24.5744C105.214 25.7088 105.207 26.8628 105.214 28.0364C105.208 28.3033 105.209 28.5701 105.216 28.8366C105.224 29.1032 105.231 29.3697 105.239 29.6363C105.283 31.169 105.371 32.6404 105.504 34.0506C105.651 35.4603 105.831 36.8624 106.044 38.257C106.077 38.4828 106.11 38.6953 106.142 38.8945C106.188 39.1066 106.247 39.305 106.319 39.4897C106.449 39.8195 106.567 39.9829 106.673 39.9799ZM100.705 27.1035C100.718 26.1428 100.751 25.1948 100.805 24.2596C100.865 23.1107 100.979 21.9604 101.147 20.8085C101.326 19.6163 101.677 18.5726 102.198 17.6775C102.313 17.4742 102.435 17.3107 102.565 17.187C102.695 17.0632 102.852 16.9854 103.038 16.9535C103.304 16.9193 103.563 16.8853 103.816 16.8514C104.068 16.8176 104.328 16.7969 104.594 16.7894C104.901 16.7807 105.201 16.7989 105.496 16.8439C105.804 16.8752 106.106 16.9467 106.403 17.0584C106.78 17.1944 107.087 17.4325 107.323 17.7726C107.56 18.1127 107.745 18.5343 107.879 19.0374C108.179 20.2027 108.446 21.3756 108.679 22.5561C108.926 23.723 109.107 24.925 109.222 26.1622C109.26 26.5613 109.298 26.9604 109.336 27.3595C109.374 27.7453 109.398 28.1314 109.409 28.5179L109.421 28.9577C109.418 30.7052 109.353 32.4077 109.226 34.0653C109.1 35.7095 108.872 37.3366 108.545 38.9465C108.498 39.1746 108.45 39.3894 108.403 39.5908C108.356 39.8055 108.295 40.014 108.221 40.2162C107.927 41.1582 107.409 41.7131 106.667 41.8808C106.429 41.9409 106.19 41.981 105.95 42.0011C105.724 42.0209 105.491 42.0341 105.251 42.0409L103.991 42.0566C103.764 42.063 103.562 41.9953 103.385 41.8536C103.221 41.7249 103.063 41.5626 102.911 41.3668C102.648 41.0408 102.438 40.68 102.28 40.2843C102.135 39.8882 102.01 39.4716 101.904 39.0344C101.555 37.5237 101.278 36.0042 101.075 34.476C100.956 33.599 100.864 32.7013 100.798 31.7828C100.719 31.7984 100.639 31.8073 100.559 31.8096L100.319 31.8163C100.106 31.8224 99.8919 31.8084 99.6775 31.7745L99.7178 33.1939C99.75 34.3268 99.7956 35.4659 99.8548 36.6114C99.873 37.2511 99.9039 37.8705 99.9476 38.4695C99.9917 39.0818 100.023 39.7012 100.04 40.3276C100.049 40.6342 100.049 40.8809 100.041 41.0679C100.034 41.2682 100.012 41.4289 99.9751 41.55C99.9385 41.6711 99.8745 41.7662 99.7831 41.8355C99.6921 41.9181 99.5673 41.9883 99.4089 42.0462C99.2505 42.104 99.0915 42.1419 98.9319 42.1597C98.7724 42.1776 98.6126 42.1888 98.4527 42.1933L97.6924 42.1948C97.4784 42.1742 97.3225 42.0852 97.2247 41.9279C97.1268 41.7706 97.0658 41.4989 97.0415 41.1128C96.9936 40.3672 96.9519 39.6014 96.9162 38.8154C96.8525 37.51 96.7889 36.2113 96.7256 34.9192C96.6755 33.6268 96.632 32.3275 96.5949 31.0214L96.3519 22.4648C96.3459 21.7847 96.3333 21.1048 96.314 20.4251C96.2947 19.7454 96.3021 19.0649 96.3361 18.3836C96.343 18.1567 96.3577 17.9695 96.3802 17.8222C96.4027 17.6748 96.4326 17.5539 96.4699 17.4595C96.5206 17.3647 96.5853 17.2962 96.6641 17.2539C96.7559 17.198 96.8612 17.1483 96.98 17.1049C97.1788 17.0593 97.3711 17.0205 97.557 16.9885C97.7428 16.9566 97.929 16.938 98.1156 16.9327C98.3292 16.94 98.5096 16.9482 98.6565 16.9574C98.8031 16.9533 98.924 16.9832 99.0192 17.0472C99.1144 17.1112 99.1843 17.2226 99.2288 17.3814C99.2863 17.5265 99.319 17.739 99.3269 18.0189C99.336 18.3388 99.3379 18.6388 99.3325 18.9191C99.3267 19.186 99.3212 19.4596 99.3158 19.7399C99.3233 20.0065 99.3246 20.2865 99.3196 20.5801C99.3276 20.86 99.3365 21.1732 99.3463 21.5197C99.3823 22.319 99.4092 23.0319 99.427 23.6583C99.4448 24.2847 99.4689 24.8976 99.4992 25.497L99.5486 27.2363C99.8666 27.1606 100.206 27.1177 100.565 27.1075L100.705 27.1035ZM113.597 41.7847C113.05 41.8002 112.728 41.5025 112.631 40.8917C112.597 40.6526 112.571 40.4132 112.55 40.1737C112.53 39.9342 112.51 39.6946 112.49 39.4551C112.409 38.0035 112.314 36.5523 112.206 35.1014C112.098 33.6372 112.016 32.1723 111.962 30.7066C111.949 30.2801 111.924 29.854 111.885 29.4282C111.846 29.0025 111.821 28.5764 111.809 28.1499L111.564 18.1328C111.566 17.239 111.978 16.7405 112.803 16.6371C113.241 16.5714 113.673 16.5191 114.099 16.4804C114.537 16.428 114.977 16.3956 115.416 16.3831C115.536 16.3797 115.656 16.3763 115.776 16.3729C115.896 16.3695 116.023 16.3726 116.157 16.3822C116.584 16.3968 116.886 16.4816 117.064 16.6366C117.242 16.7916 117.37 17.0748 117.448 17.4861C117.8 19.0501 118.254 20.7179 118.811 22.4895C119.368 24.2478 119.959 26.0385 120.584 27.8615L120.733 28.1774C120.825 28.1081 120.876 28.0533 120.889 28.013C120.914 27.9589 120.932 27.8984 120.944 27.8313C121.316 25.9267 121.73 24.0676 122.186 22.254C122.654 20.44 123.099 18.72 123.52 17.0942C123.662 16.4632 123.98 16.1408 124.473 16.1268L124.593 16.1234C124.86 16.1559 125.084 16.2829 125.264 16.5046C125.443 16.7129 125.544 16.9835 125.567 17.3163L125.699 21.9545L125.714 23.2145C125.742 24.2008 125.784 25.18 125.838 26.1522C125.905 27.1107 125.979 28.0823 126.061 29.0671C126.158 30.1448 126.243 31.2761 126.317 32.4612C126.391 33.6462 126.463 34.778 126.534 35.8564C126.572 36.2688 126.603 36.6748 126.628 37.0742C126.667 37.4866 126.705 37.8991 126.743 38.3115C126.779 38.6173 126.814 38.9164 126.849 39.2088C126.884 39.5146 126.946 39.8197 127.035 40.1239L127.082 40.3827C127.089 40.6093 127.014 40.8115 126.859 40.9893C126.718 41.18 126.535 41.3052 126.31 41.365C126.257 41.3798 126.184 41.3885 126.09 41.3912C125.904 41.3964 125.729 41.3347 125.565 41.206C125.402 41.0905 125.277 40.9207 125.19 40.6964C125.133 40.5513 125.089 40.4058 125.058 40.2599C125.041 40.127 125.024 39.9875 125.006 39.8412C124.787 37.2864 124.579 34.6846 124.384 32.0357C124.202 29.3864 124.041 26.7766 123.902 24.2062C123.887 24.1399 123.872 24.0803 123.857 24.0274C123.842 23.9745 123.82 23.9151 123.792 23.8492C123.629 24.2273 123.506 24.6109 123.424 25C123.341 25.3759 123.259 25.7583 123.177 26.1475C122.988 27.0332 122.807 27.912 122.631 28.784C122.469 29.6422 122.307 30.5138 122.145 31.3988C122.109 31.5465 122.074 31.7009 122.038 31.862C122.003 32.023 121.954 32.1778 121.891 32.3263C121.803 32.5022 121.687 32.6322 121.542 32.7164C121.411 32.8001 121.266 32.8442 121.106 32.8487C120.799 32.8574 120.542 32.7246 120.334 32.4504C120.251 32.3461 120.188 32.2345 120.145 32.1156C120.101 31.9835 120.057 31.8513 120.013 31.7192C119.607 30.5436 119.187 29.3816 118.754 28.2334C118.321 27.0719 117.927 25.8892 117.573 24.6854C117.544 24.6195 117.523 24.5601 117.508 24.5072C117.506 24.4406 117.471 24.3882 117.403 24.3501L117.363 24.3512C117.323 24.3524 117.304 24.3796 117.306 24.4329C117.306 24.9264 117.307 25.4199 117.308 25.9134C117.321 26.3932 117.335 26.8797 117.349 27.3728C117.371 28.1325 117.418 28.8781 117.493 29.6097C117.567 30.3412 117.615 31.0868 117.636 31.8465C117.702 34.1789 117.828 36.4896 118.013 38.7786C118.033 39.0048 118.046 39.2379 118.053 39.4778C118.073 39.7173 118.1 39.9566 118.133 40.1958L118.16 40.4151C118.169 40.7617 118.083 41.0242 117.902 41.2027C117.733 41.3809 117.463 41.5019 117.092 41.5658C116.521 41.6486 115.948 41.6915 115.375 41.6944C114.802 41.7106 114.229 41.7402 113.657 41.783L113.597 41.7847ZM134.793 26.7591C134.619 26.7641 134.515 26.847 134.48 27.0081C134.444 27.1558 134.432 27.4363 134.444 27.8495C134.458 28.8228 134.478 29.7693 134.504 30.6889C134.53 31.5952 134.552 32.3682 134.57 33.0079C134.576 33.7014 134.585 34.4814 134.596 35.3481C134.608 36.2282 134.62 37.1282 134.633 38.0482L134.637 38.9084C134.645 39.1616 134.722 39.2862 134.868 39.282L134.968 39.2592C135.033 39.2307 135.099 39.2021 135.165 39.1736C135.245 39.158 135.318 39.1359 135.383 39.1074C135.711 38.898 135.99 38.6167 136.22 38.2634C136.45 37.9234 136.618 37.4718 136.722 36.9086C136.988 35.4872 137.12 34.0229 137.117 32.5157C137.114 32.4224 137.112 32.3224 137.109 32.2158C137.118 32.0955 137.122 31.9687 137.118 31.8354C137.116 31.7688 137.114 31.7021 137.112 31.6355C137.11 31.5689 137.102 31.5024 137.086 31.4361C137.068 31.2499 137.04 30.9839 137.004 30.6382C136.98 30.2787 136.936 29.9064 136.872 29.5214C136.799 28.8432 136.643 28.2741 136.403 27.814C136.163 27.3539 135.808 27.0439 135.336 26.8838C135.309 26.8712 135.282 26.8587 135.255 26.8461C135.242 26.8331 135.221 26.827 135.195 26.8278C135.101 26.8038 135.02 26.7861 134.953 26.7746C134.886 26.7632 134.833 26.758 134.793 26.7591ZM128.746 16.0459L128.866 16.0425C129.253 16.0449 129.64 16.0473 130.027 16.0497C130.413 16.0387 130.8 16.0411 131.188 16.0568C131.281 16.0675 131.375 16.0782 131.469 16.0889C131.562 16.0863 131.656 16.097 131.75 16.121C132.233 16.2407 132.482 16.5604 132.497 17.0802L132.468 18.8817C132.461 19.0954 132.46 19.3088 132.466 19.5221C132.472 19.7353 132.478 19.9486 132.485 20.1618C132.498 20.6416 132.512 21.1214 132.525 21.6012C132.552 22.0806 132.572 22.5536 132.586 23.0201L132.631 24.5994C132.636 24.7994 132.666 24.9186 132.721 24.957C132.789 24.9951 132.942 25.0108 133.182 25.004C133.849 24.9985 134.439 25.1085 134.952 25.3341C135.465 25.5463 135.9 25.8341 136.257 26.1975C136.628 26.5605 136.926 26.9789 137.153 27.4526C137.38 27.9131 137.54 28.3887 137.634 28.8796C137.698 29.2646 137.762 29.643 137.826 30.0146C137.89 30.3863 137.933 30.7052 137.954 30.9714C137.99 31.3172 138.011 31.5967 138.017 31.81C138.023 32.0099 138.027 32.1631 138.03 32.2698L138.036 32.4497C138.016 34.1176 137.796 35.7645 137.376 37.3903C137.074 38.5193 136.579 39.387 135.889 39.9934C135.212 40.5995 134.363 40.9837 133.34 41.146L132.622 41.2063L131.182 41.2471L129.844 41.305L129.163 41.3042C128.656 41.2786 128.305 41.1551 128.112 40.9338C127.92 40.7258 127.809 40.3421 127.78 39.7827L127.77 39.4629C127.776 38.7291 127.775 37.9955 127.768 37.2621C127.747 36.529 127.74 35.7956 127.746 35.0618C127.74 34.395 127.728 33.7351 127.709 33.082C127.704 32.4153 127.691 31.742 127.672 31.0623L127.591 28.2034C127.567 27.3638 127.542 26.4908 127.516 25.5845C127.49 24.6649 127.464 23.7452 127.438 22.8256C127.425 21.9056 127.413 20.9923 127.4 20.0856C127.388 19.1656 127.389 18.2785 127.405 17.4244C127.397 16.6777 127.718 16.2351 128.368 16.0966C128.434 16.0814 128.5 16.0729 128.567 16.071C128.633 16.0558 128.693 16.0474 128.746 16.0459ZM139.979 40.9981C139.899 41.0004 139.825 40.9825 139.757 40.9444C139.703 40.9192 139.642 40.8876 139.575 40.8495C139.331 40.7097 139.194 40.3601 139.165 39.8007C139.055 37.8297 138.953 35.8784 138.858 33.947C138.763 32.0023 138.688 30.0436 138.632 28.0711C138.611 27.338 138.59 26.5983 138.569 25.852C138.561 25.1052 138.552 24.3252 138.542 23.5118C138.539 22.4715 138.523 21.4448 138.495 20.4319C138.466 19.419 138.443 18.3925 138.427 17.3526C138.41 16.7528 138.445 16.3383 138.532 16.1091C138.632 15.8795 138.816 15.761 139.082 15.7534L140.284 15.8194C140.486 15.8537 140.622 15.9566 140.693 16.128C140.778 16.299 140.827 16.5977 140.839 17.0242L140.854 17.564C140.87 18.1238 140.886 18.6769 140.901 19.2233C140.93 19.7694 140.952 20.3157 140.968 20.8621C140.972 21.0087 140.972 21.2488 140.968 21.5824C140.978 21.9156 140.982 22.3023 140.981 22.7425C140.994 23.1823 141 23.649 141.001 24.1425C141.002 24.636 141.009 25.116 141.022 25.5825C141.035 26.0489 141.041 26.4756 141.038 26.8625C141.049 27.249 141.058 27.5556 141.064 27.7821C141.08 28.3286 141.095 28.8684 141.11 29.4015C141.139 29.9342 141.167 30.467 141.196 30.9997L141.276 33.8186C141.296 34.525 141.329 35.2243 141.375 35.9166C141.435 36.6085 141.488 37.314 141.535 38.0329C141.559 38.3924 141.576 38.7521 141.586 39.1119L141.603 39.7117C141.597 40.4321 141.428 40.8237 141.096 40.8865C140.91 40.9184 140.724 40.9437 140.538 40.9623C140.352 40.9809 140.166 40.9929 139.979 40.9981Z" fill="white"/>
</svg>
