<svg width="115" height="121" viewBox="0 0 115 121" fill="none" xmlns="http://www.w3.org/2000/svg">
<path d="M33.8801 103.422L28.1799 101.908L11.3673 89.2259C9.94927 86.3411 8.23171 79.0733 12.7059 73.0797C18.2986 65.5879 24.2618 56.0565 31.6131 48.2482C38.9645 40.4398 46.3842 31.904 48.9126 29.1063C51.4409 26.3086 61.1914 14.5424 66.9995 13.0038C71.6459 11.7729 77.8905 12.3589 80.432 12.8057C80.4967 13.3859 81.1496 14.6837 83.2441 15.234C85.3387 15.7842 87.9146 17.3444 88.9407 18.0557C89.1373 18.9245 89.6627 20.7763 90.1921 21.2334C90.8538 21.8048 88.6239 24.5981 90.6487 23.9871C92.2686 23.4983 94.4381 24.8998 95.3204 25.6616C95.216 27.4065 94.6145 31.3962 93.0435 33.3952C91.4725 35.3942 90.5666 37.548 90.3101 38.3751L91.6336 39.5179C92.6526 38.8249 94.597 37.6726 94.2229 38.608C93.7553 39.7771 92.1298 39.9464 91.9607 41.1111C91.7916 42.2759 91.8527 44.1637 92.9819 43.5659C93.5321 43.5578 93.9241 43.4235 94.1985 43.2365C94.3833 42.8759 94.6038 42.5036 94.7766 42.2319C94.7759 42.5004 94.6387 42.9363 94.1985 43.2365C93.8847 43.8488 93.6739 44.4274 93.9745 44.423C94.4521 44.4159 95.7008 43.8164 96.2654 43.5175L97.9234 43.6383L95.7942 45.9942C94.6232 47.29 95.8553 47.882 96.6177 48.0161C96.4175 48.4549 95.7646 49.4815 94.7547 50.0775C93.4923 50.8225 94.3878 50.8093 92.9564 52.7191C91.8112 54.2469 87.0676 59.3437 84.839 61.701C84.7958 61.3143 84.47 60.8057 83.5119 61.8659C82.3142 63.1911 82.1812 63.3383 81.0482 65.2437C79.9153 67.1491 69.3378 78.2013 64.8134 83.2076L58.2928 90.4226C56.7594 93.2056 52.8878 99.597 49.6681 102.899C45.6436 107.026 40.6625 109.279 40.4971 109.136C40.3648 109.022 38.7397 109.017 37.9437 109.028C38.5742 108.874 39.67 108.422 39.0082 107.85C38.3465 107.279 35.7068 106.398 34.4697 106.029L33.8801 103.422Z" fill="#FDA3C4"/>
<path d="M45.8377 108.767C45.4119 109.238 46.0559 109.829 46.4311 110.065L45.7315 111.165C45.8616 112.108 46.1684 113.876 46.3554 113.408C46.5425 112.94 46.7906 111.949 46.8914 111.511C46.8482 111.125 47.6136 109.409 51.0203 105.639C55.2786 100.927 54.5485 101.083 54.9477 100.642C55.347 100.2 46.37 108.178 45.8377 108.767Z" fill="#FDA3C4"/>
<path d="M50.4484 84.4601C50.1012 84.8824 49.6701 84.9343 49.1552 84.6159C48.9629 84.4928 48.7697 84.3604 48.5756 84.2186C48.39 84.0665 48.2001 83.9196 48.006 83.7778L40.3105 77.9901C40.0563 77.8164 39.8115 77.6417 39.5762 77.4661C39.3305 77.2821 39.0993 77.1013 38.8828 76.9239C38.5424 76.645 38.2166 76.3695 37.9053 76.0972C37.5941 75.825 37.2828 75.5527 36.9715 75.2805C36.2065 74.6364 35.4371 73.9976 34.6636 73.3638C33.8985 72.7198 33.1377 72.0706 32.3811 71.4162C32.1729 71.2285 31.9742 71.0398 31.7849 70.8502C31.5852 70.6522 31.3856 70.4541 31.1859 70.2561C30.826 69.875 30.6373 69.5481 30.62 69.2753C30.6111 68.9922 30.7666 68.6456 31.0865 68.2355L32.9154 66.0108C33.4187 65.4406 33.8921 65.3372 34.3356 65.7006C34.4697 65.8104 34.5817 65.9366 34.6716 66.0792C34.841 66.356 35.0402 66.5967 35.2689 66.8013C35.4874 66.9975 35.7152 67.1928 35.9524 67.3871C36.8121 68.126 37.6616 68.8564 38.5007 69.5783C39.3295 70.2918 40.1307 70.9654 40.9042 71.5992C41.884 72.4019 42.8817 73.1934 43.8973 73.9737C44.2358 74.2338 44.4787 74.3897 44.626 74.4415C44.7818 74.4829 44.9444 74.4007 45.1137 74.1947C45.1645 74.1329 45.2196 74.0659 45.2788 73.9938C45.3363 73.903 45.4022 73.8018 45.4765 73.6904C45.6337 73.4572 45.7961 73.2282 45.9636 73.0035C46.1311 72.7788 46.3037 72.5582 46.4815 72.342C46.5493 72.2596 46.6086 72.1875 46.6594 72.1257C46.7186 72.0536 46.7727 71.9772 46.8217 71.8967C46.9432 71.686 47.0359 71.5206 47.1 71.4007C47.1622 71.2621 47.1929 71.1408 47.1921 71.0367C47.1811 70.9242 47.1385 70.829 47.0645 70.7511C46.9886 70.6545 46.8733 70.5428 46.7186 70.416L45.5919 69.5189C45.0453 69.071 44.5226 68.6256 44.0239 68.1825C43.5148 67.7309 43.046 67.3038 42.6176 66.9011C42.2098 66.5153 41.7894 66.145 41.3562 65.7901C40.9211 65.4164 40.4819 65.0479 40.0384 64.6846L37.9653 62.9862C37.8828 62.9186 37.7918 62.8613 37.6923 62.8143C37.6014 62.757 37.5104 62.6997 37.4194 62.6424L37.2365 62.5184C37.0921 62.4001 36.9731 62.2509 36.8796 62.0708C36.6887 61.6731 36.7203 61.3198 36.9743 61.0108L37.0124 60.9644C37.3209 60.6311 37.6844 60.567 38.1028 60.7719C38.2332 60.8442 38.3551 60.9269 38.4685 61.0198C38.5905 61.1025 38.7082 61.1903 38.8216 61.2832C40.1315 62.3563 41.4132 63.4323 42.6667 64.5109C43.9184 65.5709 45.1222 66.6261 46.2781 67.6765L47.0389 68.3257C47.4102 68.6299 47.7839 68.9102 48.16 69.1666C48.251 69.2239 48.3326 69.2821 48.4048 69.3413C48.477 69.4004 48.5609 69.4347 48.6567 69.4442C48.9458 69.4915 49.1832 69.5912 49.3688 69.7433C49.5235 69.87 49.6444 70.038 49.7313 70.2471C49.7697 70.3475 49.8404 70.4399 49.9435 70.5244C50.0157 70.5835 50.0922 70.6375 50.1728 70.6864C50.2432 70.7268 50.3187 70.7714 50.3994 70.8203L56.5515 74.8005C56.6219 74.8409 56.688 74.8864 56.7499 74.9371C56.8202 74.9775 56.8863 75.0231 56.9482 75.0738C57.1375 75.2634 57.2527 75.4697 57.2936 75.6929C57.343 75.9057 57.3061 76.1082 57.1828 76.3001L57.1066 76.3928C56.9626 76.5679 56.784 76.6802 56.5708 76.7296C56.3661 76.7687 56.1478 76.7192 55.9162 76.5811C55.5644 76.3791 55.2117 76.1677 54.8581 75.9469C54.5148 75.7346 54.1706 75.513 53.8255 75.2819C52.9842 74.7306 52.2184 74.2238 51.5282 73.7617C50.8379 73.2997 50.1176 72.8216 49.3673 72.3275C49.1854 72.2129 49.0559 72.15 48.9789 72.1386C48.9104 72.117 48.8423 72.1473 48.7746 72.2297L48.5515 72.5641C48.2371 73.0304 47.9124 73.4884 47.5774 73.9378C47.2509 74.377 46.9201 74.8214 46.5851 75.2708C46.443 75.4647 46.3662 75.6 46.3548 75.6769C46.3331 75.7453 46.3945 75.8386 46.5389 75.9569L51.7574 79.8445L52.5 80.4529C52.9527 80.91 52.9971 81.36 52.633 81.8029C52.4824 82.007 52.3309 82.2018 52.1785 82.3872C52.0261 82.5725 51.8737 82.7579 51.7212 82.9433L50.4484 84.4601ZM64.1388 67.839C63.9338 68.0675 63.7186 68.1928 63.4932 68.215C63.2781 68.2456 63.0674 68.1764 62.8612 68.0074L62.6545 67.7864C62.513 67.6016 62.3546 67.4373 62.1793 67.2937C62.0124 67.1397 61.8498 66.9806 61.6914 66.8164C61.4917 66.6183 61.195 66.3494 60.8012 66.0095C60.4159 65.6594 59.9851 65.2806 59.5089 64.8732C59.0514 64.4639 58.5699 64.0522 58.0645 63.6381C57.5573 63.2053 57.0871 62.8115 56.6539 62.4566C56.2189 62.083 55.8415 61.7652 55.5218 61.5032C55.2105 61.231 55.0085 61.0568 54.9156 60.9808C54.4412 60.5921 53.9367 60.1874 53.4023 59.7668C52.8575 59.3377 52.3066 58.895 51.7496 58.4387L51.3474 58.1091C51.2855 58.0584 51.2325 58.0495 51.1883 58.0822C51.1872 58.1675 51.2092 58.2458 51.2541 58.3171C51.2972 58.3696 51.3412 58.4316 51.3862 58.5029C51.9697 59.3257 52.5533 60.1485 53.1369 60.9714C53.7204 61.7942 54.2955 62.6273 54.8622 63.4708C55.6171 64.5891 56.3837 65.6826 57.1622 66.7513C57.9406 67.82 58.6167 68.9082 59.1904 70.016C59.343 70.3133 59.4946 70.6013 59.6453 70.8799C59.796 71.1585 59.9331 71.4431 60.0565 71.7339C60.2614 72.1775 60.2326 72.559 59.9701 72.8783L59.7486 73.0846C59.2917 73.4515 58.7978 73.4433 58.2671 73.0602C58.2052 73.0095 58.1433 72.9588 58.0814 72.9081C58.028 72.8471 57.9746 72.7861 57.9212 72.7251C56.8168 71.7169 55.7003 70.6815 54.5716 69.6189C53.4411 68.5376 52.3003 67.4478 51.1491 66.3496C50.1236 65.3715 49.0872 64.4276 48.0399 63.5179C46.9824 62.5998 45.907 61.6928 44.8137 60.7971C44.3908 60.4507 43.9731 60.1085 43.5606 59.7705C43.148 59.4325 42.7467 59.1123 42.3566 58.81L40.9825 57.71C40.7846 57.5307 40.6756 57.338 40.6553 57.1317C40.6331 56.9067 40.6879 56.6931 40.8197 56.4908L40.8451 56.4599C40.9891 56.2848 41.1634 56.1777 41.3682 56.1386C41.5729 56.0995 41.7902 56.1396 42.02 56.259C42.1401 56.3229 42.2517 56.3971 42.3549 56.4816C42.458 56.5661 42.5654 56.6454 42.677 56.7196C42.9621 56.9187 43.2593 57.145 43.5687 57.3985C43.8763 57.6333 44.1848 57.8774 44.4942 58.1309L47.2663 60.4278C48.4524 61.3996 49.5985 62.3989 50.7047 63.4258C51.8109 64.4528 52.9181 65.4891 54.0261 66.5348C54.1536 66.6737 54.2904 66.8116 54.4367 66.9487C54.5726 67.0773 54.7179 67.205 54.8726 67.3317C54.9654 67.4078 55.0677 67.4829 55.1793 67.5571C55.2806 67.6228 55.3912 67.6877 55.5113 67.7516C55.4542 67.6531 55.4022 67.5588 55.3555 67.4687C55.3087 67.3787 55.2525 67.2896 55.1869 67.2014C54.7326 66.5362 54.2793 65.8804 53.8269 65.2339C53.3829 64.5772 52.9296 63.9214 52.4669 63.2665C51.2323 61.5139 50.009 59.7791 48.7969 58.0621C47.583 56.3264 46.2689 54.681 44.8547 53.1259C44.6429 52.9007 44.5268 52.685 44.5065 52.4787C44.4947 52.2622 44.5843 52.0167 44.7753 51.7423C45.0003 51.4267 45.2261 51.1205 45.4529 50.8237C45.6797 50.5268 45.9158 50.2291 46.1614 49.9304C46.517 49.4978 46.8797 49.0882 47.2493 48.7016C47.4731 48.4713 47.7123 48.3484 47.9668 48.3328C48.2297 48.3069 48.4798 48.3911 48.717 48.5854L49.0728 48.877C49.3307 49.0882 49.5928 49.2943 49.8591 49.4953C50.1151 49.6878 50.372 49.8896 50.6299 50.1009L50.9393 50.3544C51.3865 50.7552 51.8576 51.1584 52.3527 51.564C52.8477 51.9696 53.348 52.3794 53.8533 52.7935C54.4103 53.2498 54.9621 53.7019 55.5087 54.1497C56.0535 54.5788 56.6128 55.0112 57.1867 55.4469L57.9266 56.0272L58.1741 56.23C58.3494 56.3736 58.5876 56.5773 58.8885 56.8411C59.1876 57.0862 59.5186 57.3659 59.8814 57.6804C60.2443 57.9949 60.6329 58.3306 61.0473 58.6873C61.4514 59.0356 61.8503 59.3797 62.2441 59.7195C62.636 60.0406 63.0031 60.35 63.3453 60.6476C63.6978 60.9536 63.9978 61.208 64.2454 61.4108C64.5651 61.6728 64.867 61.9459 65.151 62.2303C65.4453 62.5232 65.7439 62.8109 66.0467 63.0934C66.2323 63.2455 66.3926 63.4285 66.5274 63.6424C66.8262 64.0768 66.8105 64.4948 66.4803 64.8965C66.0926 65.3891 65.7049 65.8816 65.3173 66.3741C64.9381 66.8563 64.5453 67.3446 64.1388 67.839ZM72.1059 58.1797C71.945 58.3754 71.7841 58.5711 71.6232 58.7668C71.4708 58.9522 71.2996 59.1394 71.1096 59.3285C70.8858 59.5588 70.617 59.7178 70.3032 59.8055C69.9998 59.9016 69.6884 59.9654 69.3692 59.9969C68.4912 60.036 67.6618 59.9426 66.881 59.7166C66.1002 59.4905 65.3426 59.1629 64.6082 58.7335C64.4056 58.602 64.203 58.4705 64.0004 58.339C63.8063 58.1972 63.6164 58.0503 63.4308 57.8982C63.0698 57.6024 62.7266 57.2955 62.4014 56.9773C62.0743 56.6403 61.7514 56.2982 61.4327 55.951C61.057 55.5052 61.0215 55.097 61.3263 54.7262L61.3771 54.6644C61.5483 54.4772 61.7518 54.3767 61.9875 54.3629C62.2232 54.3492 62.4493 54.431 62.6659 54.6085L62.7897 54.7099C62.934 54.8282 63.07 54.9568 63.1974 55.0957C63.3334 55.2243 63.4651 55.358 63.5925 55.4969C63.7509 55.6612 63.9042 55.8212 64.0522 55.977C64.2088 56.1225 64.3748 56.267 64.5501 56.4107C65.5712 57.2472 66.749 57.7986 68.0837 58.0647C68.5577 58.16 69.0094 58.125 69.4388 57.9596C69.8681 57.7943 70.2183 57.5468 70.4892 57.2173C70.6586 57.0113 70.7928 56.7851 70.8918 56.5387C70.9908 56.2923 71.04 56.0224 71.0396 55.729C71.0399 55.5397 71.0027 55.354 70.9279 55.1721C70.8634 54.9986 70.7852 54.8312 70.6935 54.6698C70.5015 54.3574 70.2936 54.075 70.0696 53.8226C69.8456 53.5701 69.5995 53.334 69.3314 53.1143C69.0013 52.8439 68.6511 52.6087 68.2805 52.4085C67.9184 52.1981 67.5343 52.004 67.128 51.8263C67.0389 51.7877 66.9516 51.7679 66.8662 51.7669C66.7704 51.7574 66.6747 51.7479 66.5789 51.7384C66.3001 51.6996 66.1015 51.7523 65.9829 51.8965C65.9152 51.9789 65.8699 52.0969 65.8471 52.2506C65.8442 52.3172 65.8319 52.3846 65.8102 52.453C65.7866 52.5027 65.764 52.5617 65.7423 52.6301C65.6782 52.75 65.625 52.8357 65.5827 52.8872C65.3625 53.155 65.0985 53.2662 64.7906 53.2208C64.5888 53.1933 64.4209 53.1247 64.2868 53.0148C64.1114 52.8712 63.9963 52.6648 63.9413 52.3957C63.9284 52.2644 63.9291 52.1271 63.9434 51.9837C63.9875 51.4682 63.9395 50.9808 63.7994 50.5213C63.6594 50.0618 63.4545 49.6181 63.1848 49.1904C62.9928 48.878 62.7057 48.5134 62.3233 48.0967C61.9494 47.6697 61.5552 47.2779 61.1408 46.9211L59.8075 45.803C59.4672 45.5241 59.1226 45.2504 58.7738 44.9819C58.4146 44.7049 58.047 44.4382 57.6709 44.1818C57.3446 43.9489 57.0022 43.7459 56.6438 43.573C56.2939 43.3897 55.9313 43.2219 55.556 43.0696C54.9649 42.8438 54.5381 42.8906 54.2756 43.2099C54.1486 43.3644 54.0383 43.5929 53.9449 43.8956C53.7701 44.5281 53.7611 45.1584 53.9178 45.7867C54.1025 46.5068 54.3765 47.1708 54.7397 47.7787C55.103 48.3866 55.5429 48.9538 56.0593 49.4803L56.3097 49.7112C56.454 49.8295 56.6121 49.9418 56.7837 50.0479C56.9638 50.1438 57.143 50.2302 57.3213 50.3073C57.4395 50.3525 57.545 50.4131 57.6379 50.4891C57.9473 50.7426 58.0308 51.061 57.8884 51.4442C57.8516 51.5519 57.7993 51.647 57.7315 51.7294C57.4775 52.0384 57.1365 52.1382 56.7086 52.0289C56.1708 51.8641 55.6751 51.5959 55.2213 51.2241C55.1491 51.1649 55.082 51.11 55.0201 51.0593C54.9479 51.0001 54.88 50.9359 54.8163 50.8664C54.2276 50.2807 53.7198 49.6492 53.2928 48.9719C52.8657 48.2945 52.5229 47.5568 52.2641 46.7588C51.967 45.8604 51.8676 44.9947 51.9657 44.1615C52.0535 43.3199 52.3815 42.5114 52.95 41.736L53.8898 40.5928L54.8452 39.4622C55.2723 38.9847 55.7366 38.6929 56.2381 38.5867C56.7294 38.4721 57.2626 38.4953 57.8379 38.6563C58.7745 38.9238 59.6395 39.3308 60.4329 39.8774C60.8381 40.1404 61.2348 40.4137 61.623 40.6973C62.0094 40.9622 62.3573 41.2213 62.6667 41.4748L62.9916 41.741C63.7482 42.3953 64.4336 42.9999 65.0476 43.5547C65.6702 44.0992 66.1654 44.6515 66.5335 45.2116C66.7236 45.5052 66.9043 45.7998 67.0757 46.0953C67.2555 46.3805 67.3995 46.6881 67.5079 47.0182C67.5425 47.0811 67.572 47.1397 67.5963 47.1941C67.6103 47.24 67.638 47.2799 67.6792 47.3137C67.7411 47.3644 67.8284 47.3842 67.9411 47.3731C68.4294 47.325 68.8814 47.342 69.2973 47.4241C69.7215 47.4959 70.1274 47.6216 70.5149 47.8012C70.9023 47.9807 71.2696 48.1954 71.6165 48.4452C71.9635 48.695 72.3072 48.9593 72.6475 49.2382L73.0188 49.5423C73.8233 50.2014 74.4191 51.0515 74.806 52.0924C75.1163 52.9327 75.0755 53.7697 74.6835 54.6034C74.4649 55.0793 74.2093 55.5163 73.9166 55.9142C73.6324 56.3019 73.3294 56.6914 73.0076 57.0828L72.1059 58.1797Z" fill="white"/>
</svg>
