<svg width="208" height="61" viewBox="0 0 208 61" fill="none" xmlns="http://www.w3.org/2000/svg">
<path d="M8.02517 37.6954L3.38232 32.5822L1.53366 12.758C3.99437 10.0382 12.4153 4.56554 26.4131 4.43332C43.9104 4.26805 64.7914 3.20111 84.8509 4.16106C104.91 5.12101 135.516 5.69527 142.577 5.96073C149.637 6.22619 178.275 6.68572 187.448 10.1171C194.786 12.8622 201.419 17.8445 203.818 19.9926C203.059 20.3756 201.97 21.6104 203.685 23.4857C205.399 25.361 206.235 28.1773 206.438 29.351C205.421 29.9987 203.38 31.4584 203.355 32.116C203.324 32.9379 196.627 32.8919 199.932 34.0451C202.577 34.9676 203.154 37.3901 203.112 38.486C200.472 39.4156 194 41.2712 189.237 41.2568C184.474 41.2423 180.284 41.8119 178.785 42.0985L178.722 43.7425C180.941 44.1002 184.931 44.8812 183.134 45.1429C180.889 45.47 178.699 44.3588 176.817 44.9054C174.935 45.452 172.287 46.5871 174.501 47.0819C175.171 47.4863 175.835 47.7004 176.433 47.7965C177.174 47.7257 177.974 47.6749 178.573 47.6465C178.185 47.801 177.392 47.9506 176.433 47.7965C175.174 47.9165 174.088 48.0938 174.454 48.3148C175.036 48.6659 177.396 49.2485 178.503 49.4959L180.314 50.7986L174.368 50.5751C171.098 50.4521 171.719 51.7102 172.439 52.3546C171.567 52.459 169.305 52.566 167.237 52.159C164.651 51.6502 165.742 52.3086 161.275 52.3464C157.701 52.3767 144.674 51.7908 138.606 51.4941C139.112 51.2388 139.455 50.7029 136.78 50.6023C133.435 50.4766 133.064 50.4626 128.96 50.7199C124.857 50.9772 86.8422 49.507 74.2073 49.032L55.9981 48.3474C50.15 48.8135 36.3 49.6234 27.6847 49.1349C16.9157 48.5243 7.70373 46.1201 7.71157 45.9146C7.71784 45.7503 5.77927 44.5387 4.80921 43.9535C5.78711 44.3332 7.75077 44.8872 7.78213 44.0653C7.81349 43.2434 5.92301 40.7715 4.97385 39.6384L8.02517 37.6954Z" fill="#FDA3C4"/>
<path d="M14.639 49.6733C13.4498 49.6286 13.3689 50.4487 13.4771 50.8643L11.0538 50.979C9.85084 51.6197 7.66955 52.8684 8.5677 52.7375C9.46585 52.6067 11.1925 52.2189 11.9436 52.0413C12.4495 51.786 15.8398 51.3647 25.3531 51.7224C37.2448 52.1695 36.1457 51.7166 37.2605 51.7585C38.3754 51.8004 16.1255 49.7292 14.639 49.6733Z" fill="#FDA3C4"/>
<path d="M48.1823 23.2225C48.1295 23.049 48.0834 22.8755 48.0439 22.7021C47.8594 22.0215 47.7682 21.3146 47.7705 20.5812C47.7714 20.2879 47.7857 19.9946 47.8132 19.7014C47.8682 19.1682 47.9499 18.6418 48.0581 18.1221C48.1121 17.9222 48.166 17.7224 48.22 17.5226C48.1404 17.4023 48.0541 17.2821 47.9611 17.1618C47.9345 17.135 47.9146 17.115 47.9013 17.1016C47.8747 17.0882 47.8481 17.0681 47.8215 17.0414C47.6485 16.9208 47.4087 16.8601 47.102 16.8592C46.982 16.8588 46.862 16.8718 46.7419 16.8981C46.6218 16.9244 46.5217 16.9575 46.4416 16.9972C46.2546 17.1033 46.1143 17.2163 46.0206 17.336C45.9269 17.4424 45.8399 17.5488 45.7596 17.6552C45.5317 18.0278 45.3772 18.4074 45.296 18.7938C45.2015 19.1669 45.127 19.5466 45.0725 19.9331C45.0589 20.0264 45.0519 20.1198 45.0516 20.2131C45.0514 20.2931 45.0511 20.3797 45.0508 20.4731C45.0493 20.9797 45.1344 21.4667 45.3063 21.9339C45.4649 22.401 45.7034 22.8684 46.022 23.336C46.075 23.4162 46.1348 23.4897 46.2013 23.5565C46.2677 23.6234 46.3609 23.6904 46.4807 23.7574C46.6803 23.8646 46.8868 23.9186 47.1002 23.9192C47.3402 23.92 47.547 23.8539 47.7208 23.7211C47.8009 23.668 47.8678 23.6149 47.9213 23.5617C47.9614 23.5085 48.0083 23.4486 48.0618 23.3821C48.102 23.3289 48.1422 23.2757 48.1823 23.2225ZM52.8207 17.3163C52.8472 17.3697 52.8737 17.4232 52.9002 17.4766C53.1252 18.0106 53.2835 18.5511 53.3751 19.098C53.4146 19.2715 53.4474 19.4516 53.4735 19.6383C53.4996 19.8117 53.5124 19.9851 53.5118 20.1584L53.5112 20.3584C53.4555 21.1316 53.3265 21.8845 53.1242 22.6173C53.0567 22.8837 52.9692 23.1501 52.8617 23.4165L52.9812 23.5768C53.0477 23.6437 53.1408 23.7107 53.2606 23.7777C53.4603 23.8849 53.6668 23.9389 53.8801 23.9395C54.1201 23.9403 54.327 23.8742 54.5007 23.7414C54.5809 23.6883 54.6411 23.6351 54.6812 23.5819C54.7347 23.5288 54.7883 23.4689 54.8418 23.4024C55.23 22.9102 55.5182 22.4111 55.7064 21.905C55.8947 21.3989 56.0096 20.8859 56.0512 20.366L56.0514 20.306C56.0531 19.7594 55.9347 19.2323 55.6963 18.725C55.4579 18.2042 55.1395 17.6899 54.7411 17.1821C54.7145 17.1553 54.6879 17.1353 54.6613 17.1218C54.648 17.1085 54.628 17.0884 54.6015 17.0617C54.4285 16.9411 54.1887 16.8804 53.882 16.8795C53.762 16.8792 53.642 16.8921 53.5219 16.9184C53.4018 16.9447 53.295 16.9778 53.2016 17.0175C53.0413 17.1103 52.9143 17.2099 52.8207 17.3163ZM51.6734 26.1129L51.6683 27.7529C51.6647 28.8996 51.6612 30.0396 51.6577 31.1729C51.6542 32.3062 51.6573 33.4463 51.6671 34.593C51.6784 35.233 51.6898 35.853 51.7013 36.4531C51.7128 37.0664 51.7175 37.6865 51.7156 38.3131C51.7146 38.6198 51.7072 38.8664 51.6933 39.0531C51.6926 39.2531 51.6721 39.413 51.6318 39.5329C51.6047 39.6528 51.5511 39.746 51.4709 39.8124C51.404 39.8922 51.3171 39.9586 51.2103 40.0116C51.0768 40.0645 50.9433 40.0975 50.81 40.1104C50.6899 40.1234 50.5766 40.1297 50.4699 40.1294L49.89 40.1077C49.7167 40.0805 49.597 39.9868 49.5308 39.8266C49.4647 39.6664 49.4255 39.3929 49.4134 39.0062C49.3757 38.2594 49.3581 37.4927 49.3605 36.7061C49.3512 35.3994 49.3353 34.0993 49.3126 32.8059C49.3033 31.5125 49.3007 30.2125 49.3047 28.9059L49.3134 26.1059L49.2134 26.1056C48.9467 26.1181 48.68 26.124 48.4133 26.1232L46.9934 26.0989C46.7534 26.0982 46.5401 26.0709 46.3536 26.017C46.1672 25.9498 45.9874 25.8692 45.8144 25.7754C45.5349 25.6279 45.322 25.4672 45.1759 25.2935C45.0165 25.1063 44.8837 24.9193 44.7776 24.7323C44.4197 24.0512 44.1552 23.3704 43.984 22.6899C43.8127 22.0094 43.7283 21.3025 43.7305 20.5691C43.7314 20.2758 43.7457 19.9825 43.7733 19.6893C43.8282 19.1561 43.9099 18.6363 44.0181 18.13C44.1264 17.6103 44.2946 17.0908 44.5229 16.5715C44.7779 16.0522 45.206 15.5935 45.8072 15.1953C45.9408 15.1157 46.081 15.0495 46.2278 14.9966C46.3746 14.9437 46.5547 14.9109 46.7681 14.8982C47.0615 14.8857 47.3549 14.8733 47.6482 14.8608C47.9283 14.8483 48.2216 14.8426 48.5283 14.8435C48.8616 14.8445 49.1949 14.8521 49.5282 14.8665C49.7681 14.8938 50.0014 14.9212 50.228 14.9486C50.2814 14.9354 50.3347 14.9222 50.3881 14.909C50.5349 14.8828 50.6882 14.8699 50.8482 14.8704C50.9682 14.8841 51.0682 14.8911 51.1482 14.8913C51.3348 14.8919 51.5148 14.8857 51.6882 14.8729C51.9683 14.8604 52.2616 14.8546 52.5683 14.8556C52.9016 14.8566 53.2349 14.8709 53.5682 14.8986C53.9014 14.9129 54.2347 14.9472 54.5678 15.0016C54.981 15.0695 55.3139 15.1838 55.5668 15.3445C55.8197 15.492 56.0124 15.6792 56.145 15.9063C56.4501 16.4405 56.7151 16.9747 56.9401 17.5087C57.1651 18.0293 57.3235 18.5632 57.4151 19.1101C57.4546 19.2836 57.4874 19.4637 57.5134 19.6504C57.5396 19.8238 57.5524 19.9972 57.5518 20.1705L57.5512 20.3705C57.4955 21.1437 57.3665 21.8966 57.1642 22.6294C56.9619 23.3621 56.653 24.0878 56.2374 24.8066C56.1838 24.8998 56.1235 24.9929 56.0566 25.0861C55.9896 25.1792 55.916 25.2723 55.8357 25.3654C55.4744 25.7777 54.8737 26.0159 54.0335 26.08C53.7667 26.1059 53.5 26.1251 53.2333 26.1376C52.98 26.1369 52.72 26.1361 52.4533 26.1353L51.6734 26.1129ZM69.5541 15.2264C69.6073 15.2533 69.6472 15.2867 69.6738 15.3268C69.8598 15.5407 69.9521 15.881 69.9506 16.3476L69.928 17.1876C69.9266 17.6542 69.9318 18.1142 69.9437 18.5676C69.969 19.021 69.9942 19.4811 70.0195 19.9478C70.0192 20.0412 70.0253 20.2012 70.038 20.4279C70.0374 20.6146 70.0366 20.8812 70.0355 21.2279C70.0478 21.5613 70.0531 21.9946 70.0515 22.528C70.0498 23.0613 70.0411 23.7146 70.0254 24.4879C70.023 25.2479 70.0136 26.1479 69.997 27.1878C69.9804 28.2278 69.9567 29.4277 69.9258 30.7876C69.9083 32.1342 69.8836 33.6608 69.8516 35.3674C69.8369 35.8074 69.8023 36.2406 69.7476 36.6671C69.6929 37.1069 69.6116 37.54 69.5036 37.9664C69.4361 38.2195 69.3355 38.4392 69.2015 38.6255C69.081 38.8118 68.9271 38.9847 68.7399 39.1441C68.3656 39.4496 67.9716 39.6885 67.5577 39.8606C67.1438 40.046 66.6968 40.138 66.2168 40.1366L66.0168 40.136C65.6169 40.1214 65.2169 40.1069 64.817 40.0924C64.4303 40.0912 64.037 40.0767 63.6371 40.0488C63.2372 40.021 62.8373 39.9731 62.4375 39.9052C62.0511 39.8374 61.6647 39.7296 61.2785 39.5818C60.4395 39.2592 59.7476 38.8172 59.2026 38.2555C58.671 37.7073 58.3333 36.9729 58.1895 36.0525C58.124 35.6656 58.0718 35.2855 58.033 34.912C58.0075 34.5386 57.9953 34.1652 57.9965 33.7919C57.9972 33.5652 58.0045 33.3453 58.0185 33.132C58.0325 32.9187 58.0599 32.6988 58.1006 32.4722C58.1548 32.1657 58.1891 31.8658 58.2034 31.5725C58.231 31.2659 58.2586 30.9593 58.2862 30.6528C58.2998 30.5728 58.3067 30.4928 58.307 30.4128C58.3072 30.3195 58.3208 30.2395 58.3477 30.1729C58.4151 29.9198 58.5291 29.7201 58.6896 29.574C58.85 29.4278 59.0436 29.355 59.2702 29.3557L59.3702 29.356C59.5968 29.3833 59.7832 29.4839 59.9293 29.6577C60.0888 29.8182 60.1681 30.0317 60.1673 30.2984L60.1671 30.3784C60.1394 30.7116 60.1117 31.0449 60.084 31.3781C60.0563 31.6981 60.0153 32.0246 59.9609 32.3578C59.9335 32.611 59.906 32.8643 59.8786 33.1175C59.8645 33.3575 59.8571 33.6041 59.8563 33.8575C59.8552 34.1908 59.8675 34.5242 59.8932 34.8576C59.9321 35.191 59.9844 35.5245 60.0501 35.8581C60.2077 36.6319 60.6126 37.1931 61.2649 37.5417C61.4645 37.649 61.6643 37.7362 61.8641 37.8035C62.0771 37.8841 62.2969 37.9515 62.5234 38.0055C62.6833 38.046 62.8366 38.0664 62.9832 38.0669C63.3432 38.0679 63.6369 37.9555 63.8643 37.7295C64.105 37.5169 64.2592 37.2173 64.3271 36.8309C64.3678 36.591 64.4019 36.3511 64.4293 36.1112C64.4567 35.8713 64.4775 35.6313 64.4915 35.3914C64.4964 33.818 64.508 32.2247 64.5264 30.6114C64.5285 29.9314 64.5307 29.2115 64.5331 28.4515C64.5354 27.6915 64.5445 26.9248 64.5602 26.1515L64.5612 25.8115C64.2678 25.8373 63.9811 25.8565 63.7011 25.869C63.3677 25.8813 63.0277 25.8869 62.681 25.8859C62.321 25.8848 61.961 25.8771 61.6011 25.8627C61.2411 25.8483 60.8878 25.8272 60.5413 25.7995C59.8747 25.7575 59.3417 25.6426 58.9423 25.4547C58.5562 25.2669 58.2703 25.046 58.0844 24.7921C57.9251 24.565 57.8124 24.3446 57.7464 24.1311C57.6938 23.9043 57.6545 23.6775 57.6285 23.4508L57.2963 20.9298C57.27 20.823 57.2572 20.6563 57.2579 20.4296C57.2586 20.203 57.2593 19.9763 57.26 19.7496C57.2606 19.563 57.2611 19.403 57.2615 19.2696C57.2619 19.123 57.2689 19.0297 57.2824 18.9897C57.3378 18.2965 57.4065 17.6701 57.4882 17.1103C57.5833 16.5373 57.6917 15.9776 57.8134 15.4313C57.8673 15.2448 57.9877 15.1185 58.1746 15.0524C58.3615 14.9729 58.675 14.9272 59.115 14.9152C59.4617 14.9029 59.8084 14.8972 60.1551 14.8983C60.5151 14.886 60.8685 14.8804 61.2151 14.8815L61.9751 14.8837C62.4417 14.9118 62.7615 14.9594 62.9347 15.0266C63.1211 15.0938 63.2141 15.2141 63.2136 15.3874L63.1931 15.5274C63.139 15.7939 63.0848 16.0604 63.0306 16.3269C62.9765 16.5934 62.929 16.8666 62.8881 17.1465C62.8337 17.493 62.786 17.8395 62.7449 18.1861C62.7038 18.5193 62.6628 18.8658 62.6217 19.2257L62.6212 19.3657C62.6209 19.459 62.6206 19.579 62.6201 19.7257C62.633 19.8724 62.6392 20.0191 62.6387 20.1657C62.6516 20.3125 62.6579 20.4525 62.6574 20.5858C62.6704 20.7192 62.6834 20.8259 62.6964 20.9059C62.7617 21.3461 62.8204 21.7863 62.8724 22.2265C62.9243 22.6666 62.983 23.1068 63.0483 23.547C63.0745 23.6804 63.1008 23.8071 63.1271 23.9272C63.1667 24.0473 63.2063 24.1675 63.246 24.2876C63.2592 24.3276 63.279 24.3743 63.3055 24.4278C63.3321 24.4678 63.3586 24.5079 63.3852 24.548C63.4648 24.6549 63.5712 24.7486 63.7043 24.829C63.8507 24.8961 64.0439 24.9433 64.2839 24.9707L64.5639 24.9715L64.574 21.6915C64.5772 20.6516 64.5801 19.7382 64.5825 18.9516C64.585 18.1516 64.5801 17.5649 64.568 17.1915L64.5697 16.6315C64.57 16.5248 64.5703 16.4315 64.5706 16.3515C64.5709 16.2582 64.5778 16.1649 64.5914 16.0716C64.6739 15.2852 65.0885 14.8864 65.8352 14.8753L66.8352 14.8583C67.4352 14.8601 68.0351 14.8819 68.635 14.9237L68.795 14.9242C69.2216 14.9521 69.4746 15.0529 69.5541 15.2264ZM77.7406 40.2111C77.4606 40.2102 77.1806 40.196 76.9007 40.1685C76.6341 40.1544 76.3608 40.1203 76.081 40.0661C75.7746 39.9985 75.5549 39.8845 75.4221 39.7241C75.3025 39.5771 75.2299 39.3369 75.2043 39.0035C75.0891 37.4431 74.994 35.8895 74.9188 34.3426C74.8568 32.8091 74.8283 31.2556 74.8332 29.6823L74.858 28.1424C74.8889 26.7691 74.9065 25.4025 74.9107 24.0425C74.9283 22.6692 74.9726 21.2827 75.0436 19.8829C75.0717 19.4296 75.0997 18.9897 75.1277 18.5631C75.169 18.1233 75.2169 17.7234 75.2714 17.3636L75.2716 17.2836C75.2722 17.1102 75.2326 16.9834 75.1528 16.9032C75.0864 16.823 74.9599 16.7693 74.7733 16.7421C74.4268 16.701 74.0868 16.68 73.7535 16.679C73.6335 16.6787 73.5068 16.6783 73.3735 16.6779C73.2535 16.6775 73.1335 16.6838 73.0135 16.6968C72.8935 16.6831 72.7735 16.6761 72.6535 16.6757C72.5335 16.6754 72.4202 16.6617 72.3136 16.6347C72.1138 16.5808 71.9541 16.4803 71.8346 16.3333C71.715 16.1862 71.6556 16.0127 71.6562 15.8127L71.6564 15.7527C71.6575 15.3927 71.845 15.12 72.2189 14.9344C72.3925 14.8683 72.5726 14.8355 72.7592 14.836L72.9992 14.8567C74.3724 14.8742 75.7257 14.8916 77.059 14.9089C78.4057 14.9129 79.7657 14.917 81.139 14.9211L82.499 14.9252C82.739 14.9259 83.0056 14.96 83.2987 15.0276C83.5251 15.0949 83.6981 15.2088 83.8176 15.3691C83.9505 15.5162 84.0166 15.6897 84.016 15.8897L83.9956 16.0297C83.9682 16.2429 83.8744 16.4227 83.7139 16.5688C83.5535 16.7017 83.3466 16.7744 83.0932 16.787L81.3332 16.7817C81.1732 16.7812 81.0465 16.7875 80.9532 16.8006C80.8732 16.8003 80.8131 16.8202 80.773 16.86C80.7329 16.8999 80.6993 16.9665 80.6724 17.0597C80.6588 17.1397 80.6451 17.2597 80.6312 17.4196C80.4808 18.6325 80.3837 19.8522 80.3399 21.0788C80.3095 22.292 80.2924 23.5053 80.2886 24.7186L80.2784 27.9986C80.2637 28.4652 80.2489 28.9385 80.234 29.4185C80.2326 29.8851 80.2312 30.3518 80.2297 30.8185C80.2278 31.4451 80.2325 32.0718 80.2439 32.6985C80.2553 33.3119 80.2867 33.932 80.3381 34.5588C80.3894 35.2123 80.4141 35.859 80.4121 36.499C80.4101 37.1524 80.4614 37.8059 80.566 38.4595C80.5792 38.4995 80.5858 38.5396 80.5856 38.5796C80.5855 38.6329 80.5853 38.6796 80.5852 38.7196L80.564 39.0995C80.5232 39.3794 80.4292 39.5991 80.282 39.7587C80.1482 39.9183 79.9412 40.0176 79.6611 40.0568C79.3409 40.1092 79.0208 40.1482 78.7007 40.1739C78.3806 40.1996 78.0606 40.212 77.7406 40.2111ZM92.3912 38.3549C93.3519 38.1578 94.1526 37.9069 94.7936 37.6021C95.4345 37.3107 95.8557 36.932 96.0571 36.4659C96.1511 36.2662 96.2117 36.0597 96.239 35.8464C96.2797 35.6332 96.3004 35.4199 96.301 35.2066L96.2828 34.6466C96.2177 34.1397 96.1725 33.6462 96.1473 33.1661C96.1355 32.6728 96.1038 32.1727 96.052 31.6659C95.9745 30.8523 95.5169 30.0842 94.6791 29.3617C94.4664 29.1744 94.1801 29.0402 93.8204 28.9592C93.474 28.8781 93.1008 28.817 92.7009 28.7758C92.6476 28.7623 92.581 28.7554 92.501 28.7552C92.2743 28.7545 92.1474 28.8275 92.1203 28.9741L92.0386 29.5338C91.9977 29.827 91.9568 30.1202 91.9159 30.4135C91.875 30.6933 91.8541 30.9799 91.8532 31.2733C91.8528 31.4066 91.859 31.5466 91.8719 31.6933C91.8848 31.8267 91.9044 31.9601 91.9307 32.0935C91.9298 32.3735 91.9489 32.6536 91.988 32.9337C91.9993 33.6004 92.0105 34.2804 92.0217 34.9738C92.0329 35.6672 92.0775 36.3406 92.1555 36.9942C92.1815 37.2076 92.2075 37.421 92.2335 37.6344C92.2594 37.8612 92.312 38.1013 92.3912 38.3549ZM90.0477 26.5878L90.2077 26.5883L92.2276 26.6344C92.6675 26.649 93.0874 26.6903 93.4872 26.7581C93.887 26.826 94.2801 26.9139 94.6664 27.0217C95.2792 27.1835 95.7651 27.425 96.1242 27.746C96.6294 28.2009 97.0146 28.6821 97.2797 29.1895C97.5448 29.697 97.7365 30.2109 97.8549 30.7312C97.9602 31.1849 98.0121 31.6384 98.0107 32.0917C98.0227 32.5318 98.0746 32.9719 98.1666 33.4122L98.143 34.5721L98.1608 35.2722L98.1799 35.5722C98.1789 35.8789 98.1447 36.1788 98.0771 36.4719C98.0095 36.7784 97.9219 37.0848 97.8143 37.3912C97.6798 37.7508 97.4388 38.0767 97.0912 38.369C96.757 38.6613 96.3628 38.9401 95.9086 39.2055C95.2675 39.5769 94.56 39.8481 93.7861 40.0191C93.0122 40.1901 92.1653 40.2743 91.2453 40.2715L90.8054 40.2502L88.4056 40.163L87.8056 40.1612C87.7123 40.1609 87.6123 40.1406 87.5058 40.1003C87.4126 40.0734 87.3127 40.0397 87.2061 39.9994C86.8466 39.8517 86.661 39.4978 86.6494 38.9377C86.5755 36.9642 86.5149 35.004 86.4676 33.0572C86.4427 32.4971 86.4245 31.9304 86.4129 31.357L86.3937 31.1169C86.3808 30.9569 86.3746 30.8035 86.3751 30.6569C86.3757 30.4569 86.383 30.2636 86.3969 30.0769C86.3865 29.1169 86.3828 28.1569 86.3858 27.1969C86.3881 26.4636 86.3904 25.7236 86.3927 24.9769C86.4083 24.2303 86.4374 23.4504 86.4799 22.6371C86.5098 21.5972 86.5263 20.5706 86.5295 19.5573C86.5326 18.544 86.5425 17.5173 86.559 16.4774C86.5739 15.9841 86.6284 15.6176 86.7224 15.3778C86.7359 15.3512 86.7426 15.3246 86.7427 15.2979C86.8235 15.0315 86.9973 14.8853 87.2641 14.8595C88.2242 14.809 89.171 14.7652 90.1045 14.728C91.0513 14.6775 92.0047 14.6537 92.9647 14.6565C93.3247 14.6576 93.6847 14.6654 94.0446 14.6798C94.4046 14.6808 94.7846 14.6953 95.1845 14.7232C95.6778 14.7513 96.1711 14.7661 96.6644 14.7676C97.1578 14.7558 97.6578 14.7572 98.1644 14.7721C98.4577 14.7863 98.6575 14.8536 98.7638 14.9739C98.8701 15.0809 98.9228 15.2877 98.9218 15.5944L98.8775 16.9942C98.8501 17.2208 98.7963 17.3807 98.716 17.4738C98.6357 17.5669 98.4889 17.6131 98.2756 17.6124L98.0156 17.6117C97.7489 17.6109 97.4822 17.6167 97.2155 17.6293C96.9489 17.6285 96.6822 17.6277 96.4155 17.6269C96.3489 17.6267 96.2355 17.6263 96.0755 17.6259C95.9156 17.612 95.7223 17.6048 95.4956 17.6041C95.2823 17.5901 95.0557 17.5761 94.8157 17.5621C94.5891 17.5481 94.3625 17.5341 94.1358 17.52C93.9092 17.506 93.6959 17.4987 93.4959 17.4981C93.3093 17.4842 93.1626 17.4771 93.056 17.4768C92.7893 17.476 92.5293 17.4819 92.2759 17.4945C92.0226 17.4937 91.7625 17.5063 91.4958 17.5321C91.4424 17.5453 91.3424 17.5517 91.1957 17.5512C91.0491 17.5508 90.8957 17.5503 90.7357 17.5499L90.2157 17.5483C90.2148 17.8416 90.2206 18.135 90.233 18.4284C90.2446 18.9751 90.2496 19.5218 90.2479 20.0684C90.2475 20.2151 90.2401 20.4551 90.2257 20.7884C90.2113 21.1216 90.1968 21.5083 90.1821 21.9482C90.1807 22.3882 90.166 22.8549 90.1378 23.3481C90.1229 23.8414 90.1081 24.3214 90.0933 24.788C90.0918 25.2546 90.0839 25.6813 90.0693 26.0679C90.0687 26.2546 90.0615 26.4279 90.0477 26.5878ZM108.21 38.2623C108.504 38.2632 108.764 38.0639 108.992 37.6646C109.086 37.4916 109.16 37.3185 109.214 37.1453C109.281 36.9855 109.348 36.8124 109.415 36.6259C109.9 35.134 110.258 33.6284 110.489 32.1091C110.734 30.5898 110.886 29.0369 110.944 27.4504L110.944 27.3104C110.949 25.6438 110.801 24.0433 110.499 22.5091C110.211 20.9615 109.815 19.4203 109.314 17.8855C109.287 17.8188 109.261 17.7587 109.234 17.7053C109.208 17.6518 109.181 17.5918 109.155 17.525C108.929 17.1643 108.63 16.9834 108.256 16.9823C108.11 16.9819 107.956 17.0214 107.796 17.101C107.649 17.1672 107.522 17.2735 107.415 17.4198C107.187 17.7258 107.013 18.0453 106.892 18.3783C106.771 18.7112 106.663 19.0509 106.569 19.3973C106.285 20.5298 106.088 21.6692 105.978 22.8155C105.868 23.9485 105.778 25.1016 105.708 26.2747C105.68 26.5413 105.666 26.8079 105.665 27.0746C105.664 27.3413 105.663 27.6079 105.663 27.8746C105.658 29.4079 105.76 30.8816 105.969 32.2955C106.178 33.7095 106.48 35.1171 106.876 36.5183C106.942 36.7451 107.014 36.9587 107.094 37.1589C107.173 37.3725 107.286 37.5728 107.432 37.76C107.684 38.094 107.944 38.2615 108.21 38.2623ZM104.664 40.1917C104.358 40.1908 104.085 40.1166 103.845 39.9692C103.619 39.8352 103.399 39.6679 103.187 39.4672C102.841 39.1329 102.569 38.7654 102.37 38.3648C102.185 37.9642 102.026 37.5438 101.894 37.1034C101.459 35.5821 101.13 34.0611 100.908 32.5404C100.699 31.0064 100.598 29.4195 100.603 27.7795C100.605 27.1395 100.627 26.4862 100.669 25.8196C100.739 24.6332 100.843 23.4668 100.98 22.3206C101.117 21.161 101.327 20.0083 101.61 18.8624C101.921 17.6767 102.457 16.645 103.22 15.7672C103.381 15.5677 103.555 15.4082 103.742 15.2888C103.929 15.1694 104.155 15.0967 104.422 15.0708C104.782 15.0453 105.142 15.0197 105.502 14.9941C105.863 14.9685 106.229 14.9563 106.603 14.9574C107.029 14.9586 107.449 14.9866 107.862 15.0411C108.276 15.0824 108.689 15.1636 109.102 15.2849C109.621 15.4331 110.04 15.681 110.359 16.0286C110.678 16.3762 110.917 16.8036 111.075 17.3108C111.445 18.4852 111.768 19.6662 112.044 20.8537C112.334 22.0279 112.537 23.2352 112.653 24.4755C112.692 24.8756 112.724 25.2757 112.749 25.6758C112.788 26.0626 112.807 26.4493 112.806 26.836L112.804 27.276C112.732 29.0225 112.567 30.722 112.309 32.3745C112.064 34.0138 111.679 35.6327 111.154 37.2311C111.086 37.4576 111.012 37.6707 110.932 37.8704C110.851 38.0835 110.757 38.2899 110.65 38.4896C110.207 39.4216 109.458 39.9594 108.405 40.1029C108.071 40.1552 107.738 40.1875 107.404 40.1999C107.084 40.2123 106.758 40.2179 106.424 40.2169L104.664 40.1917ZM122.132 14.9639C122.492 14.9649 122.852 14.986 123.212 15.0271C123.572 15.0548 123.925 15.0959 124.271 15.1503C124.938 15.2323 125.464 15.4872 125.849 15.915C126.248 16.3429 126.539 16.8637 126.724 17.4776C126.883 17.9848 126.988 18.4984 127.039 19.0186C127.105 19.5254 127.15 20.0389 127.175 20.559L127.497 26.34C127.523 26.5934 127.535 26.9868 127.533 27.5201C127.532 28.0401 127.53 28.5601 127.528 29.0801C127.527 29.5068 127.526 29.8868 127.525 30.2201C127.524 30.5401 127.516 30.7467 127.503 30.84C127.445 32.4265 127.367 33.873 127.269 35.1793C127.185 36.4858 127.081 37.7655 126.957 39.0184C126.903 39.4449 126.782 39.7446 126.595 39.9173C126.407 40.0901 126.094 40.1892 125.654 40.2145C125.307 40.2402 124.954 40.2591 124.594 40.2714C124.247 40.297 123.9 40.3093 123.553 40.3082C123.42 40.3078 123.293 40.3075 123.173 40.3071C123.053 40.3067 122.927 40.2997 122.794 40.286C122.327 40.2446 122.001 40.1436 121.814 39.983C121.642 39.8358 121.556 39.5623 121.557 39.1623L121.578 38.8423C121.633 38.2158 121.689 37.596 121.744 36.9828C121.799 36.3696 121.848 35.7431 121.89 35.1032C121.945 34.3034 121.995 33.5102 122.037 32.7237C122.079 31.9238 122.122 31.1239 122.164 30.324L122.166 29.964C122.166 29.7507 122.16 29.484 122.148 29.164C122.149 28.8306 122.143 28.4973 122.131 28.1639C122.132 27.8173 122.127 27.4906 122.114 27.1839C122.115 26.8639 122.109 26.6105 122.096 26.4238C122.033 25.4103 121.976 24.4034 121.926 23.4033C121.876 22.3898 121.819 21.363 121.755 20.3228C121.73 20.0427 121.697 19.7626 121.658 19.4825C121.632 19.2024 121.6 18.9223 121.561 18.6422C121.548 18.5355 121.528 18.4354 121.502 18.342C121.475 18.2353 121.449 18.1285 121.423 18.0218C121.343 17.7949 121.231 17.5945 121.084 17.4207C120.952 17.2337 120.765 17.1198 120.525 17.0791L120.386 17.0586C120.172 17.058 119.992 17.1308 119.845 17.277C119.711 17.4233 119.584 17.5896 119.463 17.7759C119.142 18.2816 118.893 18.8142 118.718 19.3737C118.543 19.9331 118.382 20.4993 118.233 21.0722C117.963 22.2181 117.773 23.3575 117.662 24.4905C117.552 25.6235 117.482 26.77 117.452 27.9299C117.451 28.1032 117.451 28.2766 117.45 28.4499C117.45 28.6099 117.436 28.7765 117.409 28.9498C117.313 29.7228 117.244 30.5026 117.201 31.2892C117.159 32.0757 117.13 32.869 117.114 33.6689C117.098 34.4556 117.089 35.2555 117.087 36.0689C117.084 36.8822 117.075 37.7088 117.059 38.5488C117.058 38.6955 117.051 38.8354 117.038 38.9687C117.037 39.1154 117.023 39.262 116.996 39.4086C116.929 39.6751 116.815 39.8747 116.654 40.0076C116.507 40.1538 116.32 40.2266 116.094 40.2259L115.974 40.2255C115.441 40.1573 115.175 39.8165 115.177 39.2032C115.193 38.3899 115.208 37.6232 115.224 36.9033C115.239 36.1967 115.248 35.4967 115.25 34.8034C115.267 33.7901 115.297 32.7835 115.34 31.7836C115.383 30.7704 115.459 29.7573 115.569 28.7443C115.638 28.0511 115.674 27.3646 115.676 26.6846C115.691 25.9913 115.733 25.2914 115.802 24.585C115.912 23.5853 116.055 22.5924 116.231 21.6062C116.421 20.6201 116.677 19.6476 117 18.6885C117.122 18.3155 117.269 17.9627 117.444 17.6298C117.618 17.2837 117.806 16.9443 118.007 16.6115C118.248 16.1989 118.549 15.8865 118.91 15.6742C119.284 15.4487 119.691 15.2832 120.131 15.1779C120.465 15.0989 120.792 15.0465 121.112 15.0208C121.445 14.9818 121.785 14.9628 122.132 14.9639ZM131.32 40.2715C130.814 40.27 130.501 40.0024 130.383 39.4687C130.343 39.3352 130.323 39.2018 130.324 39.0685L129.931 30.4473C129.933 29.6606 129.942 28.9007 129.958 28.1674C129.959 27.8607 129.96 27.5474 129.961 27.2274C129.975 26.9074 129.983 26.6008 129.983 26.3074C129.998 26.0008 130.005 25.7208 130.006 25.4675C130.007 25.2142 130.008 24.9942 130.008 24.8075L130.01 24.2875C129.987 22.9141 129.978 21.5474 129.982 20.1874C129.987 18.8274 129.991 17.5007 129.995 16.2074C129.996 15.8474 130.063 15.581 130.197 15.408C130.344 15.2218 130.592 15.1092 130.938 15.0702C131.232 15.0445 131.518 15.0253 131.798 15.0128C132.079 15.0003 132.365 14.9945 132.659 14.9954C132.965 14.9963 133.279 15.0039 133.598 15.0182C133.918 15.0325 134.232 15.0534 134.538 15.081C134.885 15.1087 135.138 15.2161 135.297 15.4033C135.457 15.5771 135.556 15.8374 135.595 16.1842C135.608 16.2909 135.614 16.4109 135.614 16.5442C135.613 16.6642 135.613 16.7776 135.613 16.8842C135.608 18.4442 135.603 20.0309 135.598 21.6442C135.593 23.2442 135.595 24.8576 135.603 26.4843L135.601 26.9843C135.722 26.8779 135.795 26.7782 135.822 26.6849C135.863 26.5917 135.896 26.4985 135.923 26.4052C136.475 24.7935 137.067 23.122 137.699 21.3905C138.331 19.6457 139.003 17.8944 139.715 16.1365C139.769 16.03 139.816 15.9235 139.856 15.8169C139.896 15.6971 139.95 15.5839 140.017 15.4774C140.205 15.2113 140.465 15.0788 140.798 15.0798C140.838 15.0799 140.878 15.08 140.918 15.0801C140.972 15.0803 141.025 15.0938 141.078 15.1206C141.464 15.2684 141.657 15.5623 141.655 16.0023C141.655 16.149 141.635 16.2823 141.594 16.4022C141.554 16.522 141.507 16.6486 141.453 16.7817C140.701 18.6462 139.988 20.4974 139.316 22.3354C138.657 24.1601 138.038 25.9315 137.459 27.6498C137.311 28.076 137.157 28.4956 136.995 28.9084C136.848 29.308 136.686 29.7075 136.512 30.107C136.445 30.2801 136.411 30.42 136.41 30.5267C136.41 30.66 136.463 30.8202 136.569 31.0072C137.311 32.3427 138.014 33.5582 138.678 34.6535C139.354 35.7622 140.071 36.8044 140.828 37.78C141.001 38.0071 141.213 38.2078 141.466 38.3819C141.533 38.4221 141.592 38.4622 141.646 38.5024C141.712 38.5559 141.779 38.6095 141.845 38.663C142.071 38.8637 142.184 39.104 142.183 39.384C142.182 39.5707 142.129 39.7372 142.021 39.8835C141.847 40.1497 141.6 40.2823 141.28 40.2813C141.174 40.281 141.04 40.2473 140.881 40.1801C140.561 40.0325 140.275 39.845 140.022 39.6176C139.77 39.3901 139.53 39.1361 139.305 38.8554C138.8 38.1739 138.302 37.4657 137.811 36.7309C137.32 35.9961 136.823 35.128 136.319 34.1264C136.253 33.9929 136.173 33.866 136.08 33.7457C135.988 33.6121 135.875 33.4518 135.742 33.2647C135.728 33.4513 135.721 33.6246 135.72 33.7846C135.72 33.9446 135.719 34.1046 135.719 34.2646C135.718 34.6113 135.723 34.938 135.736 35.2447C135.761 35.5648 135.787 35.8782 135.813 36.1849C135.851 36.6384 135.883 37.0918 135.909 37.5452C135.934 37.9986 135.946 38.452 135.944 38.9053L135.943 39.2253C135.916 39.5853 135.822 39.845 135.661 40.0045C135.514 40.1774 135.267 40.27 134.92 40.2823C134.667 40.2949 134.413 40.3008 134.16 40.3C133.907 40.2992 133.653 40.2985 133.4 40.2977L131.32 40.2715ZM152.348 40.3545C152.041 40.3402 151.808 40.2528 151.648 40.0924C151.489 39.9452 151.409 39.7383 151.41 39.4717L151.451 39.1718C151.505 38.9453 151.533 38.7187 151.533 38.492C151.547 38.2654 151.568 38.0388 151.595 37.8122C151.623 37.5323 151.644 37.1323 151.659 36.6124C151.687 36.0925 151.709 35.5192 151.724 34.8926C151.753 34.2793 151.768 33.646 151.77 32.9927C151.786 32.3261 151.794 31.7128 151.796 31.1528C151.811 30.5795 151.819 30.0862 151.821 29.6728C151.835 29.2595 151.843 28.9929 151.843 28.8729C151.845 28.2596 151.84 27.6129 151.829 26.9328C151.818 26.2395 151.813 25.5328 151.816 24.8128L151.817 24.2928C151.818 24.2128 151.791 24.1661 151.738 24.1526C151.671 24.2057 151.624 24.2722 151.597 24.3521C151.584 24.4188 151.563 24.492 151.536 24.572C151.267 25.5445 150.997 26.517 150.727 27.4896C150.458 28.4621 150.175 29.4346 149.878 30.407C149.488 31.6992 149.124 32.9848 148.786 34.2638C148.449 35.5428 148.032 36.7549 147.535 37.9C147.401 38.2063 147.273 38.5059 147.152 38.7989C147.031 39.0919 146.897 39.3781 146.75 39.6577C146.535 40.0971 146.221 40.3161 145.808 40.3149L145.508 40.274C144.935 40.1523 144.629 39.7647 144.591 39.1112C144.592 39.0312 144.592 38.9512 144.592 38.8712C144.606 38.7913 144.619 38.7113 144.633 38.6314C144.717 37.1383 144.815 35.6186 144.927 34.0722C145.052 32.5126 145.177 30.9396 145.302 29.3533C145.413 27.9403 145.49 26.5405 145.535 25.154C145.579 23.7541 145.603 22.3475 145.608 20.9342C145.609 20.3875 145.611 19.8475 145.613 19.3142C145.614 18.7809 145.609 18.2675 145.597 17.7741L145.583 16.0141C145.597 15.7475 145.678 15.541 145.825 15.3948C145.985 15.2353 146.186 15.1426 146.426 15.1166L146.466 15.1167C146.692 15.1174 146.886 15.1847 147.045 15.3185C147.205 15.4523 147.311 15.6459 147.363 15.8994C147.39 16.0328 147.402 16.1662 147.402 16.2995C147.402 16.4329 147.408 16.5662 147.421 16.6996C147.446 17.0463 147.459 17.4197 147.457 17.8197C147.469 18.2064 147.475 18.5998 147.474 18.9998L147.443 22.5997C147.438 24.133 147.386 25.6529 147.288 27.1593C147.19 28.6656 147.086 30.1787 146.974 31.6983C146.947 31.8849 146.926 32.0782 146.913 32.2782C146.899 32.4648 146.891 32.6581 146.891 32.8581C146.89 32.9781 146.897 33.1048 146.91 33.2381C146.923 33.3582 146.942 33.4849 146.968 33.6183C147.009 33.5118 147.049 33.4119 147.089 33.3187C147.13 33.2255 147.163 33.1256 147.19 33.019C147.419 32.2463 147.642 31.4803 147.857 30.721C148.086 29.9617 148.309 29.1957 148.524 28.423C149.104 26.358 149.677 24.3131 150.244 22.2881C150.823 20.2498 151.27 18.1911 151.583 16.1121C151.624 15.8055 151.718 15.5791 151.865 15.4329C152.025 15.2867 152.272 15.2008 152.606 15.1751C152.992 15.1496 153.372 15.1307 153.746 15.1185C154.119 15.1063 154.499 15.1008 154.886 15.1019C155.446 15.1036 155.992 15.1253 156.526 15.1669C156.846 15.1945 157.092 15.3019 157.265 15.4891C157.451 15.6763 157.543 15.9232 157.542 16.2299L157.541 16.6899C157.54 17.0232 157.546 17.3566 157.558 17.69C157.57 18.01 157.576 18.3367 157.575 18.67L157.574 19.07C157.545 19.6699 157.53 20.2899 157.528 20.9299C157.526 21.5699 157.524 22.2165 157.522 22.8699C157.52 23.5899 157.517 24.3032 157.515 25.0099C157.526 25.7032 157.544 26.41 157.569 27.13L157.586 28.0701L157.585 28.3901C157.584 28.6168 157.576 28.9301 157.562 29.33C157.561 29.7167 157.553 30.15 157.538 30.63C157.523 31.1099 157.508 31.6232 157.493 32.1698C157.478 32.7031 157.463 33.2297 157.448 33.7497C157.446 34.2564 157.438 34.7363 157.424 35.1896C157.409 35.6563 157.401 36.0496 157.4 36.3696C157.399 36.7829 157.377 37.1895 157.336 37.5894C157.295 38.0026 157.26 38.4158 157.232 38.8291C157.232 39.0691 157.191 39.309 157.11 39.5487C156.962 40.0549 156.628 40.3073 156.108 40.3057C155.481 40.3172 154.854 40.3286 154.228 40.3401C153.614 40.3516 152.988 40.3564 152.348 40.3545Z" fill="white"/>
</svg>
