<svg width="146" height="127" viewBox="0 0 146 127" fill="none" xmlns="http://www.w3.org/2000/svg">
<path d="M16.7906 34.9587L17.2525 28.795L28.1864 11.0025C31.223 9.58725 39.2972 8.05084 47.3011 13.227C57.306 19.6972 69.7712 26.6688 80.5465 35.0775C91.3217 43.4863 102.96 52.004 106.796 54.9014C110.633 57.7987 126.567 69.018 129.686 75.4435C132.181 80.5838 132.925 87.3866 132.984 90.1455C132.323 90.1889 130.961 90.842 130.798 93.1071C130.635 95.3722 129.406 98.1163 128.812 99.2052C127.845 99.3793 125.808 99.8668 125.396 100.424C124.882 101.121 121.118 98.5506 122.293 100.794C123.232 102.589 122.095 104.896 121.409 105.825C119.352 105.629 114.567 104.783 111.88 102.971C109.192 101.158 106.476 100.066 105.454 99.7461L104.425 101.14C105.465 102.287 107.252 104.468 106.077 104.015C104.608 103.449 104.04 101.662 102.644 101.423C101.249 101.183 99.0634 101.161 100.018 102.424C100.153 103.026 100.399 103.461 100.679 103.77C101.142 103.989 101.626 104.248 101.982 104.45C101.669 104.437 101.13 104.266 100.679 103.77C99.8944 103.398 99.1722 103.14 99.246 103.469C99.3633 103.992 100.347 105.386 100.824 106.018L101.062 107.826L97.8312 105.386C96.0543 104.044 95.646 105.364 95.664 106.191C95.1071 105.952 93.7621 105.189 92.8371 104.057C91.6809 102.641 91.9008 103.621 89.3491 101.965C87.3077 100.641 80.287 95.2119 77.0318 92.6632C77.4725 92.6342 77.9905 92.3018 76.5366 91.2038C74.7193 89.8314 74.5174 89.6789 72.039 88.35C69.5606 87.021 54.2698 74.9307 47.4044 69.746L37.5102 62.2739C33.918 60.4656 25.5882 55.9298 21.0064 52.2526C15.2793 47.6561 11.5174 42.1016 11.646 41.9274C11.7489 41.788 11.3837 40.0107 11.1882 39.1395C11.5123 39.8365 12.2891 41.0563 12.8036 40.3594C13.318 39.6625 13.7417 36.8167 13.8892 35.4809L16.7906 34.9587Z" fill="#FDA3C4"/>
<path d="M13.296 47.7865C12.6499 47.2985 12.1085 47.9751 11.9186 48.3743L10.4774 47.5574C9.40929 47.6552 7.41987 47.9075 8.00737 48.1341C8.59489 48.3607 9.80669 48.6789 10.3392 48.8097C10.7799 48.7807 12.9536 49.6987 18.1229 53.6025C24.5844 58.4822 24.2359 57.6763 24.8416 58.1338C25.4474 58.5912 14.1037 48.3964 13.296 47.7865Z" fill="#FDA3C4"/>
<path d="M42.6231 54.3846C42.5026 54.301 42.4104 54.1883 42.3464 54.0465C42.2041 53.7368 42.2316 53.4394 42.429 53.1545C42.4898 53.0668 42.5408 53.0048 42.5821 52.9686C42.6496 52.918 42.717 52.8674 42.7845 52.8169C42.8553 52.7849 42.9207 52.7491 42.9805 52.7095C44.1585 51.9689 45.3976 51.2221 46.6977 50.4689C48.0013 49.7344 49.3234 48.9964 50.664 48.2552C50.9667 48.0757 51.1902 47.8819 51.3344 47.6736C51.434 47.483 51.507 47.3308 51.5534 47.217C51.6074 47.0922 51.6522 46.969 51.6876 46.8476C52.1444 45.2982 52.6303 43.7771 53.1453 42.2844C53.6602 40.7916 54.1617 39.33 54.6496 37.8996C54.8404 37.3666 55.0586 36.8526 55.3041 36.3576C55.5606 35.8702 55.7678 35.3486 55.9257 34.7928C55.9418 34.7228 55.9633 34.6566 55.9903 34.5942C56.0173 34.5317 56.0498 34.4731 56.0878 34.4183C56.2472 34.1882 56.4715 34.0517 56.7606 34.0089C57.0498 33.9661 57.3591 34.0347 57.6886 34.2147C57.9667 34.3752 58.2372 34.5466 58.5001 34.7291C58.763 34.9115 59.0297 35.0885 59.3002 35.26C59.4207 35.3436 59.5374 35.4327 59.6503 35.5273C59.7632 35.6218 59.8799 35.7109 60.0004 35.7945C60.2228 35.9651 60.3922 36.107 60.5084 36.2201C60.6247 36.3333 60.7039 36.4531 60.7459 36.5797C60.788 36.7063 60.7909 36.8544 60.7546 37.0239C60.7292 37.201 60.6789 37.4258 60.6038 37.6982C60.5522 37.8897 60.486 38.079 60.405 38.2663C60.3425 38.4501 60.2653 38.6319 60.1733 38.8115C59.8501 39.5123 59.5349 40.2835 59.2276 41.1252C58.9389 41.9635 58.6417 42.8609 58.3361 43.8173C58.4617 43.8233 58.586 43.796 58.7091 43.7353C58.8508 43.6713 58.9831 43.609 59.1062 43.5484C60.156 42.946 61.1961 42.3694 62.2264 41.8186C63.2677 41.2753 64.2146 40.7395 65.067 40.2113C65.2281 40.0958 65.3921 40.023 65.559 39.9927C65.8186 39.9457 66.0416 39.9868 66.2278 40.116C66.3154 40.1769 66.3917 40.2541 66.4565 40.3478C66.6621 40.6365 66.6788 40.9402 66.5066 41.259L66.4383 41.3576C66.3168 41.533 66.1794 41.6729 66.0259 41.7774C65.8724 41.8819 65.7135 41.9826 65.5491 42.0794C64.582 42.6093 63.5512 43.1842 62.4568 43.8042C61.3623 44.4242 60.2346 45.0455 59.0736 45.6679C58.5955 45.9367 58.2312 46.1464 57.9808 46.2972C57.738 46.4371 57.5406 46.6166 57.3888 46.8358C57.2749 47.0002 57.1732 47.2056 57.0837 47.4518C57.0019 47.6871 56.9174 47.9612 56.8304 48.2741C56.4851 49.3815 56.1272 50.472 55.7566 51.5457C55.3969 52.6269 55.0482 53.7157 54.7105 54.8121C54.4513 55.6547 54.2216 56.5015 54.0214 57.3526C53.8212 58.2036 53.6761 59.0686 53.5863 59.9476C53.5661 60.0471 53.5441 60.1374 53.5205 60.2183C53.4968 60.2993 53.4584 60.3782 53.4053 60.4549C53.2762 60.6412 53.0928 60.7655 52.8551 60.8277C52.6173 60.89 52.359 60.8649 52.08 60.7524C51.823 60.6552 51.5757 60.5323 51.338 60.3836C51.0928 60.2459 50.8552 60.0972 50.6251 59.9376L49.1135 58.8886C48.8877 58.6994 48.7306 58.493 48.6422 58.2694C48.5647 58.0533 48.5581 57.8053 48.6223 57.5253C48.8571 56.6009 49.0679 55.676 49.2547 54.7507C49.4414 53.8254 49.6927 52.9124 50.0084 52.0117C50.0979 51.7654 50.1836 51.5246 50.2654 51.2893C50.3473 51.054 50.3862 50.8457 50.3821 50.6643C50.2346 50.6431 50.114 50.6649 50.0204 50.7298C49.9344 50.7837 49.8391 50.8393 49.7346 50.8966C48.7675 51.4265 47.8282 51.9513 46.9167 52.471C46.0086 53.0093 45.1507 53.5338 44.3429 54.0444C44.197 54.1379 44.0549 54.2259 43.9166 54.3085C43.7708 54.402 43.6106 54.4694 43.4361 54.5106C43.1351 54.5938 42.8641 54.5519 42.6231 54.3846ZM77.9846 48.6885C78.0132 48.7408 78.0271 48.791 78.0263 48.8391C78.0581 49.1209 77.9412 49.4536 77.6755 49.8372L77.1808 50.5163C76.9151 50.9 76.6586 51.2819 76.4114 51.6622C76.1752 52.0501 75.9352 52.4434 75.6914 52.8422C75.6382 52.919 75.5526 53.0543 75.4345 53.2482C75.3282 53.4017 75.1764 53.6209 74.979 53.9059C74.8001 54.1875 74.5589 54.5475 74.2552 54.986C73.9515 55.4244 73.574 55.9577 73.1228 56.5858C72.69 57.2106 72.1721 57.9466 71.5689 58.794C70.9658 59.6413 70.2661 60.6164 69.4698 61.7192C68.6921 62.8186 67.8064 64.0622 66.8127 65.45C66.5512 65.8041 66.2771 66.1414 65.9903 66.4617C65.696 66.793 65.3835 67.1036 65.0529 67.3935C64.8539 67.5638 64.6465 67.6876 64.4306 67.7651C64.2258 67.8501 64.0011 67.9052 63.7566 67.9303C63.2753 67.9695 62.8155 67.9426 62.3772 67.8494C61.9314 67.7672 61.5112 67.5893 61.1169 67.3156L60.9526 67.2016C60.6316 66.9626 60.3105 66.7236 59.9895 66.4846C59.6718 66.2642 59.3563 66.0289 59.0428 65.779C58.7294 65.529 58.4273 65.2626 58.1367 64.9797C57.8569 64.7045 57.6 64.3964 57.3659 64.0553C56.8579 63.3134 56.5389 62.5564 56.4086 61.7844C56.2817 61.0309 56.4199 60.2342 56.8233 59.3943C56.9887 59.0384 57.1612 58.6957 57.341 58.366C57.5316 58.0438 57.7332 57.7293 57.9458 57.4224C58.0749 57.2361 58.2056 57.0591 58.3381 56.8913C58.4705 56.7235 58.6177 56.5579 58.7796 56.3943C58.998 56.1726 59.1962 55.945 59.3742 55.7115C59.5707 55.4746 59.7672 55.2377 59.9638 55.0008C60.0203 54.9426 60.0713 54.8807 60.1169 54.8149C60.17 54.7382 60.2265 54.68 60.2864 54.6404C60.4854 54.4702 60.6924 54.3704 60.9073 54.341C61.1223 54.3117 61.3229 54.3616 61.5091 54.4908L61.5913 54.5478C61.7623 54.699 61.8587 54.8876 61.8805 55.1137C61.9209 55.3365 61.8651 55.5575 61.7133 55.7767L61.6677 55.8424C61.456 56.1013 61.2443 56.3601 61.0326 56.6189C60.8285 56.8668 60.6096 57.1125 60.376 57.3561C60.2099 57.5492 60.0437 57.7422 59.8776 57.9353C59.7299 58.125 59.584 58.3239 59.4398 58.5322C59.25 58.8062 59.0711 59.0878 58.9032 59.377C58.7463 59.6739 58.6003 59.9783 58.4653 60.2903C58.1564 61.0173 58.1716 61.7095 58.511 62.3669C58.6146 62.5686 58.7295 62.7539 58.8559 62.9227C58.9856 63.1101 59.1284 63.2904 59.2842 63.4634C59.3929 63.5875 59.5075 63.6914 59.628 63.775C59.9238 63.9803 60.2293 64.0543 60.5446 63.9972C60.8632 63.9587 61.16 63.7995 61.4349 63.5196C61.6045 63.3451 61.7685 63.1668 61.9271 62.9847C62.0856 62.8027 62.2387 62.6168 62.3863 62.4271C63.2822 61.1337 64.1949 59.8277 65.1245 58.509C65.5117 57.95 65.9216 57.3581 66.3544 56.7334C66.7871 56.1086 67.2291 55.4821 67.6804 54.854L67.874 54.5745C67.6179 54.4292 67.371 54.2822 67.1333 54.1335C66.8519 53.9545 66.5687 53.7661 66.2839 53.5685C65.9882 53.3632 65.6962 53.1525 65.408 52.9363C65.1199 52.7201 64.841 52.5022 64.5713 52.2826C64.0464 51.8697 63.6728 51.4725 63.4504 51.091C63.2391 50.7171 63.1288 50.3728 63.1197 50.0581C63.1173 49.7805 63.1495 49.5351 63.2162 49.3217C63.3014 49.1049 63.3976 48.8958 63.5048 48.6943L64.6603 46.4288C64.6992 46.3259 64.7831 46.1813 64.9122 45.995C65.0412 45.8087 65.1703 45.6223 65.2994 45.436C65.4056 45.2825 65.4968 45.151 65.5727 45.0414C65.6562 44.9208 65.7148 44.8479 65.7485 44.8226C66.1871 44.2831 66.5987 43.8059 66.9833 43.3912C67.3864 42.9731 67.7929 42.5735 68.2028 42.1926C68.3529 42.0695 68.5236 42.0338 68.7149 42.0854C68.9138 42.1261 69.1978 42.2663 69.5669 42.5062C69.8593 42.6929 70.1479 42.8851 70.4327 43.0827C70.7361 43.277 71.0302 43.473 71.315 43.6706L71.9394 44.1039C72.3076 44.3919 72.5439 44.6127 72.6484 44.7663C72.7637 44.9275 72.7721 45.0794 72.6734 45.2219L72.5773 45.3256C72.3816 45.5144 72.1859 45.7032 71.9903 45.892C71.7946 46.0808 71.6007 46.2789 71.4084 46.4863C71.1672 46.7408 70.9314 46.9992 70.7012 47.2614C70.4785 47.5126 70.2483 47.7748 70.0104 48.0479L69.9307 48.163C69.8775 48.2397 69.8092 48.3384 69.7257 48.459C69.6532 48.5871 69.5751 48.7115 69.4916 48.8321C69.419 48.9602 69.3448 49.0791 69.2689 49.1887C69.2039 49.3059 69.1541 49.4012 69.1195 49.4746C68.9238 49.8743 68.7225 50.2702 68.5158 50.6623C68.3091 51.0545 68.1079 51.4504 67.9121 51.8501C67.8581 51.9749 67.8079 52.0942 67.7614 52.2081C67.726 52.3295 67.6905 52.451 67.6551 52.5724C67.6432 52.6129 67.6331 52.6627 67.6246 52.7217C67.6238 52.7698 67.6229 52.8179 67.622 52.866C67.627 52.9993 67.6615 53.1368 67.7255 53.2786C67.808 53.417 67.9403 53.5656 68.1223 53.7244L68.3523 53.884L70.22 51.1876C70.8121 50.3327 71.3322 49.5819 71.7801 48.9352C72.2356 48.2775 72.5642 47.7915 72.7658 47.4769L73.0847 47.0166C73.1454 46.9289 73.1986 46.8522 73.2441 46.7864C73.2973 46.7097 73.3559 46.6368 73.42 46.5676C73.9336 45.9666 74.501 45.8734 75.122 46.2881L75.9549 46.8418C76.4479 47.1839 76.9294 47.5424 77.3996 47.9173L77.531 48.0085C77.8664 48.2737 78.0176 48.5004 77.9846 48.6885ZM72.4782 72.2054L73.4476 72.8782C74.0275 72.9073 74.5847 72.8639 75.1192 72.748C76.0246 72.5648 76.8555 72.1027 77.612 71.3618C77.9544 71.0314 78.2732 70.6765 78.5685 70.2971C78.8746 69.9253 79.1606 69.5476 79.4263 69.164L80.1273 68.1168C80.7103 67.1581 81.3021 66.2217 81.9027 65.3077C82.5143 64.4013 83.117 63.4726 83.7109 62.5215C84.6777 60.9852 85.2716 59.32 85.4925 57.5258C85.5526 57.0643 85.4841 56.6598 85.287 56.312C85.1085 55.9609 84.8853 55.6275 84.6174 55.3118C84.5812 55.2704 84.5302 55.2269 84.4645 55.1813C84.2783 55.0521 84.0869 55.1059 83.8904 55.3428L83.0958 56.3495C82.6909 56.8637 82.2899 57.3725 81.8926 57.8759C81.4953 58.3792 81.1107 58.8994 80.7387 59.4364C80.5641 59.6885 80.3949 59.9444 80.2313 60.2041C80.0676 60.4638 79.9094 60.7273 79.7567 60.9947C79.3999 61.5098 79.0633 62.0309 78.7469 62.5579C77.9076 63.7931 77.053 65.0502 76.1833 66.3293C75.3212 67.5974 74.5016 68.8626 73.7247 70.1248L72.9704 71.3542C72.7992 71.6249 72.6351 71.9086 72.4782 72.2054ZM67.9342 69.2469C68.2211 68.7157 68.5298 68.1996 68.8605 67.6988C69.2832 67.0183 69.7096 66.3324 70.1399 65.641C70.7988 64.5727 71.4909 63.5031 72.2164 62.4323C72.9495 61.3505 73.669 60.3 74.3751 59.2806C74.5278 59.0133 74.686 58.7498 74.8496 58.4901C75.0209 58.2195 75.1938 57.9581 75.3684 57.706C75.5059 57.4606 75.6489 57.219 75.7974 56.9812C75.9535 56.7325 76.1112 56.4931 76.2707 56.2629C76.6958 55.6491 77.1391 55.0559 77.6005 54.4835C78.0728 53.9187 78.538 53.3407 78.996 52.7497C79.3933 52.2464 79.8032 51.76 80.2257 51.2905C80.5201 50.9592 80.7971 50.77 81.0567 50.723C81.3273 50.6835 81.6581 50.7914 82.0491 51.0465C82.6078 51.4341 83.1534 51.829 83.6859 52.231C84.2294 52.6406 84.7728 53.0502 85.3163 53.4598C85.6626 53.7326 85.9621 54.0378 86.2148 54.3754C86.4751 54.7021 86.711 55.0524 86.9223 55.4263C87.2592 56.0171 87.4085 56.6563 87.3702 57.3438C87.3006 58.3342 87.1096 59.289 86.7972 60.2083C86.4925 61.1166 86.1123 62.005 85.6567 62.8736C85.2736 63.614 84.8467 64.324 84.376 65.0035C83.9238 65.6797 83.5008 66.3842 83.1067 67.117L81.8718 68.8648L81.1594 69.9285L80.857 70.4002C80.5381 70.8606 80.1956 71.2965 79.8296 71.7078C79.5049 72.083 79.1637 72.4467 78.8061 72.7991L78.8226 72.8105C78.8588 72.8518 78.8368 72.9421 78.7567 73.0812C78.6689 73.2313 78.4998 73.4872 78.2493 73.8489L77.0991 75.5095C77.5482 75.8211 78.0045 76.1459 78.4679 76.4837C78.778 76.7151 78.9574 76.9127 79.0062 77.0764C79.066 77.2477 79.0162 77.4484 78.8567 77.6786L78.0786 78.6966C77.9352 78.8568 77.797 78.9394 77.6638 78.9443C77.5306 78.9493 77.349 78.8719 77.1189 78.7123L76.8396 78.5185C76.5438 78.3132 76.2536 78.1118 75.9687 77.9141C75.6763 77.7275 75.3877 77.5353 75.1029 77.3377C75.0263 77.2844 74.9041 77.1915 74.7364 77.059C74.5611 76.9373 74.3623 76.7912 74.1398 76.6206C73.9098 76.461 73.6671 76.2845 73.4118 76.0911C73.1675 75.9053 72.9286 75.7233 72.6952 75.5451C72.4542 75.3779 72.2334 75.2165 72.0329 75.0612C71.8357 74.9243 71.6769 74.8141 71.5564 74.7305C71.2716 74.5328 70.9868 74.3352 70.702 74.1376C70.4205 73.9585 70.1353 73.7849 69.8462 73.6168L68.3674 72.5905C68.0059 72.3397 67.6314 72.096 67.2438 71.8595C66.8595 71.6415 66.4735 71.4143 66.0859 71.1777C65.8845 71.0704 65.6907 70.9521 65.5045 70.8229L65.2037 70.5898C64.8355 70.3019 64.7429 70.0023 64.926 69.6912C65.0289 69.5191 65.1318 69.3471 65.2348 69.1751C65.3377 69.0031 65.4461 68.8349 65.56 68.6705C65.5979 68.6157 65.6506 68.563 65.7181 68.5124C65.767 68.4652 65.8214 68.4218 65.8813 68.3822C66.1022 68.2272 66.3643 68.2468 66.6677 68.4411C67.0882 68.7004 67.5103 68.969 67.9342 69.2469ZM84.2606 83.3274C84.0163 83.1416 83.8739 82.9374 83.8336 82.7146C83.7856 82.5028 83.8376 82.2873 83.9894 82.0681L84.1931 81.8443C84.366 81.6884 84.517 81.5172 84.646 81.3309C84.786 81.1522 84.9315 80.9772 85.0825 80.8061C85.2638 80.5911 85.508 80.2737 85.8151 79.8538C86.1331 79.4416 86.476 78.9816 86.8437 78.4741C87.2149 77.9851 87.5864 77.4721 87.9585 76.935C88.349 76.3945 88.7037 75.8941 89.0226 75.4338C89.36 74.9701 89.6464 74.5683 89.8817 74.2285C90.128 73.8964 90.2853 73.6809 90.3537 73.5823C90.7029 73.0781 91.0656 72.5427 91.4419 71.9761C91.8257 71.3985 92.2226 70.8138 92.6326 70.2219L92.9287 69.7944C92.9742 69.7287 92.9789 69.6751 92.9426 69.6337C92.8575 69.6396 92.7812 69.6678 92.7137 69.7183C92.6648 69.7655 92.6066 69.8144 92.5392 69.865C91.7659 70.5131 90.9926 71.1612 90.2193 71.8093C89.446 72.4574 88.6617 73.0979 87.8665 73.7308C86.8124 74.5736 85.7841 75.4261 84.7814 76.2883C83.7787 77.1505 82.7482 77.9122 81.69 78.5736C81.4059 78.7497 81.131 78.9241 80.8654 79.0968C80.5998 79.2696 80.327 79.4292 80.0471 79.5758C79.6213 79.8158 79.2386 79.8181 78.899 79.5824L78.6753 79.3785C78.2726 78.953 78.2408 78.4603 78.58 77.9004C78.6255 77.8346 78.6711 77.7689 78.7166 77.7031C78.7731 77.6449 78.8296 77.5868 78.8861 77.5286C79.8022 76.3466 80.7443 75.1503 81.7126 73.9396C82.6995 72.7256 83.6939 71.5007 84.696 70.2647C85.5883 69.1637 86.4457 68.0546 87.2682 66.9375C88.0982 65.8094 88.9156 64.6645 89.7203 63.5026C90.0316 63.0532 90.3391 62.6093 90.6428 62.1709C90.9464 61.7324 91.2332 61.3067 91.5032 60.8935L92.4889 59.4353C92.6517 59.2237 92.8351 59.0994 93.0391 59.0624C93.2617 59.0221 93.4791 59.0594 93.6915 59.1743L93.7243 59.1971C93.9106 59.3263 94.0314 59.4914 94.087 59.6922C94.1425 59.893 94.12 60.1128 94.0196 60.3514C93.9656 60.4762 93.9006 60.5935 93.8247 60.7031C93.7488 60.8127 93.6784 60.9261 93.6134 61.0433C93.4379 61.3435 93.2363 61.658 93.0085 61.9868C92.7993 62.3123 92.5808 62.6394 92.3531 62.9682L90.2868 65.9163C89.4137 67.1768 88.5099 68.3997 87.5753 69.585C86.6408 70.7704 85.6969 71.9574 84.7438 73.1462C84.6156 73.2844 84.4891 73.4319 84.3642 73.5888C84.247 73.7346 84.1314 73.8897 84.0176 74.0541C83.9492 74.1528 83.8826 74.2607 83.8176 74.3779C83.7602 74.4842 83.7046 74.5997 83.6505 74.7245C83.7441 74.6596 83.8339 74.6002 83.9199 74.5463C84.006 74.4924 84.0903 74.4292 84.1729 74.3567C84.7995 73.8502 85.4168 73.3454 86.0248 72.8423C86.6437 72.3467 87.261 71.8419 87.8766 71.3278C89.5244 69.9557 91.1553 68.5963 92.7694 67.2495C94.402 65.8994 95.9364 64.4568 97.3727 62.9217C97.5802 62.6925 97.7859 62.5593 97.99 62.5224C98.2049 62.493 98.4569 62.5624 98.746 62.7305C99.0788 62.9291 99.4024 63.1293 99.7167 63.3311C100.031 63.533 100.347 63.7442 100.665 63.9646C101.125 64.2839 101.562 64.612 101.978 64.949C102.226 65.1533 102.368 65.3816 102.404 65.6339C102.451 65.8938 102.387 66.1498 102.212 66.4019L101.95 66.78C101.761 67.054 101.576 67.3319 101.397 67.6135C101.226 67.8841 101.046 68.1565 100.856 68.4305L100.628 68.7593C100.265 69.2374 99.9005 69.7394 99.5361 70.2656C99.1717 70.7917 98.8035 71.3233 98.4315 71.8604C98.0215 72.4522 97.6154 73.0386 97.213 73.6196C96.8292 74.1971 96.4432 74.7895 96.0552 75.3965L95.5363 76.1807L95.3541 76.4437C95.2251 76.6301 95.0412 76.8839 94.8025 77.2051C94.5823 77.5229 94.3301 77.8754 94.0458 78.2624C93.7616 78.6493 93.4583 79.0637 93.1361 79.5055C92.8215 79.9364 92.5106 80.3617 92.2036 80.7816C91.9151 81.1981 91.6363 81.5889 91.3672 81.9539C91.0905 82.33 90.8611 82.6495 90.6789 82.9126C90.4435 83.2524 90.1956 83.5753 89.9349 83.8813C89.6667 84.1983 89.404 84.519 89.1467 84.8436C89.0101 85.0409 88.8405 85.2154 88.6382 85.3671C88.2292 85.7 87.8111 85.7182 87.3839 85.4217C86.8614 85.0754 86.339 84.7291 85.8165 84.3828C85.3051 84.0441 84.7864 83.6923 84.2606 83.3274Z" fill="white"/>
</svg>
